<?xml version="1.0" encoding="utf-8" standalone="no"?>
<!DOCTYPE svg PUBLIC "-//W3C//DTD SVG 1.1//EN"
  "http://www.w3.org/Graphics/SVG/1.1/DTD/svg11.dtd">
<svg xmlns:xlink="http://www.w3.org/1999/xlink" width="460.8pt" height="345.6pt" viewBox="0 0 460.8 345.6" xmlns="http://www.w3.org/2000/svg" version="1.1">
 <metadata>
  <rdf:RDF xmlns:dc="http://purl.org/dc/elements/1.1/" xmlns:cc="http://creativecommons.org/ns#" xmlns:rdf="http://www.w3.org/1999/02/22-rdf-syntax-ns#">
   <cc:Work>
    <dc:type rdf:resource="http://purl.org/dc/dcmitype/StillImage"/>
    <dc:date>2025-03-09T14:54:42.195634</dc:date>
    <dc:format>image/svg+xml</dc:format>
    <dc:creator>
     <cc:Agent>
      <dc:title>Matplotlib v3.10.0, https://matplotlib.org/</dc:title>
     </cc:Agent>
    </dc:creator>
   </cc:Work>
  </rdf:RDF>
 </metadata>
 <defs>
  <style type="text/css">*{stroke-linejoin: round; stroke-linecap: butt}</style>
 </defs>
 <g id="figure_1">
  <g id="patch_1">
   <path d="M 0 345.6 
L 460.8 345.6 
L 460.8 0 
L 0 0 
z
" style="fill: #ffffff"/>
  </g>
  <g id="axes_1">
   <g id="patch_2">
    <path d="M 57.6 307.584 
L 414.72 307.584 
L 414.72 41.472 
L 57.6 41.472 
z
" style="fill: #ffffff"/>
   </g>
   <g id="matplotlib.axis_1">
    <g id="xtick_1">
     <g id="line2d_1">
      <path d="M 73.832727 307.584 
L 73.832727 41.472 
" clip-path="url(#p4d0804b0f6)" style="fill: none; stroke: #b0b0b0; stroke-width: 0.8; stroke-linecap: square"/>
     </g>
     <g id="line2d_2">
      <defs>
       <path id="ma48f63b571" d="M 0 0 
L 0 3.5 
" style="stroke: #000000; stroke-width: 0.8"/>
      </defs>
      <g>
       <use xlink:href="#ma48f63b571" x="73.832727" y="307.584" style="stroke: #000000; stroke-width: 0.8"/>
      </g>
     </g>
     <g id="text_1">
      <!-- 1 -->
      <g transform="translate(70.651477 322.182437) scale(0.1 -0.1)">
       <defs>
        <path id="DejaVuSans-31" d="M 794 531 
L 1825 531 
L 1825 4091 
L 703 3866 
L 703 4441 
L 1819 4666 
L 2450 4666 
L 2450 531 
L 3481 531 
L 3481 0 
L 794 0 
L 794 531 
z
" transform="scale(0.015625)"/>
       </defs>
       <use xlink:href="#DejaVuSans-31"/>
      </g>
     </g>
    </g>
    <g id="xtick_2">
     <g id="line2d_3">
      <path d="M 154.996364 307.584 
L 154.996364 41.472 
" clip-path="url(#p4d0804b0f6)" style="fill: none; stroke: #b0b0b0; stroke-width: 0.8; stroke-linecap: square"/>
     </g>
     <g id="line2d_4">
      <g>
       <use xlink:href="#ma48f63b571" x="154.996364" y="307.584" style="stroke: #000000; stroke-width: 0.8"/>
      </g>
     </g>
     <g id="text_2">
      <!-- 2 -->
      <g transform="translate(151.815114 322.182437) scale(0.1 -0.1)">
       <defs>
        <path id="DejaVuSans-32" d="M 1228 531 
L 3431 531 
L 3431 0 
L 469 0 
L 469 531 
Q 828 903 1448 1529 
Q 2069 2156 2228 2338 
Q 2531 2678 2651 2914 
Q 2772 3150 2772 3378 
Q 2772 3750 2511 3984 
Q 2250 4219 1831 4219 
Q 1534 4219 1204 4116 
Q 875 4013 500 3803 
L 500 4441 
Q 881 4594 1212 4672 
Q 1544 4750 1819 4750 
Q 2544 4750 2975 4387 
Q 3406 4025 3406 3419 
Q 3406 3131 3298 2873 
Q 3191 2616 2906 2266 
Q 2828 2175 2409 1742 
Q 1991 1309 1228 531 
z
" transform="scale(0.015625)"/>
       </defs>
       <use xlink:href="#DejaVuSans-32"/>
      </g>
     </g>
    </g>
    <g id="xtick_3">
     <g id="line2d_5">
      <path d="M 236.16 307.584 
L 236.16 41.472 
" clip-path="url(#p4d0804b0f6)" style="fill: none; stroke: #b0b0b0; stroke-width: 0.8; stroke-linecap: square"/>
     </g>
     <g id="line2d_6">
      <g>
       <use xlink:href="#ma48f63b571" x="236.16" y="307.584" style="stroke: #000000; stroke-width: 0.8"/>
      </g>
     </g>
     <g id="text_3">
      <!-- 3 -->
      <g transform="translate(232.97875 322.182437) scale(0.1 -0.1)">
       <defs>
        <path id="DejaVuSans-33" d="M 2597 2516 
Q 3050 2419 3304 2112 
Q 3559 1806 3559 1356 
Q 3559 666 3084 287 
Q 2609 -91 1734 -91 
Q 1441 -91 1130 -33 
Q 819 25 488 141 
L 488 750 
Q 750 597 1062 519 
Q 1375 441 1716 441 
Q 2309 441 2620 675 
Q 2931 909 2931 1356 
Q 2931 1769 2642 2001 
Q 2353 2234 1838 2234 
L 1294 2234 
L 1294 2753 
L 1863 2753 
Q 2328 2753 2575 2939 
Q 2822 3125 2822 3475 
Q 2822 3834 2567 4026 
Q 2313 4219 1838 4219 
Q 1578 4219 1281 4162 
Q 984 4106 628 3988 
L 628 4550 
Q 988 4650 1302 4700 
Q 1616 4750 1894 4750 
Q 2613 4750 3031 4423 
Q 3450 4097 3450 3541 
Q 3450 3153 3228 2886 
Q 3006 2619 2597 2516 
z
" transform="scale(0.015625)"/>
       </defs>
       <use xlink:href="#DejaVuSans-33"/>
      </g>
     </g>
    </g>
    <g id="xtick_4">
     <g id="line2d_7">
      <path d="M 317.323636 307.584 
L 317.323636 41.472 
" clip-path="url(#p4d0804b0f6)" style="fill: none; stroke: #b0b0b0; stroke-width: 0.8; stroke-linecap: square"/>
     </g>
     <g id="line2d_8">
      <g>
       <use xlink:href="#ma48f63b571" x="317.323636" y="307.584" style="stroke: #000000; stroke-width: 0.8"/>
      </g>
     </g>
     <g id="text_4">
      <!-- 4 -->
      <g transform="translate(314.142386 322.182437) scale(0.1 -0.1)">
       <defs>
        <path id="DejaVuSans-34" d="M 2419 4116 
L 825 1625 
L 2419 1625 
L 2419 4116 
z
M 2253 4666 
L 3047 4666 
L 3047 1625 
L 3713 1625 
L 3713 1100 
L 3047 1100 
L 3047 0 
L 2419 0 
L 2419 1100 
L 313 1100 
L 313 1709 
L 2253 4666 
z
" transform="scale(0.015625)"/>
       </defs>
       <use xlink:href="#DejaVuSans-34"/>
      </g>
     </g>
    </g>
    <g id="xtick_5">
     <g id="line2d_9">
      <path d="M 398.487273 307.584 
L 398.487273 41.472 
" clip-path="url(#p4d0804b0f6)" style="fill: none; stroke: #b0b0b0; stroke-width: 0.8; stroke-linecap: square"/>
     </g>
     <g id="line2d_10">
      <g>
       <use xlink:href="#ma48f63b571" x="398.487273" y="307.584" style="stroke: #000000; stroke-width: 0.8"/>
      </g>
     </g>
     <g id="text_5">
      <!-- 5 -->
      <g transform="translate(395.306023 322.182437) scale(0.1 -0.1)">
       <defs>
        <path id="DejaVuSans-35" d="M 691 4666 
L 3169 4666 
L 3169 4134 
L 1269 4134 
L 1269 2991 
Q 1406 3038 1543 3061 
Q 1681 3084 1819 3084 
Q 2600 3084 3056 2656 
Q 3513 2228 3513 1497 
Q 3513 744 3044 326 
Q 2575 -91 1722 -91 
Q 1428 -91 1123 -41 
Q 819 9 494 109 
L 494 744 
Q 775 591 1075 516 
Q 1375 441 1709 441 
Q 2250 441 2565 725 
Q 2881 1009 2881 1497 
Q 2881 1984 2565 2268 
Q 2250 2553 1709 2553 
Q 1456 2553 1204 2497 
Q 953 2441 691 2322 
L 691 4666 
z
" transform="scale(0.015625)"/>
       </defs>
       <use xlink:href="#DejaVuSans-35"/>
      </g>
     </g>
    </g>
    <g id="text_6">
     <!-- Ordnung -->
     <g transform="translate(214.401406 335.860562) scale(0.1 -0.1)">
      <defs>
       <path id="DejaVuSans-4f" d="M 2522 4238 
Q 1834 4238 1429 3725 
Q 1025 3213 1025 2328 
Q 1025 1447 1429 934 
Q 1834 422 2522 422 
Q 3209 422 3611 934 
Q 4013 1447 4013 2328 
Q 4013 3213 3611 3725 
Q 3209 4238 2522 4238 
z
M 2522 4750 
Q 3503 4750 4090 4092 
Q 4678 3434 4678 2328 
Q 4678 1225 4090 567 
Q 3503 -91 2522 -91 
Q 1538 -91 948 565 
Q 359 1222 359 2328 
Q 359 3434 948 4092 
Q 1538 4750 2522 4750 
z
" transform="scale(0.015625)"/>
       <path id="DejaVuSans-72" d="M 2631 2963 
Q 2534 3019 2420 3045 
Q 2306 3072 2169 3072 
Q 1681 3072 1420 2755 
Q 1159 2438 1159 1844 
L 1159 0 
L 581 0 
L 581 3500 
L 1159 3500 
L 1159 2956 
Q 1341 3275 1631 3429 
Q 1922 3584 2338 3584 
Q 2397 3584 2469 3576 
Q 2541 3569 2628 3553 
L 2631 2963 
z
" transform="scale(0.015625)"/>
       <path id="DejaVuSans-64" d="M 2906 2969 
L 2906 4863 
L 3481 4863 
L 3481 0 
L 2906 0 
L 2906 525 
Q 2725 213 2448 61 
Q 2172 -91 1784 -91 
Q 1150 -91 751 415 
Q 353 922 353 1747 
Q 353 2572 751 3078 
Q 1150 3584 1784 3584 
Q 2172 3584 2448 3432 
Q 2725 3281 2906 2969 
z
M 947 1747 
Q 947 1113 1208 752 
Q 1469 391 1925 391 
Q 2381 391 2643 752 
Q 2906 1113 2906 1747 
Q 2906 2381 2643 2742 
Q 2381 3103 1925 3103 
Q 1469 3103 1208 2742 
Q 947 2381 947 1747 
z
" transform="scale(0.015625)"/>
       <path id="DejaVuSans-6e" d="M 3513 2113 
L 3513 0 
L 2938 0 
L 2938 2094 
Q 2938 2591 2744 2837 
Q 2550 3084 2163 3084 
Q 1697 3084 1428 2787 
Q 1159 2491 1159 1978 
L 1159 0 
L 581 0 
L 581 3500 
L 1159 3500 
L 1159 2956 
Q 1366 3272 1645 3428 
Q 1925 3584 2291 3584 
Q 2894 3584 3203 3211 
Q 3513 2838 3513 2113 
z
" transform="scale(0.015625)"/>
       <path id="DejaVuSans-75" d="M 544 1381 
L 544 3500 
L 1119 3500 
L 1119 1403 
Q 1119 906 1312 657 
Q 1506 409 1894 409 
Q 2359 409 2629 706 
Q 2900 1003 2900 1516 
L 2900 3500 
L 3475 3500 
L 3475 0 
L 2900 0 
L 2900 538 
Q 2691 219 2414 64 
Q 2138 -91 1772 -91 
Q 1169 -91 856 284 
Q 544 659 544 1381 
z
M 1991 3584 
L 1991 3584 
z
" transform="scale(0.015625)"/>
       <path id="DejaVuSans-67" d="M 2906 1791 
Q 2906 2416 2648 2759 
Q 2391 3103 1925 3103 
Q 1463 3103 1205 2759 
Q 947 2416 947 1791 
Q 947 1169 1205 825 
Q 1463 481 1925 481 
Q 2391 481 2648 825 
Q 2906 1169 2906 1791 
z
M 3481 434 
Q 3481 -459 3084 -895 
Q 2688 -1331 1869 -1331 
Q 1566 -1331 1297 -1286 
Q 1028 -1241 775 -1147 
L 775 -588 
Q 1028 -725 1275 -790 
Q 1522 -856 1778 -856 
Q 2344 -856 2625 -561 
Q 2906 -266 2906 331 
L 2906 616 
Q 2728 306 2450 153 
Q 2172 0 1784 0 
Q 1141 0 747 490 
Q 353 981 353 1791 
Q 353 2603 747 3093 
Q 1141 3584 1784 3584 
Q 2172 3584 2450 3431 
Q 2728 3278 2906 2969 
L 2906 3500 
L 3481 3500 
L 3481 434 
z
" transform="scale(0.015625)"/>
      </defs>
      <use xlink:href="#DejaVuSans-4f"/>
      <use xlink:href="#DejaVuSans-72" transform="translate(78.710938 0)"/>
      <use xlink:href="#DejaVuSans-64" transform="translate(118.074219 0)"/>
      <use xlink:href="#DejaVuSans-6e" transform="translate(181.550781 0)"/>
      <use xlink:href="#DejaVuSans-75" transform="translate(244.929688 0)"/>
      <use xlink:href="#DejaVuSans-6e" transform="translate(308.308594 0)"/>
      <use xlink:href="#DejaVuSans-67" transform="translate(371.6875 0)"/>
     </g>
    </g>
   </g>
   <g id="matplotlib.axis_2">
    <g id="ytick_1">
     <g id="line2d_11">
      <path d="M 57.6 291.074734 
L 414.72 291.074734 
" clip-path="url(#p4d0804b0f6)" style="fill: none; stroke: #b0b0b0; stroke-width: 0.8; stroke-linecap: square"/>
     </g>
     <g id="line2d_12">
      <defs>
       <path id="m09dda4b710" d="M 0 0 
L -3.5 0 
" style="stroke: #000000; stroke-width: 0.8"/>
      </defs>
      <g>
       <use xlink:href="#m09dda4b710" x="57.6" y="291.074734" style="stroke: #000000; stroke-width: 0.8"/>
      </g>
     </g>
     <g id="text_7">
      <!-- 0.0025 -->
      <g transform="translate(15.609375 294.873953) scale(0.1 -0.1)">
       <defs>
        <path id="DejaVuSans-30" d="M 2034 4250 
Q 1547 4250 1301 3770 
Q 1056 3291 1056 2328 
Q 1056 1369 1301 889 
Q 1547 409 2034 409 
Q 2525 409 2770 889 
Q 3016 1369 3016 2328 
Q 3016 3291 2770 3770 
Q 2525 4250 2034 4250 
z
M 2034 4750 
Q 2819 4750 3233 4129 
Q 3647 3509 3647 2328 
Q 3647 1150 3233 529 
Q 2819 -91 2034 -91 
Q 1250 -91 836 529 
Q 422 1150 422 2328 
Q 422 3509 836 4129 
Q 1250 4750 2034 4750 
z
" transform="scale(0.015625)"/>
        <path id="DejaVuSans-2e" d="M 684 794 
L 1344 794 
L 1344 0 
L 684 0 
L 684 794 
z
" transform="scale(0.015625)"/>
       </defs>
       <use xlink:href="#DejaVuSans-30"/>
       <use xlink:href="#DejaVuSans-2e" transform="translate(63.623047 0)"/>
       <use xlink:href="#DejaVuSans-30" transform="translate(95.410156 0)"/>
       <use xlink:href="#DejaVuSans-30" transform="translate(159.033203 0)"/>
       <use xlink:href="#DejaVuSans-32" transform="translate(222.65625 0)"/>
       <use xlink:href="#DejaVuSans-35" transform="translate(286.279297 0)"/>
      </g>
     </g>
    </g>
    <g id="ytick_2">
     <g id="line2d_13">
      <path d="M 57.6 256.885267 
L 414.72 256.885267 
" clip-path="url(#p4d0804b0f6)" style="fill: none; stroke: #b0b0b0; stroke-width: 0.8; stroke-linecap: square"/>
     </g>
     <g id="line2d_14">
      <g>
       <use xlink:href="#m09dda4b710" x="57.6" y="256.885267" style="stroke: #000000; stroke-width: 0.8"/>
      </g>
     </g>
     <g id="text_8">
      <!-- 0.0050 -->
      <g transform="translate(15.609375 260.684485) scale(0.1 -0.1)">
       <use xlink:href="#DejaVuSans-30"/>
       <use xlink:href="#DejaVuSans-2e" transform="translate(63.623047 0)"/>
       <use xlink:href="#DejaVuSans-30" transform="translate(95.410156 0)"/>
       <use xlink:href="#DejaVuSans-30" transform="translate(159.033203 0)"/>
       <use xlink:href="#DejaVuSans-35" transform="translate(222.65625 0)"/>
       <use xlink:href="#DejaVuSans-30" transform="translate(286.279297 0)"/>
      </g>
     </g>
    </g>
    <g id="ytick_3">
     <g id="line2d_15">
      <path d="M 57.6 222.695799 
L 414.72 222.695799 
" clip-path="url(#p4d0804b0f6)" style="fill: none; stroke: #b0b0b0; stroke-width: 0.8; stroke-linecap: square"/>
     </g>
     <g id="line2d_16">
      <g>
       <use xlink:href="#m09dda4b710" x="57.6" y="222.695799" style="stroke: #000000; stroke-width: 0.8"/>
      </g>
     </g>
     <g id="text_9">
      <!-- 0.0075 -->
      <g transform="translate(15.609375 226.495018) scale(0.1 -0.1)">
       <defs>
        <path id="DejaVuSans-37" d="M 525 4666 
L 3525 4666 
L 3525 4397 
L 1831 0 
L 1172 0 
L 2766 4134 
L 525 4134 
L 525 4666 
z
" transform="scale(0.015625)"/>
       </defs>
       <use xlink:href="#DejaVuSans-30"/>
       <use xlink:href="#DejaVuSans-2e" transform="translate(63.623047 0)"/>
       <use xlink:href="#DejaVuSans-30" transform="translate(95.410156 0)"/>
       <use xlink:href="#DejaVuSans-30" transform="translate(159.033203 0)"/>
       <use xlink:href="#DejaVuSans-37" transform="translate(222.65625 0)"/>
       <use xlink:href="#DejaVuSans-35" transform="translate(286.279297 0)"/>
      </g>
     </g>
    </g>
    <g id="ytick_4">
     <g id="line2d_17">
      <path d="M 57.6 188.506331 
L 414.72 188.506331 
" clip-path="url(#p4d0804b0f6)" style="fill: none; stroke: #b0b0b0; stroke-width: 0.8; stroke-linecap: square"/>
     </g>
     <g id="line2d_18">
      <g>
       <use xlink:href="#m09dda4b710" x="57.6" y="188.506331" style="stroke: #000000; stroke-width: 0.8"/>
      </g>
     </g>
     <g id="text_10">
      <!-- 0.0100 -->
      <g transform="translate(15.609375 192.30555) scale(0.1 -0.1)">
       <use xlink:href="#DejaVuSans-30"/>
       <use xlink:href="#DejaVuSans-2e" transform="translate(63.623047 0)"/>
       <use xlink:href="#DejaVuSans-30" transform="translate(95.410156 0)"/>
       <use xlink:href="#DejaVuSans-31" transform="translate(159.033203 0)"/>
       <use xlink:href="#DejaVuSans-30" transform="translate(222.65625 0)"/>
       <use xlink:href="#DejaVuSans-30" transform="translate(286.279297 0)"/>
      </g>
     </g>
    </g>
    <g id="ytick_5">
     <g id="line2d_19">
      <path d="M 57.6 154.316863 
L 414.72 154.316863 
" clip-path="url(#p4d0804b0f6)" style="fill: none; stroke: #b0b0b0; stroke-width: 0.8; stroke-linecap: square"/>
     </g>
     <g id="line2d_20">
      <g>
       <use xlink:href="#m09dda4b710" x="57.6" y="154.316863" style="stroke: #000000; stroke-width: 0.8"/>
      </g>
     </g>
     <g id="text_11">
      <!-- 0.0125 -->
      <g transform="translate(15.609375 158.116082) scale(0.1 -0.1)">
       <use xlink:href="#DejaVuSans-30"/>
       <use xlink:href="#DejaVuSans-2e" transform="translate(63.623047 0)"/>
       <use xlink:href="#DejaVuSans-30" transform="translate(95.410156 0)"/>
       <use xlink:href="#DejaVuSans-31" transform="translate(159.033203 0)"/>
       <use xlink:href="#DejaVuSans-32" transform="translate(222.65625 0)"/>
       <use xlink:href="#DejaVuSans-35" transform="translate(286.279297 0)"/>
      </g>
     </g>
    </g>
    <g id="ytick_6">
     <g id="line2d_21">
      <path d="M 57.6 120.127395 
L 414.72 120.127395 
" clip-path="url(#p4d0804b0f6)" style="fill: none; stroke: #b0b0b0; stroke-width: 0.8; stroke-linecap: square"/>
     </g>
     <g id="line2d_22">
      <g>
       <use xlink:href="#m09dda4b710" x="57.6" y="120.127395" style="stroke: #000000; stroke-width: 0.8"/>
      </g>
     </g>
     <g id="text_12">
      <!-- 0.0150 -->
      <g transform="translate(15.609375 123.926614) scale(0.1 -0.1)">
       <use xlink:href="#DejaVuSans-30"/>
       <use xlink:href="#DejaVuSans-2e" transform="translate(63.623047 0)"/>
       <use xlink:href="#DejaVuSans-30" transform="translate(95.410156 0)"/>
       <use xlink:href="#DejaVuSans-31" transform="translate(159.033203 0)"/>
       <use xlink:href="#DejaVuSans-35" transform="translate(222.65625 0)"/>
       <use xlink:href="#DejaVuSans-30" transform="translate(286.279297 0)"/>
      </g>
     </g>
    </g>
    <g id="ytick_7">
     <g id="line2d_23">
      <path d="M 57.6 85.937928 
L 414.72 85.937928 
" clip-path="url(#p4d0804b0f6)" style="fill: none; stroke: #b0b0b0; stroke-width: 0.8; stroke-linecap: square"/>
     </g>
     <g id="line2d_24">
      <g>
       <use xlink:href="#m09dda4b710" x="57.6" y="85.937928" style="stroke: #000000; stroke-width: 0.8"/>
      </g>
     </g>
     <g id="text_13">
      <!-- 0.0175 -->
      <g transform="translate(15.609375 89.737146) scale(0.1 -0.1)">
       <use xlink:href="#DejaVuSans-30"/>
       <use xlink:href="#DejaVuSans-2e" transform="translate(63.623047 0)"/>
       <use xlink:href="#DejaVuSans-30" transform="translate(95.410156 0)"/>
       <use xlink:href="#DejaVuSans-31" transform="translate(159.033203 0)"/>
       <use xlink:href="#DejaVuSans-37" transform="translate(222.65625 0)"/>
       <use xlink:href="#DejaVuSans-35" transform="translate(286.279297 0)"/>
      </g>
     </g>
    </g>
    <g id="ytick_8">
     <g id="line2d_25">
      <path d="M 57.6 51.74846 
L 414.72 51.74846 
" clip-path="url(#p4d0804b0f6)" style="fill: none; stroke: #b0b0b0; stroke-width: 0.8; stroke-linecap: square"/>
     </g>
     <g id="line2d_26">
      <g>
       <use xlink:href="#m09dda4b710" x="57.6" y="51.74846" style="stroke: #000000; stroke-width: 0.8"/>
      </g>
     </g>
     <g id="text_14">
      <!-- 0.0200 -->
      <g transform="translate(15.609375 55.547679) scale(0.1 -0.1)">
       <use xlink:href="#DejaVuSans-30"/>
       <use xlink:href="#DejaVuSans-2e" transform="translate(63.623047 0)"/>
       <use xlink:href="#DejaVuSans-30" transform="translate(95.410156 0)"/>
       <use xlink:href="#DejaVuSans-32" transform="translate(159.033203 0)"/>
       <use xlink:href="#DejaVuSans-30" transform="translate(222.65625 0)"/>
       <use xlink:href="#DejaVuSans-30" transform="translate(286.279297 0)"/>
      </g>
     </g>
    </g>
    <g id="text_15">
     <!-- $s/l \approx \alpha$ [rad] -->
     <g transform="translate(9.529687 203.428) rotate(-90) scale(0.1 -0.1)">
      <defs>
       <path id="DejaVuSans-Oblique-73" d="M 3200 3397 
L 3091 2853 
Q 2863 2978 2609 3040 
Q 2356 3103 2088 3103 
Q 1634 3103 1373 2948 
Q 1113 2794 1113 2528 
Q 1113 2219 1719 2053 
Q 1766 2041 1788 2034 
L 1972 1978 
Q 2547 1819 2739 1644 
Q 2931 1469 2931 1166 
Q 2931 609 2489 259 
Q 2047 -91 1331 -91 
Q 1053 -91 747 -37 
Q 441 16 72 128 
L 184 722 
Q 500 559 806 475 
Q 1113 391 1394 391 
Q 1816 391 2080 572 
Q 2344 753 2344 1031 
Q 2344 1331 1650 1516 
L 1591 1531 
L 1394 1581 
Q 956 1697 753 1886 
Q 550 2075 550 2369 
Q 550 2928 970 3256 
Q 1391 3584 2113 3584 
Q 2397 3584 2667 3537 
Q 2938 3491 3200 3397 
z
" transform="scale(0.015625)"/>
       <path id="DejaVuSans-2f" d="M 1625 4666 
L 2156 4666 
L 531 -594 
L 0 -594 
L 1625 4666 
z
" transform="scale(0.015625)"/>
       <path id="DejaVuSans-Oblique-6c" d="M 1172 4863 
L 1747 4863 
L 800 0 
L 225 0 
L 1172 4863 
z
" transform="scale(0.015625)"/>
       <path id="DejaVuSans-2248" d="M 4684 1947 
L 4684 1388 
Q 4356 1144 4076 1036 
Q 3797 928 3494 928 
Q 3150 928 2694 1113 
Q 2663 1125 2641 1134 
Q 2622 1141 2575 1159 
Q 2091 1350 1797 1350 
Q 1522 1350 1253 1231 
Q 984 1113 678 850 
L 678 1409 
Q 1006 1653 1286 1761 
Q 1566 1869 1869 1869 
Q 2213 1869 2672 1684 
Q 2706 1669 2722 1663 
Q 2741 1656 2788 1638 
Q 3272 1447 3566 1447 
Q 3834 1447 4098 1564 
Q 4363 1681 4684 1947 
z
M 4684 3163 
L 4684 2606 
Q 4356 2359 4076 2251 
Q 3797 2144 3494 2144 
Q 3150 2144 2694 2328 
Q 2663 2341 2641 2350 
Q 2622 2356 2575 2375 
Q 2091 2566 1797 2566 
Q 1522 2566 1253 2447 
Q 984 2328 678 2069 
L 678 2625 
Q 1006 2869 1286 2976 
Q 1566 3084 1869 3084 
Q 2213 3084 2672 2900 
Q 2703 2888 2719 2881 
Q 2741 2872 2788 2853 
Q 3272 2663 3566 2663 
Q 3834 2663 4098 2780 
Q 4363 2897 4684 3163 
z
" transform="scale(0.015625)"/>
       <path id="DejaVuSans-Oblique-3b1" d="M 2619 1628 
L 2622 2350 
Q 2625 3088 2069 3091 
Q 1653 3094 1394 2747 
Q 1069 2319 959 1747 
Q 825 1059 994 731 
Q 1169 397 1547 397 
Q 1966 397 2319 1063 
L 2619 1628 
z
M 2166 3578 
Q 3141 3594 3128 2584 
Q 3128 2584 3616 3500 
L 4128 3500 
L 3119 1603 
L 3109 919 
Q 3109 766 3194 638 
Q 3291 488 3391 488 
L 3669 488 
L 3575 0 
L 3228 0 
Q 2934 0 2722 263 
Q 2622 394 2619 669 
Q 2416 334 2066 50 
Q 1900 -81 1453 -78 
Q 722 -72 456 397 
Q 184 884 353 1747 
Q 534 2675 1009 3097 
Q 1544 3569 2166 3578 
z
" transform="scale(0.015625)"/>
       <path id="DejaVuSans-20" transform="scale(0.015625)"/>
       <path id="DejaVuSans-5b" d="M 550 4863 
L 1875 4863 
L 1875 4416 
L 1125 4416 
L 1125 -397 
L 1875 -397 
L 1875 -844 
L 550 -844 
L 550 4863 
z
" transform="scale(0.015625)"/>
       <path id="DejaVuSans-61" d="M 2194 1759 
Q 1497 1759 1228 1600 
Q 959 1441 959 1056 
Q 959 750 1161 570 
Q 1363 391 1709 391 
Q 2188 391 2477 730 
Q 2766 1069 2766 1631 
L 2766 1759 
L 2194 1759 
z
M 3341 1997 
L 3341 0 
L 2766 0 
L 2766 531 
Q 2569 213 2275 61 
Q 1981 -91 1556 -91 
Q 1019 -91 701 211 
Q 384 513 384 1019 
Q 384 1609 779 1909 
Q 1175 2209 1959 2209 
L 2766 2209 
L 2766 2266 
Q 2766 2663 2505 2880 
Q 2244 3097 1772 3097 
Q 1472 3097 1187 3025 
Q 903 2953 641 2809 
L 641 3341 
Q 956 3463 1253 3523 
Q 1550 3584 1831 3584 
Q 2591 3584 2966 3190 
Q 3341 2797 3341 1997 
z
" transform="scale(0.015625)"/>
       <path id="DejaVuSans-5d" d="M 1947 4863 
L 1947 -844 
L 622 -844 
L 622 -397 
L 1369 -397 
L 1369 4416 
L 622 4416 
L 622 4863 
L 1947 4863 
z
" transform="scale(0.015625)"/>
      </defs>
      <use xlink:href="#DejaVuSans-Oblique-73" transform="translate(0 0.015625)"/>
      <use xlink:href="#DejaVuSans-2f" transform="translate(52.099609 0.015625)"/>
      <use xlink:href="#DejaVuSans-Oblique-6c" transform="translate(85.791016 0.015625)"/>
      <use xlink:href="#DejaVuSans-2248" transform="translate(133.056641 0.015625)"/>
      <use xlink:href="#DejaVuSans-Oblique-3b1" transform="translate(236.328125 0.015625)"/>
      <use xlink:href="#DejaVuSans-20" transform="translate(302.246094 0.015625)"/>
      <use xlink:href="#DejaVuSans-5b" transform="translate(334.033203 0.015625)"/>
      <use xlink:href="#DejaVuSans-72" transform="translate(373.046875 0.015625)"/>
      <use xlink:href="#DejaVuSans-61" transform="translate(414.160156 0.015625)"/>
      <use xlink:href="#DejaVuSans-64" transform="translate(475.439453 0.015625)"/>
      <use xlink:href="#DejaVuSans-5d" transform="translate(538.916016 0.015625)"/>
     </g>
    </g>
   </g>
   <g id="LineCollection_1">
    <path d="M 73.832727 277.333833 
L 73.832727 261.627093 
" clip-path="url(#p4d0804b0f6)" style="fill: none; stroke: #1f77b4; stroke-width: 1.5"/>
    <path d="M 154.996364 222.954858 
L 154.996364 207.245319 
" clip-path="url(#p4d0804b0f6)" style="fill: none; stroke: #1f77b4; stroke-width: 1.5"/>
    <path d="M 236.16 168.576799 
L 236.16 152.862629 
" clip-path="url(#p4d0804b0f6)" style="fill: none; stroke: #1f77b4; stroke-width: 1.5"/>
    <path d="M 317.323636 119.988147 
L 317.323636 104.268289 
" clip-path="url(#p4d0804b0f6)" style="fill: none; stroke: #1f77b4; stroke-width: 1.5"/>
    <path d="M 398.487273 69.29535 
L 398.487273 53.568 
" clip-path="url(#p4d0804b0f6)" style="fill: none; stroke: #1f77b4; stroke-width: 1.5"/>
   </g>
   <g id="line2d_27">
    <defs>
     <path id="mea5916d30a" d="M 2 0 
L -2 -0 
" style="stroke: #1f77b4"/>
    </defs>
    <g clip-path="url(#p4d0804b0f6)">
     <use xlink:href="#mea5916d30a" x="73.832727" y="277.333833" style="fill: #1f77b4; stroke: #1f77b4"/>
     <use xlink:href="#mea5916d30a" x="154.996364" y="222.954858" style="fill: #1f77b4; stroke: #1f77b4"/>
     <use xlink:href="#mea5916d30a" x="236.16" y="168.576799" style="fill: #1f77b4; stroke: #1f77b4"/>
     <use xlink:href="#mea5916d30a" x="317.323636" y="119.988147" style="fill: #1f77b4; stroke: #1f77b4"/>
     <use xlink:href="#mea5916d30a" x="398.487273" y="69.29535" style="fill: #1f77b4; stroke: #1f77b4"/>
    </g>
   </g>
   <g id="line2d_28">
    <g clip-path="url(#p4d0804b0f6)">
     <use xlink:href="#mea5916d30a" x="73.832727" y="261.627093" style="fill: #1f77b4; stroke: #1f77b4"/>
     <use xlink:href="#mea5916d30a" x="154.996364" y="207.245319" style="fill: #1f77b4; stroke: #1f77b4"/>
     <use xlink:href="#mea5916d30a" x="236.16" y="152.862629" style="fill: #1f77b4; stroke: #1f77b4"/>
     <use xlink:href="#mea5916d30a" x="317.323636" y="104.268289" style="fill: #1f77b4; stroke: #1f77b4"/>
     <use xlink:href="#mea5916d30a" x="398.487273" y="53.568" style="fill: #1f77b4; stroke: #1f77b4"/>
    </g>
   </g>
   <g id="LineCollection_2">
    <path d="M 73.832727 283.768663 
L 73.832727 259.834119 
" clip-path="url(#p4d0804b0f6)" style="fill: none; stroke: #ff7f0e; stroke-width: 1.5"/>
    <path d="M 154.996364 238.32691 
L 154.996364 214.389093 
" clip-path="url(#p4d0804b0f6)" style="fill: none; stroke: #ff7f0e; stroke-width: 1.5"/>
    <path d="M 236.16 200.905022 
L 236.16 176.963045 
" clip-path="url(#p4d0804b0f6)" style="fill: none; stroke: #ff7f0e; stroke-width: 1.5"/>
    <path d="M 317.323636 150.119231 
L 317.323636 126.169494 
" clip-path="url(#p4d0804b0f6)" style="fill: none; stroke: #ff7f0e; stroke-width: 1.5"/>
    <path d="M 398.487273 96.661819 
L 398.487273 72.701284 
" clip-path="url(#p4d0804b0f6)" style="fill: none; stroke: #ff7f0e; stroke-width: 1.5"/>
   </g>
   <g id="line2d_29">
    <defs>
     <path id="ma18a93af0e" d="M 2 0 
L -2 -0 
" style="stroke: #ff7f0e"/>
    </defs>
    <g clip-path="url(#p4d0804b0f6)">
     <use xlink:href="#ma18a93af0e" x="73.832727" y="283.768663" style="fill: #ff7f0e; stroke: #ff7f0e"/>
     <use xlink:href="#ma18a93af0e" x="154.996364" y="238.32691" style="fill: #ff7f0e; stroke: #ff7f0e"/>
     <use xlink:href="#ma18a93af0e" x="236.16" y="200.905022" style="fill: #ff7f0e; stroke: #ff7f0e"/>
     <use xlink:href="#ma18a93af0e" x="317.323636" y="150.119231" style="fill: #ff7f0e; stroke: #ff7f0e"/>
     <use xlink:href="#ma18a93af0e" x="398.487273" y="96.661819" style="fill: #ff7f0e; stroke: #ff7f0e"/>
    </g>
   </g>
   <g id="line2d_30">
    <g clip-path="url(#p4d0804b0f6)">
     <use xlink:href="#ma18a93af0e" x="73.832727" y="259.834119" style="fill: #ff7f0e; stroke: #ff7f0e"/>
     <use xlink:href="#ma18a93af0e" x="154.996364" y="214.389093" style="fill: #ff7f0e; stroke: #ff7f0e"/>
     <use xlink:href="#ma18a93af0e" x="236.16" y="176.963045" style="fill: #ff7f0e; stroke: #ff7f0e"/>
     <use xlink:href="#ma18a93af0e" x="317.323636" y="126.169494" style="fill: #ff7f0e; stroke: #ff7f0e"/>
     <use xlink:href="#ma18a93af0e" x="398.487273" y="72.701284" style="fill: #ff7f0e; stroke: #ff7f0e"/>
    </g>
   </g>
   <g id="LineCollection_3">
    <path d="M 73.832727 295.488 
L 73.832727 254.617401 
" clip-path="url(#p4d0804b0f6)" style="fill: none; stroke: #2ca02c; stroke-width: 1.5"/>
    <path d="M 154.996364 249.843871 
L 154.996364 208.967891 
" clip-path="url(#p4d0804b0f6)" style="fill: none; stroke: #2ca02c; stroke-width: 1.5"/>
    <path d="M 236.16 213.329778 
L 236.16 172.447073 
" clip-path="url(#p4d0804b0f6)" style="fill: none; stroke: #2ca02c; stroke-width: 1.5"/>
    <path d="M 317.323636 172.252709 
L 317.323636 131.359868 
" clip-path="url(#p4d0804b0f6)" style="fill: none; stroke: #2ca02c; stroke-width: 1.5"/>
    <path d="M 398.487273 131.176999 
L 398.487273 90.271302 
" clip-path="url(#p4d0804b0f6)" style="fill: none; stroke: #2ca02c; stroke-width: 1.5"/>
   </g>
   <g id="line2d_31">
    <defs>
     <path id="mfaabea9449" d="M 2 0 
L -2 -0 
" style="stroke: #2ca02c"/>
    </defs>
    <g clip-path="url(#p4d0804b0f6)">
     <use xlink:href="#mfaabea9449" x="73.832727" y="295.488" style="fill: #2ca02c; stroke: #2ca02c"/>
     <use xlink:href="#mfaabea9449" x="154.996364" y="249.843871" style="fill: #2ca02c; stroke: #2ca02c"/>
     <use xlink:href="#mfaabea9449" x="236.16" y="213.329778" style="fill: #2ca02c; stroke: #2ca02c"/>
     <use xlink:href="#mfaabea9449" x="317.323636" y="172.252709" style="fill: #2ca02c; stroke: #2ca02c"/>
     <use xlink:href="#mfaabea9449" x="398.487273" y="131.176999" style="fill: #2ca02c; stroke: #2ca02c"/>
    </g>
   </g>
   <g id="line2d_32">
    <g clip-path="url(#p4d0804b0f6)">
     <use xlink:href="#mfaabea9449" x="73.832727" y="254.617401" style="fill: #2ca02c; stroke: #2ca02c"/>
     <use xlink:href="#mfaabea9449" x="154.996364" y="208.967891" style="fill: #2ca02c; stroke: #2ca02c"/>
     <use xlink:href="#mfaabea9449" x="236.16" y="172.447073" style="fill: #2ca02c; stroke: #2ca02c"/>
     <use xlink:href="#mfaabea9449" x="317.323636" y="131.359868" style="fill: #2ca02c; stroke: #2ca02c"/>
     <use xlink:href="#mfaabea9449" x="398.487273" y="90.271302" style="fill: #2ca02c; stroke: #2ca02c"/>
    </g>
   </g>
   <g id="line2d_33">
    <path d="M 73.832727 269.992864 
L 77.112066 268.000731 
L 80.391405 266.008598 
L 83.670744 264.016465 
L 86.950083 262.024332 
L 90.229421 260.032199 
L 93.50876 258.040066 
L 96.788099 256.047933 
L 100.067438 254.0558 
L 103.346777 252.063667 
L 106.626116 250.071534 
L 109.905455 248.079401 
L 113.184793 246.087268 
L 116.464132 244.095135 
L 119.743471 242.103002 
L 123.02281 240.110869 
L 126.302149 238.118737 
L 129.581488 236.126604 
L 132.860826 234.134471 
L 136.140165 232.142338 
L 139.419504 230.150205 
L 142.698843 228.158072 
L 145.978182 226.165939 
L 149.257521 224.173806 
L 152.53686 222.181673 
L 155.816198 220.18954 
L 159.095537 218.197407 
L 162.374876 216.205274 
L 165.654215 214.213141 
L 168.933554 212.221008 
L 172.212893 210.228875 
L 175.492231 208.236742 
L 178.77157 206.244609 
L 182.050909 204.252476 
L 185.330248 202.260343 
L 188.609587 200.26821 
L 191.888926 198.276077 
L 195.168264 196.283944 
L 198.447603 194.291811 
L 201.726942 192.299678 
L 205.006281 190.307545 
L 208.28562 188.315412 
L 211.564959 186.323279 
L 214.844298 184.331146 
L 218.123636 182.339013 
L 221.402975 180.34688 
L 224.682314 178.354747 
L 227.961653 176.362614 
L 231.240992 174.370481 
L 234.520331 172.378348 
L 237.799669 170.386215 
L 241.079008 168.394082 
L 244.358347 166.401949 
L 247.637686 164.409816 
L 250.917025 162.417683 
L 254.196364 160.42555 
L 257.475702 158.433417 
L 260.755041 156.441284 
L 264.03438 154.449151 
L 267.313719 152.457018 
L 270.593058 150.464885 
L 273.872397 148.472752 
L 277.151736 146.480619 
L 280.431074 144.488486 
L 283.710413 142.496353 
L 286.989752 140.50422 
L 290.269091 138.512087 
L 293.54843 136.519955 
L 296.827769 134.527822 
L 300.107107 132.535689 
L 303.386446 130.543556 
L 306.665785 128.551423 
L 309.945124 126.55929 
L 313.224463 124.567157 
L 316.503802 122.575024 
L 319.78314 120.582891 
L 323.062479 118.590758 
L 326.341818 116.598625 
L 329.621157 114.606492 
L 332.900496 112.614359 
L 336.179835 110.622226 
L 339.459174 108.630093 
L 342.738512 106.63796 
L 346.017851 104.645827 
L 349.29719 102.653694 
L 352.576529 100.661561 
L 355.855868 98.669428 
L 359.135207 96.677295 
L 362.414545 94.685162 
L 365.693884 92.693029 
L 368.973223 90.700896 
L 372.252562 88.708763 
L 375.531901 86.71663 
L 378.81124 84.724497 
L 382.090579 82.732364 
L 385.369917 80.740231 
L 388.649256 78.748098 
L 391.928595 76.755965 
L 395.207934 74.763832 
L 398.487273 72.771699 
" clip-path="url(#p4d0804b0f6)" style="fill: none; stroke: #d62728; stroke-width: 1.5; stroke-linecap: square"/>
   </g>
   <g id="line2d_34">
    <defs>
     <path id="m6dd7abf3da" d="M 0 1.5 
C 0.397805 1.5 0.77937 1.341951 1.06066 1.06066 
C 1.341951 0.77937 1.5 0.397805 1.5 0 
C 1.5 -0.397805 1.341951 -0.77937 1.06066 -1.06066 
C 0.77937 -1.341951 0.397805 -1.5 0 -1.5 
C -0.397805 -1.5 -0.77937 -1.341951 -1.06066 -1.06066 
C -1.341951 -0.77937 -1.5 -0.397805 -1.5 0 
C -1.5 0.397805 -1.341951 0.77937 -1.06066 1.06066 
C -0.77937 1.341951 -0.397805 1.5 0 1.5 
z
" style="stroke: #1f77b4"/>
    </defs>
    <g clip-path="url(#p4d0804b0f6)">
     <use xlink:href="#m6dd7abf3da" x="73.832727" y="269.480463" style="fill: #1f77b4; stroke: #1f77b4"/>
     <use xlink:href="#m6dd7abf3da" x="154.996364" y="215.100088" style="fill: #1f77b4; stroke: #1f77b4"/>
     <use xlink:href="#m6dd7abf3da" x="236.16" y="160.719714" style="fill: #1f77b4; stroke: #1f77b4"/>
     <use xlink:href="#m6dd7abf3da" x="317.323636" y="112.128218" style="fill: #1f77b4; stroke: #1f77b4"/>
     <use xlink:href="#m6dd7abf3da" x="398.487273" y="61.431675" style="fill: #1f77b4; stroke: #1f77b4"/>
    </g>
   </g>
   <g id="line2d_35">
    <defs>
     <path id="me454483af7" d="M 0 1.5 
C 0.397805 1.5 0.77937 1.341951 1.06066 1.06066 
C 1.341951 0.77937 1.5 0.397805 1.5 0 
C 1.5 -0.397805 1.341951 -0.77937 1.06066 -1.06066 
C 0.77937 -1.341951 0.397805 -1.5 0 -1.5 
C -0.397805 -1.5 -0.77937 -1.341951 -1.06066 -1.06066 
C -1.341951 -0.77937 -1.5 -0.397805 -1.5 0 
C -1.5 0.397805 -1.341951 0.77937 -1.06066 1.06066 
C -0.77937 1.341951 -0.397805 1.5 0 1.5 
z
" style="stroke: #ff7f0e"/>
    </defs>
    <g clip-path="url(#p4d0804b0f6)">
     <use xlink:href="#me454483af7" x="73.832727" y="271.801391" style="fill: #ff7f0e; stroke: #ff7f0e"/>
     <use xlink:href="#me454483af7" x="154.996364" y="226.358001" style="fill: #ff7f0e; stroke: #ff7f0e"/>
     <use xlink:href="#me454483af7" x="236.16" y="188.934033" style="fill: #ff7f0e; stroke: #ff7f0e"/>
     <use xlink:href="#me454483af7" x="317.323636" y="138.144363" style="fill: #ff7f0e; stroke: #ff7f0e"/>
     <use xlink:href="#me454483af7" x="398.487273" y="84.681552" style="fill: #ff7f0e; stroke: #ff7f0e"/>
    </g>
   </g>
   <g id="line2d_36">
    <defs>
     <path id="m6e4627251c" d="M 0 1.5 
C 0.397805 1.5 0.77937 1.341951 1.06066 1.06066 
C 1.341951 0.77937 1.5 0.397805 1.5 0 
C 1.5 -0.397805 1.341951 -0.77937 1.06066 -1.06066 
C 0.77937 -1.341951 0.397805 -1.5 0 -1.5 
C -0.397805 -1.5 -0.77937 -1.341951 -1.06066 -1.06066 
C -1.341951 -0.77937 -1.5 -0.397805 -1.5 0 
C -1.5 0.397805 -1.341951 0.77937 -1.06066 1.06066 
C -0.77937 1.341951 -0.397805 1.5 0 1.5 
z
" style="stroke: #2ca02c"/>
    </defs>
    <g clip-path="url(#p4d0804b0f6)">
     <use xlink:href="#m6e4627251c" x="73.832727" y="275.052701" style="fill: #2ca02c; stroke: #2ca02c"/>
     <use xlink:href="#m6e4627251c" x="154.996364" y="229.405881" style="fill: #2ca02c; stroke: #2ca02c"/>
     <use xlink:href="#m6e4627251c" x="236.16" y="192.888426" style="fill: #2ca02c; stroke: #2ca02c"/>
     <use xlink:href="#m6e4627251c" x="317.323636" y="151.806288" style="fill: #2ca02c; stroke: #2ca02c"/>
     <use xlink:href="#m6e4627251c" x="398.487273" y="110.724151" style="fill: #2ca02c; stroke: #2ca02c"/>
    </g>
   </g>
   <g id="patch_3">
    <path d="M 57.6 307.584 
L 57.6 41.472 
" style="fill: none; stroke: #000000; stroke-width: 0.8; stroke-linejoin: miter; stroke-linecap: square"/>
   </g>
   <g id="patch_4">
    <path d="M 414.72 307.584 
L 414.72 41.472 
" style="fill: none; stroke: #000000; stroke-width: 0.8; stroke-linejoin: miter; stroke-linecap: square"/>
   </g>
   <g id="patch_5">
    <path d="M 57.6 307.584 
L 414.72 307.584 
" style="fill: none; stroke: #000000; stroke-width: 0.8; stroke-linejoin: miter; stroke-linecap: square"/>
   </g>
   <g id="patch_6">
    <path d="M 57.6 41.472 
L 414.72 41.472 
" style="fill: none; stroke: #000000; stroke-width: 0.8; stroke-linejoin: miter; stroke-linecap: square"/>
   </g>
   <g id="legend_1">
    <g id="patch_7">
     <path d="M 64.6 109.706375 
L 235.7 109.706375 
Q 237.7 109.706375 237.7 107.706375 
L 237.7 48.472 
Q 237.7 46.472 235.7 46.472 
L 64.6 46.472 
Q 62.6 46.472 62.6 48.472 
L 62.6 107.706375 
Q 62.6 109.706375 64.6 109.706375 
z
" style="fill: #ffffff; opacity: 0.8; stroke: #cccccc; stroke-linejoin: miter"/>
    </g>
    <g id="line2d_37">
     <path d="M 66.6 56.072 
L 76.6 56.072 
L 86.6 56.072 
" style="fill: none; stroke: #d62728; stroke-width: 1.5; stroke-linecap: square"/>
    </g>
    <g id="text_16">
     <!-- y = 0.36$\cdot 10^{-2} x$ + 0.04$\cdot 10^{-2}$ -->
     <g transform="translate(94.6 59.572) scale(0.1 -0.1)">
      <defs>
       <path id="DejaVuSans-79" d="M 2059 -325 
Q 1816 -950 1584 -1140 
Q 1353 -1331 966 -1331 
L 506 -1331 
L 506 -850 
L 844 -850 
Q 1081 -850 1212 -737 
Q 1344 -625 1503 -206 
L 1606 56 
L 191 3500 
L 800 3500 
L 1894 763 
L 2988 3500 
L 3597 3500 
L 2059 -325 
z
" transform="scale(0.015625)"/>
       <path id="DejaVuSans-3d" d="M 678 2906 
L 4684 2906 
L 4684 2381 
L 678 2381 
L 678 2906 
z
M 678 1631 
L 4684 1631 
L 4684 1100 
L 678 1100 
L 678 1631 
z
" transform="scale(0.015625)"/>
       <path id="DejaVuSans-36" d="M 2113 2584 
Q 1688 2584 1439 2293 
Q 1191 2003 1191 1497 
Q 1191 994 1439 701 
Q 1688 409 2113 409 
Q 2538 409 2786 701 
Q 3034 994 3034 1497 
Q 3034 2003 2786 2293 
Q 2538 2584 2113 2584 
z
M 3366 4563 
L 3366 3988 
Q 3128 4100 2886 4159 
Q 2644 4219 2406 4219 
Q 1781 4219 1451 3797 
Q 1122 3375 1075 2522 
Q 1259 2794 1537 2939 
Q 1816 3084 2150 3084 
Q 2853 3084 3261 2657 
Q 3669 2231 3669 1497 
Q 3669 778 3244 343 
Q 2819 -91 2113 -91 
Q 1303 -91 875 529 
Q 447 1150 447 2328 
Q 447 3434 972 4092 
Q 1497 4750 2381 4750 
Q 2619 4750 2861 4703 
Q 3103 4656 3366 4563 
z
" transform="scale(0.015625)"/>
       <path id="DejaVuSans-22c5" d="M 684 2619 
L 1344 2619 
L 1344 1825 
L 684 1825 
L 684 2619 
z
" transform="scale(0.015625)"/>
       <path id="DejaVuSans-2212" d="M 678 2272 
L 4684 2272 
L 4684 1741 
L 678 1741 
L 678 2272 
z
" transform="scale(0.015625)"/>
       <path id="DejaVuSans-Oblique-78" d="M 3841 3500 
L 2234 1784 
L 3219 0 
L 2559 0 
L 1819 1388 
L 531 0 
L -166 0 
L 1556 1844 
L 641 3500 
L 1300 3500 
L 1972 2234 
L 3144 3500 
L 3841 3500 
z
" transform="scale(0.015625)"/>
       <path id="DejaVuSans-2b" d="M 2944 4013 
L 2944 2272 
L 4684 2272 
L 4684 1741 
L 2944 1741 
L 2944 0 
L 2419 0 
L 2419 1741 
L 678 1741 
L 678 2272 
L 2419 2272 
L 2419 4013 
L 2944 4013 
z
" transform="scale(0.015625)"/>
      </defs>
      <use xlink:href="#DejaVuSans-79" transform="translate(0 0.765625)"/>
      <use xlink:href="#DejaVuSans-20" transform="translate(59.179688 0.765625)"/>
      <use xlink:href="#DejaVuSans-3d" transform="translate(90.966797 0.765625)"/>
      <use xlink:href="#DejaVuSans-20" transform="translate(174.755859 0.765625)"/>
      <use xlink:href="#DejaVuSans-30" transform="translate(206.542969 0.765625)"/>
      <use xlink:href="#DejaVuSans-2e" transform="translate(270.166016 0.765625)"/>
      <use xlink:href="#DejaVuSans-33" transform="translate(301.953125 0.765625)"/>
      <use xlink:href="#DejaVuSans-36" transform="translate(365.576172 0.765625)"/>
      <use xlink:href="#DejaVuSans-22c5" transform="translate(429.199219 0.765625)"/>
      <use xlink:href="#DejaVuSans-31" transform="translate(460.986328 0.765625)"/>
      <use xlink:href="#DejaVuSans-30" transform="translate(524.609375 0.765625)"/>
      <use xlink:href="#DejaVuSans-2212" transform="translate(589.189453 39.046875) scale(0.7)"/>
      <use xlink:href="#DejaVuSans-32" transform="translate(647.841797 39.046875) scale(0.7)"/>
      <use xlink:href="#DejaVuSans-Oblique-78" transform="translate(695.112305 0.765625)"/>
      <use xlink:href="#DejaVuSans-20" transform="translate(754.291992 0.765625)"/>
      <use xlink:href="#DejaVuSans-2b" transform="translate(786.079102 0.765625)"/>
      <use xlink:href="#DejaVuSans-20" transform="translate(869.868164 0.765625)"/>
      <use xlink:href="#DejaVuSans-30" transform="translate(901.655273 0.765625)"/>
      <use xlink:href="#DejaVuSans-2e" transform="translate(965.27832 0.765625)"/>
      <use xlink:href="#DejaVuSans-30" transform="translate(997.06543 0.765625)"/>
      <use xlink:href="#DejaVuSans-34" transform="translate(1060.688477 0.765625)"/>
      <use xlink:href="#DejaVuSans-22c5" transform="translate(1124.311523 0.765625)"/>
      <use xlink:href="#DejaVuSans-31" transform="translate(1156.098633 0.765625)"/>
      <use xlink:href="#DejaVuSans-30" transform="translate(1219.72168 0.765625)"/>
      <use xlink:href="#DejaVuSans-2212" transform="translate(1284.301758 39.046875) scale(0.7)"/>
      <use xlink:href="#DejaVuSans-32" transform="translate(1342.954102 39.046875) scale(0.7)"/>
     </g>
    </g>
    <g id="LineCollection_4">
     <path d="M 76.6 75.770438 
L 76.6 65.770438 
" style="fill: none; stroke: #1f77b4; stroke-width: 1.5"/>
    </g>
    <g id="line2d_38">
     <g>
      <use xlink:href="#mea5916d30a" x="76.6" y="75.770438" style="fill: #1f77b4; stroke: #1f77b4"/>
     </g>
    </g>
    <g id="line2d_39">
     <g>
      <use xlink:href="#mea5916d30a" x="76.6" y="65.770438" style="fill: #1f77b4; stroke: #1f77b4"/>
     </g>
    </g>
    <g id="line2d_40"/>
    <g id="line2d_41">
     <g>
      <use xlink:href="#m6dd7abf3da" x="76.6" y="70.770438" style="fill: #1f77b4; stroke: #1f77b4"/>
     </g>
    </g>
    <g id="text_17">
     <!-- 1.97 m -->
     <g transform="translate(94.6 74.270438) scale(0.1 -0.1)">
      <defs>
       <path id="DejaVuSans-39" d="M 703 97 
L 703 672 
Q 941 559 1184 500 
Q 1428 441 1663 441 
Q 2288 441 2617 861 
Q 2947 1281 2994 2138 
Q 2813 1869 2534 1725 
Q 2256 1581 1919 1581 
Q 1219 1581 811 2004 
Q 403 2428 403 3163 
Q 403 3881 828 4315 
Q 1253 4750 1959 4750 
Q 2769 4750 3195 4129 
Q 3622 3509 3622 2328 
Q 3622 1225 3098 567 
Q 2575 -91 1691 -91 
Q 1453 -91 1209 -44 
Q 966 3 703 97 
z
M 1959 2075 
Q 2384 2075 2632 2365 
Q 2881 2656 2881 3163 
Q 2881 3666 2632 3958 
Q 2384 4250 1959 4250 
Q 1534 4250 1286 3958 
Q 1038 3666 1038 3163 
Q 1038 2656 1286 2365 
Q 1534 2075 1959 2075 
z
" transform="scale(0.015625)"/>
       <path id="DejaVuSans-6d" d="M 3328 2828 
Q 3544 3216 3844 3400 
Q 4144 3584 4550 3584 
Q 5097 3584 5394 3201 
Q 5691 2819 5691 2113 
L 5691 0 
L 5113 0 
L 5113 2094 
Q 5113 2597 4934 2840 
Q 4756 3084 4391 3084 
Q 3944 3084 3684 2787 
Q 3425 2491 3425 1978 
L 3425 0 
L 2847 0 
L 2847 2094 
Q 2847 2600 2669 2842 
Q 2491 3084 2119 3084 
Q 1678 3084 1418 2786 
Q 1159 2488 1159 1978 
L 1159 0 
L 581 0 
L 581 3500 
L 1159 3500 
L 1159 2956 
Q 1356 3278 1631 3431 
Q 1906 3584 2284 3584 
Q 2666 3584 2933 3390 
Q 3200 3197 3328 2828 
z
" transform="scale(0.015625)"/>
      </defs>
      <use xlink:href="#DejaVuSans-31"/>
      <use xlink:href="#DejaVuSans-2e" transform="translate(63.623047 0)"/>
      <use xlink:href="#DejaVuSans-39" transform="translate(95.410156 0)"/>
      <use xlink:href="#DejaVuSans-37" transform="translate(159.033203 0)"/>
      <use xlink:href="#DejaVuSans-20" transform="translate(222.65625 0)"/>
      <use xlink:href="#DejaVuSans-6d" transform="translate(254.443359 0)"/>
     </g>
    </g>
    <g id="LineCollection_5">
     <path d="M 76.6 90.448563 
L 76.6 80.448563 
" style="fill: none; stroke: #ff7f0e; stroke-width: 1.5"/>
    </g>
    <g id="line2d_42">
     <g>
      <use xlink:href="#ma18a93af0e" x="76.6" y="90.448563" style="fill: #ff7f0e; stroke: #ff7f0e"/>
     </g>
    </g>
    <g id="line2d_43">
     <g>
      <use xlink:href="#ma18a93af0e" x="76.6" y="80.448563" style="fill: #ff7f0e; stroke: #ff7f0e"/>
     </g>
    </g>
    <g id="line2d_44"/>
    <g id="line2d_45">
     <g>
      <use xlink:href="#me454483af7" x="76.6" y="85.448563" style="fill: #ff7f0e; stroke: #ff7f0e"/>
     </g>
    </g>
    <g id="text_18">
     <!-- 1.3 m -->
     <g transform="translate(94.6 88.948563) scale(0.1 -0.1)">
      <use xlink:href="#DejaVuSans-31"/>
      <use xlink:href="#DejaVuSans-2e" transform="translate(63.623047 0)"/>
      <use xlink:href="#DejaVuSans-33" transform="translate(95.410156 0)"/>
      <use xlink:href="#DejaVuSans-20" transform="translate(159.033203 0)"/>
      <use xlink:href="#DejaVuSans-6d" transform="translate(190.820312 0)"/>
     </g>
    </g>
    <g id="LineCollection_6">
     <path d="M 76.6 105.126688 
L 76.6 95.126688 
" style="fill: none; stroke: #2ca02c; stroke-width: 1.5"/>
    </g>
    <g id="line2d_46">
     <g>
      <use xlink:href="#mfaabea9449" x="76.6" y="105.126688" style="fill: #2ca02c; stroke: #2ca02c"/>
     </g>
    </g>
    <g id="line2d_47">
     <g>
      <use xlink:href="#mfaabea9449" x="76.6" y="95.126688" style="fill: #2ca02c; stroke: #2ca02c"/>
     </g>
    </g>
    <g id="line2d_48"/>
    <g id="line2d_49">
     <g>
      <use xlink:href="#m6e4627251c" x="76.6" y="100.126688" style="fill: #2ca02c; stroke: #2ca02c"/>
     </g>
    </g>
    <g id="text_19">
     <!-- 0.77 m -->
     <g transform="translate(94.6 103.626688) scale(0.1 -0.1)">
      <use xlink:href="#DejaVuSans-30"/>
      <use xlink:href="#DejaVuSans-2e" transform="translate(63.623047 0)"/>
      <use xlink:href="#DejaVuSans-37" transform="translate(95.410156 0)"/>
      <use xlink:href="#DejaVuSans-37" transform="translate(159.033203 0)"/>
      <use xlink:href="#DejaVuSans-20" transform="translate(222.65625 0)"/>
      <use xlink:href="#DejaVuSans-6d" transform="translate(254.443359 0)"/>
     </g>
    </g>
   </g>
  </g>
 </g>
 <defs>
  <clipPath id="p4d0804b0f6">
   <rect x="57.6" y="41.472" width="357.12" height="266.112"/>
  </clipPath>
 </defs>
</svg>
