<?xml version="1.0" encoding="utf-8" standalone="no"?>
<!DOCTYPE svg PUBLIC "-//W3C//DTD SVG 1.1//EN"
  "http://www.w3.org/Graphics/SVG/1.1/DTD/svg11.dtd">
<svg xmlns:xlink="http://www.w3.org/1999/xlink" width="460.8pt" height="345.6pt" viewBox="0 0 460.8 345.6" xmlns="http://www.w3.org/2000/svg" version="1.1">
 <metadata>
  <rdf:RDF xmlns:dc="http://purl.org/dc/elements/1.1/" xmlns:cc="http://creativecommons.org/ns#" xmlns:rdf="http://www.w3.org/1999/02/22-rdf-syntax-ns#">
   <cc:Work>
    <dc:type rdf:resource="http://purl.org/dc/dcmitype/StillImage"/>
    <dc:date>2025-02-27T11:31:05.980949</dc:date>
    <dc:format>image/svg+xml</dc:format>
    <dc:creator>
     <cc:Agent>
      <dc:title>Matplotlib v3.10.0, https://matplotlib.org/</dc:title>
     </cc:Agent>
    </dc:creator>
   </cc:Work>
  </rdf:RDF>
 </metadata>
 <defs>
  <style type="text/css">*{stroke-linejoin: round; stroke-linecap: butt}</style>
 </defs>
 <g id="figure_1">
  <g id="patch_1">
   <path d="M 0 345.6 
L 460.8 345.6 
L 460.8 0 
L 0 0 
z
" style="fill: #ffffff"/>
  </g>
  <g id="axes_1">
   <g id="patch_2">
    <path d="M 57.6 307.584 
L 414.72 307.584 
L 414.72 41.472 
L 57.6 41.472 
z
" style="fill: #ffffff"/>
   </g>
   <g id="matplotlib.axis_1">
    <g id="xtick_1">
     <g id="line2d_1">
      <path d="M 77.979856 307.584 
L 77.979856 41.472 
" clip-path="url(#pe8ecc5d6a8)" style="fill: none; stroke: #b0b0b0; stroke-width: 0.8; stroke-linecap: square"/>
     </g>
     <g id="line2d_2">
      <defs>
       <path id="mdfc8373d6a" d="M 0 0 
L 0 3.5 
" style="stroke: #000000; stroke-width: 0.8"/>
      </defs>
      <g>
       <use xlink:href="#mdfc8373d6a" x="77.979856" y="307.584" style="stroke: #000000; stroke-width: 0.8"/>
      </g>
     </g>
     <g id="text_1">
      <!-- 0 -->
      <g transform="translate(74.798606 322.182437) scale(0.1 -0.1)">
       <defs>
        <path id="DejaVuSans-30" d="M 2034 4250 
Q 1547 4250 1301 3770 
Q 1056 3291 1056 2328 
Q 1056 1369 1301 889 
Q 1547 409 2034 409 
Q 2525 409 2770 889 
Q 3016 1369 3016 2328 
Q 3016 3291 2770 3770 
Q 2525 4250 2034 4250 
z
M 2034 4750 
Q 2819 4750 3233 4129 
Q 3647 3509 3647 2328 
Q 3647 1150 3233 529 
Q 2819 -91 2034 -91 
Q 1250 -91 836 529 
Q 422 1150 422 2328 
Q 422 3509 836 4129 
Q 1250 4750 2034 4750 
z
" transform="scale(0.015625)"/>
       </defs>
       <use xlink:href="#DejaVuSans-30"/>
      </g>
     </g>
    </g>
    <g id="xtick_2">
     <g id="line2d_3">
      <path d="M 132.238405 307.584 
L 132.238405 41.472 
" clip-path="url(#pe8ecc5d6a8)" style="fill: none; stroke: #b0b0b0; stroke-width: 0.8; stroke-linecap: square"/>
     </g>
     <g id="line2d_4">
      <g>
       <use xlink:href="#mdfc8373d6a" x="132.238405" y="307.584" style="stroke: #000000; stroke-width: 0.8"/>
      </g>
     </g>
     <g id="text_2">
      <!-- 500 -->
      <g transform="translate(122.694655 322.182437) scale(0.1 -0.1)">
       <defs>
        <path id="DejaVuSans-35" d="M 691 4666 
L 3169 4666 
L 3169 4134 
L 1269 4134 
L 1269 2991 
Q 1406 3038 1543 3061 
Q 1681 3084 1819 3084 
Q 2600 3084 3056 2656 
Q 3513 2228 3513 1497 
Q 3513 744 3044 326 
Q 2575 -91 1722 -91 
Q 1428 -91 1123 -41 
Q 819 9 494 109 
L 494 744 
Q 775 591 1075 516 
Q 1375 441 1709 441 
Q 2250 441 2565 725 
Q 2881 1009 2881 1497 
Q 2881 1984 2565 2268 
Q 2250 2553 1709 2553 
Q 1456 2553 1204 2497 
Q 953 2441 691 2322 
L 691 4666 
z
" transform="scale(0.015625)"/>
       </defs>
       <use xlink:href="#DejaVuSans-35"/>
       <use xlink:href="#DejaVuSans-30" transform="translate(63.623047 0)"/>
       <use xlink:href="#DejaVuSans-30" transform="translate(127.246094 0)"/>
      </g>
     </g>
    </g>
    <g id="xtick_3">
     <g id="line2d_5">
      <path d="M 186.496953 307.584 
L 186.496953 41.472 
" clip-path="url(#pe8ecc5d6a8)" style="fill: none; stroke: #b0b0b0; stroke-width: 0.8; stroke-linecap: square"/>
     </g>
     <g id="line2d_6">
      <g>
       <use xlink:href="#mdfc8373d6a" x="186.496953" y="307.584" style="stroke: #000000; stroke-width: 0.8"/>
      </g>
     </g>
     <g id="text_3">
      <!-- 1000 -->
      <g transform="translate(173.771953 322.182437) scale(0.1 -0.1)">
       <defs>
        <path id="DejaVuSans-31" d="M 794 531 
L 1825 531 
L 1825 4091 
L 703 3866 
L 703 4441 
L 1819 4666 
L 2450 4666 
L 2450 531 
L 3481 531 
L 3481 0 
L 794 0 
L 794 531 
z
" transform="scale(0.015625)"/>
       </defs>
       <use xlink:href="#DejaVuSans-31"/>
       <use xlink:href="#DejaVuSans-30" transform="translate(63.623047 0)"/>
       <use xlink:href="#DejaVuSans-30" transform="translate(127.246094 0)"/>
       <use xlink:href="#DejaVuSans-30" transform="translate(190.869141 0)"/>
      </g>
     </g>
    </g>
    <g id="xtick_4">
     <g id="line2d_7">
      <path d="M 240.755502 307.584 
L 240.755502 41.472 
" clip-path="url(#pe8ecc5d6a8)" style="fill: none; stroke: #b0b0b0; stroke-width: 0.8; stroke-linecap: square"/>
     </g>
     <g id="line2d_8">
      <g>
       <use xlink:href="#mdfc8373d6a" x="240.755502" y="307.584" style="stroke: #000000; stroke-width: 0.8"/>
      </g>
     </g>
     <g id="text_4">
      <!-- 1500 -->
      <g transform="translate(228.030502 322.182437) scale(0.1 -0.1)">
       <use xlink:href="#DejaVuSans-31"/>
       <use xlink:href="#DejaVuSans-35" transform="translate(63.623047 0)"/>
       <use xlink:href="#DejaVuSans-30" transform="translate(127.246094 0)"/>
       <use xlink:href="#DejaVuSans-30" transform="translate(190.869141 0)"/>
      </g>
     </g>
    </g>
    <g id="xtick_5">
     <g id="line2d_9">
      <path d="M 295.01405 307.584 
L 295.01405 41.472 
" clip-path="url(#pe8ecc5d6a8)" style="fill: none; stroke: #b0b0b0; stroke-width: 0.8; stroke-linecap: square"/>
     </g>
     <g id="line2d_10">
      <g>
       <use xlink:href="#mdfc8373d6a" x="295.01405" y="307.584" style="stroke: #000000; stroke-width: 0.8"/>
      </g>
     </g>
     <g id="text_5">
      <!-- 2000 -->
      <g transform="translate(282.28905 322.182437) scale(0.1 -0.1)">
       <defs>
        <path id="DejaVuSans-32" d="M 1228 531 
L 3431 531 
L 3431 0 
L 469 0 
L 469 531 
Q 828 903 1448 1529 
Q 2069 2156 2228 2338 
Q 2531 2678 2651 2914 
Q 2772 3150 2772 3378 
Q 2772 3750 2511 3984 
Q 2250 4219 1831 4219 
Q 1534 4219 1204 4116 
Q 875 4013 500 3803 
L 500 4441 
Q 881 4594 1212 4672 
Q 1544 4750 1819 4750 
Q 2544 4750 2975 4387 
Q 3406 4025 3406 3419 
Q 3406 3131 3298 2873 
Q 3191 2616 2906 2266 
Q 2828 2175 2409 1742 
Q 1991 1309 1228 531 
z
" transform="scale(0.015625)"/>
       </defs>
       <use xlink:href="#DejaVuSans-32"/>
       <use xlink:href="#DejaVuSans-30" transform="translate(63.623047 0)"/>
       <use xlink:href="#DejaVuSans-30" transform="translate(127.246094 0)"/>
       <use xlink:href="#DejaVuSans-30" transform="translate(190.869141 0)"/>
      </g>
     </g>
    </g>
    <g id="xtick_6">
     <g id="line2d_11">
      <path d="M 349.272599 307.584 
L 349.272599 41.472 
" clip-path="url(#pe8ecc5d6a8)" style="fill: none; stroke: #b0b0b0; stroke-width: 0.8; stroke-linecap: square"/>
     </g>
     <g id="line2d_12">
      <g>
       <use xlink:href="#mdfc8373d6a" x="349.272599" y="307.584" style="stroke: #000000; stroke-width: 0.8"/>
      </g>
     </g>
     <g id="text_6">
      <!-- 2500 -->
      <g transform="translate(336.547599 322.182437) scale(0.1 -0.1)">
       <use xlink:href="#DejaVuSans-32"/>
       <use xlink:href="#DejaVuSans-35" transform="translate(63.623047 0)"/>
       <use xlink:href="#DejaVuSans-30" transform="translate(127.246094 0)"/>
       <use xlink:href="#DejaVuSans-30" transform="translate(190.869141 0)"/>
      </g>
     </g>
    </g>
    <g id="xtick_7">
     <g id="line2d_13">
      <path d="M 403.531148 307.584 
L 403.531148 41.472 
" clip-path="url(#pe8ecc5d6a8)" style="fill: none; stroke: #b0b0b0; stroke-width: 0.8; stroke-linecap: square"/>
     </g>
     <g id="line2d_14">
      <g>
       <use xlink:href="#mdfc8373d6a" x="403.531148" y="307.584" style="stroke: #000000; stroke-width: 0.8"/>
      </g>
     </g>
     <g id="text_7">
      <!-- 3000 -->
      <g transform="translate(390.806148 322.182437) scale(0.1 -0.1)">
       <defs>
        <path id="DejaVuSans-33" d="M 2597 2516 
Q 3050 2419 3304 2112 
Q 3559 1806 3559 1356 
Q 3559 666 3084 287 
Q 2609 -91 1734 -91 
Q 1441 -91 1130 -33 
Q 819 25 488 141 
L 488 750 
Q 750 597 1062 519 
Q 1375 441 1716 441 
Q 2309 441 2620 675 
Q 2931 909 2931 1356 
Q 2931 1769 2642 2001 
Q 2353 2234 1838 2234 
L 1294 2234 
L 1294 2753 
L 1863 2753 
Q 2328 2753 2575 2939 
Q 2822 3125 2822 3475 
Q 2822 3834 2567 4026 
Q 2313 4219 1838 4219 
Q 1578 4219 1281 4162 
Q 984 4106 628 3988 
L 628 4550 
Q 988 4650 1302 4700 
Q 1616 4750 1894 4750 
Q 2613 4750 3031 4423 
Q 3450 4097 3450 3541 
Q 3450 3153 3228 2886 
Q 3006 2619 2597 2516 
z
" transform="scale(0.015625)"/>
       </defs>
       <use xlink:href="#DejaVuSans-33"/>
       <use xlink:href="#DejaVuSans-30" transform="translate(63.623047 0)"/>
       <use xlink:href="#DejaVuSans-30" transform="translate(127.246094 0)"/>
       <use xlink:href="#DejaVuSans-30" transform="translate(190.869141 0)"/>
      </g>
     </g>
    </g>
    <g id="text_8">
     <!-- Energy [keV] -->
     <g transform="translate(203.952187 335.860562) scale(0.1 -0.1)">
      <defs>
       <path id="DejaVuSans-45" d="M 628 4666 
L 3578 4666 
L 3578 4134 
L 1259 4134 
L 1259 2753 
L 3481 2753 
L 3481 2222 
L 1259 2222 
L 1259 531 
L 3634 531 
L 3634 0 
L 628 0 
L 628 4666 
z
" transform="scale(0.015625)"/>
       <path id="DejaVuSans-6e" d="M 3513 2113 
L 3513 0 
L 2938 0 
L 2938 2094 
Q 2938 2591 2744 2837 
Q 2550 3084 2163 3084 
Q 1697 3084 1428 2787 
Q 1159 2491 1159 1978 
L 1159 0 
L 581 0 
L 581 3500 
L 1159 3500 
L 1159 2956 
Q 1366 3272 1645 3428 
Q 1925 3584 2291 3584 
Q 2894 3584 3203 3211 
Q 3513 2838 3513 2113 
z
" transform="scale(0.015625)"/>
       <path id="DejaVuSans-65" d="M 3597 1894 
L 3597 1613 
L 953 1613 
Q 991 1019 1311 708 
Q 1631 397 2203 397 
Q 2534 397 2845 478 
Q 3156 559 3463 722 
L 3463 178 
Q 3153 47 2828 -22 
Q 2503 -91 2169 -91 
Q 1331 -91 842 396 
Q 353 884 353 1716 
Q 353 2575 817 3079 
Q 1281 3584 2069 3584 
Q 2775 3584 3186 3129 
Q 3597 2675 3597 1894 
z
M 3022 2063 
Q 3016 2534 2758 2815 
Q 2500 3097 2075 3097 
Q 1594 3097 1305 2825 
Q 1016 2553 972 2059 
L 3022 2063 
z
" transform="scale(0.015625)"/>
       <path id="DejaVuSans-72" d="M 2631 2963 
Q 2534 3019 2420 3045 
Q 2306 3072 2169 3072 
Q 1681 3072 1420 2755 
Q 1159 2438 1159 1844 
L 1159 0 
L 581 0 
L 581 3500 
L 1159 3500 
L 1159 2956 
Q 1341 3275 1631 3429 
Q 1922 3584 2338 3584 
Q 2397 3584 2469 3576 
Q 2541 3569 2628 3553 
L 2631 2963 
z
" transform="scale(0.015625)"/>
       <path id="DejaVuSans-67" d="M 2906 1791 
Q 2906 2416 2648 2759 
Q 2391 3103 1925 3103 
Q 1463 3103 1205 2759 
Q 947 2416 947 1791 
Q 947 1169 1205 825 
Q 1463 481 1925 481 
Q 2391 481 2648 825 
Q 2906 1169 2906 1791 
z
M 3481 434 
Q 3481 -459 3084 -895 
Q 2688 -1331 1869 -1331 
Q 1566 -1331 1297 -1286 
Q 1028 -1241 775 -1147 
L 775 -588 
Q 1028 -725 1275 -790 
Q 1522 -856 1778 -856 
Q 2344 -856 2625 -561 
Q 2906 -266 2906 331 
L 2906 616 
Q 2728 306 2450 153 
Q 2172 0 1784 0 
Q 1141 0 747 490 
Q 353 981 353 1791 
Q 353 2603 747 3093 
Q 1141 3584 1784 3584 
Q 2172 3584 2450 3431 
Q 2728 3278 2906 2969 
L 2906 3500 
L 3481 3500 
L 3481 434 
z
" transform="scale(0.015625)"/>
       <path id="DejaVuSans-79" d="M 2059 -325 
Q 1816 -950 1584 -1140 
Q 1353 -1331 966 -1331 
L 506 -1331 
L 506 -850 
L 844 -850 
Q 1081 -850 1212 -737 
Q 1344 -625 1503 -206 
L 1606 56 
L 191 3500 
L 800 3500 
L 1894 763 
L 2988 3500 
L 3597 3500 
L 2059 -325 
z
" transform="scale(0.015625)"/>
       <path id="DejaVuSans-20" transform="scale(0.015625)"/>
       <path id="DejaVuSans-5b" d="M 550 4863 
L 1875 4863 
L 1875 4416 
L 1125 4416 
L 1125 -397 
L 1875 -397 
L 1875 -844 
L 550 -844 
L 550 4863 
z
" transform="scale(0.015625)"/>
       <path id="DejaVuSans-6b" d="M 581 4863 
L 1159 4863 
L 1159 1991 
L 2875 3500 
L 3609 3500 
L 1753 1863 
L 3688 0 
L 2938 0 
L 1159 1709 
L 1159 0 
L 581 0 
L 581 4863 
z
" transform="scale(0.015625)"/>
       <path id="DejaVuSans-56" d="M 1831 0 
L 50 4666 
L 709 4666 
L 2188 738 
L 3669 4666 
L 4325 4666 
L 2547 0 
L 1831 0 
z
" transform="scale(0.015625)"/>
       <path id="DejaVuSans-5d" d="M 1947 4863 
L 1947 -844 
L 622 -844 
L 622 -397 
L 1369 -397 
L 1369 4416 
L 622 4416 
L 622 4863 
L 1947 4863 
z
" transform="scale(0.015625)"/>
      </defs>
      <use xlink:href="#DejaVuSans-45"/>
      <use xlink:href="#DejaVuSans-6e" transform="translate(63.183594 0)"/>
      <use xlink:href="#DejaVuSans-65" transform="translate(126.5625 0)"/>
      <use xlink:href="#DejaVuSans-72" transform="translate(188.085938 0)"/>
      <use xlink:href="#DejaVuSans-67" transform="translate(227.449219 0)"/>
      <use xlink:href="#DejaVuSans-79" transform="translate(290.925781 0)"/>
      <use xlink:href="#DejaVuSans-20" transform="translate(350.105469 0)"/>
      <use xlink:href="#DejaVuSans-5b" transform="translate(381.892578 0)"/>
      <use xlink:href="#DejaVuSans-6b" transform="translate(420.90625 0)"/>
      <use xlink:href="#DejaVuSans-65" transform="translate(475.191406 0)"/>
      <use xlink:href="#DejaVuSans-56" transform="translate(536.714844 0)"/>
      <use xlink:href="#DejaVuSans-5d" transform="translate(605.123047 0)"/>
     </g>
    </g>
   </g>
   <g id="matplotlib.axis_2">
    <g id="ytick_1">
     <g id="line2d_15">
      <path d="M 57.6 295.488 
L 414.72 295.488 
" clip-path="url(#pe8ecc5d6a8)" style="fill: none; stroke: #b0b0b0; stroke-width: 0.8; stroke-linecap: square"/>
     </g>
     <g id="line2d_16">
      <defs>
       <path id="m9160d886e9" d="M 0 0 
L -3.5 0 
" style="stroke: #000000; stroke-width: 0.8"/>
      </defs>
      <g>
       <use xlink:href="#m9160d886e9" x="57.6" y="295.488" style="stroke: #000000; stroke-width: 0.8"/>
      </g>
     </g>
     <g id="text_9">
      <!-- 0 -->
      <g transform="translate(44.2375 299.287219) scale(0.1 -0.1)">
       <use xlink:href="#DejaVuSans-30"/>
      </g>
     </g>
    </g>
    <g id="ytick_2">
     <g id="line2d_17">
      <path d="M 57.6 244.288 
L 414.72 244.288 
" clip-path="url(#pe8ecc5d6a8)" style="fill: none; stroke: #b0b0b0; stroke-width: 0.8; stroke-linecap: square"/>
     </g>
     <g id="line2d_18">
      <g>
       <use xlink:href="#m9160d886e9" x="57.6" y="244.288" style="stroke: #000000; stroke-width: 0.8"/>
      </g>
     </g>
     <g id="text_10">
      <!-- 200 -->
      <g transform="translate(31.5125 248.087219) scale(0.1 -0.1)">
       <use xlink:href="#DejaVuSans-32"/>
       <use xlink:href="#DejaVuSans-30" transform="translate(63.623047 0)"/>
       <use xlink:href="#DejaVuSans-30" transform="translate(127.246094 0)"/>
      </g>
     </g>
    </g>
    <g id="ytick_3">
     <g id="line2d_19">
      <path d="M 57.6 193.088 
L 414.72 193.088 
" clip-path="url(#pe8ecc5d6a8)" style="fill: none; stroke: #b0b0b0; stroke-width: 0.8; stroke-linecap: square"/>
     </g>
     <g id="line2d_20">
      <g>
       <use xlink:href="#m9160d886e9" x="57.6" y="193.088" style="stroke: #000000; stroke-width: 0.8"/>
      </g>
     </g>
     <g id="text_11">
      <!-- 400 -->
      <g transform="translate(31.5125 196.887219) scale(0.1 -0.1)">
       <defs>
        <path id="DejaVuSans-34" d="M 2419 4116 
L 825 1625 
L 2419 1625 
L 2419 4116 
z
M 2253 4666 
L 3047 4666 
L 3047 1625 
L 3713 1625 
L 3713 1100 
L 3047 1100 
L 3047 0 
L 2419 0 
L 2419 1100 
L 313 1100 
L 313 1709 
L 2253 4666 
z
" transform="scale(0.015625)"/>
       </defs>
       <use xlink:href="#DejaVuSans-34"/>
       <use xlink:href="#DejaVuSans-30" transform="translate(63.623047 0)"/>
       <use xlink:href="#DejaVuSans-30" transform="translate(127.246094 0)"/>
      </g>
     </g>
    </g>
    <g id="ytick_4">
     <g id="line2d_21">
      <path d="M 57.6 141.888 
L 414.72 141.888 
" clip-path="url(#pe8ecc5d6a8)" style="fill: none; stroke: #b0b0b0; stroke-width: 0.8; stroke-linecap: square"/>
     </g>
     <g id="line2d_22">
      <g>
       <use xlink:href="#m9160d886e9" x="57.6" y="141.888" style="stroke: #000000; stroke-width: 0.8"/>
      </g>
     </g>
     <g id="text_12">
      <!-- 600 -->
      <g transform="translate(31.5125 145.687219) scale(0.1 -0.1)">
       <defs>
        <path id="DejaVuSans-36" d="M 2113 2584 
Q 1688 2584 1439 2293 
Q 1191 2003 1191 1497 
Q 1191 994 1439 701 
Q 1688 409 2113 409 
Q 2538 409 2786 701 
Q 3034 994 3034 1497 
Q 3034 2003 2786 2293 
Q 2538 2584 2113 2584 
z
M 3366 4563 
L 3366 3988 
Q 3128 4100 2886 4159 
Q 2644 4219 2406 4219 
Q 1781 4219 1451 3797 
Q 1122 3375 1075 2522 
Q 1259 2794 1537 2939 
Q 1816 3084 2150 3084 
Q 2853 3084 3261 2657 
Q 3669 2231 3669 1497 
Q 3669 778 3244 343 
Q 2819 -91 2113 -91 
Q 1303 -91 875 529 
Q 447 1150 447 2328 
Q 447 3434 972 4092 
Q 1497 4750 2381 4750 
Q 2619 4750 2861 4703 
Q 3103 4656 3366 4563 
z
" transform="scale(0.015625)"/>
       </defs>
       <use xlink:href="#DejaVuSans-36"/>
       <use xlink:href="#DejaVuSans-30" transform="translate(63.623047 0)"/>
       <use xlink:href="#DejaVuSans-30" transform="translate(127.246094 0)"/>
      </g>
     </g>
    </g>
    <g id="ytick_5">
     <g id="line2d_23">
      <path d="M 57.6 90.688 
L 414.72 90.688 
" clip-path="url(#pe8ecc5d6a8)" style="fill: none; stroke: #b0b0b0; stroke-width: 0.8; stroke-linecap: square"/>
     </g>
     <g id="line2d_24">
      <g>
       <use xlink:href="#m9160d886e9" x="57.6" y="90.688" style="stroke: #000000; stroke-width: 0.8"/>
      </g>
     </g>
     <g id="text_13">
      <!-- 800 -->
      <g transform="translate(31.5125 94.487219) scale(0.1 -0.1)">
       <defs>
        <path id="DejaVuSans-38" d="M 2034 2216 
Q 1584 2216 1326 1975 
Q 1069 1734 1069 1313 
Q 1069 891 1326 650 
Q 1584 409 2034 409 
Q 2484 409 2743 651 
Q 3003 894 3003 1313 
Q 3003 1734 2745 1975 
Q 2488 2216 2034 2216 
z
M 1403 2484 
Q 997 2584 770 2862 
Q 544 3141 544 3541 
Q 544 4100 942 4425 
Q 1341 4750 2034 4750 
Q 2731 4750 3128 4425 
Q 3525 4100 3525 3541 
Q 3525 3141 3298 2862 
Q 3072 2584 2669 2484 
Q 3125 2378 3379 2068 
Q 3634 1759 3634 1313 
Q 3634 634 3220 271 
Q 2806 -91 2034 -91 
Q 1263 -91 848 271 
Q 434 634 434 1313 
Q 434 1759 690 2068 
Q 947 2378 1403 2484 
z
M 1172 3481 
Q 1172 3119 1398 2916 
Q 1625 2713 2034 2713 
Q 2441 2713 2670 2916 
Q 2900 3119 2900 3481 
Q 2900 3844 2670 4047 
Q 2441 4250 2034 4250 
Q 1625 4250 1398 4047 
Q 1172 3844 1172 3481 
z
" transform="scale(0.015625)"/>
       </defs>
       <use xlink:href="#DejaVuSans-38"/>
       <use xlink:href="#DejaVuSans-30" transform="translate(63.623047 0)"/>
       <use xlink:href="#DejaVuSans-30" transform="translate(127.246094 0)"/>
      </g>
     </g>
    </g>
    <g id="text_14">
     <!-- Events -->
     <g transform="translate(25.432812 191.456906) rotate(-90) scale(0.1 -0.1)">
      <defs>
       <path id="DejaVuSans-76" d="M 191 3500 
L 800 3500 
L 1894 563 
L 2988 3500 
L 3597 3500 
L 2284 0 
L 1503 0 
L 191 3500 
z
" transform="scale(0.015625)"/>
       <path id="DejaVuSans-74" d="M 1172 4494 
L 1172 3500 
L 2356 3500 
L 2356 3053 
L 1172 3053 
L 1172 1153 
Q 1172 725 1289 603 
Q 1406 481 1766 481 
L 2356 481 
L 2356 0 
L 1766 0 
Q 1100 0 847 248 
Q 594 497 594 1153 
L 594 3053 
L 172 3053 
L 172 3500 
L 594 3500 
L 594 4494 
L 1172 4494 
z
" transform="scale(0.015625)"/>
       <path id="DejaVuSans-73" d="M 2834 3397 
L 2834 2853 
Q 2591 2978 2328 3040 
Q 2066 3103 1784 3103 
Q 1356 3103 1142 2972 
Q 928 2841 928 2578 
Q 928 2378 1081 2264 
Q 1234 2150 1697 2047 
L 1894 2003 
Q 2506 1872 2764 1633 
Q 3022 1394 3022 966 
Q 3022 478 2636 193 
Q 2250 -91 1575 -91 
Q 1294 -91 989 -36 
Q 684 19 347 128 
L 347 722 
Q 666 556 975 473 
Q 1284 391 1588 391 
Q 1994 391 2212 530 
Q 2431 669 2431 922 
Q 2431 1156 2273 1281 
Q 2116 1406 1581 1522 
L 1381 1569 
Q 847 1681 609 1914 
Q 372 2147 372 2553 
Q 372 3047 722 3315 
Q 1072 3584 1716 3584 
Q 2034 3584 2315 3537 
Q 2597 3491 2834 3397 
z
" transform="scale(0.015625)"/>
      </defs>
      <use xlink:href="#DejaVuSans-45"/>
      <use xlink:href="#DejaVuSans-76" transform="translate(63.183594 0)"/>
      <use xlink:href="#DejaVuSans-65" transform="translate(122.363281 0)"/>
      <use xlink:href="#DejaVuSans-6e" transform="translate(183.886719 0)"/>
      <use xlink:href="#DejaVuSans-74" transform="translate(247.265625 0)"/>
      <use xlink:href="#DejaVuSans-73" transform="translate(286.474609 0)"/>
     </g>
    </g>
   </g>
   <g id="line2d_25">
    <path d="M 73.832727 293.696 
L 74.150393 292.416 
L 74.468059 292.928 
L 74.785725 294.464 
L 75.103391 294.72 
L 75.421057 286.784 
L 76.374054 219.2 
L 77.009386 206.4 
L 77.327052 224.064 
L 77.644718 255.808 
L 77.962384 275.008 
L 78.28005 265.536 
L 78.597716 226.624 
L 78.915382 225.088 
L 79.233048 218.944 
L 79.550713 219.712 
L 79.868379 198.72 
L 80.186045 192.32 
L 80.503711 182.08 
L 80.821377 165.184 
L 81.774375 133.184 
L 82.409706 84.544 
L 83.045038 54.592 
L 83.362704 56.128 
L 83.68037 66.112 
L 83.998036 67.392 
L 84.315702 64.064 
L 84.633368 63.808 
L 84.951034 76.352 
L 85.2687 53.568 
L 85.586365 71.488 
L 85.904031 82.24 
L 86.221697 77.632 
L 86.539363 70.72 
L 86.857029 80.192 
L 87.174695 67.392 
L 87.492361 72.512 
L 87.810027 83.776 
L 88.127693 83.776 
L 88.445358 83.008 
L 88.763024 84.544 
L 89.08069 87.616 
L 89.398356 79.936 
L 90.033688 107.328 
L 90.351354 103.232 
L 90.66902 113.216 
L 90.986686 116.288 
L 91.304352 122.176 
L 91.622017 108.352 
L 91.939683 129.344 
L 92.257349 121.664 
L 92.575015 118.08 
L 92.892681 134.464 
L 93.210347 138.56 
L 93.528013 134.464 
L 93.845679 133.184 
L 94.48101 158.528 
L 94.798676 149.568 
L 95.116342 149.312 
L 95.434008 161.6 
L 95.751674 148.8 
L 96.06934 161.856 
L 96.387006 158.272 
L 96.704672 162.624 
L 97.022338 161.856 
L 97.340004 169.024 
L 97.657669 155.456 
L 97.975335 178.752 
L 98.293001 176.704 
L 98.610667 172.352 
L 98.928333 176.192 
L 99.245999 173.632 
L 99.563665 180.8 
L 99.881331 183.872 
L 100.198997 185.408 
L 100.834328 179.008 
L 101.46966 190.784 
L 101.787326 191.552 
L 102.104992 190.784 
L 102.422658 190.528 
L 102.740324 190.016 
L 103.05799 204.352 
L 103.375656 211.776 
L 103.693321 204.864 
L 104.010987 217.152 
L 104.328653 219.2 
L 104.646319 214.592 
L 104.963985 211.776 
L 105.281651 220.48 
L 105.599317 219.968 
L 105.916983 218.944 
L 106.234649 221.248 
L 106.552315 215.36 
L 106.86998 224.576 
L 107.187646 223.296 
L 107.505312 228.928 
L 107.822978 222.784 
L 108.140644 220.48 
L 108.45831 229.952 
L 108.775976 230.464 
L 109.093642 227.136 
L 109.411308 228.928 
L 109.728973 234.048 
L 110.046639 232.256 
L 110.364305 235.84 
L 110.681971 244.032 
L 110.999637 244.544 
L 111.317303 245.312 
L 111.634969 239.424 
L 111.952635 243.264 
L 112.270301 234.048 
L 112.587967 246.592 
L 112.905632 242.24 
L 113.223298 244.288 
L 113.540964 240.448 
L 113.85863 238.912 
L 114.176296 238.656 
L 114.493962 236.608 
L 114.811628 235.584 
L 115.764626 250.688 
L 116.082291 245.056 
L 116.399957 244.032 
L 116.717623 244.544 
L 117.035289 249.152 
L 117.352955 256.32 
L 117.988287 251.968 
L 118.305953 259.904 
L 118.623619 257.6 
L 118.941284 261.952 
L 119.25895 253.76 
L 119.576616 264 
L 119.894282 257.856 
L 120.211948 261.952 
L 120.529614 259.392 
L 120.84728 268.608 
L 121.164946 266.56 
L 121.482612 261.44 
L 121.800278 266.048 
L 122.117943 265.536 
L 122.435609 265.536 
L 122.753275 264.512 
L 123.070941 265.792 
L 123.388607 263.744 
L 123.706273 265.28 
L 124.023939 267.584 
L 124.341605 266.304 
L 124.659271 269.888 
L 124.976936 265.792 
L 125.612268 268.608 
L 125.929934 271.68 
L 126.2476 266.816 
L 126.565266 269.12 
L 126.882932 263.488 
L 127.200598 264.256 
L 127.518264 271.936 
L 127.83593 268.864 
L 128.153595 271.424 
L 128.471261 271.168 
L 128.788927 275.776 
L 129.106593 269.376 
L 129.424259 277.312 
L 129.741925 270.144 
L 130.377257 273.984 
L 130.694923 271.68 
L 131.012589 271.936 
L 131.330254 270.144 
L 131.64792 271.168 
L 131.965586 272.96 
L 132.283252 271.424 
L 132.600918 273.728 
L 132.918584 271.168 
L 133.23625 276.544 
L 133.553916 273.216 
L 133.871582 273.984 
L 134.189247 276.032 
L 134.506913 275.52 
L 134.824579 277.312 
L 135.142245 273.216 
L 135.459911 277.056 
L 135.777577 276.8 
L 136.095243 276.032 
L 136.412909 276.032 
L 136.730575 277.312 
L 137.048241 275.008 
L 137.365906 275.776 
L 137.683572 279.616 
L 138.001238 278.08 
L 138.318904 275.008 
L 138.954236 280.128 
L 139.271902 277.824 
L 139.589568 277.312 
L 139.907234 272.704 
L 140.224899 279.872 
L 140.542565 272.448 
L 140.860231 275.264 
L 141.177897 276.288 
L 141.813229 271.936 
L 142.130895 273.216 
L 142.448561 267.84 
L 142.766227 270.912 
L 143.083893 270.912 
L 143.401558 267.84 
L 143.719224 270.4 
L 144.03689 269.12 
L 144.354556 271.168 
L 144.672222 270.656 
L 144.989888 267.84 
L 145.307554 268.352 
L 145.62522 266.816 
L 145.942886 266.048 
L 146.260552 260.416 
L 146.895883 258.624 
L 147.213549 261.696 
L 147.531215 255.04 
L 147.848881 251.968 
L 148.166547 253.76 
L 148.484213 247.872 
L 148.801879 248.128 
L 149.119545 237.12 
L 149.43721 231.488 
L 150.072542 241.472 
L 150.390208 239.936 
L 150.707874 237.632 
L 151.02554 239.168 
L 151.343206 247.872 
L 151.660872 239.424 
L 151.978538 253.248 
L 152.296204 259.136 
L 152.613869 260.928 
L 152.931535 263.488 
L 153.249201 268.352 
L 153.566867 269.888 
L 153.884533 276.032 
L 154.202199 275.776 
L 154.519865 279.104 
L 154.837531 286.784 
L 155.155197 283.968 
L 155.472862 284.48 
L 155.790528 287.04 
L 156.108194 286.272 
L 156.42586 284.992 
L 156.743526 287.04 
L 157.061192 285.76 
L 157.378858 286.528 
L 157.696524 285.248 
L 158.331856 287.552 
L 158.967187 285.76 
L 159.284853 287.296 
L 159.602519 286.528 
L 159.920185 286.272 
L 160.237851 284.736 
L 160.555517 286.016 
L 160.873183 286.528 
L 161.190849 288.064 
L 161.508514 285.76 
L 161.82618 288.064 
L 162.143846 286.016 
L 162.461512 288.832 
L 162.779178 285.76 
L 163.096844 290.368 
L 163.41451 288.064 
L 164.049842 287.04 
L 164.367508 287.808 
L 164.685173 289.344 
L 165.638171 286.528 
L 165.955837 290.368 
L 166.273503 289.6 
L 166.591169 289.856 
L 167.226501 287.552 
L 167.544167 287.296 
L 167.861832 287.552 
L 168.179498 288.832 
L 168.497164 290.88 
L 169.132496 289.088 
L 169.450162 289.344 
L 169.767828 289.088 
L 170.085494 289.856 
L 170.40316 288.832 
L 170.720825 288.32 
L 171.038491 290.368 
L 171.356157 287.04 
L 171.673823 286.784 
L 171.991489 290.624 
L 172.309155 289.856 
L 172.626821 289.6 
L 172.944487 289.856 
L 173.262153 286.272 
L 173.579819 289.856 
L 174.21515 287.296 
L 174.532816 288.064 
L 174.850482 289.344 
L 175.168148 289.088 
L 175.485814 288.32 
L 175.80348 288.32 
L 176.121146 288.576 
L 176.438812 287.296 
L 177.074143 288.832 
L 177.391809 287.296 
L 177.709475 291.136 
L 178.027141 288.064 
L 178.344807 286.784 
L 178.662473 286.272 
L 178.980139 289.856 
L 179.297805 288.32 
L 179.615471 288.32 
L 179.933136 290.112 
L 180.568468 289.088 
L 180.886134 286.784 
L 181.2038 289.344 
L 181.521466 287.04 
L 181.839132 286.272 
L 182.156798 288.576 
L 182.474464 288.576 
L 182.79213 287.808 
L 183.109795 289.856 
L 183.427461 287.552 
L 183.745127 287.04 
L 184.062793 288.32 
L 184.380459 288.832 
L 185.015791 288.832 
L 185.651123 292.416 
L 186.921786 289.344 
L 187.239452 291.648 
L 187.557118 289.6 
L 187.874784 290.368 
L 188.19245 290.624 
L 188.510116 290.368 
L 188.827782 287.808 
L 189.145447 289.344 
L 189.463113 288.064 
L 189.780779 287.296 
L 190.098445 289.856 
L 190.733777 292.672 
L 191.369109 288.832 
L 191.686775 289.856 
L 192.00444 291.648 
L 193.275104 288.576 
L 193.910436 290.368 
L 194.228102 289.6 
L 194.545768 290.88 
L 194.863434 289.088 
L 195.181099 290.368 
L 195.498765 290.112 
L 195.816431 290.624 
L 196.134097 288.832 
L 196.451763 288.576 
L 196.769429 289.6 
L 197.087095 289.344 
L 197.404761 290.624 
L 197.722427 289.856 
L 198.040093 289.6 
L 198.357758 286.528 
L 198.675424 288.832 
L 198.99309 288.064 
L 199.310756 291.648 
L 199.628422 289.344 
L 199.946088 289.088 
L 200.58142 290.624 
L 200.899086 288.32 
L 201.216751 288.576 
L 201.534417 289.344 
L 201.852083 291.136 
L 202.169749 290.112 
L 202.487415 290.112 
L 202.805081 289.344 
L 203.122747 289.6 
L 203.440413 290.624 
L 204.075745 288.32 
L 204.39341 289.856 
L 204.711076 292.416 
L 205.028742 290.88 
L 205.346408 291.392 
L 205.664074 291.136 
L 205.98174 289.856 
L 206.299406 291.648 
L 206.617072 290.368 
L 206.934738 290.112 
L 207.252403 288.32 
L 207.570069 291.136 
L 207.887735 289.344 
L 208.205401 290.624 
L 208.840733 291.648 
L 209.158399 291.904 
L 209.476065 289.6 
L 209.793731 290.624 
L 210.111397 291.136 
L 210.429062 292.16 
L 210.746728 291.648 
L 211.064394 290.624 
L 211.38206 291.392 
L 211.699726 291.392 
L 212.017392 290.368 
L 212.335058 292.16 
L 212.652724 292.16 
L 212.97039 291.648 
L 213.288056 291.392 
L 213.605721 293.184 
L 213.923387 292.672 
L 214.241053 290.88 
L 214.558719 292.672 
L 214.876385 292.416 
L 215.194051 291.392 
L 215.511717 293.184 
L 215.829383 292.416 
L 216.147049 292.928 
L 216.464714 293.696 
L 216.78238 290.624 
L 217.100046 292.672 
L 217.417712 292.928 
L 217.735378 292.928 
L 218.053044 293.184 
L 218.37071 293.952 
L 218.688376 293.696 
L 219.006042 292.416 
L 219.323708 293.44 
L 219.641373 291.392 
L 219.959039 291.904 
L 220.276705 291.648 
L 220.594371 292.416 
L 220.912037 292.416 
L 221.229703 291.904 
L 221.547369 291.648 
L 221.865035 292.672 
L 222.182701 292.416 
L 222.500366 292.672 
L 223.135698 293.952 
L 223.453364 292.928 
L 223.77103 293.696 
L 224.088696 292.16 
L 225.041694 292.928 
L 225.35936 291.392 
L 225.677025 293.44 
L 225.994691 293.184 
L 226.312357 288.832 
L 226.947689 293.184 
L 227.583021 290.624 
L 227.900687 291.648 
L 228.218353 290.112 
L 228.853684 290.624 
L 229.17135 289.088 
L 229.489016 289.088 
L 229.806682 290.368 
L 230.124348 290.368 
L 230.442014 287.552 
L 230.75968 287.808 
L 231.077346 288.32 
L 231.395012 284.48 
L 231.712677 287.552 
L 232.030343 285.504 
L 232.348009 287.552 
L 232.665675 285.248 
L 232.983341 285.76 
L 233.301007 286.016 
L 233.618673 285.248 
L 233.936339 285.504 
L 234.254005 286.272 
L 234.571671 283.456 
L 234.889336 287.552 
L 235.207002 283.968 
L 235.524668 285.76 
L 235.842334 286.528 
L 236.16 286.528 
L 236.477666 287.552 
L 236.795332 285.76 
L 237.112998 287.04 
L 237.748329 288.576 
L 238.065995 288.576 
L 238.383661 289.6 
L 238.701327 288.832 
L 239.018993 289.088 
L 239.336659 288.064 
L 239.654325 291.392 
L 239.971991 291.904 
L 240.289657 291.648 
L 240.607323 292.16 
L 240.924988 291.648 
L 241.242654 290.88 
L 241.56032 292.672 
L 241.877986 291.904 
L 242.195652 293.184 
L 242.513318 292.672 
L 242.830984 292.928 
L 243.14865 292.928 
L 243.466316 292.416 
L 243.783981 293.952 
L 244.101647 294.464 
L 244.419313 293.952 
L 244.736979 293.696 
L 245.054645 293.184 
L 245.372311 293.952 
L 245.689977 293.952 
L 246.007643 294.464 
L 246.96064 293.696 
L 247.278306 294.976 
L 247.595972 292.928 
L 247.913638 294.72 
L 248.231304 294.464 
L 248.54897 293.696 
L 248.866636 293.44 
L 249.501968 294.72 
L 249.819634 293.696 
L 250.137299 294.72 
L 250.454965 294.976 
L 250.772631 294.976 
L 251.090297 293.696 
L 251.407963 293.184 
L 251.725629 294.208 
L 252.043295 294.464 
L 252.678627 293.952 
L 252.996292 293.952 
L 253.631624 294.464 
L 254.266956 295.488 
L 254.902288 293.696 
L 255.219954 294.72 
L 255.53762 293.952 
L 255.855286 294.976 
L 256.172951 293.696 
L 256.490617 293.696 
L 256.808283 293.952 
L 257.125949 293.696 
L 257.443615 294.72 
L 257.761281 293.696 
L 258.078947 293.696 
L 258.396613 293.952 
L 258.714279 294.464 
L 259.031944 293.44 
L 259.34961 293.44 
L 259.667276 293.696 
L 259.984942 294.72 
L 260.302608 293.44 
L 260.620274 293.696 
L 260.93794 293.696 
L 261.255606 294.72 
L 261.573272 293.696 
L 261.890938 293.44 
L 262.208603 294.208 
L 262.526269 293.696 
L 262.843935 293.696 
L 263.161601 291.392 
L 263.479267 292.928 
L 263.796933 293.696 
L 264.114599 292.928 
L 264.432265 294.208 
L 264.749931 294.72 
L 265.067597 292.928 
L 265.385262 293.44 
L 265.702928 292.672 
L 266.020594 292.672 
L 266.33826 293.952 
L 266.655926 293.184 
L 266.973592 293.44 
L 267.291258 292.928 
L 267.608924 292.928 
L 267.92659 294.464 
L 268.244255 294.464 
L 268.879587 293.44 
L 269.197253 294.464 
L 269.514919 294.464 
L 269.832585 293.184 
L 270.467917 293.696 
L 270.785583 294.72 
L 271.103249 294.464 
L 271.420914 292.416 
L 271.73858 294.72 
L 272.056246 294.208 
L 272.373912 294.208 
L 272.691578 294.464 
L 273.009244 294.464 
L 273.32691 294.976 
L 273.962242 293.952 
L 274.279907 294.72 
L 274.915239 293.44 
L 275.232905 294.72 
L 275.550571 294.72 
L 275.868237 294.976 
L 276.185903 294.208 
L 276.503569 294.208 
L 276.821235 295.232 
L 277.138901 295.488 
L 277.456566 295.488 
L 277.774232 294.976 
L 278.72723 294.208 
L 279.044896 294.464 
L 279.362562 295.232 
L 279.680228 295.232 
L 279.997894 294.72 
L 280.633225 295.232 
L 280.950891 294.976 
L 281.268557 295.488 
L 281.586223 295.232 
L 281.903889 295.488 
L 282.221555 294.976 
L 282.856887 295.488 
L 283.174553 294.976 
L 283.809884 295.488 
L 284.12755 295.232 
L 284.445216 294.72 
L 285.080548 295.232 
L 285.398214 293.952 
L 285.71588 295.232 
L 286.033546 294.464 
L 286.351212 295.232 
L 286.986543 294.72 
L 287.304209 293.952 
L 287.621875 294.976 
L 288.257207 294.976 
L 288.574873 295.232 
L 288.892539 295.232 
L 289.210205 294.976 
L 289.52787 294.976 
L 289.845536 294.208 
L 290.163202 293.952 
L 290.480868 294.976 
L 290.798534 294.976 
L 291.1162 295.232 
L 291.433866 294.464 
L 291.751532 295.232 
L 292.069198 294.72 
L 292.386864 295.232 
L 292.704529 294.976 
L 293.022195 295.488 
L 293.339861 295.488 
L 293.657527 295.232 
L 293.975193 295.232 
L 294.292859 295.488 
L 294.928191 294.976 
L 295.245857 294.976 
L 295.563523 295.232 
L 295.881188 295.232 
L 296.198854 294.464 
L 296.51652 295.232 
L 296.834186 294.72 
L 297.151852 294.976 
L 297.469518 294.976 
L 297.787184 294.72 
L 298.10485 294.976 
L 298.422516 295.488 
L 298.740181 294.976 
L 299.057847 294.976 
L 299.375513 294.208 
L 299.693179 294.976 
L 300.010845 294.464 
L 300.328511 293.696 
L 300.646177 294.976 
L 300.963843 294.464 
L 301.281509 295.232 
L 301.599175 295.232 
L 301.91684 294.72 
L 302.234506 293.696 
L 302.869838 295.488 
L 303.187504 294.208 
L 303.50517 294.72 
L 304.140502 294.72 
L 304.458168 294.208 
L 304.775833 294.72 
L 305.093499 294.72 
L 305.411165 294.464 
L 305.728831 294.464 
L 306.046497 295.232 
L 306.364163 294.72 
L 306.681829 295.232 
L 306.999495 294.976 
L 307.317161 294.464 
L 307.634827 294.976 
L 307.952492 294.976 
L 308.270158 294.72 
L 308.587824 295.232 
L 308.90549 294.976 
L 309.223156 295.488 
L 309.540822 295.488 
L 309.858488 295.232 
L 310.49382 293.696 
L 310.811486 295.232 
L 311.446817 294.72 
L 311.764483 294.72 
L 312.082149 294.464 
L 312.399815 295.488 
L 313.035147 293.184 
L 313.352813 294.464 
L 313.670479 294.464 
L 313.988144 294.72 
L 314.30581 293.952 
L 314.623476 294.976 
L 314.941142 295.232 
L 315.576474 294.72 
L 315.89414 294.72 
L 316.211806 294.464 
L 316.529472 295.232 
L 316.847138 294.976 
L 317.164803 295.232 
L 317.482469 294.976 
L 317.800135 295.488 
L 318.117801 294.976 
L 318.435467 294.976 
L 319.070799 294.464 
L 319.388465 295.488 
L 319.706131 295.232 
L 320.023796 294.208 
L 320.659128 295.232 
L 320.976794 294.976 
L 321.929792 294.976 
L 322.247458 294.208 
L 322.565124 295.488 
L 322.88279 295.488 
L 323.200455 294.72 
L 323.518121 294.976 
L 323.835787 294.72 
L 324.153453 295.488 
L 324.471119 295.488 
L 324.788785 295.232 
L 325.106451 295.232 
L 325.424117 295.488 
L 326.059448 294.976 
L 326.377114 295.232 
L 326.69478 295.232 
L 327.012446 294.976 
L 327.330112 295.488 
L 327.647778 295.232 
L 327.965444 294.72 
L 328.28311 295.232 
L 328.600776 295.232 
L 328.918442 295.488 
L 329.236107 295.488 
L 329.553773 294.976 
L 329.871439 295.488 
L 330.189105 294.72 
L 330.506771 295.232 
L 330.824437 295.488 
L 331.777435 295.488 
L 332.095101 294.976 
L 332.412766 295.488 
L 333.048098 295.488 
L 333.365764 294.976 
L 333.68343 295.488 
L 334.001096 294.976 
L 334.318762 295.488 
L 334.636428 295.232 
L 334.954094 295.232 
L 335.271759 294.72 
L 335.907091 295.232 
L 336.224757 294.976 
L 336.860089 295.488 
L 337.177755 295.232 
L 337.495421 295.488 
L 337.813087 295.488 
L 338.130753 294.976 
L 338.448418 295.232 
L 338.766084 295.232 
L 339.08375 295.488 
L 339.401416 294.976 
L 339.719082 295.232 
L 340.989746 295.232 
L 341.307411 295.488 
L 342.260409 295.488 
L 342.578075 294.976 
L 342.895741 295.488 
L 343.213407 295.488 
L 343.531073 295.232 
L 344.166405 295.232 
L 344.48407 294.976 
L 344.801736 294.464 
L 345.119402 295.488 
L 345.437068 295.232 
L 345.754734 295.488 
L 346.0724 294.976 
L 346.707732 294.976 
L 347.025398 295.232 
L 347.343064 295.232 
L 347.660729 295.488 
L 347.978395 294.976 
L 348.296061 295.232 
L 348.613727 294.976 
L 348.931393 295.232 
L 349.249059 293.696 
L 349.566725 294.976 
L 349.884391 294.976 
L 350.202057 295.232 
L 350.519722 294.72 
L 350.837388 294.464 
L 351.155054 294.464 
L 351.47272 294.976 
L 351.790386 293.952 
L 352.108052 294.208 
L 352.425718 294.208 
L 353.378716 294.976 
L 353.696381 293.952 
L 354.014047 294.464 
L 354.331713 294.208 
L 354.649379 294.976 
L 354.967045 295.232 
L 355.284711 293.952 
L 355.602377 295.232 
L 355.920043 294.72 
L 356.237709 294.72 
L 356.555374 295.232 
L 356.87304 295.232 
L 357.190706 294.976 
L 357.508372 295.232 
L 357.826038 294.72 
L 358.143704 294.976 
L 358.46137 295.488 
L 358.779036 295.232 
L 359.096702 295.488 
L 359.414368 295.488 
L 359.732033 294.464 
L 360.049699 295.488 
L 360.367365 295.232 
L 360.685031 295.488 
L 361.320363 294.976 
L 361.638029 295.488 
L 361.955695 295.232 
L 362.273361 295.488 
L 362.591027 295.232 
L 362.908692 295.232 
L 363.226358 295.488 
L 363.544024 295.488 
L 364.179356 294.976 
L 364.814688 295.488 
L 365.767685 295.488 
L 366.085351 295.232 
L 366.720683 295.232 
L 367.038349 295.488 
L 367.356015 295.488 
L 367.673681 295.232 
L 367.991347 295.232 
L 368.309013 295.488 
L 368.626679 295.488 
L 368.944344 295.232 
L 369.26201 295.488 
L 369.579676 295.488 
L 369.897342 295.232 
L 370.215008 295.488 
L 374.979996 295.488 
L 375.297662 295.232 
L 375.615328 295.488 
L 379.744985 295.488 
L 380.062651 295.232 
L 380.380317 295.488 
L 383.23931 295.488 
L 383.556976 295.232 
L 383.874642 295.232 
L 384.192307 295.488 
L 384.827639 295.488 
L 385.145305 295.232 
L 385.462971 295.488 
L 385.780637 295.232 
L 386.098303 295.232 
L 386.415969 295.488 
L 386.733635 295.232 
L 387.0513 295.488 
L 387.686632 295.488 
L 388.004298 295.232 
L 388.321964 295.488 
L 388.63963 294.976 
L 388.957296 295.232 
L 389.274962 294.976 
L 389.592628 295.488 
L 390.227959 295.488 
L 390.545625 295.232 
L 390.863291 295.488 
L 391.816289 295.488 
L 392.133955 295.232 
L 392.451621 295.488 
L 393.404618 295.488 
L 393.722284 295.232 
L 394.03995 295.488 
L 394.357616 295.488 
L 394.675282 295.232 
L 394.992948 295.232 
L 395.310614 295.488 
L 396.263611 295.488 
L 396.581277 295.232 
L 396.898943 295.488 
L 398.487273 295.488 
L 398.487273 295.488 
" clip-path="url(#pe8ecc5d6a8)" style="fill: none; stroke: #1f77b4; stroke-width: 1.5; stroke-linecap: square"/>
   </g>
   <g id="line2d_26">
    <defs>
     <path id="m99619a2370" d="M -3 3 
L 3 -3 
M -3 -3 
L 3 3 
" style="stroke: #ff7f0e"/>
    </defs>
    <g clip-path="url(#pe8ecc5d6a8)">
     <use xlink:href="#m99619a2370" x="150.294908" y="239.936" style="fill: #ff7f0e; stroke: #ff7f0e"/>
     <use xlink:href="#m99619a2370" x="239.940224" y="291.904" style="fill: #ff7f0e; stroke: #ff7f0e"/>
    </g>
   </g>
   <g id="patch_3">
    <path d="M 57.6 307.584 
L 57.6 41.472 
" style="fill: none; stroke: #000000; stroke-width: 0.8; stroke-linejoin: miter; stroke-linecap: square"/>
   </g>
   <g id="patch_4">
    <path d="M 414.72 307.584 
L 414.72 41.472 
" style="fill: none; stroke: #000000; stroke-width: 0.8; stroke-linejoin: miter; stroke-linecap: square"/>
   </g>
   <g id="patch_5">
    <path d="M 57.6 307.584 
L 414.72 307.584 
" style="fill: none; stroke: #000000; stroke-width: 0.8; stroke-linejoin: miter; stroke-linecap: square"/>
   </g>
   <g id="patch_6">
    <path d="M 57.6 41.472 
L 414.72 41.472 
" style="fill: none; stroke: #000000; stroke-width: 0.8; stroke-linejoin: miter; stroke-linecap: square"/>
   </g>
   <g id="legend_1">
    <g id="patch_7">
     <path d="M 346.771563 64.150125 
L 407.72 64.150125 
Q 409.72 64.150125 409.72 62.150125 
L 409.72 48.472 
Q 409.72 46.472 407.72 46.472 
L 346.771563 46.472 
Q 344.771563 46.472 344.771563 48.472 
L 344.771563 62.150125 
Q 344.771563 64.150125 346.771563 64.150125 
z
" style="fill: #ffffff; opacity: 0.8; stroke: #cccccc; stroke-linejoin: miter"/>
    </g>
    <g id="line2d_27">
     <g>
      <use xlink:href="#m99619a2370" x="358.771563" y="54.570438" style="fill: #ff7f0e; stroke: #ff7f0e"/>
     </g>
    </g>
    <g id="text_15">
     <!-- Peaks -->
     <g transform="translate(376.771563 58.070438) scale(0.1 -0.1)">
      <defs>
       <path id="DejaVuSans-50" d="M 1259 4147 
L 1259 2394 
L 2053 2394 
Q 2494 2394 2734 2622 
Q 2975 2850 2975 3272 
Q 2975 3691 2734 3919 
Q 2494 4147 2053 4147 
L 1259 4147 
z
M 628 4666 
L 2053 4666 
Q 2838 4666 3239 4311 
Q 3641 3956 3641 3272 
Q 3641 2581 3239 2228 
Q 2838 1875 2053 1875 
L 1259 1875 
L 1259 0 
L 628 0 
L 628 4666 
z
" transform="scale(0.015625)"/>
       <path id="DejaVuSans-61" d="M 2194 1759 
Q 1497 1759 1228 1600 
Q 959 1441 959 1056 
Q 959 750 1161 570 
Q 1363 391 1709 391 
Q 2188 391 2477 730 
Q 2766 1069 2766 1631 
L 2766 1759 
L 2194 1759 
z
M 3341 1997 
L 3341 0 
L 2766 0 
L 2766 531 
Q 2569 213 2275 61 
Q 1981 -91 1556 -91 
Q 1019 -91 701 211 
Q 384 513 384 1019 
Q 384 1609 779 1909 
Q 1175 2209 1959 2209 
L 2766 2209 
L 2766 2266 
Q 2766 2663 2505 2880 
Q 2244 3097 1772 3097 
Q 1472 3097 1187 3025 
Q 903 2953 641 2809 
L 641 3341 
Q 956 3463 1253 3523 
Q 1550 3584 1831 3584 
Q 2591 3584 2966 3190 
Q 3341 2797 3341 1997 
z
" transform="scale(0.015625)"/>
      </defs>
      <use xlink:href="#DejaVuSans-50"/>
      <use xlink:href="#DejaVuSans-65" transform="translate(56.677734 0)"/>
      <use xlink:href="#DejaVuSans-61" transform="translate(118.201172 0)"/>
      <use xlink:href="#DejaVuSans-6b" transform="translate(179.480469 0)"/>
      <use xlink:href="#DejaVuSans-73" transform="translate(237.390625 0)"/>
     </g>
    </g>
   </g>
  </g>
 </g>
 <defs>
  <clipPath id="pe8ecc5d6a8">
   <rect x="57.6" y="41.472" width="357.12" height="266.112"/>
  </clipPath>
 </defs>
</svg>
