<?xml version="1.0" encoding="utf-8" standalone="no"?>
<!DOCTYPE svg PUBLIC "-//W3C//DTD SVG 1.1//EN"
  "http://www.w3.org/Graphics/SVG/1.1/DTD/svg11.dtd">
<svg xmlns:xlink="http://www.w3.org/1999/xlink" width="460.8pt" height="345.6pt" viewBox="0 0 460.8 345.6" xmlns="http://www.w3.org/2000/svg" version="1.1">
 <metadata>
  <rdf:RDF xmlns:dc="http://purl.org/dc/elements/1.1/" xmlns:cc="http://creativecommons.org/ns#" xmlns:rdf="http://www.w3.org/1999/02/22-rdf-syntax-ns#">
   <cc:Work>
    <dc:type rdf:resource="http://purl.org/dc/dcmitype/StillImage"/>
    <dc:date>2025-04-08T14:28:16.433979</dc:date>
    <dc:format>image/svg+xml</dc:format>
    <dc:creator>
     <cc:Agent>
      <dc:title>Matplotlib v3.10.0, https://matplotlib.org/</dc:title>
     </cc:Agent>
    </dc:creator>
   </cc:Work>
  </rdf:RDF>
 </metadata>
 <defs>
  <style type="text/css">*{stroke-linejoin: round; stroke-linecap: butt}</style>
 </defs>
 <g id="figure_1">
  <g id="patch_1">
   <path d="M 0 345.6 
L 460.8 345.6 
L 460.8 0 
L 0 0 
z
" style="fill: #ffffff"/>
  </g>
  <g id="axes_1">
   <g id="patch_2">
    <path d="M 57.6 307.584 
L 414.72 307.584 
L 414.72 41.472 
L 57.6 41.472 
z
" style="fill: #ffffff"/>
   </g>
   <g id="matplotlib.axis_1">
    <g id="xtick_1">
     <g id="line2d_1">
      <path d="M 110.22889 307.584 
L 110.22889 41.472 
" clip-path="url(#p304c5efbd5)" style="fill: none; stroke: #b0b0b0; stroke-width: 0.8; stroke-linecap: square"/>
     </g>
     <g id="line2d_2">
      <defs>
       <path id="mf810059d59" d="M 0 0 
L 0 3.5 
" style="stroke: #000000; stroke-width: 0.8"/>
      </defs>
      <g>
       <use xlink:href="#mf810059d59" x="110.22889" y="307.584" style="stroke: #000000; stroke-width: 0.8"/>
      </g>
     </g>
     <g id="text_1">
      <!-- 10 -->
      <g transform="translate(103.86639 322.182437) scale(0.1 -0.1)">
       <defs>
        <path id="DejaVuSans-31" d="M 794 531 
L 1825 531 
L 1825 4091 
L 703 3866 
L 703 4441 
L 1819 4666 
L 2450 4666 
L 2450 531 
L 3481 531 
L 3481 0 
L 794 0 
L 794 531 
z
" transform="scale(0.015625)"/>
        <path id="DejaVuSans-30" d="M 2034 4250 
Q 1547 4250 1301 3770 
Q 1056 3291 1056 2328 
Q 1056 1369 1301 889 
Q 1547 409 2034 409 
Q 2525 409 2770 889 
Q 3016 1369 3016 2328 
Q 3016 3291 2770 3770 
Q 2525 4250 2034 4250 
z
M 2034 4750 
Q 2819 4750 3233 4129 
Q 3647 3509 3647 2328 
Q 3647 1150 3233 529 
Q 2819 -91 2034 -91 
Q 1250 -91 836 529 
Q 422 1150 422 2328 
Q 422 3509 836 4129 
Q 1250 4750 2034 4750 
z
" transform="scale(0.015625)"/>
       </defs>
       <use xlink:href="#DejaVuSans-31"/>
       <use xlink:href="#DejaVuSans-30" transform="translate(63.623047 0)"/>
      </g>
     </g>
    </g>
    <g id="xtick_2">
     <g id="line2d_3">
      <path d="M 181.826548 307.584 
L 181.826548 41.472 
" clip-path="url(#p304c5efbd5)" style="fill: none; stroke: #b0b0b0; stroke-width: 0.8; stroke-linecap: square"/>
     </g>
     <g id="line2d_4">
      <g>
       <use xlink:href="#mf810059d59" x="181.826548" y="307.584" style="stroke: #000000; stroke-width: 0.8"/>
      </g>
     </g>
     <g id="text_2">
      <!-- 20 -->
      <g transform="translate(175.464048 322.182437) scale(0.1 -0.1)">
       <defs>
        <path id="DejaVuSans-32" d="M 1228 531 
L 3431 531 
L 3431 0 
L 469 0 
L 469 531 
Q 828 903 1448 1529 
Q 2069 2156 2228 2338 
Q 2531 2678 2651 2914 
Q 2772 3150 2772 3378 
Q 2772 3750 2511 3984 
Q 2250 4219 1831 4219 
Q 1534 4219 1204 4116 
Q 875 4013 500 3803 
L 500 4441 
Q 881 4594 1212 4672 
Q 1544 4750 1819 4750 
Q 2544 4750 2975 4387 
Q 3406 4025 3406 3419 
Q 3406 3131 3298 2873 
Q 3191 2616 2906 2266 
Q 2828 2175 2409 1742 
Q 1991 1309 1228 531 
z
" transform="scale(0.015625)"/>
       </defs>
       <use xlink:href="#DejaVuSans-32"/>
       <use xlink:href="#DejaVuSans-30" transform="translate(63.623047 0)"/>
      </g>
     </g>
    </g>
    <g id="xtick_3">
     <g id="line2d_5">
      <path d="M 253.424206 307.584 
L 253.424206 41.472 
" clip-path="url(#p304c5efbd5)" style="fill: none; stroke: #b0b0b0; stroke-width: 0.8; stroke-linecap: square"/>
     </g>
     <g id="line2d_6">
      <g>
       <use xlink:href="#mf810059d59" x="253.424206" y="307.584" style="stroke: #000000; stroke-width: 0.8"/>
      </g>
     </g>
     <g id="text_3">
      <!-- 30 -->
      <g transform="translate(247.061706 322.182437) scale(0.1 -0.1)">
       <defs>
        <path id="DejaVuSans-33" d="M 2597 2516 
Q 3050 2419 3304 2112 
Q 3559 1806 3559 1356 
Q 3559 666 3084 287 
Q 2609 -91 1734 -91 
Q 1441 -91 1130 -33 
Q 819 25 488 141 
L 488 750 
Q 750 597 1062 519 
Q 1375 441 1716 441 
Q 2309 441 2620 675 
Q 2931 909 2931 1356 
Q 2931 1769 2642 2001 
Q 2353 2234 1838 2234 
L 1294 2234 
L 1294 2753 
L 1863 2753 
Q 2328 2753 2575 2939 
Q 2822 3125 2822 3475 
Q 2822 3834 2567 4026 
Q 2313 4219 1838 4219 
Q 1578 4219 1281 4162 
Q 984 4106 628 3988 
L 628 4550 
Q 988 4650 1302 4700 
Q 1616 4750 1894 4750 
Q 2613 4750 3031 4423 
Q 3450 4097 3450 3541 
Q 3450 3153 3228 2886 
Q 3006 2619 2597 2516 
z
" transform="scale(0.015625)"/>
       </defs>
       <use xlink:href="#DejaVuSans-33"/>
       <use xlink:href="#DejaVuSans-30" transform="translate(63.623047 0)"/>
      </g>
     </g>
    </g>
    <g id="xtick_4">
     <g id="line2d_7">
      <path d="M 325.021864 307.584 
L 325.021864 41.472 
" clip-path="url(#p304c5efbd5)" style="fill: none; stroke: #b0b0b0; stroke-width: 0.8; stroke-linecap: square"/>
     </g>
     <g id="line2d_8">
      <g>
       <use xlink:href="#mf810059d59" x="325.021864" y="307.584" style="stroke: #000000; stroke-width: 0.8"/>
      </g>
     </g>
     <g id="text_4">
      <!-- 40 -->
      <g transform="translate(318.659364 322.182437) scale(0.1 -0.1)">
       <defs>
        <path id="DejaVuSans-34" d="M 2419 4116 
L 825 1625 
L 2419 1625 
L 2419 4116 
z
M 2253 4666 
L 3047 4666 
L 3047 1625 
L 3713 1625 
L 3713 1100 
L 3047 1100 
L 3047 0 
L 2419 0 
L 2419 1100 
L 313 1100 
L 313 1709 
L 2253 4666 
z
" transform="scale(0.015625)"/>
       </defs>
       <use xlink:href="#DejaVuSans-34"/>
       <use xlink:href="#DejaVuSans-30" transform="translate(63.623047 0)"/>
      </g>
     </g>
    </g>
    <g id="xtick_5">
     <g id="line2d_9">
      <path d="M 396.619522 307.584 
L 396.619522 41.472 
" clip-path="url(#p304c5efbd5)" style="fill: none; stroke: #b0b0b0; stroke-width: 0.8; stroke-linecap: square"/>
     </g>
     <g id="line2d_10">
      <g>
       <use xlink:href="#mf810059d59" x="396.619522" y="307.584" style="stroke: #000000; stroke-width: 0.8"/>
      </g>
     </g>
     <g id="text_5">
      <!-- 50 -->
      <g transform="translate(390.257022 322.182437) scale(0.1 -0.1)">
       <defs>
        <path id="DejaVuSans-35" d="M 691 4666 
L 3169 4666 
L 3169 4134 
L 1269 4134 
L 1269 2991 
Q 1406 3038 1543 3061 
Q 1681 3084 1819 3084 
Q 2600 3084 3056 2656 
Q 3513 2228 3513 1497 
Q 3513 744 3044 326 
Q 2575 -91 1722 -91 
Q 1428 -91 1123 -41 
Q 819 9 494 109 
L 494 744 
Q 775 591 1075 516 
Q 1375 441 1709 441 
Q 2250 441 2565 725 
Q 2881 1009 2881 1497 
Q 2881 1984 2565 2268 
Q 2250 2553 1709 2553 
Q 1456 2553 1204 2497 
Q 953 2441 691 2322 
L 691 4666 
z
" transform="scale(0.015625)"/>
       </defs>
       <use xlink:href="#DejaVuSans-35"/>
       <use xlink:href="#DejaVuSans-30" transform="translate(63.623047 0)"/>
      </g>
     </g>
    </g>
    <g id="text_6">
     <!-- Energy [MeV] -->
     <g transform="translate(202.352187 335.860562) scale(0.1 -0.1)">
      <defs>
       <path id="DejaVuSans-45" d="M 628 4666 
L 3578 4666 
L 3578 4134 
L 1259 4134 
L 1259 2753 
L 3481 2753 
L 3481 2222 
L 1259 2222 
L 1259 531 
L 3634 531 
L 3634 0 
L 628 0 
L 628 4666 
z
" transform="scale(0.015625)"/>
       <path id="DejaVuSans-6e" d="M 3513 2113 
L 3513 0 
L 2938 0 
L 2938 2094 
Q 2938 2591 2744 2837 
Q 2550 3084 2163 3084 
Q 1697 3084 1428 2787 
Q 1159 2491 1159 1978 
L 1159 0 
L 581 0 
L 581 3500 
L 1159 3500 
L 1159 2956 
Q 1366 3272 1645 3428 
Q 1925 3584 2291 3584 
Q 2894 3584 3203 3211 
Q 3513 2838 3513 2113 
z
" transform="scale(0.015625)"/>
       <path id="DejaVuSans-65" d="M 3597 1894 
L 3597 1613 
L 953 1613 
Q 991 1019 1311 708 
Q 1631 397 2203 397 
Q 2534 397 2845 478 
Q 3156 559 3463 722 
L 3463 178 
Q 3153 47 2828 -22 
Q 2503 -91 2169 -91 
Q 1331 -91 842 396 
Q 353 884 353 1716 
Q 353 2575 817 3079 
Q 1281 3584 2069 3584 
Q 2775 3584 3186 3129 
Q 3597 2675 3597 1894 
z
M 3022 2063 
Q 3016 2534 2758 2815 
Q 2500 3097 2075 3097 
Q 1594 3097 1305 2825 
Q 1016 2553 972 2059 
L 3022 2063 
z
" transform="scale(0.015625)"/>
       <path id="DejaVuSans-72" d="M 2631 2963 
Q 2534 3019 2420 3045 
Q 2306 3072 2169 3072 
Q 1681 3072 1420 2755 
Q 1159 2438 1159 1844 
L 1159 0 
L 581 0 
L 581 3500 
L 1159 3500 
L 1159 2956 
Q 1341 3275 1631 3429 
Q 1922 3584 2338 3584 
Q 2397 3584 2469 3576 
Q 2541 3569 2628 3553 
L 2631 2963 
z
" transform="scale(0.015625)"/>
       <path id="DejaVuSans-67" d="M 2906 1791 
Q 2906 2416 2648 2759 
Q 2391 3103 1925 3103 
Q 1463 3103 1205 2759 
Q 947 2416 947 1791 
Q 947 1169 1205 825 
Q 1463 481 1925 481 
Q 2391 481 2648 825 
Q 2906 1169 2906 1791 
z
M 3481 434 
Q 3481 -459 3084 -895 
Q 2688 -1331 1869 -1331 
Q 1566 -1331 1297 -1286 
Q 1028 -1241 775 -1147 
L 775 -588 
Q 1028 -725 1275 -790 
Q 1522 -856 1778 -856 
Q 2344 -856 2625 -561 
Q 2906 -266 2906 331 
L 2906 616 
Q 2728 306 2450 153 
Q 2172 0 1784 0 
Q 1141 0 747 490 
Q 353 981 353 1791 
Q 353 2603 747 3093 
Q 1141 3584 1784 3584 
Q 2172 3584 2450 3431 
Q 2728 3278 2906 2969 
L 2906 3500 
L 3481 3500 
L 3481 434 
z
" transform="scale(0.015625)"/>
       <path id="DejaVuSans-79" d="M 2059 -325 
Q 1816 -950 1584 -1140 
Q 1353 -1331 966 -1331 
L 506 -1331 
L 506 -850 
L 844 -850 
Q 1081 -850 1212 -737 
Q 1344 -625 1503 -206 
L 1606 56 
L 191 3500 
L 800 3500 
L 1894 763 
L 2988 3500 
L 3597 3500 
L 2059 -325 
z
" transform="scale(0.015625)"/>
       <path id="DejaVuSans-20" transform="scale(0.015625)"/>
       <path id="DejaVuSans-5b" d="M 550 4863 
L 1875 4863 
L 1875 4416 
L 1125 4416 
L 1125 -397 
L 1875 -397 
L 1875 -844 
L 550 -844 
L 550 4863 
z
" transform="scale(0.015625)"/>
       <path id="DejaVuSans-4d" d="M 628 4666 
L 1569 4666 
L 2759 1491 
L 3956 4666 
L 4897 4666 
L 4897 0 
L 4281 0 
L 4281 4097 
L 3078 897 
L 2444 897 
L 1241 4097 
L 1241 0 
L 628 0 
L 628 4666 
z
" transform="scale(0.015625)"/>
       <path id="DejaVuSans-56" d="M 1831 0 
L 50 4666 
L 709 4666 
L 2188 738 
L 3669 4666 
L 4325 4666 
L 2547 0 
L 1831 0 
z
" transform="scale(0.015625)"/>
       <path id="DejaVuSans-5d" d="M 1947 4863 
L 1947 -844 
L 622 -844 
L 622 -397 
L 1369 -397 
L 1369 4416 
L 622 4416 
L 622 4863 
L 1947 4863 
z
" transform="scale(0.015625)"/>
      </defs>
      <use xlink:href="#DejaVuSans-45"/>
      <use xlink:href="#DejaVuSans-6e" transform="translate(63.183594 0)"/>
      <use xlink:href="#DejaVuSans-65" transform="translate(126.5625 0)"/>
      <use xlink:href="#DejaVuSans-72" transform="translate(188.085938 0)"/>
      <use xlink:href="#DejaVuSans-67" transform="translate(227.449219 0)"/>
      <use xlink:href="#DejaVuSans-79" transform="translate(290.925781 0)"/>
      <use xlink:href="#DejaVuSans-20" transform="translate(350.105469 0)"/>
      <use xlink:href="#DejaVuSans-5b" transform="translate(381.892578 0)"/>
      <use xlink:href="#DejaVuSans-4d" transform="translate(420.90625 0)"/>
      <use xlink:href="#DejaVuSans-65" transform="translate(507.185547 0)"/>
      <use xlink:href="#DejaVuSans-56" transform="translate(568.708984 0)"/>
      <use xlink:href="#DejaVuSans-5d" transform="translate(637.117188 0)"/>
     </g>
    </g>
   </g>
   <g id="matplotlib.axis_2">
    <g id="ytick_1">
     <g id="line2d_11">
      <path d="M 57.6 295.488 
L 414.72 295.488 
" clip-path="url(#p304c5efbd5)" style="fill: none; stroke: #b0b0b0; stroke-width: 0.8; stroke-linecap: square"/>
     </g>
     <g id="line2d_12">
      <defs>
       <path id="mc3393c7a9a" d="M 0 0 
L -3.5 0 
" style="stroke: #000000; stroke-width: 0.8"/>
      </defs>
      <g>
       <use xlink:href="#mc3393c7a9a" x="57.6" y="295.488" style="stroke: #000000; stroke-width: 0.8"/>
      </g>
     </g>
     <g id="text_7">
      <!-- 0 -->
      <g transform="translate(44.2375 299.287219) scale(0.1 -0.1)">
       <use xlink:href="#DejaVuSans-30"/>
      </g>
     </g>
    </g>
    <g id="ytick_2">
     <g id="line2d_13">
      <path d="M 57.6 256.468645 
L 414.72 256.468645 
" clip-path="url(#p304c5efbd5)" style="fill: none; stroke: #b0b0b0; stroke-width: 0.8; stroke-linecap: square"/>
     </g>
     <g id="line2d_14">
      <g>
       <use xlink:href="#mc3393c7a9a" x="57.6" y="256.468645" style="stroke: #000000; stroke-width: 0.8"/>
      </g>
     </g>
     <g id="text_8">
      <!-- 5 -->
      <g transform="translate(44.2375 260.267864) scale(0.1 -0.1)">
       <use xlink:href="#DejaVuSans-35"/>
      </g>
     </g>
    </g>
    <g id="ytick_3">
     <g id="line2d_15">
      <path d="M 57.6 217.44929 
L 414.72 217.44929 
" clip-path="url(#p304c5efbd5)" style="fill: none; stroke: #b0b0b0; stroke-width: 0.8; stroke-linecap: square"/>
     </g>
     <g id="line2d_16">
      <g>
       <use xlink:href="#mc3393c7a9a" x="57.6" y="217.44929" style="stroke: #000000; stroke-width: 0.8"/>
      </g>
     </g>
     <g id="text_9">
      <!-- 10 -->
      <g transform="translate(37.875 221.248509) scale(0.1 -0.1)">
       <use xlink:href="#DejaVuSans-31"/>
       <use xlink:href="#DejaVuSans-30" transform="translate(63.623047 0)"/>
      </g>
     </g>
    </g>
    <g id="ytick_4">
     <g id="line2d_17">
      <path d="M 57.6 178.429935 
L 414.72 178.429935 
" clip-path="url(#p304c5efbd5)" style="fill: none; stroke: #b0b0b0; stroke-width: 0.8; stroke-linecap: square"/>
     </g>
     <g id="line2d_18">
      <g>
       <use xlink:href="#mc3393c7a9a" x="57.6" y="178.429935" style="stroke: #000000; stroke-width: 0.8"/>
      </g>
     </g>
     <g id="text_10">
      <!-- 15 -->
      <g transform="translate(37.875 182.229154) scale(0.1 -0.1)">
       <use xlink:href="#DejaVuSans-31"/>
       <use xlink:href="#DejaVuSans-35" transform="translate(63.623047 0)"/>
      </g>
     </g>
    </g>
    <g id="ytick_5">
     <g id="line2d_19">
      <path d="M 57.6 139.410581 
L 414.72 139.410581 
" clip-path="url(#p304c5efbd5)" style="fill: none; stroke: #b0b0b0; stroke-width: 0.8; stroke-linecap: square"/>
     </g>
     <g id="line2d_20">
      <g>
       <use xlink:href="#mc3393c7a9a" x="57.6" y="139.410581" style="stroke: #000000; stroke-width: 0.8"/>
      </g>
     </g>
     <g id="text_11">
      <!-- 20 -->
      <g transform="translate(37.875 143.209799) scale(0.1 -0.1)">
       <use xlink:href="#DejaVuSans-32"/>
       <use xlink:href="#DejaVuSans-30" transform="translate(63.623047 0)"/>
      </g>
     </g>
    </g>
    <g id="ytick_6">
     <g id="line2d_21">
      <path d="M 57.6 100.391226 
L 414.72 100.391226 
" clip-path="url(#p304c5efbd5)" style="fill: none; stroke: #b0b0b0; stroke-width: 0.8; stroke-linecap: square"/>
     </g>
     <g id="line2d_22">
      <g>
       <use xlink:href="#mc3393c7a9a" x="57.6" y="100.391226" style="stroke: #000000; stroke-width: 0.8"/>
      </g>
     </g>
     <g id="text_12">
      <!-- 25 -->
      <g transform="translate(37.875 104.190445) scale(0.1 -0.1)">
       <use xlink:href="#DejaVuSans-32"/>
       <use xlink:href="#DejaVuSans-35" transform="translate(63.623047 0)"/>
      </g>
     </g>
    </g>
    <g id="ytick_7">
     <g id="line2d_23">
      <path d="M 57.6 61.371871 
L 414.72 61.371871 
" clip-path="url(#p304c5efbd5)" style="fill: none; stroke: #b0b0b0; stroke-width: 0.8; stroke-linecap: square"/>
     </g>
     <g id="line2d_24">
      <g>
       <use xlink:href="#mc3393c7a9a" x="57.6" y="61.371871" style="stroke: #000000; stroke-width: 0.8"/>
      </g>
     </g>
     <g id="text_13">
      <!-- 30 -->
      <g transform="translate(37.875 65.17109) scale(0.1 -0.1)">
       <use xlink:href="#DejaVuSans-33"/>
       <use xlink:href="#DejaVuSans-30" transform="translate(63.623047 0)"/>
      </g>
     </g>
    </g>
    <g id="text_14">
     <!-- Events -->
     <g transform="translate(31.795312 191.456906) rotate(-90) scale(0.1 -0.1)">
      <defs>
       <path id="DejaVuSans-76" d="M 191 3500 
L 800 3500 
L 1894 563 
L 2988 3500 
L 3597 3500 
L 2284 0 
L 1503 0 
L 191 3500 
z
" transform="scale(0.015625)"/>
       <path id="DejaVuSans-74" d="M 1172 4494 
L 1172 3500 
L 2356 3500 
L 2356 3053 
L 1172 3053 
L 1172 1153 
Q 1172 725 1289 603 
Q 1406 481 1766 481 
L 2356 481 
L 2356 0 
L 1766 0 
Q 1100 0 847 248 
Q 594 497 594 1153 
L 594 3053 
L 172 3053 
L 172 3500 
L 594 3500 
L 594 4494 
L 1172 4494 
z
" transform="scale(0.015625)"/>
       <path id="DejaVuSans-73" d="M 2834 3397 
L 2834 2853 
Q 2591 2978 2328 3040 
Q 2066 3103 1784 3103 
Q 1356 3103 1142 2972 
Q 928 2841 928 2578 
Q 928 2378 1081 2264 
Q 1234 2150 1697 2047 
L 1894 2003 
Q 2506 1872 2764 1633 
Q 3022 1394 3022 966 
Q 3022 478 2636 193 
Q 2250 -91 1575 -91 
Q 1294 -91 989 -36 
Q 684 19 347 128 
L 347 722 
Q 666 556 975 473 
Q 1284 391 1588 391 
Q 1994 391 2212 530 
Q 2431 669 2431 922 
Q 2431 1156 2273 1281 
Q 2116 1406 1581 1522 
L 1381 1569 
Q 847 1681 609 1914 
Q 372 2147 372 2553 
Q 372 3047 722 3315 
Q 1072 3584 1716 3584 
Q 2034 3584 2315 3537 
Q 2597 3491 2834 3397 
z
" transform="scale(0.015625)"/>
      </defs>
      <use xlink:href="#DejaVuSans-45"/>
      <use xlink:href="#DejaVuSans-76" transform="translate(63.183594 0)"/>
      <use xlink:href="#DejaVuSans-65" transform="translate(122.363281 0)"/>
      <use xlink:href="#DejaVuSans-6e" transform="translate(183.886719 0)"/>
      <use xlink:href="#DejaVuSans-74" transform="translate(247.265625 0)"/>
      <use xlink:href="#DejaVuSans-73" transform="translate(286.474609 0)"/>
     </g>
    </g>
   </g>
   <g id="line2d_25">
    <path d="M 73.832727 61.371871 
L 74.184847 139.410581 
L 74.536967 155.018323 
L 74.889087 76.979613 
L 75.241207 53.568 
L 75.593327 170.626065 
L 75.945447 139.410581 
L 76.297567 131.60671 
L 76.649686 115.998968 
L 77.001806 123.802839 
L 77.353926 84.783484 
L 77.706046 100.391226 
L 78.058166 186.233806 
L 78.410286 131.60671 
L 78.762406 139.410581 
L 79.114526 115.998968 
L 79.466646 147.214452 
L 79.818766 139.410581 
L 80.170885 170.626065 
L 80.523005 155.018323 
L 80.875125 131.60671 
L 81.227245 147.214452 
L 81.579365 123.802839 
L 81.931485 147.214452 
L 82.283605 162.822194 
L 82.635725 147.214452 
L 82.987845 108.195097 
L 83.339965 186.233806 
L 83.692084 147.214452 
L 84.044204 162.822194 
L 84.396324 139.410581 
L 84.748444 108.195097 
L 85.100564 162.822194 
L 85.452684 115.998968 
L 85.804804 194.037677 
L 86.156924 170.626065 
L 86.509044 131.60671 
L 86.861163 170.626065 
L 87.213283 147.214452 
L 87.565403 162.822194 
L 87.917523 186.233806 
L 88.269643 139.410581 
L 88.621763 115.998968 
L 88.973883 170.626065 
L 89.326003 201.841548 
L 89.678123 178.429935 
L 90.030243 194.037677 
L 90.382362 170.626065 
L 90.734482 155.018323 
L 91.086602 194.037677 
L 91.438722 194.037677 
L 91.790842 147.214452 
L 92.142962 162.822194 
L 92.495082 162.822194 
L 93.199322 209.645419 
L 93.551442 194.037677 
L 93.903561 115.998968 
L 94.255681 123.802839 
L 94.607801 186.233806 
L 94.959921 170.626065 
L 95.312041 233.057032 
L 96.016281 186.233806 
L 96.368401 201.841548 
L 96.720521 170.626065 
L 97.072641 209.645419 
L 97.42476 170.626065 
L 98.129 201.841548 
L 98.48112 178.429935 
L 98.83324 209.645419 
L 99.18536 100.391226 
L 99.53748 209.645419 
L 99.8896 186.233806 
L 100.24172 170.626065 
L 100.593839 201.841548 
L 100.945959 162.822194 
L 101.298079 201.841548 
L 101.650199 194.037677 
L 102.002319 162.822194 
L 102.354439 178.429935 
L 102.706559 201.841548 
L 103.058679 194.037677 
L 103.410799 209.645419 
L 103.762919 139.410581 
L 104.115038 201.841548 
L 104.467158 194.037677 
L 104.819278 194.037677 
L 105.171398 178.429935 
L 105.523518 209.645419 
L 105.875638 209.645419 
L 106.579878 123.802839 
L 106.931998 194.037677 
L 107.284118 240.860903 
L 107.636237 170.626065 
L 107.988357 147.214452 
L 108.340477 201.841548 
L 108.692597 217.44929 
L 109.044717 201.841548 
L 109.396837 170.626065 
L 109.748957 162.822194 
L 110.101077 209.645419 
L 110.453197 209.645419 
L 110.805317 115.998968 
L 111.157436 194.037677 
L 111.509556 170.626065 
L 111.861676 170.626065 
L 112.918036 217.44929 
L 113.270156 217.44929 
L 113.622276 233.057032 
L 113.974396 186.233806 
L 114.326515 217.44929 
L 114.678635 155.018323 
L 115.030755 201.841548 
L 115.382875 225.253161 
L 115.734995 225.253161 
L 116.087115 178.429935 
L 116.439235 178.429935 
L 116.791355 186.233806 
L 117.143475 225.253161 
L 117.495595 162.822194 
L 117.847714 178.429935 
L 118.551954 225.253161 
L 119.256194 162.822194 
L 119.608314 233.057032 
L 119.960434 209.645419 
L 120.312554 139.410581 
L 120.664674 178.429935 
L 121.016794 178.429935 
L 121.368913 186.233806 
L 121.721033 217.44929 
L 122.073153 170.626065 
L 122.425273 139.410581 
L 122.777393 240.860903 
L 123.129513 217.44929 
L 123.481633 256.468645 
L 124.185873 162.822194 
L 124.537993 264.272516 
L 124.890112 170.626065 
L 125.242232 217.44929 
L 125.594352 194.037677 
L 125.946472 225.253161 
L 126.298592 201.841548 
L 126.650712 155.018323 
L 127.002832 131.60671 
L 127.354952 209.645419 
L 127.707072 201.841548 
L 128.059191 256.468645 
L 128.763431 155.018323 
L 129.115551 194.037677 
L 129.467671 209.645419 
L 129.819791 233.057032 
L 130.171911 217.44929 
L 130.524031 186.233806 
L 130.876151 170.626065 
L 131.228271 194.037677 
L 131.58039 170.626065 
L 131.93251 186.233806 
L 132.28463 248.664774 
L 132.63675 201.841548 
L 132.98887 186.233806 
L 133.34099 186.233806 
L 133.69311 178.429935 
L 134.04523 217.44929 
L 134.39735 225.253161 
L 134.74947 248.664774 
L 135.101589 201.841548 
L 135.453709 201.841548 
L 135.805829 248.664774 
L 136.157949 194.037677 
L 136.862189 225.253161 
L 137.214309 225.253161 
L 137.566429 240.860903 
L 137.918549 233.057032 
L 138.270669 194.037677 
L 138.622788 194.037677 
L 138.974908 178.429935 
L 139.327028 194.037677 
L 139.679148 240.860903 
L 140.031268 217.44929 
L 140.383388 170.626065 
L 140.735508 248.664774 
L 141.087628 162.822194 
L 141.439748 194.037677 
L 141.791867 178.429935 
L 142.143987 209.645419 
L 142.496107 201.841548 
L 142.848227 201.841548 
L 143.200347 209.645419 
L 143.552467 194.037677 
L 143.904587 186.233806 
L 144.256707 139.410581 
L 144.608827 186.233806 
L 145.313066 240.860903 
L 146.017306 170.626065 
L 146.369426 201.841548 
L 146.721546 217.44929 
L 147.073666 201.841548 
L 147.425786 209.645419 
L 147.777906 170.626065 
L 148.130026 209.645419 
L 148.482146 233.057032 
L 149.186385 201.841548 
L 149.538505 194.037677 
L 149.890625 225.253161 
L 150.242745 201.841548 
L 150.594865 233.057032 
L 150.946985 209.645419 
L 151.299105 248.664774 
L 151.651225 170.626065 
L 152.003345 233.057032 
L 152.355464 194.037677 
L 152.707584 178.429935 
L 153.059704 240.860903 
L 153.763944 155.018323 
L 154.116064 170.626065 
L 154.468184 225.253161 
L 154.820304 170.626065 
L 155.172424 162.822194 
L 155.524543 194.037677 
L 155.876663 248.664774 
L 156.580903 233.057032 
L 156.933023 194.037677 
L 157.285143 194.037677 
L 157.637263 225.253161 
L 157.989383 209.645419 
L 158.341503 155.018323 
L 158.693623 201.841548 
L 159.045742 201.841548 
L 159.397862 162.822194 
L 159.749982 248.664774 
L 160.102102 209.645419 
L 160.454222 155.018323 
L 160.806342 233.057032 
L 161.158462 147.214452 
L 161.510582 248.664774 
L 161.862702 233.057032 
L 162.214822 240.860903 
L 162.566941 170.626065 
L 162.919061 217.44929 
L 163.271181 217.44929 
L 163.623301 233.057032 
L 163.975421 225.253161 
L 164.679661 240.860903 
L 165.031781 217.44929 
L 165.383901 217.44929 
L 165.736021 225.253161 
L 166.08814 209.645419 
L 166.79238 209.645419 
L 167.1445 233.057032 
L 167.49662 178.429935 
L 167.84874 178.429935 
L 168.20086 248.664774 
L 168.55298 217.44929 
L 168.9051 225.253161 
L 169.257219 194.037677 
L 169.609339 225.253161 
L 169.961459 201.841548 
L 170.313579 194.037677 
L 170.665699 248.664774 
L 171.017819 225.253161 
L 171.369939 256.468645 
L 171.722059 162.822194 
L 172.074179 225.253161 
L 172.426299 264.272516 
L 173.130538 162.822194 
L 173.482658 233.057032 
L 173.834778 225.253161 
L 174.186898 209.645419 
L 174.539018 240.860903 
L 174.891138 194.037677 
L 175.243258 186.233806 
L 175.595378 233.057032 
L 175.947498 233.057032 
L 176.299617 225.253161 
L 176.651737 194.037677 
L 177.003857 240.860903 
L 177.355977 217.44929 
L 177.708097 178.429935 
L 178.060217 233.057032 
L 178.412337 201.841548 
L 178.764457 201.841548 
L 179.116577 233.057032 
L 179.468697 240.860903 
L 179.820816 233.057032 
L 180.525056 201.841548 
L 180.877176 217.44929 
L 181.229296 201.841548 
L 181.933536 201.841548 
L 182.285656 209.645419 
L 182.637776 170.626065 
L 182.989895 217.44929 
L 183.342015 209.645419 
L 183.694135 233.057032 
L 184.046255 225.253161 
L 184.398375 225.253161 
L 184.750495 240.860903 
L 185.102615 225.253161 
L 185.454735 225.253161 
L 185.806855 201.841548 
L 186.158975 233.057032 
L 186.511094 233.057032 
L 186.863214 186.233806 
L 187.215334 209.645419 
L 187.567454 225.253161 
L 187.919574 209.645419 
L 188.271694 233.057032 
L 188.623814 194.037677 
L 188.975934 240.860903 
L 189.328054 217.44929 
L 189.680174 225.253161 
L 190.032293 209.645419 
L 190.384413 201.841548 
L 190.736533 186.233806 
L 191.088653 240.860903 
L 191.440773 178.429935 
L 192.145013 240.860903 
L 192.497133 194.037677 
L 192.849253 178.429935 
L 193.201373 201.841548 
L 193.553492 201.841548 
L 193.905612 194.037677 
L 194.257732 217.44929 
L 194.609852 201.841548 
L 194.961972 217.44929 
L 195.314092 217.44929 
L 195.666212 225.253161 
L 196.018332 264.272516 
L 196.370452 225.253161 
L 196.722571 248.664774 
L 197.074691 194.037677 
L 197.426811 248.664774 
L 197.778931 194.037677 
L 198.131051 209.645419 
L 198.483171 162.822194 
L 198.835291 233.057032 
L 199.187411 248.664774 
L 199.539531 272.076387 
L 200.24377 139.410581 
L 200.59589 248.664774 
L 200.94801 279.880258 
L 201.30013 209.645419 
L 201.65225 186.233806 
L 202.35649 217.44929 
L 202.70861 240.860903 
L 203.06073 201.841548 
L 203.41285 186.233806 
L 203.764969 217.44929 
L 204.469209 170.626065 
L 204.821329 233.057032 
L 205.173449 240.860903 
L 205.525569 225.253161 
L 205.877689 139.410581 
L 206.229809 178.429935 
L 206.581929 194.037677 
L 206.934049 225.253161 
L 207.638288 225.253161 
L 207.990408 217.44929 
L 208.342528 186.233806 
L 208.694648 201.841548 
L 209.046768 186.233806 
L 209.398888 240.860903 
L 209.751008 248.664774 
L 210.103128 248.664774 
L 210.455247 194.037677 
L 210.807367 248.664774 
L 211.159487 209.645419 
L 211.511607 225.253161 
L 212.215847 240.860903 
L 212.567967 194.037677 
L 212.920087 201.841548 
L 213.272207 248.664774 
L 213.624327 248.664774 
L 213.976446 178.429935 
L 214.328566 225.253161 
L 214.680686 248.664774 
L 215.032806 201.841548 
L 215.384926 178.429935 
L 215.737046 233.057032 
L 216.089166 201.841548 
L 216.793406 201.841548 
L 217.145526 217.44929 
L 217.497645 170.626065 
L 217.849765 225.253161 
L 218.201885 248.664774 
L 218.554005 194.037677 
L 218.906125 256.468645 
L 219.258245 240.860903 
L 219.610365 194.037677 
L 219.962485 209.645419 
L 220.314605 248.664774 
L 220.666725 225.253161 
L 221.018844 256.468645 
L 221.723084 186.233806 
L 222.075204 217.44929 
L 222.427324 209.645419 
L 222.779444 178.429935 
L 223.131564 201.841548 
L 223.483684 248.664774 
L 224.187923 201.841548 
L 224.540043 256.468645 
L 224.892163 178.429935 
L 225.244283 201.841548 
L 225.596403 233.057032 
L 225.948523 209.645419 
L 226.300643 248.664774 
L 226.652763 201.841548 
L 227.004883 209.645419 
L 227.357003 178.429935 
L 227.709122 170.626065 
L 228.061242 170.626065 
L 228.413362 240.860903 
L 228.765482 217.44929 
L 229.469722 201.841548 
L 229.821842 233.057032 
L 230.173962 240.860903 
L 230.526082 217.44929 
L 230.878202 240.860903 
L 231.230321 225.253161 
L 231.582441 248.664774 
L 231.934561 201.841548 
L 232.286681 209.645419 
L 232.638801 194.037677 
L 232.990921 240.860903 
L 233.695161 194.037677 
L 234.047281 209.645419 
L 234.399401 209.645419 
L 234.75152 217.44929 
L 235.10364 209.645419 
L 235.80788 178.429935 
L 236.16 217.44929 
L 236.51212 209.645419 
L 236.86424 170.626065 
L 237.21636 233.057032 
L 237.56848 186.233806 
L 237.920599 194.037677 
L 238.272719 233.057032 
L 238.624839 186.233806 
L 238.976959 209.645419 
L 239.329079 225.253161 
L 239.681199 248.664774 
L 240.033319 209.645419 
L 240.385439 201.841548 
L 240.737559 147.214452 
L 241.441798 233.057032 
L 241.793918 186.233806 
L 242.146038 248.664774 
L 242.498158 209.645419 
L 242.850278 256.468645 
L 243.202398 170.626065 
L 243.554518 256.468645 
L 243.906638 240.860903 
L 244.258758 201.841548 
L 244.610878 194.037677 
L 244.962997 209.645419 
L 245.315117 209.645419 
L 245.667237 264.272516 
L 246.371477 162.822194 
L 246.723597 209.645419 
L 247.075717 217.44929 
L 247.427837 194.037677 
L 247.779957 225.253161 
L 248.484196 225.253161 
L 248.836316 209.645419 
L 249.540556 209.645419 
L 249.892676 217.44929 
L 250.244796 194.037677 
L 250.596916 217.44929 
L 250.949036 217.44929 
L 251.301156 162.822194 
L 252.005395 233.057032 
L 252.357515 194.037677 
L 252.709635 217.44929 
L 253.061755 233.057032 
L 253.413875 225.253161 
L 253.765995 186.233806 
L 254.118115 178.429935 
L 254.470235 240.860903 
L 254.822355 178.429935 
L 255.174474 248.664774 
L 255.526594 240.860903 
L 255.878714 201.841548 
L 256.230834 248.664774 
L 256.582954 217.44929 
L 256.935074 233.057032 
L 257.639314 147.214452 
L 257.991434 186.233806 
L 258.695673 170.626065 
L 259.047793 155.018323 
L 259.399913 248.664774 
L 259.752033 217.44929 
L 260.104153 201.841548 
L 260.456273 170.626065 
L 260.808393 162.822194 
L 261.160513 194.037677 
L 261.512633 201.841548 
L 261.864753 147.214452 
L 262.216872 194.037677 
L 262.568992 178.429935 
L 262.921112 248.664774 
L 263.273232 162.822194 
L 263.625352 225.253161 
L 263.977472 194.037677 
L 264.329592 147.214452 
L 264.681712 155.018323 
L 265.033832 178.429935 
L 265.385951 217.44929 
L 265.738071 147.214452 
L 266.090191 178.429935 
L 266.442311 178.429935 
L 266.794431 217.44929 
L 267.498671 139.410581 
L 267.850791 123.802839 
L 268.555031 201.841548 
L 268.90715 209.645419 
L 269.61139 139.410581 
L 269.96351 162.822194 
L 270.31563 170.626065 
L 270.66775 194.037677 
L 271.01987 155.018323 
L 271.37199 225.253161 
L 271.72411 186.233806 
L 272.07623 209.645419 
L 272.428349 209.645419 
L 272.780469 217.44929 
L 273.132589 178.429935 
L 273.484709 155.018323 
L 273.836829 123.802839 
L 274.541069 240.860903 
L 274.893189 201.841548 
L 275.245309 194.037677 
L 275.597429 225.253161 
L 275.949548 201.841548 
L 276.301668 162.822194 
L 276.653788 170.626065 
L 277.005908 225.253161 
L 277.358028 186.233806 
L 277.710148 170.626065 
L 278.062268 162.822194 
L 278.414388 178.429935 
L 278.766508 209.645419 
L 279.118627 170.626065 
L 279.822867 155.018323 
L 280.174987 178.429935 
L 280.527107 217.44929 
L 280.879227 170.626065 
L 281.231347 178.429935 
L 281.583467 170.626065 
L 281.935587 209.645419 
L 282.287707 178.429935 
L 282.639826 209.645419 
L 282.991946 155.018323 
L 283.344066 240.860903 
L 283.696186 194.037677 
L 284.048306 123.802839 
L 284.752546 186.233806 
L 285.104666 178.429935 
L 285.456786 162.822194 
L 285.808906 225.253161 
L 286.513145 170.626065 
L 286.865265 194.037677 
L 287.217385 178.429935 
L 287.569505 201.841548 
L 287.921625 162.822194 
L 288.273745 201.841548 
L 288.625865 194.037677 
L 288.977985 279.880258 
L 289.330105 170.626065 
L 289.682224 186.233806 
L 290.034344 209.645419 
L 290.386464 186.233806 
L 290.738584 240.860903 
L 291.090704 201.841548 
L 291.442824 115.998968 
L 291.794944 155.018323 
L 292.147064 162.822194 
L 292.851303 194.037677 
L 293.203423 170.626065 
L 293.555543 178.429935 
L 293.907663 209.645419 
L 294.259783 217.44929 
L 294.611903 178.429935 
L 294.964023 264.272516 
L 295.316143 201.841548 
L 295.668263 178.429935 
L 296.020383 225.253161 
L 296.724622 240.860903 
L 297.076742 201.841548 
L 297.428862 201.841548 
L 297.780982 209.645419 
L 298.133102 240.860903 
L 298.485222 186.233806 
L 298.837342 209.645419 
L 299.189462 209.645419 
L 299.541582 186.233806 
L 299.893701 123.802839 
L 300.245821 240.860903 
L 300.597941 209.645419 
L 300.950061 194.037677 
L 301.302181 201.841548 
L 301.654301 162.822194 
L 302.006421 248.664774 
L 302.710661 178.429935 
L 303.062781 178.429935 
L 303.4149 217.44929 
L 303.76702 170.626065 
L 304.11914 233.057032 
L 304.47126 201.841548 
L 304.82338 225.253161 
L 305.1755 225.253161 
L 305.52762 155.018323 
L 305.87974 162.822194 
L 306.23186 162.822194 
L 306.936099 248.664774 
L 307.288219 178.429935 
L 307.640339 194.037677 
L 307.992459 240.860903 
L 308.344579 194.037677 
L 308.696699 209.645419 
L 309.048819 240.860903 
L 309.400939 147.214452 
L 309.753059 272.076387 
L 310.457298 217.44929 
L 311.161538 170.626065 
L 311.513658 248.664774 
L 311.865778 201.841548 
L 312.570018 233.057032 
L 312.922138 209.645419 
L 313.274258 256.468645 
L 313.978497 240.860903 
L 314.330617 225.253161 
L 314.682737 225.253161 
L 315.034857 256.468645 
L 315.386977 209.645419 
L 315.739097 186.233806 
L 316.091217 264.272516 
L 316.443337 201.841548 
L 316.795457 225.253161 
L 317.147576 209.645419 
L 317.499696 240.860903 
L 317.851816 209.645419 
L 318.203936 225.253161 
L 318.556056 201.841548 
L 318.908176 240.860903 
L 319.612416 209.645419 
L 320.316655 225.253161 
L 320.668775 248.664774 
L 321.020895 248.664774 
L 321.373015 225.253161 
L 321.725135 194.037677 
L 322.077255 209.645419 
L 322.429375 233.057032 
L 322.781495 217.44929 
L 323.133615 225.253161 
L 323.485735 248.664774 
L 323.837854 233.057032 
L 324.189974 248.664774 
L 324.542094 272.076387 
L 324.894214 240.860903 
L 325.246334 256.468645 
L 325.598454 225.253161 
L 325.950574 248.664774 
L 326.302694 248.664774 
L 326.654814 264.272516 
L 327.006934 264.272516 
L 327.359053 233.057032 
L 327.711173 225.253161 
L 328.063293 272.076387 
L 328.415413 248.664774 
L 328.767533 256.468645 
L 329.119653 256.468645 
L 329.471773 279.880258 
L 329.823893 233.057032 
L 330.176013 256.468645 
L 330.528133 264.272516 
L 330.880252 264.272516 
L 331.232372 225.253161 
L 331.936612 256.468645 
L 332.288732 233.057032 
L 332.640852 233.057032 
L 332.992972 201.841548 
L 333.345092 264.272516 
L 333.697212 272.076387 
L 334.049331 248.664774 
L 334.401451 233.057032 
L 335.105691 264.272516 
L 335.457811 240.860903 
L 335.809931 256.468645 
L 336.514171 256.468645 
L 336.866291 217.44929 
L 337.218411 240.860903 
L 337.57053 201.841548 
L 337.92265 272.076387 
L 338.27477 233.057032 
L 338.62689 240.860903 
L 338.97901 279.880258 
L 339.68325 248.664774 
L 340.03537 225.253161 
L 340.38749 240.860903 
L 340.73961 264.272516 
L 341.443849 264.272516 
L 341.795969 248.664774 
L 342.500209 248.664774 
L 342.852329 217.44929 
L 343.204449 233.057032 
L 343.556569 256.468645 
L 343.908689 272.076387 
L 344.260809 256.468645 
L 344.612928 256.468645 
L 344.965048 264.272516 
L 345.317168 264.272516 
L 345.669288 248.664774 
L 346.021408 209.645419 
L 346.373528 248.664774 
L 346.725648 233.057032 
L 347.077768 272.076387 
L 347.429888 264.272516 
L 347.782007 272.076387 
L 348.134127 272.076387 
L 348.486247 279.880258 
L 348.838367 264.272516 
L 349.190487 272.076387 
L 349.542607 264.272516 
L 349.894727 264.272516 
L 350.246847 272.076387 
L 350.598967 217.44929 
L 350.951087 248.664774 
L 351.303206 264.272516 
L 351.655326 256.468645 
L 352.007446 256.468645 
L 352.359566 264.272516 
L 352.711686 264.272516 
L 353.063806 256.468645 
L 353.415926 256.468645 
L 353.768046 279.880258 
L 354.120166 256.468645 
L 354.472286 248.664774 
L 354.824405 272.076387 
L 355.176525 240.860903 
L 355.528645 279.880258 
L 355.880765 264.272516 
L 356.232885 279.880258 
L 356.585005 287.684129 
L 356.937125 272.076387 
L 357.289245 287.684129 
L 357.641365 256.468645 
L 357.993485 287.684129 
L 358.345604 287.684129 
L 358.697724 256.468645 
L 359.049844 248.664774 
L 359.401964 264.272516 
L 359.754084 256.468645 
L 360.106204 256.468645 
L 360.458324 225.253161 
L 360.810444 272.076387 
L 361.162564 256.468645 
L 361.514683 264.272516 
L 361.866803 248.664774 
L 362.218923 272.076387 
L 362.571043 287.684129 
L 362.923163 272.076387 
L 363.275283 233.057032 
L 363.627403 287.684129 
L 363.979523 264.272516 
L 364.331643 279.880258 
L 364.683763 256.468645 
L 365.035882 272.076387 
L 365.388002 264.272516 
L 365.740122 272.076387 
L 366.092242 272.076387 
L 366.444362 279.880258 
L 367.148602 264.272516 
L 367.500722 287.684129 
L 367.852842 248.664774 
L 368.204962 279.880258 
L 368.557081 295.488 
L 368.909201 272.076387 
L 369.261321 287.684129 
L 369.613441 272.076387 
L 369.965561 264.272516 
L 370.317681 272.076387 
L 370.669801 264.272516 
L 371.021921 248.664774 
L 371.374041 272.076387 
L 372.07828 272.076387 
L 372.4304 295.488 
L 372.78252 272.076387 
L 373.48676 272.076387 
L 373.83888 279.880258 
L 374.191 279.880258 
L 374.54312 287.684129 
L 374.89524 264.272516 
L 375.247359 287.684129 
L 375.599479 272.076387 
L 375.951599 279.880258 
L 376.303719 279.880258 
L 376.655839 272.076387 
L 377.007959 279.880258 
L 377.360079 279.880258 
L 377.712199 272.076387 
L 378.416439 287.684129 
L 378.768558 287.684129 
L 379.120678 272.076387 
L 379.472798 287.684129 
L 380.177038 272.076387 
L 380.529158 287.684129 
L 380.881278 287.684129 
L 381.233398 256.468645 
L 381.585518 272.076387 
L 381.937638 279.880258 
L 382.993997 279.880258 
L 383.346117 287.684129 
L 383.698237 287.684129 
L 384.050357 295.488 
L 384.402477 272.076387 
L 384.754597 264.272516 
L 385.106717 272.076387 
L 385.458837 287.684129 
L 385.810956 272.076387 
L 386.867316 272.076387 
L 387.219436 287.684129 
L 387.571556 295.488 
L 387.923676 279.880258 
L 388.275796 279.880258 
L 388.627916 272.076387 
L 388.980035 279.880258 
L 389.332155 264.272516 
L 389.684275 287.684129 
L 390.036395 279.880258 
L 390.740635 279.880258 
L 391.444875 295.488 
L 391.796995 295.488 
L 392.149115 272.076387 
L 392.501234 287.684129 
L 392.853354 295.488 
L 393.557594 264.272516 
L 394.261834 295.488 
L 394.613954 272.076387 
L 394.966074 279.880258 
L 395.318194 279.880258 
L 395.670314 295.488 
L 396.022433 287.684129 
L 396.374553 295.488 
L 396.726673 287.684129 
L 397.078793 295.488 
L 397.430913 256.468645 
L 397.783033 287.684129 
L 398.135153 287.684129 
L 398.487273 279.880258 
L 398.487273 279.880258 
" clip-path="url(#p304c5efbd5)" style="fill: none; stroke: #1f77b4; stroke-width: 1.5; stroke-linecap: square"/>
   </g>
   <g id="patch_3">
    <path d="M 57.6 307.584 
L 57.6 41.472 
" style="fill: none; stroke: #000000; stroke-width: 0.8; stroke-linejoin: miter; stroke-linecap: square"/>
   </g>
   <g id="patch_4">
    <path d="M 414.72 307.584 
L 414.72 41.472 
" style="fill: none; stroke: #000000; stroke-width: 0.8; stroke-linejoin: miter; stroke-linecap: square"/>
   </g>
   <g id="patch_5">
    <path d="M 57.6 307.584 
L 414.72 307.584 
" style="fill: none; stroke: #000000; stroke-width: 0.8; stroke-linejoin: miter; stroke-linecap: square"/>
   </g>
   <g id="patch_6">
    <path d="M 57.6 41.472 
L 414.72 41.472 
" style="fill: none; stroke: #000000; stroke-width: 0.8; stroke-linejoin: miter; stroke-linecap: square"/>
   </g>
  </g>
 </g>
 <defs>
  <clipPath id="p304c5efbd5">
   <rect x="57.6" y="41.472" width="357.12" height="266.112"/>
  </clipPath>
 </defs>
</svg>
