<?xml version="1.0" encoding="utf-8" standalone="no"?>
<!DOCTYPE svg PUBLIC "-//W3C//DTD SVG 1.1//EN"
  "http://www.w3.org/Graphics/SVG/1.1/DTD/svg11.dtd">
<svg xmlns:xlink="http://www.w3.org/1999/xlink" width="1080pt" height="360pt" viewBox="0 0 1080 360" xmlns="http://www.w3.org/2000/svg" version="1.1">
 <metadata>
  <rdf:RDF xmlns:dc="http://purl.org/dc/elements/1.1/" xmlns:cc="http://creativecommons.org/ns#" xmlns:rdf="http://www.w3.org/1999/02/22-rdf-syntax-ns#">
   <cc:Work>
    <dc:type rdf:resource="http://purl.org/dc/dcmitype/StillImage"/>
    <dc:date>2025-02-27T10:53:57.039129</dc:date>
    <dc:format>image/svg+xml</dc:format>
    <dc:creator>
     <cc:Agent>
      <dc:title>Matplotlib v3.10.0, https://matplotlib.org/</dc:title>
     </cc:Agent>
    </dc:creator>
   </cc:Work>
  </rdf:RDF>
 </metadata>
 <defs>
  <style type="text/css">*{stroke-linejoin: round; stroke-linecap: butt}</style>
 </defs>
 <g id="figure_1">
  <g id="patch_1">
   <path d="M 0 360 
L 1080 360 
L 1080 0 
L 0 0 
z
" style="fill: #ffffff"/>
  </g>
  <g id="axes_1">
   <g id="patch_2">
    <path d="M 135 320.4 
L 515.454545 320.4 
L 515.454545 43.2 
L 135 43.2 
z
" style="fill: #ffffff"/>
   </g>
   <g id="matplotlib.axis_1">
    <g id="xtick_1">
     <g id="line2d_1">
      <path d="M 156.711494 320.4 
L 156.711494 43.2 
" clip-path="url(#p49d3d46815)" style="fill: none; stroke: #b0b0b0; stroke-width: 0.8; stroke-linecap: square"/>
     </g>
     <g id="line2d_2">
      <defs>
       <path id="m13c61f68b1" d="M 0 0 
L 0 3.5 
" style="stroke: #000000; stroke-width: 0.8"/>
      </defs>
      <g>
       <use xlink:href="#m13c61f68b1" x="156.711494" y="320.4" style="stroke: #000000; stroke-width: 0.8"/>
      </g>
     </g>
     <g id="text_1">
      <!-- 0 -->
      <g transform="translate(153.530244 334.998438) scale(0.1 -0.1)">
       <defs>
        <path id="DejaVuSans-30" d="M 2034 4250 
Q 1547 4250 1301 3770 
Q 1056 3291 1056 2328 
Q 1056 1369 1301 889 
Q 1547 409 2034 409 
Q 2525 409 2770 889 
Q 3016 1369 3016 2328 
Q 3016 3291 2770 3770 
Q 2525 4250 2034 4250 
z
M 2034 4750 
Q 2819 4750 3233 4129 
Q 3647 3509 3647 2328 
Q 3647 1150 3233 529 
Q 2819 -91 2034 -91 
Q 1250 -91 836 529 
Q 422 1150 422 2328 
Q 422 3509 836 4129 
Q 1250 4750 2034 4750 
z
" transform="scale(0.015625)"/>
       </defs>
       <use xlink:href="#DejaVuSans-30"/>
      </g>
     </g>
    </g>
    <g id="xtick_2">
     <g id="line2d_3">
      <path d="M 214.515346 320.4 
L 214.515346 43.2 
" clip-path="url(#p49d3d46815)" style="fill: none; stroke: #b0b0b0; stroke-width: 0.8; stroke-linecap: square"/>
     </g>
     <g id="line2d_4">
      <g>
       <use xlink:href="#m13c61f68b1" x="214.515346" y="320.4" style="stroke: #000000; stroke-width: 0.8"/>
      </g>
     </g>
     <g id="text_2">
      <!-- 500 -->
      <g transform="translate(204.971596 334.998438) scale(0.1 -0.1)">
       <defs>
        <path id="DejaVuSans-35" d="M 691 4666 
L 3169 4666 
L 3169 4134 
L 1269 4134 
L 1269 2991 
Q 1406 3038 1543 3061 
Q 1681 3084 1819 3084 
Q 2600 3084 3056 2656 
Q 3513 2228 3513 1497 
Q 3513 744 3044 326 
Q 2575 -91 1722 -91 
Q 1428 -91 1123 -41 
Q 819 9 494 109 
L 494 744 
Q 775 591 1075 516 
Q 1375 441 1709 441 
Q 2250 441 2565 725 
Q 2881 1009 2881 1497 
Q 2881 1984 2565 2268 
Q 2250 2553 1709 2553 
Q 1456 2553 1204 2497 
Q 953 2441 691 2322 
L 691 4666 
z
" transform="scale(0.015625)"/>
       </defs>
       <use xlink:href="#DejaVuSans-35"/>
       <use xlink:href="#DejaVuSans-30" transform="translate(63.623047 0)"/>
       <use xlink:href="#DejaVuSans-30" transform="translate(127.246094 0)"/>
      </g>
     </g>
    </g>
    <g id="xtick_3">
     <g id="line2d_5">
      <path d="M 272.319197 320.4 
L 272.319197 43.2 
" clip-path="url(#p49d3d46815)" style="fill: none; stroke: #b0b0b0; stroke-width: 0.8; stroke-linecap: square"/>
     </g>
     <g id="line2d_6">
      <g>
       <use xlink:href="#m13c61f68b1" x="272.319197" y="320.4" style="stroke: #000000; stroke-width: 0.8"/>
      </g>
     </g>
     <g id="text_3">
      <!-- 1000 -->
      <g transform="translate(259.594197 334.998438) scale(0.1 -0.1)">
       <defs>
        <path id="DejaVuSans-31" d="M 794 531 
L 1825 531 
L 1825 4091 
L 703 3866 
L 703 4441 
L 1819 4666 
L 2450 4666 
L 2450 531 
L 3481 531 
L 3481 0 
L 794 0 
L 794 531 
z
" transform="scale(0.015625)"/>
       </defs>
       <use xlink:href="#DejaVuSans-31"/>
       <use xlink:href="#DejaVuSans-30" transform="translate(63.623047 0)"/>
       <use xlink:href="#DejaVuSans-30" transform="translate(127.246094 0)"/>
       <use xlink:href="#DejaVuSans-30" transform="translate(190.869141 0)"/>
      </g>
     </g>
    </g>
    <g id="xtick_4">
     <g id="line2d_7">
      <path d="M 330.123049 320.4 
L 330.123049 43.2 
" clip-path="url(#p49d3d46815)" style="fill: none; stroke: #b0b0b0; stroke-width: 0.8; stroke-linecap: square"/>
     </g>
     <g id="line2d_8">
      <g>
       <use xlink:href="#m13c61f68b1" x="330.123049" y="320.4" style="stroke: #000000; stroke-width: 0.8"/>
      </g>
     </g>
     <g id="text_4">
      <!-- 1500 -->
      <g transform="translate(317.398049 334.998438) scale(0.1 -0.1)">
       <use xlink:href="#DejaVuSans-31"/>
       <use xlink:href="#DejaVuSans-35" transform="translate(63.623047 0)"/>
       <use xlink:href="#DejaVuSans-30" transform="translate(127.246094 0)"/>
       <use xlink:href="#DejaVuSans-30" transform="translate(190.869141 0)"/>
      </g>
     </g>
    </g>
    <g id="xtick_5">
     <g id="line2d_9">
      <path d="M 387.9269 320.4 
L 387.9269 43.2 
" clip-path="url(#p49d3d46815)" style="fill: none; stroke: #b0b0b0; stroke-width: 0.8; stroke-linecap: square"/>
     </g>
     <g id="line2d_10">
      <g>
       <use xlink:href="#m13c61f68b1" x="387.9269" y="320.4" style="stroke: #000000; stroke-width: 0.8"/>
      </g>
     </g>
     <g id="text_5">
      <!-- 2000 -->
      <g transform="translate(375.2019 334.998438) scale(0.1 -0.1)">
       <defs>
        <path id="DejaVuSans-32" d="M 1228 531 
L 3431 531 
L 3431 0 
L 469 0 
L 469 531 
Q 828 903 1448 1529 
Q 2069 2156 2228 2338 
Q 2531 2678 2651 2914 
Q 2772 3150 2772 3378 
Q 2772 3750 2511 3984 
Q 2250 4219 1831 4219 
Q 1534 4219 1204 4116 
Q 875 4013 500 3803 
L 500 4441 
Q 881 4594 1212 4672 
Q 1544 4750 1819 4750 
Q 2544 4750 2975 4387 
Q 3406 4025 3406 3419 
Q 3406 3131 3298 2873 
Q 3191 2616 2906 2266 
Q 2828 2175 2409 1742 
Q 1991 1309 1228 531 
z
" transform="scale(0.015625)"/>
       </defs>
       <use xlink:href="#DejaVuSans-32"/>
       <use xlink:href="#DejaVuSans-30" transform="translate(63.623047 0)"/>
       <use xlink:href="#DejaVuSans-30" transform="translate(127.246094 0)"/>
       <use xlink:href="#DejaVuSans-30" transform="translate(190.869141 0)"/>
      </g>
     </g>
    </g>
    <g id="xtick_6">
     <g id="line2d_11">
      <path d="M 445.730752 320.4 
L 445.730752 43.2 
" clip-path="url(#p49d3d46815)" style="fill: none; stroke: #b0b0b0; stroke-width: 0.8; stroke-linecap: square"/>
     </g>
     <g id="line2d_12">
      <g>
       <use xlink:href="#m13c61f68b1" x="445.730752" y="320.4" style="stroke: #000000; stroke-width: 0.8"/>
      </g>
     </g>
     <g id="text_6">
      <!-- 2500 -->
      <g transform="translate(433.005752 334.998438) scale(0.1 -0.1)">
       <use xlink:href="#DejaVuSans-32"/>
       <use xlink:href="#DejaVuSans-35" transform="translate(63.623047 0)"/>
       <use xlink:href="#DejaVuSans-30" transform="translate(127.246094 0)"/>
       <use xlink:href="#DejaVuSans-30" transform="translate(190.869141 0)"/>
      </g>
     </g>
    </g>
    <g id="xtick_7">
     <g id="line2d_13">
      <path d="M 503.534603 320.4 
L 503.534603 43.2 
" clip-path="url(#p49d3d46815)" style="fill: none; stroke: #b0b0b0; stroke-width: 0.8; stroke-linecap: square"/>
     </g>
     <g id="line2d_14">
      <g>
       <use xlink:href="#m13c61f68b1" x="503.534603" y="320.4" style="stroke: #000000; stroke-width: 0.8"/>
      </g>
     </g>
     <g id="text_7">
      <!-- 3000 -->
      <g transform="translate(490.809603 334.998438) scale(0.1 -0.1)">
       <defs>
        <path id="DejaVuSans-33" d="M 2597 2516 
Q 3050 2419 3304 2112 
Q 3559 1806 3559 1356 
Q 3559 666 3084 287 
Q 2609 -91 1734 -91 
Q 1441 -91 1130 -33 
Q 819 25 488 141 
L 488 750 
Q 750 597 1062 519 
Q 1375 441 1716 441 
Q 2309 441 2620 675 
Q 2931 909 2931 1356 
Q 2931 1769 2642 2001 
Q 2353 2234 1838 2234 
L 1294 2234 
L 1294 2753 
L 1863 2753 
Q 2328 2753 2575 2939 
Q 2822 3125 2822 3475 
Q 2822 3834 2567 4026 
Q 2313 4219 1838 4219 
Q 1578 4219 1281 4162 
Q 984 4106 628 3988 
L 628 4550 
Q 988 4650 1302 4700 
Q 1616 4750 1894 4750 
Q 2613 4750 3031 4423 
Q 3450 4097 3450 3541 
Q 3450 3153 3228 2886 
Q 3006 2619 2597 2516 
z
" transform="scale(0.015625)"/>
       </defs>
       <use xlink:href="#DejaVuSans-33"/>
       <use xlink:href="#DejaVuSans-30" transform="translate(63.623047 0)"/>
       <use xlink:href="#DejaVuSans-30" transform="translate(127.246094 0)"/>
       <use xlink:href="#DejaVuSans-30" transform="translate(190.869141 0)"/>
      </g>
     </g>
    </g>
    <g id="text_8">
     <!-- Energy [keV] -->
     <g transform="translate(293.01946 348.676562) scale(0.1 -0.1)">
      <defs>
       <path id="DejaVuSans-45" d="M 628 4666 
L 3578 4666 
L 3578 4134 
L 1259 4134 
L 1259 2753 
L 3481 2753 
L 3481 2222 
L 1259 2222 
L 1259 531 
L 3634 531 
L 3634 0 
L 628 0 
L 628 4666 
z
" transform="scale(0.015625)"/>
       <path id="DejaVuSans-6e" d="M 3513 2113 
L 3513 0 
L 2938 0 
L 2938 2094 
Q 2938 2591 2744 2837 
Q 2550 3084 2163 3084 
Q 1697 3084 1428 2787 
Q 1159 2491 1159 1978 
L 1159 0 
L 581 0 
L 581 3500 
L 1159 3500 
L 1159 2956 
Q 1366 3272 1645 3428 
Q 1925 3584 2291 3584 
Q 2894 3584 3203 3211 
Q 3513 2838 3513 2113 
z
" transform="scale(0.015625)"/>
       <path id="DejaVuSans-65" d="M 3597 1894 
L 3597 1613 
L 953 1613 
Q 991 1019 1311 708 
Q 1631 397 2203 397 
Q 2534 397 2845 478 
Q 3156 559 3463 722 
L 3463 178 
Q 3153 47 2828 -22 
Q 2503 -91 2169 -91 
Q 1331 -91 842 396 
Q 353 884 353 1716 
Q 353 2575 817 3079 
Q 1281 3584 2069 3584 
Q 2775 3584 3186 3129 
Q 3597 2675 3597 1894 
z
M 3022 2063 
Q 3016 2534 2758 2815 
Q 2500 3097 2075 3097 
Q 1594 3097 1305 2825 
Q 1016 2553 972 2059 
L 3022 2063 
z
" transform="scale(0.015625)"/>
       <path id="DejaVuSans-72" d="M 2631 2963 
Q 2534 3019 2420 3045 
Q 2306 3072 2169 3072 
Q 1681 3072 1420 2755 
Q 1159 2438 1159 1844 
L 1159 0 
L 581 0 
L 581 3500 
L 1159 3500 
L 1159 2956 
Q 1341 3275 1631 3429 
Q 1922 3584 2338 3584 
Q 2397 3584 2469 3576 
Q 2541 3569 2628 3553 
L 2631 2963 
z
" transform="scale(0.015625)"/>
       <path id="DejaVuSans-67" d="M 2906 1791 
Q 2906 2416 2648 2759 
Q 2391 3103 1925 3103 
Q 1463 3103 1205 2759 
Q 947 2416 947 1791 
Q 947 1169 1205 825 
Q 1463 481 1925 481 
Q 2391 481 2648 825 
Q 2906 1169 2906 1791 
z
M 3481 434 
Q 3481 -459 3084 -895 
Q 2688 -1331 1869 -1331 
Q 1566 -1331 1297 -1286 
Q 1028 -1241 775 -1147 
L 775 -588 
Q 1028 -725 1275 -790 
Q 1522 -856 1778 -856 
Q 2344 -856 2625 -561 
Q 2906 -266 2906 331 
L 2906 616 
Q 2728 306 2450 153 
Q 2172 0 1784 0 
Q 1141 0 747 490 
Q 353 981 353 1791 
Q 353 2603 747 3093 
Q 1141 3584 1784 3584 
Q 2172 3584 2450 3431 
Q 2728 3278 2906 2969 
L 2906 3500 
L 3481 3500 
L 3481 434 
z
" transform="scale(0.015625)"/>
       <path id="DejaVuSans-79" d="M 2059 -325 
Q 1816 -950 1584 -1140 
Q 1353 -1331 966 -1331 
L 506 -1331 
L 506 -850 
L 844 -850 
Q 1081 -850 1212 -737 
Q 1344 -625 1503 -206 
L 1606 56 
L 191 3500 
L 800 3500 
L 1894 763 
L 2988 3500 
L 3597 3500 
L 2059 -325 
z
" transform="scale(0.015625)"/>
       <path id="DejaVuSans-20" transform="scale(0.015625)"/>
       <path id="DejaVuSans-5b" d="M 550 4863 
L 1875 4863 
L 1875 4416 
L 1125 4416 
L 1125 -397 
L 1875 -397 
L 1875 -844 
L 550 -844 
L 550 4863 
z
" transform="scale(0.015625)"/>
       <path id="DejaVuSans-6b" d="M 581 4863 
L 1159 4863 
L 1159 1991 
L 2875 3500 
L 3609 3500 
L 1753 1863 
L 3688 0 
L 2938 0 
L 1159 1709 
L 1159 0 
L 581 0 
L 581 4863 
z
" transform="scale(0.015625)"/>
       <path id="DejaVuSans-56" d="M 1831 0 
L 50 4666 
L 709 4666 
L 2188 738 
L 3669 4666 
L 4325 4666 
L 2547 0 
L 1831 0 
z
" transform="scale(0.015625)"/>
       <path id="DejaVuSans-5d" d="M 1947 4863 
L 1947 -844 
L 622 -844 
L 622 -397 
L 1369 -397 
L 1369 4416 
L 622 4416 
L 622 4863 
L 1947 4863 
z
" transform="scale(0.015625)"/>
      </defs>
      <use xlink:href="#DejaVuSans-45"/>
      <use xlink:href="#DejaVuSans-6e" transform="translate(63.183594 0)"/>
      <use xlink:href="#DejaVuSans-65" transform="translate(126.5625 0)"/>
      <use xlink:href="#DejaVuSans-72" transform="translate(188.085938 0)"/>
      <use xlink:href="#DejaVuSans-67" transform="translate(227.449219 0)"/>
      <use xlink:href="#DejaVuSans-79" transform="translate(290.925781 0)"/>
      <use xlink:href="#DejaVuSans-20" transform="translate(350.105469 0)"/>
      <use xlink:href="#DejaVuSans-5b" transform="translate(381.892578 0)"/>
      <use xlink:href="#DejaVuSans-6b" transform="translate(420.90625 0)"/>
      <use xlink:href="#DejaVuSans-65" transform="translate(475.191406 0)"/>
      <use xlink:href="#DejaVuSans-56" transform="translate(536.714844 0)"/>
      <use xlink:href="#DejaVuSans-5d" transform="translate(605.123047 0)"/>
     </g>
    </g>
   </g>
   <g id="matplotlib.axis_2">
    <g id="ytick_1">
     <g id="line2d_15">
      <path d="M 135 307.8 
L 515.454545 307.8 
" clip-path="url(#p49d3d46815)" style="fill: none; stroke: #b0b0b0; stroke-width: 0.8; stroke-linecap: square"/>
     </g>
     <g id="line2d_16">
      <defs>
       <path id="m8d3072920c" d="M 0 0 
L -3.5 0 
" style="stroke: #000000; stroke-width: 0.8"/>
      </defs>
      <g>
       <use xlink:href="#m8d3072920c" x="135" y="307.8" style="stroke: #000000; stroke-width: 0.8"/>
      </g>
     </g>
     <g id="text_9">
      <!-- 0 -->
      <g transform="translate(121.6375 311.599219) scale(0.1 -0.1)">
       <use xlink:href="#DejaVuSans-30"/>
      </g>
     </g>
    </g>
    <g id="ytick_2">
     <g id="line2d_17">
      <path d="M 135 276.72725 
L 515.454545 276.72725 
" clip-path="url(#p49d3d46815)" style="fill: none; stroke: #b0b0b0; stroke-width: 0.8; stroke-linecap: square"/>
     </g>
     <g id="line2d_18">
      <g>
       <use xlink:href="#m8d3072920c" x="135" y="276.72725" style="stroke: #000000; stroke-width: 0.8"/>
      </g>
     </g>
     <g id="text_10">
      <!-- 100 -->
      <g transform="translate(108.9125 280.526469) scale(0.1 -0.1)">
       <use xlink:href="#DejaVuSans-31"/>
       <use xlink:href="#DejaVuSans-30" transform="translate(63.623047 0)"/>
       <use xlink:href="#DejaVuSans-30" transform="translate(127.246094 0)"/>
      </g>
     </g>
    </g>
    <g id="ytick_3">
     <g id="line2d_19">
      <path d="M 135 245.654501 
L 515.454545 245.654501 
" clip-path="url(#p49d3d46815)" style="fill: none; stroke: #b0b0b0; stroke-width: 0.8; stroke-linecap: square"/>
     </g>
     <g id="line2d_20">
      <g>
       <use xlink:href="#m8d3072920c" x="135" y="245.654501" style="stroke: #000000; stroke-width: 0.8"/>
      </g>
     </g>
     <g id="text_11">
      <!-- 200 -->
      <g transform="translate(108.9125 249.453719) scale(0.1 -0.1)">
       <use xlink:href="#DejaVuSans-32"/>
       <use xlink:href="#DejaVuSans-30" transform="translate(63.623047 0)"/>
       <use xlink:href="#DejaVuSans-30" transform="translate(127.246094 0)"/>
      </g>
     </g>
    </g>
    <g id="ytick_4">
     <g id="line2d_21">
      <path d="M 135 214.581751 
L 515.454545 214.581751 
" clip-path="url(#p49d3d46815)" style="fill: none; stroke: #b0b0b0; stroke-width: 0.8; stroke-linecap: square"/>
     </g>
     <g id="line2d_22">
      <g>
       <use xlink:href="#m8d3072920c" x="135" y="214.581751" style="stroke: #000000; stroke-width: 0.8"/>
      </g>
     </g>
     <g id="text_12">
      <!-- 300 -->
      <g transform="translate(108.9125 218.38097) scale(0.1 -0.1)">
       <use xlink:href="#DejaVuSans-33"/>
       <use xlink:href="#DejaVuSans-30" transform="translate(63.623047 0)"/>
       <use xlink:href="#DejaVuSans-30" transform="translate(127.246094 0)"/>
      </g>
     </g>
    </g>
    <g id="ytick_5">
     <g id="line2d_23">
      <path d="M 135 183.509001 
L 515.454545 183.509001 
" clip-path="url(#p49d3d46815)" style="fill: none; stroke: #b0b0b0; stroke-width: 0.8; stroke-linecap: square"/>
     </g>
     <g id="line2d_24">
      <g>
       <use xlink:href="#m8d3072920c" x="135" y="183.509001" style="stroke: #000000; stroke-width: 0.8"/>
      </g>
     </g>
     <g id="text_13">
      <!-- 400 -->
      <g transform="translate(108.9125 187.30822) scale(0.1 -0.1)">
       <defs>
        <path id="DejaVuSans-34" d="M 2419 4116 
L 825 1625 
L 2419 1625 
L 2419 4116 
z
M 2253 4666 
L 3047 4666 
L 3047 1625 
L 3713 1625 
L 3713 1100 
L 3047 1100 
L 3047 0 
L 2419 0 
L 2419 1100 
L 313 1100 
L 313 1709 
L 2253 4666 
z
" transform="scale(0.015625)"/>
       </defs>
       <use xlink:href="#DejaVuSans-34"/>
       <use xlink:href="#DejaVuSans-30" transform="translate(63.623047 0)"/>
       <use xlink:href="#DejaVuSans-30" transform="translate(127.246094 0)"/>
      </g>
     </g>
    </g>
    <g id="ytick_6">
     <g id="line2d_25">
      <path d="M 135 152.436252 
L 515.454545 152.436252 
" clip-path="url(#p49d3d46815)" style="fill: none; stroke: #b0b0b0; stroke-width: 0.8; stroke-linecap: square"/>
     </g>
     <g id="line2d_26">
      <g>
       <use xlink:href="#m8d3072920c" x="135" y="152.436252" style="stroke: #000000; stroke-width: 0.8"/>
      </g>
     </g>
     <g id="text_14">
      <!-- 500 -->
      <g transform="translate(108.9125 156.23547) scale(0.1 -0.1)">
       <use xlink:href="#DejaVuSans-35"/>
       <use xlink:href="#DejaVuSans-30" transform="translate(63.623047 0)"/>
       <use xlink:href="#DejaVuSans-30" transform="translate(127.246094 0)"/>
      </g>
     </g>
    </g>
    <g id="ytick_7">
     <g id="line2d_27">
      <path d="M 135 121.363502 
L 515.454545 121.363502 
" clip-path="url(#p49d3d46815)" style="fill: none; stroke: #b0b0b0; stroke-width: 0.8; stroke-linecap: square"/>
     </g>
     <g id="line2d_28">
      <g>
       <use xlink:href="#m8d3072920c" x="135" y="121.363502" style="stroke: #000000; stroke-width: 0.8"/>
      </g>
     </g>
     <g id="text_15">
      <!-- 600 -->
      <g transform="translate(108.9125 125.162721) scale(0.1 -0.1)">
       <defs>
        <path id="DejaVuSans-36" d="M 2113 2584 
Q 1688 2584 1439 2293 
Q 1191 2003 1191 1497 
Q 1191 994 1439 701 
Q 1688 409 2113 409 
Q 2538 409 2786 701 
Q 3034 994 3034 1497 
Q 3034 2003 2786 2293 
Q 2538 2584 2113 2584 
z
M 3366 4563 
L 3366 3988 
Q 3128 4100 2886 4159 
Q 2644 4219 2406 4219 
Q 1781 4219 1451 3797 
Q 1122 3375 1075 2522 
Q 1259 2794 1537 2939 
Q 1816 3084 2150 3084 
Q 2853 3084 3261 2657 
Q 3669 2231 3669 1497 
Q 3669 778 3244 343 
Q 2819 -91 2113 -91 
Q 1303 -91 875 529 
Q 447 1150 447 2328 
Q 447 3434 972 4092 
Q 1497 4750 2381 4750 
Q 2619 4750 2861 4703 
Q 3103 4656 3366 4563 
z
" transform="scale(0.015625)"/>
       </defs>
       <use xlink:href="#DejaVuSans-36"/>
       <use xlink:href="#DejaVuSans-30" transform="translate(63.623047 0)"/>
       <use xlink:href="#DejaVuSans-30" transform="translate(127.246094 0)"/>
      </g>
     </g>
    </g>
    <g id="ytick_8">
     <g id="line2d_29">
      <path d="M 135 90.290752 
L 515.454545 90.290752 
" clip-path="url(#p49d3d46815)" style="fill: none; stroke: #b0b0b0; stroke-width: 0.8; stroke-linecap: square"/>
     </g>
     <g id="line2d_30">
      <g>
       <use xlink:href="#m8d3072920c" x="135" y="90.290752" style="stroke: #000000; stroke-width: 0.8"/>
      </g>
     </g>
     <g id="text_16">
      <!-- 700 -->
      <g transform="translate(108.9125 94.089971) scale(0.1 -0.1)">
       <defs>
        <path id="DejaVuSans-37" d="M 525 4666 
L 3525 4666 
L 3525 4397 
L 1831 0 
L 1172 0 
L 2766 4134 
L 525 4134 
L 525 4666 
z
" transform="scale(0.015625)"/>
       </defs>
       <use xlink:href="#DejaVuSans-37"/>
       <use xlink:href="#DejaVuSans-30" transform="translate(63.623047 0)"/>
       <use xlink:href="#DejaVuSans-30" transform="translate(127.246094 0)"/>
      </g>
     </g>
    </g>
    <g id="ytick_9">
     <g id="line2d_31">
      <path d="M 135 59.218002 
L 515.454545 59.218002 
" clip-path="url(#p49d3d46815)" style="fill: none; stroke: #b0b0b0; stroke-width: 0.8; stroke-linecap: square"/>
     </g>
     <g id="line2d_32">
      <g>
       <use xlink:href="#m8d3072920c" x="135" y="59.218002" style="stroke: #000000; stroke-width: 0.8"/>
      </g>
     </g>
     <g id="text_17">
      <!-- 800 -->
      <g transform="translate(108.9125 63.017221) scale(0.1 -0.1)">
       <defs>
        <path id="DejaVuSans-38" d="M 2034 2216 
Q 1584 2216 1326 1975 
Q 1069 1734 1069 1313 
Q 1069 891 1326 650 
Q 1584 409 2034 409 
Q 2484 409 2743 651 
Q 3003 894 3003 1313 
Q 3003 1734 2745 1975 
Q 2488 2216 2034 2216 
z
M 1403 2484 
Q 997 2584 770 2862 
Q 544 3141 544 3541 
Q 544 4100 942 4425 
Q 1341 4750 2034 4750 
Q 2731 4750 3128 4425 
Q 3525 4100 3525 3541 
Q 3525 3141 3298 2862 
Q 3072 2584 2669 2484 
Q 3125 2378 3379 2068 
Q 3634 1759 3634 1313 
Q 3634 634 3220 271 
Q 2806 -91 2034 -91 
Q 1263 -91 848 271 
Q 434 634 434 1313 
Q 434 1759 690 2068 
Q 947 2378 1403 2484 
z
M 1172 3481 
Q 1172 3119 1398 2916 
Q 1625 2713 2034 2713 
Q 2441 2713 2670 2916 
Q 2900 3119 2900 3481 
Q 2900 3844 2670 4047 
Q 2441 4250 2034 4250 
Q 1625 4250 1398 4047 
Q 1172 3844 1172 3481 
z
" transform="scale(0.015625)"/>
       </defs>
       <use xlink:href="#DejaVuSans-38"/>
       <use xlink:href="#DejaVuSans-30" transform="translate(63.623047 0)"/>
       <use xlink:href="#DejaVuSans-30" transform="translate(127.246094 0)"/>
      </g>
     </g>
    </g>
    <g id="text_18">
     <!-- Events -->
     <g transform="translate(102.832812 198.728906) rotate(-90) scale(0.1 -0.1)">
      <defs>
       <path id="DejaVuSans-76" d="M 191 3500 
L 800 3500 
L 1894 563 
L 2988 3500 
L 3597 3500 
L 2284 0 
L 1503 0 
L 191 3500 
z
" transform="scale(0.015625)"/>
       <path id="DejaVuSans-74" d="M 1172 4494 
L 1172 3500 
L 2356 3500 
L 2356 3053 
L 1172 3053 
L 1172 1153 
Q 1172 725 1289 603 
Q 1406 481 1766 481 
L 2356 481 
L 2356 0 
L 1766 0 
Q 1100 0 847 248 
Q 594 497 594 1153 
L 594 3053 
L 172 3053 
L 172 3500 
L 594 3500 
L 594 4494 
L 1172 4494 
z
" transform="scale(0.015625)"/>
       <path id="DejaVuSans-73" d="M 2834 3397 
L 2834 2853 
Q 2591 2978 2328 3040 
Q 2066 3103 1784 3103 
Q 1356 3103 1142 2972 
Q 928 2841 928 2578 
Q 928 2378 1081 2264 
Q 1234 2150 1697 2047 
L 1894 2003 
Q 2506 1872 2764 1633 
Q 3022 1394 3022 966 
Q 3022 478 2636 193 
Q 2250 -91 1575 -91 
Q 1294 -91 989 -36 
Q 684 19 347 128 
L 347 722 
Q 666 556 975 473 
Q 1284 391 1588 391 
Q 1994 391 2212 530 
Q 2431 669 2431 922 
Q 2431 1156 2273 1281 
Q 2116 1406 1581 1522 
L 1381 1569 
Q 847 1681 609 1914 
Q 372 2147 372 2553 
Q 372 3047 722 3315 
Q 1072 3584 1716 3584 
Q 2034 3584 2315 3537 
Q 2597 3491 2834 3397 
z
" transform="scale(0.015625)"/>
      </defs>
      <use xlink:href="#DejaVuSans-45"/>
      <use xlink:href="#DejaVuSans-76" transform="translate(63.183594 0)"/>
      <use xlink:href="#DejaVuSans-65" transform="translate(122.363281 0)"/>
      <use xlink:href="#DejaVuSans-6e" transform="translate(183.886719 0)"/>
      <use xlink:href="#DejaVuSans-74" transform="translate(247.265625 0)"/>
      <use xlink:href="#DejaVuSans-73" transform="translate(286.474609 0)"/>
     </g>
    </g>
   </g>
   <g id="line2d_33">
    <path d="M 152.293388 306.246363 
L 152.631811 305.31418 
L 152.970233 305.935635 
L 153.308656 307.8 
L 153.647078 307.178545 
L 153.985501 294.438718 
L 154.323923 257.772873 
L 154.662346 244.411591 
L 155.000768 224.525031 
L 155.339191 216.446116 
L 156.016036 244.722318 
L 156.692881 288.224168 
L 157.031303 275.173613 
L 157.369726 231.671763 
L 157.708148 234.157583 
L 158.04657 226.700123 
L 158.384993 206.813564 
L 158.723415 197.802466 
L 159.061838 200.909741 
L 159.40026 186.305549 
L 159.738683 181.333909 
L 160.75395 129.753144 
L 161.092373 125.402959 
L 161.430795 98.991122 
L 161.769218 87.183477 
L 162.10764 93.708755 
L 162.446063 58.907275 
L 162.784485 69.782737 
L 163.122908 89.35857 
L 163.799753 59.218002 
L 164.138175 77.240197 
L 164.476597 55.8 
L 164.81502 58.596547 
L 165.153442 56.732182 
L 165.491865 83.454747 
L 165.830287 68.850555 
L 166.16871 79.726017 
L 166.507132 79.41529 
L 166.845555 70.404192 
L 167.183977 83.765475 
L 167.5224 69.782737 
L 167.860822 98.05894 
L 168.199245 86.562022 
L 168.87609 101.78767 
L 169.214512 93.398027 
L 169.552935 93.398027 
L 169.891357 108.002219 
L 170.22978 102.098397 
L 170.568202 104.584217 
L 170.906625 105.827127 
L 171.245047 118.566954 
L 171.583469 121.984957 
L 171.921892 117.324044 
L 172.260314 136.278422 
L 172.598737 131.617509 
L 172.937159 136.899877 
L 173.275582 151.193342 
L 173.614004 146.221702 
L 173.952427 153.368434 
L 174.290849 151.193342 
L 174.629272 151.814797 
L 174.967694 163.622441 
L 175.306117 158.650801 
L 175.644539 158.961529 
L 175.982962 167.040444 
L 176.321384 162.690259 
L 176.659807 164.865351 
L 176.998229 176.672996 
L 177.336652 167.972626 
L 177.675074 178.848089 
L 178.013496 175.740814 
L 178.351919 188.169914 
L 178.690341 191.277189 
L 179.028764 192.209371 
L 179.367186 185.373366 
L 180.044031 193.452281 
L 180.382454 191.898644 
L 180.720876 195.627374 
L 181.059299 196.559556 
L 181.397721 201.220469 
L 181.736144 199.977559 
L 182.074566 195.316646 
L 182.412989 211.785203 
L 182.751411 209.299383 
L 183.089834 204.949199 
L 183.428256 217.999753 
L 183.766679 209.920838 
L 184.105101 220.174846 
L 184.443523 209.920838 
L 184.781946 228.253761 
L 185.120368 228.253761 
L 185.458791 225.146486 
L 185.797213 227.010851 
L 186.135636 227.632306 
L 186.474058 230.428853 
L 186.812481 230.118126 
L 187.150903 234.779038 
L 187.489326 234.468311 
L 187.827748 232.293218 
L 188.166171 244.100863 
L 188.504593 237.264858 
L 188.843016 236.021948 
L 189.181438 240.061406 
L 189.519861 233.846856 
L 189.858283 234.779038 
L 190.535128 249.693958 
L 190.87355 237.886313 
L 191.211973 250.315413 
L 191.550395 253.422688 
L 191.888818 248.140321 
L 192.22724 250.936868 
L 192.565663 248.761776 
L 192.904085 255.287053 
L 193.242508 256.219236 
L 193.58093 245.654501 
L 193.919353 244.411591 
L 194.596198 259.947965 
L 194.93462 257.772873 
L 195.273043 248.761776 
L 195.611465 262.433785 
L 195.949888 256.219236 
L 196.28831 258.394328 
L 196.626733 261.81233 
L 196.965155 252.179778 
L 197.303577 258.394328 
L 197.642 259.637238 
L 198.318845 269.580518 
L 198.657267 264.608878 
L 198.99569 270.5127 
L 199.334112 270.5127 
L 199.672535 273.309248 
L 200.010957 271.75561 
L 200.34938 266.78397 
L 200.687802 275.48434 
L 201.026225 277.037978 
L 201.364647 275.48434 
L 201.70307 271.444883 
L 202.041492 273.619975 
L 202.379915 273.930703 
L 202.718337 282.9418 
L 203.05676 270.823428 
L 203.395182 279.21307 
L 203.733605 273.309248 
L 204.072027 273.930703 
L 204.410449 278.280888 
L 204.748872 278.280888 
L 205.087294 282.320345 
L 205.425717 279.834525 
L 205.764139 282.009618 
L 206.102562 280.145253 
L 206.440984 279.21307 
L 206.779407 279.21307 
L 207.456252 286.981258 
L 207.794674 277.348705 
L 208.133097 283.873983 
L 208.471519 286.359803 
L 208.809942 280.45598 
L 209.148364 284.806165 
L 209.486787 285.42762 
L 209.825209 281.69889 
L 210.163632 286.67053 
L 210.502054 279.21307 
L 210.840476 279.523798 
L 211.178899 288.224168 
L 211.517321 285.42762 
L 211.855744 284.18471 
L 212.194166 287.91344 
L 212.532589 286.049075 
L 213.209434 279.523798 
L 213.547856 284.18471 
L 213.886279 286.049075 
L 214.224701 285.42762 
L 214.563124 281.077435 
L 214.901546 284.18471 
L 215.239969 285.42762 
L 215.578391 289.467078 
L 215.916814 291.020715 
L 216.255236 283.563255 
L 216.593659 283.873983 
L 216.932081 285.42762 
L 217.270503 286.359803 
L 217.608926 288.845623 
L 217.947348 284.18471 
L 218.285771 291.331443 
L 218.624193 294.12799 
L 219.301038 290.088533 
L 219.639461 286.359803 
L 219.977883 287.291985 
L 220.316306 286.981258 
L 220.654728 287.91344 
L 220.993151 287.602713 
L 221.331573 290.088533 
L 221.669996 291.64217 
L 222.008418 288.224168 
L 222.346841 289.467078 
L 222.685263 286.981258 
L 223.023686 287.602713 
L 223.362108 288.845623 
L 223.70053 279.834525 
L 224.038953 284.18471 
L 224.377375 282.9418 
L 224.715798 289.777805 
L 225.05422 282.631073 
L 225.392643 286.359803 
L 225.731065 283.252528 
L 226.069488 281.69889 
L 226.40791 286.359803 
L 227.084755 281.69889 
L 227.423178 287.602713 
L 227.7616 288.845623 
L 228.100023 281.388163 
L 228.438445 287.91344 
L 228.776868 287.602713 
L 229.11529 288.534895 
L 229.453713 283.252528 
L 229.792135 286.359803 
L 230.130557 291.64217 
L 230.46898 290.709988 
L 230.807402 294.12799 
L 231.145825 295.3709 
L 231.484247 298.167448 
L 231.82267 294.749445 
L 232.161092 296.303083 
L 232.499515 299.721085 
L 232.837937 298.167448 
L 233.17636 292.88508 
L 233.853205 295.3709 
L 234.191627 293.195808 
L 234.53005 294.12799 
L 234.868472 295.681628 
L 235.206895 295.3709 
L 235.545317 296.924538 
L 235.88374 292.263625 
L 236.222162 295.681628 
L 236.560584 296.61381 
L 236.899007 292.263625 
L 237.237429 297.85672 
L 237.575852 295.681628 
L 237.914274 298.478175 
L 238.252697 299.09963 
L 238.591119 291.952898 
L 238.929542 296.61381 
L 239.267964 298.167448 
L 239.606387 294.749445 
L 239.944809 296.61381 
L 240.283232 293.506535 
L 240.621654 296.924538 
L 240.960077 297.545993 
L 241.298499 298.478175 
L 241.636922 296.61381 
L 241.975344 295.992355 
L 242.313767 294.12799 
L 242.652189 293.817263 
L 242.990612 298.788903 
L 243.329034 296.924538 
L 243.667456 292.263625 
L 244.005879 295.060173 
L 244.344301 293.506535 
L 244.682724 297.235265 
L 245.021146 288.534895 
L 245.359569 297.85672 
L 246.036414 298.478175 
L 246.374836 296.61381 
L 246.713259 296.61381 
L 247.051681 295.060173 
L 248.066949 298.167448 
L 248.405371 295.992355 
L 248.743794 296.303083 
L 249.082216 297.545993 
L 249.420639 296.61381 
L 249.759061 296.61381 
L 250.097483 298.788903 
L 250.774328 296.61381 
L 251.112751 298.788903 
L 251.451173 294.438718 
L 251.789596 297.235265 
L 252.128018 297.85672 
L 252.466441 299.721085 
L 252.804863 295.681628 
L 253.481708 298.788903 
L 253.820131 296.61381 
L 254.158553 299.721085 
L 254.496976 299.410358 
L 254.835398 300.34254 
L 255.173821 296.303083 
L 255.512243 298.167448 
L 255.850666 296.303083 
L 256.189088 298.167448 
L 256.52751 296.61381 
L 256.865933 300.031813 
L 257.204355 300.031813 
L 257.542778 298.167448 
L 257.8812 298.478175 
L 258.219623 296.303083 
L 258.558045 298.167448 
L 258.896468 297.545993 
L 259.23489 296.303083 
L 259.573313 297.85672 
L 259.911735 300.653268 
L 260.250158 296.61381 
L 260.58858 296.303083 
L 260.927003 297.85672 
L 261.265425 298.478175 
L 261.603848 298.788903 
L 262.280693 295.681628 
L 262.619115 298.478175 
L 262.957537 297.85672 
L 263.29596 298.167448 
L 263.634382 297.545993 
L 263.972805 297.545993 
L 264.311227 294.749445 
L 264.64965 297.235265 
L 264.988072 297.235265 
L 265.326495 298.788903 
L 265.664917 298.478175 
L 266.00334 300.653268 
L 266.341762 294.438718 
L 266.680185 295.060173 
L 267.018607 295.060173 
L 267.35703 297.545993 
L 267.695452 297.545993 
L 268.033875 300.653268 
L 268.372297 296.61381 
L 268.71072 295.681628 
L 269.049142 296.61381 
L 270.064409 300.963995 
L 270.402832 297.545993 
L 270.741254 299.09963 
L 271.079677 297.235265 
L 271.418099 299.09963 
L 271.756522 299.410358 
L 272.094944 296.61381 
L 272.433367 298.167448 
L 272.771789 296.924538 
L 273.110212 300.963995 
L 273.448634 297.545993 
L 273.787057 298.478175 
L 274.125479 298.478175 
L 274.463902 300.653268 
L 274.802324 296.924538 
L 275.140747 300.963995 
L 275.817591 299.410358 
L 276.156014 299.09963 
L 276.494436 300.031813 
L 276.832859 298.478175 
L 277.171281 298.788903 
L 277.509704 299.721085 
L 277.848126 298.788903 
L 278.186549 298.478175 
L 278.524971 297.85672 
L 278.863394 299.410358 
L 279.201816 298.788903 
L 279.540239 297.235265 
L 279.878661 300.34254 
L 280.217084 298.478175 
L 280.555506 301.274723 
L 280.893929 300.031813 
L 281.232351 298.167448 
L 281.570774 297.85672 
L 281.909196 298.167448 
L 282.247619 300.031813 
L 282.586041 299.410358 
L 282.924463 299.410358 
L 283.262886 296.61381 
L 283.601308 297.545993 
L 283.939731 297.235265 
L 284.278153 297.545993 
L 284.616576 296.924538 
L 284.954998 294.438718 
L 285.293421 297.545993 
L 285.631843 296.303083 
L 286.647111 300.031813 
L 286.985533 294.749445 
L 287.323956 297.545993 
L 288.000801 300.963995 
L 288.339223 299.09963 
L 288.677646 298.167448 
L 289.016068 296.61381 
L 290.031335 302.206905 
L 290.369758 297.235265 
L 290.70818 301.896178 
L 291.046603 301.896178 
L 291.385025 299.410358 
L 291.723448 300.34254 
L 292.06187 296.924538 
L 292.400293 297.235265 
L 292.738715 299.721085 
L 293.41556 302.517633 
L 293.753983 300.031813 
L 294.092405 299.410358 
L 294.430828 299.09963 
L 294.76925 297.85672 
L 295.107673 298.788903 
L 295.446095 298.788903 
L 295.784517 300.34254 
L 296.12294 297.85672 
L 296.461362 300.031813 
L 296.799785 300.653268 
L 297.47663 297.85672 
L 297.815052 301.274723 
L 298.153475 297.235265 
L 298.491897 299.721085 
L 298.83032 299.410358 
L 299.168742 303.139088 
L 299.507165 299.721085 
L 299.845587 301.58545 
L 300.18401 301.58545 
L 300.522432 303.139088 
L 300.860855 299.721085 
L 301.199277 301.896178 
L 301.5377 302.517633 
L 301.876122 300.963995 
L 302.214544 300.34254 
L 302.552967 303.139088 
L 302.891389 299.721085 
L 303.229812 304.692725 
L 303.568234 302.517633 
L 303.906657 303.760543 
L 304.245079 302.206905 
L 304.583502 303.139088 
L 304.921924 302.82836 
L 305.260347 301.58545 
L 305.598769 301.274723 
L 305.937192 304.381998 
L 306.275614 305.003453 
L 306.614037 304.381998 
L 306.952459 304.381998 
L 307.290882 304.692725 
L 307.629304 301.896178 
L 307.967727 303.139088 
L 308.306149 303.449815 
L 308.644571 305.003453 
L 308.982994 304.692725 
L 309.321416 304.07127 
L 309.659839 304.07127 
L 309.998261 305.003453 
L 310.336684 304.381998 
L 310.675106 302.82836 
L 311.013529 304.381998 
L 311.351951 302.517633 
L 311.690374 303.139088 
L 312.028796 304.692725 
L 312.705641 302.82836 
L 313.044064 305.31418 
L 313.382486 303.760543 
L 313.720909 304.07127 
L 314.059331 300.34254 
L 314.397754 301.274723 
L 314.736176 303.449815 
L 315.074599 301.896178 
L 315.413021 302.206905 
L 316.089866 301.58545 
L 316.428288 297.545993 
L 316.766711 300.653268 
L 317.105133 297.545993 
L 317.443556 300.031813 
L 317.781978 298.167448 
L 318.120401 299.410358 
L 318.458823 295.3709 
L 318.797246 294.749445 
L 319.474091 292.88508 
L 319.812513 297.235265 
L 320.150936 291.331443 
L 320.489358 291.952898 
L 320.827781 289.777805 
L 321.166203 291.331443 
L 321.843048 286.359803 
L 322.18147 284.806165 
L 322.519893 282.631073 
L 322.858315 288.224168 
L 323.196738 282.009618 
L 323.53516 272.687793 
L 323.873583 280.45598 
L 324.212005 281.077435 
L 324.550428 284.806165 
L 324.88885 283.873983 
L 325.227273 282.009618 
L 325.565695 276.416523 
L 325.904118 279.21307 
L 326.24254 280.45598 
L 326.580963 284.495438 
L 327.257808 287.602713 
L 327.59623 285.738348 
L 327.934653 291.64217 
L 328.273075 287.602713 
L 328.94992 296.61381 
L 329.288342 292.263625 
L 329.626765 292.263625 
L 329.965187 295.3709 
L 330.30361 294.749445 
L 330.642032 300.031813 
L 330.980455 298.478175 
L 331.318877 300.031813 
L 331.6573 302.517633 
L 331.995722 299.410358 
L 332.334145 302.517633 
L 332.672567 301.58545 
L 333.01099 302.82836 
L 333.349412 305.31418 
L 333.687835 303.139088 
L 334.026257 303.760543 
L 334.36468 305.31418 
L 334.703102 305.003453 
L 335.379947 305.624908 
L 335.718369 306.55709 
L 336.056792 305.003453 
L 336.395214 305.935635 
L 336.733637 305.935635 
L 337.072059 306.55709 
L 337.410482 306.867818 
L 337.748904 305.003453 
L 338.087327 306.55709 
L 338.425749 306.55709 
L 339.102594 304.692725 
L 339.441017 306.246363 
L 339.779439 306.246363 
L 340.117862 305.935635 
L 340.794707 306.55709 
L 341.133129 306.55709 
L 341.471551 305.31418 
L 341.809974 306.867818 
L 342.148396 306.55709 
L 342.486819 306.867818 
L 342.825241 306.246363 
L 343.502086 306.246363 
L 343.840509 306.867818 
L 344.178931 306.55709 
L 344.517354 307.489273 
L 344.855776 306.867818 
L 345.194199 307.8 
L 345.532621 306.55709 
L 345.871044 305.935635 
L 346.209466 307.178545 
L 346.547889 307.178545 
L 346.886311 306.55709 
L 347.224734 307.178545 
L 347.563156 306.246363 
L 348.240001 306.867818 
L 348.578423 305.003453 
L 348.916846 306.867818 
L 349.255268 306.55709 
L 349.593691 305.624908 
L 349.932113 306.246363 
L 350.270536 306.55709 
L 350.608958 305.624908 
L 350.947381 306.867818 
L 351.285803 305.003453 
L 351.962648 305.624908 
L 352.301071 306.55709 
L 352.977916 307.178545 
L 353.654761 304.692725 
L 353.993183 306.867818 
L 354.331606 306.867818 
L 354.670028 305.31418 
L 355.00845 306.867818 
L 355.346873 306.55709 
L 355.685295 305.935635 
L 356.023718 306.246363 
L 356.700563 305.624908 
L 357.038985 305.624908 
L 357.377408 305.003453 
L 357.71583 306.55709 
L 358.054253 305.935635 
L 358.392675 305.624908 
L 358.731098 305.624908 
L 359.06952 306.55709 
L 359.407943 306.55709 
L 359.746365 305.935635 
L 360.084788 305.935635 
L 360.42321 306.246363 
L 360.761633 305.31418 
L 361.100055 306.867818 
L 361.438477 306.867818 
L 361.7769 305.935635 
L 362.453745 306.55709 
L 362.792167 307.489273 
L 363.13059 305.935635 
L 363.469012 306.55709 
L 363.807435 307.489273 
L 364.145857 305.935635 
L 364.48428 306.55709 
L 364.822702 306.55709 
L 365.161125 305.624908 
L 365.83797 307.8 
L 366.176392 307.178545 
L 366.514815 307.8 
L 366.853237 307.178545 
L 367.19166 307.489273 
L 367.868504 306.867818 
L 368.206927 307.178545 
L 368.545349 305.935635 
L 368.883772 307.178545 
L 369.222194 306.867818 
L 369.560617 305.935635 
L 369.899039 306.867818 
L 370.237462 307.178545 
L 370.575884 306.55709 
L 370.914307 306.867818 
L 371.252729 306.246363 
L 371.591152 306.867818 
L 371.929574 307.178545 
L 372.267997 306.55709 
L 372.944842 307.178545 
L 373.283264 306.246363 
L 373.960109 307.489273 
L 374.298531 307.178545 
L 374.636954 306.55709 
L 374.975376 307.178545 
L 375.313799 307.178545 
L 375.990644 306.55709 
L 376.329066 307.178545 
L 377.005911 307.178545 
L 377.344334 306.246363 
L 377.682756 307.8 
L 378.021179 307.489273 
L 378.359601 306.867818 
L 378.698024 307.489273 
L 379.036446 307.8 
L 379.374869 307.489273 
L 379.713291 307.489273 
L 380.051714 307.178545 
L 380.390136 306.55709 
L 380.728558 306.867818 
L 381.066981 307.489273 
L 381.743826 306.867818 
L 382.082248 307.8 
L 382.420671 307.8 
L 382.759093 306.867818 
L 383.097516 307.178545 
L 383.435938 306.246363 
L 383.774361 307.8 
L 384.112783 307.178545 
L 384.451206 307.8 
L 384.789628 307.489273 
L 385.128051 306.867818 
L 385.466473 307.489273 
L 385.804896 307.178545 
L 386.143318 307.8 
L 386.481741 307.8 
L 386.820163 307.178545 
L 387.158585 307.178545 
L 387.497008 307.489273 
L 387.83543 306.867818 
L 388.173853 307.489273 
L 388.512275 307.8 
L 388.850698 307.8 
L 389.18912 307.178545 
L 389.527543 307.8 
L 390.204388 307.8 
L 390.54281 307.489273 
L 391.219655 307.489273 
L 391.558078 307.8 
L 391.8965 307.178545 
L 392.234923 307.489273 
L 392.573345 306.55709 
L 392.911768 307.489273 
L 393.25019 307.489273 
L 393.588613 306.246363 
L 393.927035 307.178545 
L 394.265457 307.178545 
L 394.60388 305.935635 
L 394.942302 307.178545 
L 395.619147 307.178545 
L 395.95757 306.55709 
L 396.295992 307.178545 
L 396.634415 307.178545 
L 396.972837 306.55709 
L 397.31126 306.867818 
L 397.649682 306.867818 
L 397.988105 306.246363 
L 398.326527 307.178545 
L 398.66495 307.489273 
L 399.003372 306.867818 
L 399.341795 307.8 
L 399.680217 307.489273 
L 400.01864 306.55709 
L 400.357062 307.8 
L 400.695484 307.489273 
L 401.033907 305.003453 
L 401.372329 307.178545 
L 402.049174 307.8 
L 402.387597 307.489273 
L 402.726019 305.624908 
L 403.064442 307.489273 
L 403.402864 307.489273 
L 404.079709 306.246363 
L 404.418132 307.489273 
L 404.756554 306.867818 
L 405.094977 305.935635 
L 405.433399 307.178545 
L 405.771822 306.55709 
L 406.110244 306.246363 
L 406.448667 307.178545 
L 406.787089 307.489273 
L 407.125511 306.867818 
L 407.463934 307.489273 
L 407.802356 307.489273 
L 408.140779 306.867818 
L 408.479201 307.8 
L 408.817624 306.55709 
L 409.156046 307.178545 
L 409.494469 307.178545 
L 409.832891 307.489273 
L 410.171314 306.867818 
L 410.509736 307.489273 
L 410.848159 306.55709 
L 411.525004 307.8 
L 411.863426 307.489273 
L 412.201849 306.246363 
L 412.540271 307.178545 
L 412.878694 305.935635 
L 413.217116 307.178545 
L 413.893961 307.8 
L 414.570806 307.178545 
L 414.909228 307.8 
L 415.247651 307.489273 
L 415.586073 307.489273 
L 415.924496 307.178545 
L 416.939763 307.178545 
L 417.278186 307.489273 
L 417.955031 306.867818 
L 418.631876 307.489273 
L 418.970298 307.489273 
L 419.308721 306.867818 
L 419.647143 307.489273 
L 419.985565 307.489273 
L 420.323988 307.178545 
L 420.66241 307.8 
L 421.000833 307.8 
L 421.339255 307.489273 
L 421.677678 307.8 
L 422.354523 307.178545 
L 422.692945 307.489273 
L 423.031368 306.55709 
L 423.36979 307.178545 
L 423.708213 307.489273 
L 424.046635 307.178545 
L 424.385058 307.489273 
L 424.72348 307.178545 
L 425.061903 307.489273 
L 425.400325 306.867818 
L 425.738748 306.867818 
L 426.07717 307.178545 
L 426.415593 306.867818 
L 426.754015 307.8 
L 427.092437 307.489273 
L 427.43086 306.867818 
L 427.769282 307.178545 
L 428.107705 307.8 
L 428.446127 307.8 
L 428.78455 307.489273 
L 429.122972 307.8 
L 429.461395 307.489273 
L 429.799817 307.8 
L 430.13824 307.8 
L 430.476662 306.867818 
L 431.153507 307.489273 
L 431.830352 307.489273 
L 432.168775 306.867818 
L 432.507197 307.178545 
L 432.84562 307.8 
L 433.522464 307.8 
L 433.860887 307.489273 
L 434.199309 307.8 
L 434.537732 307.489273 
L 434.876154 307.8 
L 435.214577 307.489273 
L 435.552999 307.489273 
L 435.891422 307.178545 
L 436.229844 307.489273 
L 436.568267 307.178545 
L 436.906689 307.8 
L 437.245112 307.8 
L 437.583534 307.178545 
L 437.921957 307.489273 
L 438.598802 307.489273 
L 439.275647 306.867818 
L 439.614069 307.8 
L 439.952491 307.178545 
L 440.290914 307.178545 
L 440.629336 307.8 
L 440.967759 306.867818 
L 441.306181 306.867818 
L 441.644604 307.489273 
L 441.983026 307.8 
L 442.321449 306.867818 
L 442.659871 307.489273 
L 442.998294 307.178545 
L 443.675139 307.178545 
L 444.013561 307.8 
L 444.351984 306.55709 
L 444.690406 307.489273 
L 445.028829 307.178545 
L 445.367251 307.178545 
L 445.705674 306.55709 
L 446.044096 306.867818 
L 446.382518 307.489273 
L 446.720941 306.55709 
L 447.059363 306.246363 
L 447.397786 306.867818 
L 447.736208 306.867818 
L 448.074631 307.178545 
L 448.413053 307.178545 
L 448.751476 306.867818 
L 449.089898 306.867818 
L 449.428321 307.489273 
L 450.105166 306.867818 
L 450.443588 307.489273 
L 450.782011 307.178545 
L 451.120433 307.489273 
L 451.458856 307.178545 
L 451.797278 307.8 
L 452.135701 306.55709 
L 452.474123 306.55709 
L 452.812545 307.8 
L 453.150968 306.867818 
L 453.48939 307.178545 
L 454.166235 306.55709 
L 454.504658 307.178545 
L 454.84308 306.867818 
L 455.181503 307.178545 
L 455.858348 307.178545 
L 456.19677 307.8 
L 456.535193 306.867818 
L 456.873615 307.178545 
L 457.212038 307.8 
L 457.55046 307.178545 
L 458.227305 307.8 
L 458.565728 307.8 
L 458.90415 307.489273 
L 459.242572 307.8 
L 459.919417 307.8 
L 460.25784 307.489273 
L 460.596262 307.8 
L 462.288375 307.8 
L 462.626797 307.489273 
L 462.96522 307.8 
L 463.303642 307.8 
L 463.642065 307.489273 
L 463.980487 307.8 
L 466.011022 307.8 
L 466.349444 307.489273 
L 466.687867 307.8 
L 467.026289 307.8 
L 467.364712 307.489273 
L 467.703134 307.8 
L 468.379979 307.8 
L 468.718402 307.178545 
L 469.056824 307.8 
L 469.733669 307.8 
L 470.072092 307.489273 
L 470.410514 307.8 
L 470.748937 307.489273 
L 471.087359 307.8 
L 473.456316 307.8 
L 473.794739 307.489273 
L 474.133161 307.8 
L 474.471584 307.489273 
L 474.810006 307.8 
L 479.886343 307.8 
L 480.224766 307.489273 
L 480.563188 307.489273 
L 480.901611 307.8 
L 481.578456 307.8 
L 481.916878 307.489273 
L 482.255301 307.8 
L 484.285836 307.8 
L 484.624258 307.489273 
L 484.962681 307.489273 
L 485.301103 307.8 
L 490.715863 307.8 
L 491.054285 307.489273 
L 491.392708 307.8 
L 491.73113 307.8 
L 492.069552 307.178545 
L 492.407975 307.8 
L 492.746397 307.8 
L 493.08482 307.489273 
L 493.423242 307.8 
L 494.100087 307.8 
L 494.43851 307.489273 
L 494.776932 307.489273 
L 495.115355 307.8 
L 495.453777 307.8 
L 495.7922 307.489273 
L 496.130622 307.8 
L 496.469045 307.489273 
L 496.807467 307.8 
L 497.14589 307.8 
L 497.484312 307.489273 
L 497.822735 307.8 
L 498.161157 307.8 
L 498.161157 307.8 
" clip-path="url(#p49d3d46815)" style="fill: none; stroke: #1f77b4; stroke-width: 1.5; stroke-linecap: square"/>
   </g>
   <g id="line2d_34">
    <path d="M 324.381217 320.4 
L 324.381217 43.2 
" clip-path="url(#p49d3d46815)" style="fill: none; stroke-dasharray: 5.55,2.4; stroke-dashoffset: 0; stroke: #ff0000; stroke-width: 1.5"/>
   </g>
   <g id="patch_3">
    <path d="M 135 320.4 
L 135 43.2 
" style="fill: none; stroke: #000000; stroke-width: 0.8; stroke-linejoin: miter; stroke-linecap: square"/>
   </g>
   <g id="patch_4">
    <path d="M 515.454545 320.4 
L 515.454545 43.2 
" style="fill: none; stroke: #000000; stroke-width: 0.8; stroke-linejoin: miter; stroke-linecap: square"/>
   </g>
   <g id="patch_5">
    <path d="M 135 320.4 
L 515.454545 320.4 
" style="fill: none; stroke: #000000; stroke-width: 0.8; stroke-linejoin: miter; stroke-linecap: square"/>
   </g>
   <g id="patch_6">
    <path d="M 135 43.2 
L 515.454545 43.2 
" style="fill: none; stroke: #000000; stroke-width: 0.8; stroke-linejoin: miter; stroke-linecap: square"/>
   </g>
   <g id="legend_1">
    <g id="patch_7">
     <path d="M 358.254545 67.4 
L 508.454545 67.4 
Q 510.454545 67.4 510.454545 65.4 
L 510.454545 50.2 
Q 510.454545 48.2 508.454545 48.2 
L 358.254545 48.2 
Q 356.254545 48.2 356.254545 50.2 
L 356.254545 65.4 
Q 356.254545 67.4 358.254545 67.4 
z
" style="fill: #ffffff; opacity: 0.8; stroke: #cccccc; stroke-linejoin: miter"/>
    </g>
    <g id="line2d_35">
     <path d="M 360.254545 57.8 
L 370.254545 57.8 
L 380.254545 57.8 
" style="fill: none; stroke-dasharray: 5.55,2.4; stroke-dashoffset: 0; stroke: #ff0000; stroke-width: 1.5"/>
    </g>
    <g id="text_19">
     <!-- $^{40}$K-peak (1450.33 keV) -->
     <g transform="translate(388.254545 61.3) scale(0.1 -0.1)">
      <defs>
       <path id="DejaVuSans-4b" d="M 628 4666 
L 1259 4666 
L 1259 2694 
L 3353 4666 
L 4166 4666 
L 1850 2491 
L 4331 0 
L 3500 0 
L 1259 2247 
L 1259 0 
L 628 0 
L 628 4666 
z
" transform="scale(0.015625)"/>
       <path id="DejaVuSans-2d" d="M 313 2009 
L 1997 2009 
L 1997 1497 
L 313 1497 
L 313 2009 
z
" transform="scale(0.015625)"/>
       <path id="DejaVuSans-70" d="M 1159 525 
L 1159 -1331 
L 581 -1331 
L 581 3500 
L 1159 3500 
L 1159 2969 
Q 1341 3281 1617 3432 
Q 1894 3584 2278 3584 
Q 2916 3584 3314 3078 
Q 3713 2572 3713 1747 
Q 3713 922 3314 415 
Q 2916 -91 2278 -91 
Q 1894 -91 1617 61 
Q 1341 213 1159 525 
z
M 3116 1747 
Q 3116 2381 2855 2742 
Q 2594 3103 2138 3103 
Q 1681 3103 1420 2742 
Q 1159 2381 1159 1747 
Q 1159 1113 1420 752 
Q 1681 391 2138 391 
Q 2594 391 2855 752 
Q 3116 1113 3116 1747 
z
" transform="scale(0.015625)"/>
       <path id="DejaVuSans-61" d="M 2194 1759 
Q 1497 1759 1228 1600 
Q 959 1441 959 1056 
Q 959 750 1161 570 
Q 1363 391 1709 391 
Q 2188 391 2477 730 
Q 2766 1069 2766 1631 
L 2766 1759 
L 2194 1759 
z
M 3341 1997 
L 3341 0 
L 2766 0 
L 2766 531 
Q 2569 213 2275 61 
Q 1981 -91 1556 -91 
Q 1019 -91 701 211 
Q 384 513 384 1019 
Q 384 1609 779 1909 
Q 1175 2209 1959 2209 
L 2766 2209 
L 2766 2266 
Q 2766 2663 2505 2880 
Q 2244 3097 1772 3097 
Q 1472 3097 1187 3025 
Q 903 2953 641 2809 
L 641 3341 
Q 956 3463 1253 3523 
Q 1550 3584 1831 3584 
Q 2591 3584 2966 3190 
Q 3341 2797 3341 1997 
z
" transform="scale(0.015625)"/>
       <path id="DejaVuSans-28" d="M 1984 4856 
Q 1566 4138 1362 3434 
Q 1159 2731 1159 2009 
Q 1159 1288 1364 580 
Q 1569 -128 1984 -844 
L 1484 -844 
Q 1016 -109 783 600 
Q 550 1309 550 2009 
Q 550 2706 781 3412 
Q 1013 4119 1484 4856 
L 1984 4856 
z
" transform="scale(0.015625)"/>
       <path id="DejaVuSans-2e" d="M 684 794 
L 1344 794 
L 1344 0 
L 684 0 
L 684 794 
z
" transform="scale(0.015625)"/>
       <path id="DejaVuSans-29" d="M 513 4856 
L 1013 4856 
Q 1481 4119 1714 3412 
Q 1947 2706 1947 2009 
Q 1947 1309 1714 600 
Q 1481 -109 1013 -844 
L 513 -844 
Q 928 -128 1133 580 
Q 1338 1288 1338 2009 
Q 1338 2731 1133 3434 
Q 928 4138 513 4856 
z
" transform="scale(0.015625)"/>
      </defs>
      <use xlink:href="#DejaVuSans-34" transform="translate(0.957031 39.046875) scale(0.7)"/>
      <use xlink:href="#DejaVuSans-30" transform="translate(45.493164 39.046875) scale(0.7)"/>
      <use xlink:href="#DejaVuSans-4b" transform="translate(92.763672 0.765625)"/>
      <use xlink:href="#DejaVuSans-2d" transform="translate(158.339844 0.765625)"/>
      <use xlink:href="#DejaVuSans-70" transform="translate(194.423828 0.765625)"/>
      <use xlink:href="#DejaVuSans-65" transform="translate(257.900391 0.765625)"/>
      <use xlink:href="#DejaVuSans-61" transform="translate(319.423828 0.765625)"/>
      <use xlink:href="#DejaVuSans-6b" transform="translate(380.703125 0.765625)"/>
      <use xlink:href="#DejaVuSans-20" transform="translate(438.613281 0.765625)"/>
      <use xlink:href="#DejaVuSans-28" transform="translate(470.400391 0.765625)"/>
      <use xlink:href="#DejaVuSans-31" transform="translate(509.414062 0.765625)"/>
      <use xlink:href="#DejaVuSans-34" transform="translate(573.037109 0.765625)"/>
      <use xlink:href="#DejaVuSans-35" transform="translate(636.660156 0.765625)"/>
      <use xlink:href="#DejaVuSans-30" transform="translate(700.283203 0.765625)"/>
      <use xlink:href="#DejaVuSans-2e" transform="translate(763.90625 0.765625)"/>
      <use xlink:href="#DejaVuSans-33" transform="translate(795.693359 0.765625)"/>
      <use xlink:href="#DejaVuSans-33" transform="translate(859.316406 0.765625)"/>
      <use xlink:href="#DejaVuSans-20" transform="translate(922.939453 0.765625)"/>
      <use xlink:href="#DejaVuSans-6b" transform="translate(954.726562 0.765625)"/>
      <use xlink:href="#DejaVuSans-65" transform="translate(1012.636719 0.765625)"/>
      <use xlink:href="#DejaVuSans-56" transform="translate(1074.160156 0.765625)"/>
      <use xlink:href="#DejaVuSans-29" transform="translate(1142.568359 0.765625)"/>
     </g>
    </g>
   </g>
  </g>
  <g id="axes_2">
   <g id="patch_8">
    <path d="M 591.545455 320.4 
L 972 320.4 
L 972 43.2 
L 591.545455 43.2 
z
" style="fill: #ffffff"/>
   </g>
   <g id="matplotlib.axis_3">
    <g id="xtick_8">
     <g id="line2d_36">
      <path d="M 648.420889 320.4 
L 648.420889 43.2 
" clip-path="url(#p612fc248f4)" style="fill: none; stroke: #b0b0b0; stroke-width: 0.8; stroke-linecap: square"/>
     </g>
     <g id="line2d_37">
      <g>
       <use xlink:href="#m13c61f68b1" x="648.420889" y="320.4" style="stroke: #000000; stroke-width: 0.8"/>
      </g>
     </g>
     <g id="text_20">
      <!-- 1000 -->
      <g transform="translate(635.695889 334.998438) scale(0.1 -0.1)">
       <use xlink:href="#DejaVuSans-31"/>
       <use xlink:href="#DejaVuSans-30" transform="translate(63.623047 0)"/>
       <use xlink:href="#DejaVuSans-30" transform="translate(127.246094 0)"/>
       <use xlink:href="#DejaVuSans-30" transform="translate(190.869141 0)"/>
      </g>
     </g>
    </g>
    <g id="xtick_9">
     <g id="line2d_38">
      <path d="M 707.644484 320.4 
L 707.644484 43.2 
" clip-path="url(#p612fc248f4)" style="fill: none; stroke: #b0b0b0; stroke-width: 0.8; stroke-linecap: square"/>
     </g>
     <g id="line2d_39">
      <g>
       <use xlink:href="#m13c61f68b1" x="707.644484" y="320.4" style="stroke: #000000; stroke-width: 0.8"/>
      </g>
     </g>
     <g id="text_21">
      <!-- 1200 -->
      <g transform="translate(694.919484 334.998438) scale(0.1 -0.1)">
       <use xlink:href="#DejaVuSans-31"/>
       <use xlink:href="#DejaVuSans-32" transform="translate(63.623047 0)"/>
       <use xlink:href="#DejaVuSans-30" transform="translate(127.246094 0)"/>
       <use xlink:href="#DejaVuSans-30" transform="translate(190.869141 0)"/>
      </g>
     </g>
    </g>
    <g id="xtick_10">
     <g id="line2d_40">
      <path d="M 766.868079 320.4 
L 766.868079 43.2 
" clip-path="url(#p612fc248f4)" style="fill: none; stroke: #b0b0b0; stroke-width: 0.8; stroke-linecap: square"/>
     </g>
     <g id="line2d_41">
      <g>
       <use xlink:href="#m13c61f68b1" x="766.868079" y="320.4" style="stroke: #000000; stroke-width: 0.8"/>
      </g>
     </g>
     <g id="text_22">
      <!-- 1400 -->
      <g transform="translate(754.143079 334.998438) scale(0.1 -0.1)">
       <use xlink:href="#DejaVuSans-31"/>
       <use xlink:href="#DejaVuSans-34" transform="translate(63.623047 0)"/>
       <use xlink:href="#DejaVuSans-30" transform="translate(127.246094 0)"/>
       <use xlink:href="#DejaVuSans-30" transform="translate(190.869141 0)"/>
      </g>
     </g>
    </g>
    <g id="xtick_11">
     <g id="line2d_42">
      <path d="M 826.091674 320.4 
L 826.091674 43.2 
" clip-path="url(#p612fc248f4)" style="fill: none; stroke: #b0b0b0; stroke-width: 0.8; stroke-linecap: square"/>
     </g>
     <g id="line2d_43">
      <g>
       <use xlink:href="#m13c61f68b1" x="826.091674" y="320.4" style="stroke: #000000; stroke-width: 0.8"/>
      </g>
     </g>
     <g id="text_23">
      <!-- 1600 -->
      <g transform="translate(813.366674 334.998438) scale(0.1 -0.1)">
       <use xlink:href="#DejaVuSans-31"/>
       <use xlink:href="#DejaVuSans-36" transform="translate(63.623047 0)"/>
       <use xlink:href="#DejaVuSans-30" transform="translate(127.246094 0)"/>
       <use xlink:href="#DejaVuSans-30" transform="translate(190.869141 0)"/>
      </g>
     </g>
    </g>
    <g id="xtick_12">
     <g id="line2d_44">
      <path d="M 885.315269 320.4 
L 885.315269 43.2 
" clip-path="url(#p612fc248f4)" style="fill: none; stroke: #b0b0b0; stroke-width: 0.8; stroke-linecap: square"/>
     </g>
     <g id="line2d_45">
      <g>
       <use xlink:href="#m13c61f68b1" x="885.315269" y="320.4" style="stroke: #000000; stroke-width: 0.8"/>
      </g>
     </g>
     <g id="text_24">
      <!-- 1800 -->
      <g transform="translate(872.590269 334.998438) scale(0.1 -0.1)">
       <use xlink:href="#DejaVuSans-31"/>
       <use xlink:href="#DejaVuSans-38" transform="translate(63.623047 0)"/>
       <use xlink:href="#DejaVuSans-30" transform="translate(127.246094 0)"/>
       <use xlink:href="#DejaVuSans-30" transform="translate(190.869141 0)"/>
      </g>
     </g>
    </g>
    <g id="xtick_13">
     <g id="line2d_46">
      <path d="M 944.538864 320.4 
L 944.538864 43.2 
" clip-path="url(#p612fc248f4)" style="fill: none; stroke: #b0b0b0; stroke-width: 0.8; stroke-linecap: square"/>
     </g>
     <g id="line2d_47">
      <g>
       <use xlink:href="#m13c61f68b1" x="944.538864" y="320.4" style="stroke: #000000; stroke-width: 0.8"/>
      </g>
     </g>
     <g id="text_25">
      <!-- 2000 -->
      <g transform="translate(931.813864 334.998438) scale(0.1 -0.1)">
       <use xlink:href="#DejaVuSans-32"/>
       <use xlink:href="#DejaVuSans-30" transform="translate(63.623047 0)"/>
       <use xlink:href="#DejaVuSans-30" transform="translate(127.246094 0)"/>
       <use xlink:href="#DejaVuSans-30" transform="translate(190.869141 0)"/>
      </g>
     </g>
    </g>
    <g id="text_26">
     <!-- Energy [keV] -->
     <g transform="translate(749.564915 348.676562) scale(0.1 -0.1)">
      <use xlink:href="#DejaVuSans-45"/>
      <use xlink:href="#DejaVuSans-6e" transform="translate(63.183594 0)"/>
      <use xlink:href="#DejaVuSans-65" transform="translate(126.5625 0)"/>
      <use xlink:href="#DejaVuSans-72" transform="translate(188.085938 0)"/>
      <use xlink:href="#DejaVuSans-67" transform="translate(227.449219 0)"/>
      <use xlink:href="#DejaVuSans-79" transform="translate(290.925781 0)"/>
      <use xlink:href="#DejaVuSans-20" transform="translate(350.105469 0)"/>
      <use xlink:href="#DejaVuSans-5b" transform="translate(381.892578 0)"/>
      <use xlink:href="#DejaVuSans-6b" transform="translate(420.90625 0)"/>
      <use xlink:href="#DejaVuSans-65" transform="translate(475.191406 0)"/>
      <use xlink:href="#DejaVuSans-56" transform="translate(536.714844 0)"/>
      <use xlink:href="#DejaVuSans-5d" transform="translate(605.123047 0)"/>
     </g>
    </g>
   </g>
   <g id="matplotlib.axis_4">
    <g id="ytick_10">
     <g id="line2d_48">
      <path d="M 591.545455 307.8 
L 972 307.8 
" clip-path="url(#p612fc248f4)" style="fill: none; stroke: #b0b0b0; stroke-width: 0.8; stroke-linecap: square"/>
     </g>
     <g id="line2d_49">
      <g>
       <use xlink:href="#m8d3072920c" x="591.545455" y="307.8" style="stroke: #000000; stroke-width: 0.8"/>
      </g>
     </g>
     <g id="text_27">
      <!-- 0 -->
      <g transform="translate(578.182955 311.599219) scale(0.1 -0.1)">
       <use xlink:href="#DejaVuSans-30"/>
      </g>
     </g>
    </g>
    <g id="ytick_11">
     <g id="line2d_50">
      <path d="M 591.545455 263.19823 
L 972 263.19823 
" clip-path="url(#p612fc248f4)" style="fill: none; stroke: #b0b0b0; stroke-width: 0.8; stroke-linecap: square"/>
     </g>
     <g id="line2d_51">
      <g>
       <use xlink:href="#m8d3072920c" x="591.545455" y="263.19823" style="stroke: #000000; stroke-width: 0.8"/>
      </g>
     </g>
     <g id="text_28">
      <!-- 20 -->
      <g transform="translate(571.820455 266.997449) scale(0.1 -0.1)">
       <use xlink:href="#DejaVuSans-32"/>
       <use xlink:href="#DejaVuSans-30" transform="translate(63.623047 0)"/>
      </g>
     </g>
    </g>
    <g id="ytick_12">
     <g id="line2d_52">
      <path d="M 591.545455 218.59646 
L 972 218.59646 
" clip-path="url(#p612fc248f4)" style="fill: none; stroke: #b0b0b0; stroke-width: 0.8; stroke-linecap: square"/>
     </g>
     <g id="line2d_53">
      <g>
       <use xlink:href="#m8d3072920c" x="591.545455" y="218.59646" style="stroke: #000000; stroke-width: 0.8"/>
      </g>
     </g>
     <g id="text_29">
      <!-- 40 -->
      <g transform="translate(571.820455 222.395679) scale(0.1 -0.1)">
       <use xlink:href="#DejaVuSans-34"/>
       <use xlink:href="#DejaVuSans-30" transform="translate(63.623047 0)"/>
      </g>
     </g>
    </g>
    <g id="ytick_13">
     <g id="line2d_54">
      <path d="M 591.545455 173.99469 
L 972 173.99469 
" clip-path="url(#p612fc248f4)" style="fill: none; stroke: #b0b0b0; stroke-width: 0.8; stroke-linecap: square"/>
     </g>
     <g id="line2d_55">
      <g>
       <use xlink:href="#m8d3072920c" x="591.545455" y="173.99469" style="stroke: #000000; stroke-width: 0.8"/>
      </g>
     </g>
     <g id="text_30">
      <!-- 60 -->
      <g transform="translate(571.820455 177.793909) scale(0.1 -0.1)">
       <use xlink:href="#DejaVuSans-36"/>
       <use xlink:href="#DejaVuSans-30" transform="translate(63.623047 0)"/>
      </g>
     </g>
    </g>
    <g id="ytick_14">
     <g id="line2d_56">
      <path d="M 591.545455 129.39292 
L 972 129.39292 
" clip-path="url(#p612fc248f4)" style="fill: none; stroke: #b0b0b0; stroke-width: 0.8; stroke-linecap: square"/>
     </g>
     <g id="line2d_57">
      <g>
       <use xlink:href="#m8d3072920c" x="591.545455" y="129.39292" style="stroke: #000000; stroke-width: 0.8"/>
      </g>
     </g>
     <g id="text_31">
      <!-- 80 -->
      <g transform="translate(571.820455 133.192139) scale(0.1 -0.1)">
       <use xlink:href="#DejaVuSans-38"/>
       <use xlink:href="#DejaVuSans-30" transform="translate(63.623047 0)"/>
      </g>
     </g>
    </g>
    <g id="ytick_15">
     <g id="line2d_58">
      <path d="M 591.545455 84.79115 
L 972 84.79115 
" clip-path="url(#p612fc248f4)" style="fill: none; stroke: #b0b0b0; stroke-width: 0.8; stroke-linecap: square"/>
     </g>
     <g id="line2d_59">
      <g>
       <use xlink:href="#m8d3072920c" x="591.545455" y="84.79115" style="stroke: #000000; stroke-width: 0.8"/>
      </g>
     </g>
     <g id="text_32">
      <!-- 100 -->
      <g transform="translate(565.457955 88.590369) scale(0.1 -0.1)">
       <use xlink:href="#DejaVuSans-31"/>
       <use xlink:href="#DejaVuSans-30" transform="translate(63.623047 0)"/>
       <use xlink:href="#DejaVuSans-30" transform="translate(127.246094 0)"/>
      </g>
     </g>
    </g>
    <g id="text_33">
     <!-- Events -->
     <g transform="translate(559.378267 198.728906) rotate(-90) scale(0.1 -0.1)">
      <use xlink:href="#DejaVuSans-45"/>
      <use xlink:href="#DejaVuSans-76" transform="translate(63.183594 0)"/>
      <use xlink:href="#DejaVuSans-65" transform="translate(122.363281 0)"/>
      <use xlink:href="#DejaVuSans-6e" transform="translate(183.886719 0)"/>
      <use xlink:href="#DejaVuSans-74" transform="translate(247.265625 0)"/>
      <use xlink:href="#DejaVuSans-73" transform="translate(286.474609 0)"/>
     </g>
    </g>
   </g>
   <g id="line2d_60">
    <path d="M 608.838843 252.047788 
L 609.705679 252.047788 
L 610.572516 238.667257 
L 611.439353 240.897345 
L 612.306189 225.286726 
L 613.173026 238.667257 
L 614.039862 234.20708 
L 614.906699 225.286726 
L 615.773535 236.437168 
L 616.640372 256.507965 
L 617.507208 227.516814 
L 618.374045 225.286726 
L 619.240881 236.437168 
L 620.107718 240.897345 
L 620.974554 243.127434 
L 622.708227 220.826549 
L 623.575064 240.897345 
L 624.4419 236.437168 
L 625.308737 238.667257 
L 626.175573 234.20708 
L 627.04241 234.20708 
L 627.909246 214.136283 
L 628.776083 231.976991 
L 629.642919 231.976991 
L 630.509756 243.127434 
L 631.376592 240.897345 
L 632.243429 256.507965 
L 633.110265 211.906195 
L 633.977102 216.366372 
L 634.843938 216.366372 
L 635.710775 234.20708 
L 636.577611 234.20708 
L 637.444448 256.507965 
L 638.311284 227.516814 
L 639.178121 220.826549 
L 640.044957 227.516814 
L 640.911794 238.667257 
L 641.77863 252.047788 
L 642.645467 258.738053 
L 643.512303 234.20708 
L 644.37914 245.357522 
L 645.245977 231.976991 
L 646.112813 245.357522 
L 646.97965 247.587611 
L 647.846486 227.516814 
L 648.713323 238.667257 
L 649.580159 229.746903 
L 650.446996 258.738053 
L 651.313832 234.20708 
L 652.180669 240.897345 
L 653.047505 240.897345 
L 653.914342 256.507965 
L 654.781178 229.746903 
L 655.648015 258.738053 
L 656.514851 252.047788 
L 657.381688 247.587611 
L 658.248524 245.357522 
L 659.115361 252.047788 
L 659.982197 240.897345 
L 660.849034 243.127434 
L 661.71587 249.817699 
L 662.582707 243.127434 
L 663.449543 240.897345 
L 664.31638 236.437168 
L 665.183216 247.587611 
L 666.050053 243.127434 
L 666.916889 231.976991 
L 667.783726 254.277876 
L 668.650562 240.897345 
L 669.517399 260.968142 
L 670.384235 252.047788 
L 671.251072 238.667257 
L 672.117908 236.437168 
L 672.984745 238.667257 
L 673.851581 252.047788 
L 674.718418 247.587611 
L 675.585254 247.587611 
L 676.452091 227.516814 
L 677.318927 234.20708 
L 678.185764 231.976991 
L 679.052601 234.20708 
L 679.919437 229.746903 
L 680.786274 211.906195 
L 681.65311 234.20708 
L 682.519947 225.286726 
L 683.386783 234.20708 
L 684.25362 240.897345 
L 685.120456 252.047788 
L 685.987293 214.136283 
L 686.854129 234.20708 
L 687.720966 245.357522 
L 688.587802 258.738053 
L 689.454639 245.357522 
L 690.321475 238.667257 
L 691.188312 227.516814 
L 692.055148 240.897345 
L 692.921985 258.738053 
L 693.788821 267.658407 
L 694.655658 231.976991 
L 695.522494 265.428319 
L 696.389331 265.428319 
L 697.256167 247.587611 
L 698.123004 254.277876 
L 698.98984 229.746903 
L 699.856677 231.976991 
L 700.723513 249.817699 
L 701.59035 258.738053 
L 702.457186 269.888496 
L 703.324023 252.047788 
L 704.190859 247.587611 
L 705.057696 245.357522 
L 705.924532 236.437168 
L 706.791369 243.127434 
L 707.658205 243.127434 
L 708.525042 254.277876 
L 709.391878 236.437168 
L 710.258715 252.047788 
L 711.125551 256.507965 
L 711.992388 247.587611 
L 712.859225 236.437168 
L 713.726061 260.968142 
L 714.592898 231.976991 
L 715.459734 249.817699 
L 716.326571 247.587611 
L 717.193407 274.348673 
L 718.060244 249.817699 
L 718.92708 263.19823 
L 719.793917 263.19823 
L 720.660753 274.348673 
L 721.52759 249.817699 
L 722.394426 265.428319 
L 723.261263 269.888496 
L 724.128099 258.738053 
L 724.994936 254.277876 
L 725.861772 274.348673 
L 726.728609 249.817699 
L 727.595445 285.499115 
L 728.462282 269.888496 
L 729.329118 278.80885 
L 730.195955 267.658407 
L 731.062791 274.348673 
L 731.929628 272.118584 
L 732.796464 263.19823 
L 733.663301 260.968142 
L 734.530137 283.269027 
L 735.396974 287.729204 
L 736.26381 283.269027 
L 737.130647 283.269027 
L 737.997483 285.499115 
L 738.86432 265.428319 
L 739.731156 274.348673 
L 740.597993 276.578761 
L 741.464829 287.729204 
L 742.331666 285.499115 
L 743.198502 281.038938 
L 744.065339 281.038938 
L 744.932175 287.729204 
L 745.799012 283.269027 
L 746.665849 272.118584 
L 747.532685 283.269027 
L 748.399522 269.888496 
L 749.266358 274.348673 
L 750.133195 285.499115 
L 751.866868 272.118584 
L 752.733704 289.959292 
L 753.600541 278.80885 
L 754.467377 281.038938 
L 755.334214 254.277876 
L 756.20105 260.968142 
L 757.067887 276.578761 
L 757.934723 265.428319 
L 758.80156 267.658407 
L 760.535233 263.19823 
L 761.402069 234.20708 
L 762.268906 256.507965 
L 763.135742 234.20708 
L 764.002579 252.047788 
L 764.869415 238.667257 
L 765.736252 247.587611 
L 766.603088 218.59646 
L 767.469925 214.136283 
L 769.203598 200.755752 
L 770.070434 231.976991 
L 770.937271 189.60531 
L 771.804107 194.065487 
L 772.670944 178.454867 
L 773.53778 189.60531 
L 774.404617 169.534513 
L 775.271453 153.923894 
L 776.13829 142.773451 
L 777.005126 127.162832 
L 777.871963 167.304425 
L 778.738799 122.702655 
L 779.605636 55.8 
L 780.472473 111.552212 
L 781.339309 116.012389 
L 782.206146 142.773451 
L 783.072982 136.083186 
L 783.939819 122.702655 
L 784.806655 82.561062 
L 785.673492 102.631858 
L 786.540328 111.552212 
L 787.407165 140.543363 
L 789.140838 162.844248 
L 790.007674 149.463717 
L 790.874511 191.835398 
L 791.741347 162.844248 
L 793.47502 227.516814 
L 794.341857 196.295575 
L 795.208693 196.295575 
L 796.07553 218.59646 
L 796.942366 214.136283 
L 797.809203 252.047788 
L 798.676039 240.897345 
L 799.542876 252.047788 
L 800.409712 269.888496 
L 801.276549 247.587611 
L 802.143385 269.888496 
L 803.010222 263.19823 
L 803.877058 272.118584 
L 804.743895 289.959292 
L 805.610731 274.348673 
L 806.477568 278.80885 
L 807.344404 289.959292 
L 808.211241 287.729204 
L 809.944914 292.189381 
L 810.81175 298.879646 
L 811.678587 287.729204 
L 812.545423 294.419469 
L 813.41226 294.419469 
L 814.279097 298.879646 
L 815.145933 301.109735 
L 816.01277 287.729204 
L 816.879606 298.879646 
L 817.746443 298.879646 
L 819.480116 285.499115 
L 820.346952 296.649558 
L 821.213789 296.649558 
L 822.080625 294.419469 
L 823.814298 298.879646 
L 824.681135 298.879646 
L 825.547971 289.959292 
L 826.414808 301.109735 
L 827.281644 298.879646 
L 828.148481 301.109735 
L 829.015317 296.649558 
L 830.74899 296.649558 
L 831.615827 301.109735 
L 832.482663 298.879646 
L 833.3495 305.569912 
L 834.216336 301.109735 
L 835.083173 307.8 
L 835.950009 298.879646 
L 836.816846 294.419469 
L 837.683682 303.339823 
L 838.550519 303.339823 
L 839.417355 298.879646 
L 840.284192 303.339823 
L 841.151028 296.649558 
L 842.884701 301.109735 
L 843.751538 287.729204 
L 844.618374 301.109735 
L 845.485211 298.879646 
L 846.352047 292.189381 
L 847.218884 296.649558 
L 848.08572 298.879646 
L 848.952557 292.189381 
L 849.819394 301.109735 
L 850.68623 287.729204 
L 852.419903 292.189381 
L 853.28674 298.879646 
L 855.020413 303.339823 
L 856.754086 285.499115 
L 857.620922 301.109735 
L 858.487759 301.109735 
L 859.354595 289.959292 
L 860.221432 301.109735 
L 861.088268 298.879646 
L 861.955105 294.419469 
L 862.821941 296.649558 
L 864.555614 292.189381 
L 865.422451 292.189381 
L 866.289287 287.729204 
L 867.156124 298.879646 
L 868.02296 294.419469 
L 868.889797 292.189381 
L 869.756633 292.189381 
L 870.62347 298.879646 
L 871.490306 298.879646 
L 872.357143 294.419469 
L 873.223979 294.419469 
L 874.090816 296.649558 
L 874.957652 289.959292 
L 875.824489 301.109735 
L 876.691325 301.109735 
L 877.558162 294.419469 
L 879.291835 298.879646 
L 880.158671 305.569912 
L 881.025508 294.419469 
L 881.892344 298.879646 
L 882.759181 305.569912 
L 883.626018 294.419469 
L 884.492854 298.879646 
L 885.359691 298.879646 
L 886.226527 292.189381 
L 887.093364 301.109735 
L 887.9602 307.8 
L 888.827037 303.339823 
L 889.693873 307.8 
L 890.56071 303.339823 
L 891.427546 305.569912 
L 893.161219 301.109735 
L 894.028056 303.339823 
L 894.894892 294.419469 
L 895.761729 303.339823 
L 896.628565 301.109735 
L 897.495402 294.419469 
L 898.362238 301.109735 
L 899.229075 303.339823 
L 900.095911 298.879646 
L 900.962748 301.109735 
L 901.829584 296.649558 
L 902.696421 301.109735 
L 903.563257 303.339823 
L 904.430094 298.879646 
L 906.163767 303.339823 
L 907.030603 296.649558 
L 908.764276 305.569912 
L 909.631113 303.339823 
L 910.497949 298.879646 
L 911.364786 303.339823 
L 912.231622 303.339823 
L 913.965295 298.879646 
L 914.832132 303.339823 
L 916.565805 303.339823 
L 917.432642 296.649558 
L 918.299478 307.8 
L 919.166315 305.569912 
L 920.033151 301.109735 
L 920.899988 305.569912 
L 921.766824 307.8 
L 922.633661 305.569912 
L 923.500497 305.569912 
L 924.367334 303.339823 
L 925.23417 298.879646 
L 926.101007 301.109735 
L 926.967843 305.569912 
L 928.701516 301.109735 
L 929.568353 307.8 
L 930.435189 307.8 
L 931.302026 301.109735 
L 932.168862 303.339823 
L 933.035699 296.649558 
L 933.902535 307.8 
L 934.769372 303.339823 
L 935.636208 307.8 
L 936.503045 305.569912 
L 937.369881 301.109735 
L 938.236718 305.569912 
L 939.103554 303.339823 
L 939.970391 307.8 
L 940.837227 307.8 
L 941.704064 303.339823 
L 942.5709 303.339823 
L 943.437737 305.569912 
L 944.304573 301.109735 
L 945.17141 305.569912 
L 946.038246 307.8 
L 946.905083 307.8 
L 947.771919 303.339823 
L 948.638756 307.8 
L 950.372429 307.8 
L 951.239266 305.569912 
L 952.972939 305.569912 
L 953.839775 307.8 
L 954.706612 303.339823 
L 954.706612 303.339823 
" clip-path="url(#p612fc248f4)" style="fill: none; stroke: #1f77b4; stroke-width: 1.5; stroke-linecap: square"/>
   </g>
   <g id="line2d_61">
    <path d="M 781.772727 320.4 
L 781.772727 43.2 
" clip-path="url(#p612fc248f4)" style="fill: none; stroke-dasharray: 5.55,2.4; stroke-dashoffset: 0; stroke: #ff0000; stroke-width: 1.5"/>
   </g>
   <g id="line2d_62">
    <path d="M 772.3839 320.4 
L 772.3839 195.66 
" clip-path="url(#p612fc248f4)" style="fill: none; stroke: #008000; stroke-width: 1.5; stroke-linecap: square"/>
   </g>
   <g id="line2d_63">
    <path d="M 791.161554 320.4 
L 791.161554 190.116 
" clip-path="url(#p612fc248f4)" style="fill: none; stroke: #008000; stroke-width: 1.5; stroke-linecap: square"/>
   </g>
   <g id="patch_9">
    <path d="M 591.545455 320.4 
L 591.545455 43.2 
" style="fill: none; stroke: #000000; stroke-width: 0.8; stroke-linejoin: miter; stroke-linecap: square"/>
   </g>
   <g id="patch_10">
    <path d="M 972 320.4 
L 972 43.2 
" style="fill: none; stroke: #000000; stroke-width: 0.8; stroke-linejoin: miter; stroke-linecap: square"/>
   </g>
   <g id="patch_11">
    <path d="M 591.545455 320.4 
L 972 320.4 
" style="fill: none; stroke: #000000; stroke-width: 0.8; stroke-linejoin: miter; stroke-linecap: square"/>
   </g>
   <g id="patch_12">
    <path d="M 591.545455 43.2 
L 972 43.2 
" style="fill: none; stroke: #000000; stroke-width: 0.8; stroke-linejoin: miter; stroke-linecap: square"/>
   </g>
   <g id="text_34">
    <!-- x = 1418.63 -->
    <g style="fill: #008000" transform="translate(698.760944 196.295575) scale(0.1 -0.1)">
     <defs>
      <path id="DejaVuSans-78" d="M 3513 3500 
L 2247 1797 
L 3578 0 
L 2900 0 
L 1881 1375 
L 863 0 
L 184 0 
L 1544 1831 
L 300 3500 
L 978 3500 
L 1906 2253 
L 2834 3500 
L 3513 3500 
z
" transform="scale(0.015625)"/>
      <path id="DejaVuSans-3d" d="M 678 2906 
L 4684 2906 
L 4684 2381 
L 678 2381 
L 678 2906 
z
M 678 1631 
L 4684 1631 
L 4684 1100 
L 678 1100 
L 678 1631 
z
" transform="scale(0.015625)"/>
     </defs>
     <use xlink:href="#DejaVuSans-78"/>
     <use xlink:href="#DejaVuSans-20" transform="translate(59.179688 0)"/>
     <use xlink:href="#DejaVuSans-3d" transform="translate(90.966797 0)"/>
     <use xlink:href="#DejaVuSans-20" transform="translate(174.755859 0)"/>
     <use xlink:href="#DejaVuSans-31" transform="translate(206.542969 0)"/>
     <use xlink:href="#DejaVuSans-34" transform="translate(270.166016 0)"/>
     <use xlink:href="#DejaVuSans-31" transform="translate(333.789062 0)"/>
     <use xlink:href="#DejaVuSans-38" transform="translate(397.412109 0)"/>
     <use xlink:href="#DejaVuSans-2e" transform="translate(461.035156 0)"/>
     <use xlink:href="#DejaVuSans-36" transform="translate(492.822266 0)"/>
     <use xlink:href="#DejaVuSans-33" transform="translate(556.445312 0)"/>
    </g>
   </g>
   <g id="text_35">
    <!-- x = 1482.04 -->
    <g style="fill: #008000" transform="translate(803.882826 196.295575) scale(0.1 -0.1)">
     <use xlink:href="#DejaVuSans-78"/>
     <use xlink:href="#DejaVuSans-20" transform="translate(59.179688 0)"/>
     <use xlink:href="#DejaVuSans-3d" transform="translate(90.966797 0)"/>
     <use xlink:href="#DejaVuSans-20" transform="translate(174.755859 0)"/>
     <use xlink:href="#DejaVuSans-31" transform="translate(206.542969 0)"/>
     <use xlink:href="#DejaVuSans-34" transform="translate(270.166016 0)"/>
     <use xlink:href="#DejaVuSans-38" transform="translate(333.789062 0)"/>
     <use xlink:href="#DejaVuSans-32" transform="translate(397.412109 0)"/>
     <use xlink:href="#DejaVuSans-2e" transform="translate(461.035156 0)"/>
     <use xlink:href="#DejaVuSans-30" transform="translate(492.822266 0)"/>
     <use xlink:href="#DejaVuSans-34" transform="translate(556.445312 0)"/>
    </g>
   </g>
   <g id="legend_2">
    <g id="patch_13">
     <path d="M 814.8 82.078125 
L 965 82.078125 
Q 967 82.078125 967 80.078125 
L 967 50.2 
Q 967 48.2 965 48.2 
L 814.8 48.2 
Q 812.8 48.2 812.8 50.2 
L 812.8 80.078125 
Q 812.8 82.078125 814.8 82.078125 
z
" style="fill: #ffffff; opacity: 0.8; stroke: #cccccc; stroke-linejoin: miter"/>
    </g>
    <g id="line2d_64">
     <path d="M 816.8 57.8 
L 826.8 57.8 
L 836.8 57.8 
" style="fill: none; stroke-dasharray: 5.55,2.4; stroke-dashoffset: 0; stroke: #ff0000; stroke-width: 1.5"/>
    </g>
    <g id="text_36">
     <!-- $^{40}$K-peak (1450.33 keV) -->
     <g transform="translate(844.8 61.3) scale(0.1 -0.1)">
      <use xlink:href="#DejaVuSans-34" transform="translate(0.957031 39.046875) scale(0.7)"/>
      <use xlink:href="#DejaVuSans-30" transform="translate(45.493164 39.046875) scale(0.7)"/>
      <use xlink:href="#DejaVuSans-4b" transform="translate(92.763672 0.765625)"/>
      <use xlink:href="#DejaVuSans-2d" transform="translate(158.339844 0.765625)"/>
      <use xlink:href="#DejaVuSans-70" transform="translate(194.423828 0.765625)"/>
      <use xlink:href="#DejaVuSans-65" transform="translate(257.900391 0.765625)"/>
      <use xlink:href="#DejaVuSans-61" transform="translate(319.423828 0.765625)"/>
      <use xlink:href="#DejaVuSans-6b" transform="translate(380.703125 0.765625)"/>
      <use xlink:href="#DejaVuSans-20" transform="translate(438.613281 0.765625)"/>
      <use xlink:href="#DejaVuSans-28" transform="translate(470.400391 0.765625)"/>
      <use xlink:href="#DejaVuSans-31" transform="translate(509.414062 0.765625)"/>
      <use xlink:href="#DejaVuSans-34" transform="translate(573.037109 0.765625)"/>
      <use xlink:href="#DejaVuSans-35" transform="translate(636.660156 0.765625)"/>
      <use xlink:href="#DejaVuSans-30" transform="translate(700.283203 0.765625)"/>
      <use xlink:href="#DejaVuSans-2e" transform="translate(763.90625 0.765625)"/>
      <use xlink:href="#DejaVuSans-33" transform="translate(795.693359 0.765625)"/>
      <use xlink:href="#DejaVuSans-33" transform="translate(859.316406 0.765625)"/>
      <use xlink:href="#DejaVuSans-20" transform="translate(922.939453 0.765625)"/>
      <use xlink:href="#DejaVuSans-6b" transform="translate(954.726562 0.765625)"/>
      <use xlink:href="#DejaVuSans-65" transform="translate(1012.636719 0.765625)"/>
      <use xlink:href="#DejaVuSans-56" transform="translate(1074.160156 0.765625)"/>
      <use xlink:href="#DejaVuSans-29" transform="translate(1142.568359 0.765625)"/>
     </g>
    </g>
    <g id="line2d_65">
     <path d="M 816.8 72.498438 
L 826.8 72.498438 
L 836.8 72.498438 
" style="fill: none; stroke: #008000; stroke-width: 1.5; stroke-linecap: square"/>
    </g>
    <g id="text_37">
     <!-- Uncertainty -->
     <g transform="translate(844.8 75.998438) scale(0.1 -0.1)">
      <defs>
       <path id="DejaVuSans-55" d="M 556 4666 
L 1191 4666 
L 1191 1831 
Q 1191 1081 1462 751 
Q 1734 422 2344 422 
Q 2950 422 3222 751 
Q 3494 1081 3494 1831 
L 3494 4666 
L 4128 4666 
L 4128 1753 
Q 4128 841 3676 375 
Q 3225 -91 2344 -91 
Q 1459 -91 1007 375 
Q 556 841 556 1753 
L 556 4666 
z
" transform="scale(0.015625)"/>
       <path id="DejaVuSans-63" d="M 3122 3366 
L 3122 2828 
Q 2878 2963 2633 3030 
Q 2388 3097 2138 3097 
Q 1578 3097 1268 2742 
Q 959 2388 959 1747 
Q 959 1106 1268 751 
Q 1578 397 2138 397 
Q 2388 397 2633 464 
Q 2878 531 3122 666 
L 3122 134 
Q 2881 22 2623 -34 
Q 2366 -91 2075 -91 
Q 1284 -91 818 406 
Q 353 903 353 1747 
Q 353 2603 823 3093 
Q 1294 3584 2113 3584 
Q 2378 3584 2631 3529 
Q 2884 3475 3122 3366 
z
" transform="scale(0.015625)"/>
       <path id="DejaVuSans-69" d="M 603 3500 
L 1178 3500 
L 1178 0 
L 603 0 
L 603 3500 
z
M 603 4863 
L 1178 4863 
L 1178 4134 
L 603 4134 
L 603 4863 
z
" transform="scale(0.015625)"/>
      </defs>
      <use xlink:href="#DejaVuSans-55"/>
      <use xlink:href="#DejaVuSans-6e" transform="translate(73.193359 0)"/>
      <use xlink:href="#DejaVuSans-63" transform="translate(136.572266 0)"/>
      <use xlink:href="#DejaVuSans-65" transform="translate(191.552734 0)"/>
      <use xlink:href="#DejaVuSans-72" transform="translate(253.076172 0)"/>
      <use xlink:href="#DejaVuSans-74" transform="translate(294.189453 0)"/>
      <use xlink:href="#DejaVuSans-61" transform="translate(333.398438 0)"/>
      <use xlink:href="#DejaVuSans-69" transform="translate(394.677734 0)"/>
      <use xlink:href="#DejaVuSans-6e" transform="translate(422.460938 0)"/>
      <use xlink:href="#DejaVuSans-74" transform="translate(485.839844 0)"/>
      <use xlink:href="#DejaVuSans-79" transform="translate(525.048828 0)"/>
     </g>
    </g>
   </g>
  </g>
 </g>
 <defs>
  <clipPath id="p49d3d46815">
   <rect x="135" y="43.2" width="380.454545" height="277.2"/>
  </clipPath>
  <clipPath id="p612fc248f4">
   <rect x="591.545455" y="43.2" width="380.454545" height="277.2"/>
  </clipPath>
 </defs>
</svg>
