<?xml version="1.0" encoding="utf-8" standalone="no"?>
<!DOCTYPE svg PUBLIC "-//W3C//DTD SVG 1.1//EN"
  "http://www.w3.org/Graphics/SVG/1.1/DTD/svg11.dtd">
<svg xmlns:xlink="http://www.w3.org/1999/xlink" width="1080pt" height="360pt" viewBox="0 0 1080 360" xmlns="http://www.w3.org/2000/svg" version="1.1">
 <metadata>
  <rdf:RDF xmlns:dc="http://purl.org/dc/elements/1.1/" xmlns:cc="http://creativecommons.org/ns#" xmlns:rdf="http://www.w3.org/1999/02/22-rdf-syntax-ns#">
   <cc:Work>
    <dc:type rdf:resource="http://purl.org/dc/dcmitype/StillImage"/>
    <dc:date>2025-04-08T11:52:30.969166</dc:date>
    <dc:format>image/svg+xml</dc:format>
    <dc:creator>
     <cc:Agent>
      <dc:title>Matplotlib v3.10.0, https://matplotlib.org/</dc:title>
     </cc:Agent>
    </dc:creator>
   </cc:Work>
  </rdf:RDF>
 </metadata>
 <defs>
  <style type="text/css">*{stroke-linejoin: round; stroke-linecap: butt}</style>
 </defs>
 <g id="figure_1">
  <g id="patch_1">
   <path d="M 0 360 
L 1080 360 
L 1080 0 
L 0 0 
z
" style="fill: #ffffff"/>
  </g>
  <g id="axes_1">
   <g id="patch_2">
    <path d="M 135 320.4 
L 515.454545 320.4 
L 515.454545 43.2 
L 135 43.2 
z
" style="fill: #ffffff"/>
   </g>
   <g id="matplotlib.axis_1">
    <g id="xtick_1">
     <g id="line2d_1">
      <path d="M 160.926857 320.4 
L 160.926857 43.2 
" clip-path="url(#p963293cdbb)" style="fill: none; stroke: #b0b0b0; stroke-width: 0.8; stroke-linecap: square"/>
     </g>
     <g id="line2d_2">
      <defs>
       <path id="m771f6745f5" d="M 0 0 
L 0 3.5 
" style="stroke: #000000; stroke-width: 0.8"/>
      </defs>
      <g>
       <use xlink:href="#m771f6745f5" x="160.926857" y="320.4" style="stroke: #000000; stroke-width: 0.8"/>
      </g>
     </g>
     <g id="text_1">
      <!-- 0 -->
      <g transform="translate(157.745607 334.998438) scale(0.1 -0.1)">
       <defs>
        <path id="DejaVuSans-30" d="M 2034 4250 
Q 1547 4250 1301 3770 
Q 1056 3291 1056 2328 
Q 1056 1369 1301 889 
Q 1547 409 2034 409 
Q 2525 409 2770 889 
Q 3016 1369 3016 2328 
Q 3016 3291 2770 3770 
Q 2525 4250 2034 4250 
z
M 2034 4750 
Q 2819 4750 3233 4129 
Q 3647 3509 3647 2328 
Q 3647 1150 3233 529 
Q 2819 -91 2034 -91 
Q 1250 -91 836 529 
Q 422 1150 422 2328 
Q 422 3509 836 4129 
Q 1250 4750 2034 4750 
z
" transform="scale(0.015625)"/>
       </defs>
       <use xlink:href="#DejaVuSans-30"/>
      </g>
     </g>
    </g>
    <g id="xtick_2">
     <g id="line2d_3">
      <path d="M 206.108912 320.4 
L 206.108912 43.2 
" clip-path="url(#p963293cdbb)" style="fill: none; stroke: #b0b0b0; stroke-width: 0.8; stroke-linecap: square"/>
     </g>
     <g id="line2d_4">
      <g>
       <use xlink:href="#m771f6745f5" x="206.108912" y="320.4" style="stroke: #000000; stroke-width: 0.8"/>
      </g>
     </g>
     <g id="text_2">
      <!-- 200 -->
      <g transform="translate(196.565162 334.998438) scale(0.1 -0.1)">
       <defs>
        <path id="DejaVuSans-32" d="M 1228 531 
L 3431 531 
L 3431 0 
L 469 0 
L 469 531 
Q 828 903 1448 1529 
Q 2069 2156 2228 2338 
Q 2531 2678 2651 2914 
Q 2772 3150 2772 3378 
Q 2772 3750 2511 3984 
Q 2250 4219 1831 4219 
Q 1534 4219 1204 4116 
Q 875 4013 500 3803 
L 500 4441 
Q 881 4594 1212 4672 
Q 1544 4750 1819 4750 
Q 2544 4750 2975 4387 
Q 3406 4025 3406 3419 
Q 3406 3131 3298 2873 
Q 3191 2616 2906 2266 
Q 2828 2175 2409 1742 
Q 1991 1309 1228 531 
z
" transform="scale(0.015625)"/>
       </defs>
       <use xlink:href="#DejaVuSans-32"/>
       <use xlink:href="#DejaVuSans-30" transform="translate(63.623047 0)"/>
       <use xlink:href="#DejaVuSans-30" transform="translate(127.246094 0)"/>
      </g>
     </g>
    </g>
    <g id="xtick_3">
     <g id="line2d_5">
      <path d="M 251.290966 320.4 
L 251.290966 43.2 
" clip-path="url(#p963293cdbb)" style="fill: none; stroke: #b0b0b0; stroke-width: 0.8; stroke-linecap: square"/>
     </g>
     <g id="line2d_6">
      <g>
       <use xlink:href="#m771f6745f5" x="251.290966" y="320.4" style="stroke: #000000; stroke-width: 0.8"/>
      </g>
     </g>
     <g id="text_3">
      <!-- 400 -->
      <g transform="translate(241.747216 334.998438) scale(0.1 -0.1)">
       <defs>
        <path id="DejaVuSans-34" d="M 2419 4116 
L 825 1625 
L 2419 1625 
L 2419 4116 
z
M 2253 4666 
L 3047 4666 
L 3047 1625 
L 3713 1625 
L 3713 1100 
L 3047 1100 
L 3047 0 
L 2419 0 
L 2419 1100 
L 313 1100 
L 313 1709 
L 2253 4666 
z
" transform="scale(0.015625)"/>
       </defs>
       <use xlink:href="#DejaVuSans-34"/>
       <use xlink:href="#DejaVuSans-30" transform="translate(63.623047 0)"/>
       <use xlink:href="#DejaVuSans-30" transform="translate(127.246094 0)"/>
      </g>
     </g>
    </g>
    <g id="xtick_4">
     <g id="line2d_7">
      <path d="M 296.473021 320.4 
L 296.473021 43.2 
" clip-path="url(#p963293cdbb)" style="fill: none; stroke: #b0b0b0; stroke-width: 0.8; stroke-linecap: square"/>
     </g>
     <g id="line2d_8">
      <g>
       <use xlink:href="#m771f6745f5" x="296.473021" y="320.4" style="stroke: #000000; stroke-width: 0.8"/>
      </g>
     </g>
     <g id="text_4">
      <!-- 600 -->
      <g transform="translate(286.929271 334.998438) scale(0.1 -0.1)">
       <defs>
        <path id="DejaVuSans-36" d="M 2113 2584 
Q 1688 2584 1439 2293 
Q 1191 2003 1191 1497 
Q 1191 994 1439 701 
Q 1688 409 2113 409 
Q 2538 409 2786 701 
Q 3034 994 3034 1497 
Q 3034 2003 2786 2293 
Q 2538 2584 2113 2584 
z
M 3366 4563 
L 3366 3988 
Q 3128 4100 2886 4159 
Q 2644 4219 2406 4219 
Q 1781 4219 1451 3797 
Q 1122 3375 1075 2522 
Q 1259 2794 1537 2939 
Q 1816 3084 2150 3084 
Q 2853 3084 3261 2657 
Q 3669 2231 3669 1497 
Q 3669 778 3244 343 
Q 2819 -91 2113 -91 
Q 1303 -91 875 529 
Q 447 1150 447 2328 
Q 447 3434 972 4092 
Q 1497 4750 2381 4750 
Q 2619 4750 2861 4703 
Q 3103 4656 3366 4563 
z
" transform="scale(0.015625)"/>
       </defs>
       <use xlink:href="#DejaVuSans-36"/>
       <use xlink:href="#DejaVuSans-30" transform="translate(63.623047 0)"/>
       <use xlink:href="#DejaVuSans-30" transform="translate(127.246094 0)"/>
      </g>
     </g>
    </g>
    <g id="xtick_5">
     <g id="line2d_9">
      <path d="M 341.655075 320.4 
L 341.655075 43.2 
" clip-path="url(#p963293cdbb)" style="fill: none; stroke: #b0b0b0; stroke-width: 0.8; stroke-linecap: square"/>
     </g>
     <g id="line2d_10">
      <g>
       <use xlink:href="#m771f6745f5" x="341.655075" y="320.4" style="stroke: #000000; stroke-width: 0.8"/>
      </g>
     </g>
     <g id="text_5">
      <!-- 800 -->
      <g transform="translate(332.111325 334.998438) scale(0.1 -0.1)">
       <defs>
        <path id="DejaVuSans-38" d="M 2034 2216 
Q 1584 2216 1326 1975 
Q 1069 1734 1069 1313 
Q 1069 891 1326 650 
Q 1584 409 2034 409 
Q 2484 409 2743 651 
Q 3003 894 3003 1313 
Q 3003 1734 2745 1975 
Q 2488 2216 2034 2216 
z
M 1403 2484 
Q 997 2584 770 2862 
Q 544 3141 544 3541 
Q 544 4100 942 4425 
Q 1341 4750 2034 4750 
Q 2731 4750 3128 4425 
Q 3525 4100 3525 3541 
Q 3525 3141 3298 2862 
Q 3072 2584 2669 2484 
Q 3125 2378 3379 2068 
Q 3634 1759 3634 1313 
Q 3634 634 3220 271 
Q 2806 -91 2034 -91 
Q 1263 -91 848 271 
Q 434 634 434 1313 
Q 434 1759 690 2068 
Q 947 2378 1403 2484 
z
M 1172 3481 
Q 1172 3119 1398 2916 
Q 1625 2713 2034 2713 
Q 2441 2713 2670 2916 
Q 2900 3119 2900 3481 
Q 2900 3844 2670 4047 
Q 2441 4250 2034 4250 
Q 1625 4250 1398 4047 
Q 1172 3844 1172 3481 
z
" transform="scale(0.015625)"/>
       </defs>
       <use xlink:href="#DejaVuSans-38"/>
       <use xlink:href="#DejaVuSans-30" transform="translate(63.623047 0)"/>
       <use xlink:href="#DejaVuSans-30" transform="translate(127.246094 0)"/>
      </g>
     </g>
    </g>
    <g id="xtick_6">
     <g id="line2d_11">
      <path d="M 386.83713 320.4 
L 386.83713 43.2 
" clip-path="url(#p963293cdbb)" style="fill: none; stroke: #b0b0b0; stroke-width: 0.8; stroke-linecap: square"/>
     </g>
     <g id="line2d_12">
      <g>
       <use xlink:href="#m771f6745f5" x="386.83713" y="320.4" style="stroke: #000000; stroke-width: 0.8"/>
      </g>
     </g>
     <g id="text_6">
      <!-- 1000 -->
      <g transform="translate(374.11213 334.998438) scale(0.1 -0.1)">
       <defs>
        <path id="DejaVuSans-31" d="M 794 531 
L 1825 531 
L 1825 4091 
L 703 3866 
L 703 4441 
L 1819 4666 
L 2450 4666 
L 2450 531 
L 3481 531 
L 3481 0 
L 794 0 
L 794 531 
z
" transform="scale(0.015625)"/>
       </defs>
       <use xlink:href="#DejaVuSans-31"/>
       <use xlink:href="#DejaVuSans-30" transform="translate(63.623047 0)"/>
       <use xlink:href="#DejaVuSans-30" transform="translate(127.246094 0)"/>
       <use xlink:href="#DejaVuSans-30" transform="translate(190.869141 0)"/>
      </g>
     </g>
    </g>
    <g id="xtick_7">
     <g id="line2d_13">
      <path d="M 432.019184 320.4 
L 432.019184 43.2 
" clip-path="url(#p963293cdbb)" style="fill: none; stroke: #b0b0b0; stroke-width: 0.8; stroke-linecap: square"/>
     </g>
     <g id="line2d_14">
      <g>
       <use xlink:href="#m771f6745f5" x="432.019184" y="320.4" style="stroke: #000000; stroke-width: 0.8"/>
      </g>
     </g>
     <g id="text_7">
      <!-- 1200 -->
      <g transform="translate(419.294184 334.998438) scale(0.1 -0.1)">
       <use xlink:href="#DejaVuSans-31"/>
       <use xlink:href="#DejaVuSans-32" transform="translate(63.623047 0)"/>
       <use xlink:href="#DejaVuSans-30" transform="translate(127.246094 0)"/>
       <use xlink:href="#DejaVuSans-30" transform="translate(190.869141 0)"/>
      </g>
     </g>
    </g>
    <g id="xtick_8">
     <g id="line2d_15">
      <path d="M 477.201239 320.4 
L 477.201239 43.2 
" clip-path="url(#p963293cdbb)" style="fill: none; stroke: #b0b0b0; stroke-width: 0.8; stroke-linecap: square"/>
     </g>
     <g id="line2d_16">
      <g>
       <use xlink:href="#m771f6745f5" x="477.201239" y="320.4" style="stroke: #000000; stroke-width: 0.8"/>
      </g>
     </g>
     <g id="text_8">
      <!-- 1400 -->
      <g transform="translate(464.476239 334.998438) scale(0.1 -0.1)">
       <use xlink:href="#DejaVuSans-31"/>
       <use xlink:href="#DejaVuSans-34" transform="translate(63.623047 0)"/>
       <use xlink:href="#DejaVuSans-30" transform="translate(127.246094 0)"/>
       <use xlink:href="#DejaVuSans-30" transform="translate(190.869141 0)"/>
      </g>
     </g>
    </g>
    <g id="text_9">
     <!-- Energy [keV] -->
     <g transform="translate(293.01946 348.676562) scale(0.1 -0.1)">
      <defs>
       <path id="DejaVuSans-45" d="M 628 4666 
L 3578 4666 
L 3578 4134 
L 1259 4134 
L 1259 2753 
L 3481 2753 
L 3481 2222 
L 1259 2222 
L 1259 531 
L 3634 531 
L 3634 0 
L 628 0 
L 628 4666 
z
" transform="scale(0.015625)"/>
       <path id="DejaVuSans-6e" d="M 3513 2113 
L 3513 0 
L 2938 0 
L 2938 2094 
Q 2938 2591 2744 2837 
Q 2550 3084 2163 3084 
Q 1697 3084 1428 2787 
Q 1159 2491 1159 1978 
L 1159 0 
L 581 0 
L 581 3500 
L 1159 3500 
L 1159 2956 
Q 1366 3272 1645 3428 
Q 1925 3584 2291 3584 
Q 2894 3584 3203 3211 
Q 3513 2838 3513 2113 
z
" transform="scale(0.015625)"/>
       <path id="DejaVuSans-65" d="M 3597 1894 
L 3597 1613 
L 953 1613 
Q 991 1019 1311 708 
Q 1631 397 2203 397 
Q 2534 397 2845 478 
Q 3156 559 3463 722 
L 3463 178 
Q 3153 47 2828 -22 
Q 2503 -91 2169 -91 
Q 1331 -91 842 396 
Q 353 884 353 1716 
Q 353 2575 817 3079 
Q 1281 3584 2069 3584 
Q 2775 3584 3186 3129 
Q 3597 2675 3597 1894 
z
M 3022 2063 
Q 3016 2534 2758 2815 
Q 2500 3097 2075 3097 
Q 1594 3097 1305 2825 
Q 1016 2553 972 2059 
L 3022 2063 
z
" transform="scale(0.015625)"/>
       <path id="DejaVuSans-72" d="M 2631 2963 
Q 2534 3019 2420 3045 
Q 2306 3072 2169 3072 
Q 1681 3072 1420 2755 
Q 1159 2438 1159 1844 
L 1159 0 
L 581 0 
L 581 3500 
L 1159 3500 
L 1159 2956 
Q 1341 3275 1631 3429 
Q 1922 3584 2338 3584 
Q 2397 3584 2469 3576 
Q 2541 3569 2628 3553 
L 2631 2963 
z
" transform="scale(0.015625)"/>
       <path id="DejaVuSans-67" d="M 2906 1791 
Q 2906 2416 2648 2759 
Q 2391 3103 1925 3103 
Q 1463 3103 1205 2759 
Q 947 2416 947 1791 
Q 947 1169 1205 825 
Q 1463 481 1925 481 
Q 2391 481 2648 825 
Q 2906 1169 2906 1791 
z
M 3481 434 
Q 3481 -459 3084 -895 
Q 2688 -1331 1869 -1331 
Q 1566 -1331 1297 -1286 
Q 1028 -1241 775 -1147 
L 775 -588 
Q 1028 -725 1275 -790 
Q 1522 -856 1778 -856 
Q 2344 -856 2625 -561 
Q 2906 -266 2906 331 
L 2906 616 
Q 2728 306 2450 153 
Q 2172 0 1784 0 
Q 1141 0 747 490 
Q 353 981 353 1791 
Q 353 2603 747 3093 
Q 1141 3584 1784 3584 
Q 2172 3584 2450 3431 
Q 2728 3278 2906 2969 
L 2906 3500 
L 3481 3500 
L 3481 434 
z
" transform="scale(0.015625)"/>
       <path id="DejaVuSans-79" d="M 2059 -325 
Q 1816 -950 1584 -1140 
Q 1353 -1331 966 -1331 
L 506 -1331 
L 506 -850 
L 844 -850 
Q 1081 -850 1212 -737 
Q 1344 -625 1503 -206 
L 1606 56 
L 191 3500 
L 800 3500 
L 1894 763 
L 2988 3500 
L 3597 3500 
L 2059 -325 
z
" transform="scale(0.015625)"/>
       <path id="DejaVuSans-20" transform="scale(0.015625)"/>
       <path id="DejaVuSans-5b" d="M 550 4863 
L 1875 4863 
L 1875 4416 
L 1125 4416 
L 1125 -397 
L 1875 -397 
L 1875 -844 
L 550 -844 
L 550 4863 
z
" transform="scale(0.015625)"/>
       <path id="DejaVuSans-6b" d="M 581 4863 
L 1159 4863 
L 1159 1991 
L 2875 3500 
L 3609 3500 
L 1753 1863 
L 3688 0 
L 2938 0 
L 1159 1709 
L 1159 0 
L 581 0 
L 581 4863 
z
" transform="scale(0.015625)"/>
       <path id="DejaVuSans-56" d="M 1831 0 
L 50 4666 
L 709 4666 
L 2188 738 
L 3669 4666 
L 4325 4666 
L 2547 0 
L 1831 0 
z
" transform="scale(0.015625)"/>
       <path id="DejaVuSans-5d" d="M 1947 4863 
L 1947 -844 
L 622 -844 
L 622 -397 
L 1369 -397 
L 1369 4416 
L 622 4416 
L 622 4863 
L 1947 4863 
z
" transform="scale(0.015625)"/>
      </defs>
      <use xlink:href="#DejaVuSans-45"/>
      <use xlink:href="#DejaVuSans-6e" transform="translate(63.183594 0)"/>
      <use xlink:href="#DejaVuSans-65" transform="translate(126.5625 0)"/>
      <use xlink:href="#DejaVuSans-72" transform="translate(188.085938 0)"/>
      <use xlink:href="#DejaVuSans-67" transform="translate(227.449219 0)"/>
      <use xlink:href="#DejaVuSans-79" transform="translate(290.925781 0)"/>
      <use xlink:href="#DejaVuSans-20" transform="translate(350.105469 0)"/>
      <use xlink:href="#DejaVuSans-5b" transform="translate(381.892578 0)"/>
      <use xlink:href="#DejaVuSans-6b" transform="translate(420.90625 0)"/>
      <use xlink:href="#DejaVuSans-65" transform="translate(475.191406 0)"/>
      <use xlink:href="#DejaVuSans-56" transform="translate(536.714844 0)"/>
      <use xlink:href="#DejaVuSans-5d" transform="translate(605.123047 0)"/>
     </g>
    </g>
   </g>
   <g id="matplotlib.axis_2">
    <g id="ytick_1">
     <g id="line2d_17">
      <path d="M 135 307.918393 
L 515.454545 307.918393 
" clip-path="url(#p963293cdbb)" style="fill: none; stroke: #b0b0b0; stroke-width: 0.8; stroke-linecap: square"/>
     </g>
     <g id="line2d_18">
      <defs>
       <path id="m5f53dde7ab" d="M 0 0 
L -3.5 0 
" style="stroke: #000000; stroke-width: 0.8"/>
      </defs>
      <g>
       <use xlink:href="#m5f53dde7ab" x="135" y="307.918393" style="stroke: #000000; stroke-width: 0.8"/>
      </g>
     </g>
     <g id="text_10">
      <!-- 0 -->
      <g transform="translate(121.6375 311.717612) scale(0.1 -0.1)">
       <use xlink:href="#DejaVuSans-30"/>
      </g>
     </g>
    </g>
    <g id="ytick_2">
     <g id="line2d_19">
      <path d="M 135 248.721776 
L 515.454545 248.721776 
" clip-path="url(#p963293cdbb)" style="fill: none; stroke: #b0b0b0; stroke-width: 0.8; stroke-linecap: square"/>
     </g>
     <g id="line2d_20">
      <g>
       <use xlink:href="#m5f53dde7ab" x="135" y="248.721776" style="stroke: #000000; stroke-width: 0.8"/>
      </g>
     </g>
     <g id="text_11">
      <!-- 2000 -->
      <g transform="translate(102.55 252.520995) scale(0.1 -0.1)">
       <use xlink:href="#DejaVuSans-32"/>
       <use xlink:href="#DejaVuSans-30" transform="translate(63.623047 0)"/>
       <use xlink:href="#DejaVuSans-30" transform="translate(127.246094 0)"/>
       <use xlink:href="#DejaVuSans-30" transform="translate(190.869141 0)"/>
      </g>
     </g>
    </g>
    <g id="ytick_3">
     <g id="line2d_21">
      <path d="M 135 189.525159 
L 515.454545 189.525159 
" clip-path="url(#p963293cdbb)" style="fill: none; stroke: #b0b0b0; stroke-width: 0.8; stroke-linecap: square"/>
     </g>
     <g id="line2d_22">
      <g>
       <use xlink:href="#m5f53dde7ab" x="135" y="189.525159" style="stroke: #000000; stroke-width: 0.8"/>
      </g>
     </g>
     <g id="text_12">
      <!-- 4000 -->
      <g transform="translate(102.55 193.324377) scale(0.1 -0.1)">
       <use xlink:href="#DejaVuSans-34"/>
       <use xlink:href="#DejaVuSans-30" transform="translate(63.623047 0)"/>
       <use xlink:href="#DejaVuSans-30" transform="translate(127.246094 0)"/>
       <use xlink:href="#DejaVuSans-30" transform="translate(190.869141 0)"/>
      </g>
     </g>
    </g>
    <g id="ytick_4">
     <g id="line2d_23">
      <path d="M 135 130.328541 
L 515.454545 130.328541 
" clip-path="url(#p963293cdbb)" style="fill: none; stroke: #b0b0b0; stroke-width: 0.8; stroke-linecap: square"/>
     </g>
     <g id="line2d_24">
      <g>
       <use xlink:href="#m5f53dde7ab" x="135" y="130.328541" style="stroke: #000000; stroke-width: 0.8"/>
      </g>
     </g>
     <g id="text_13">
      <!-- 6000 -->
      <g transform="translate(102.55 134.12776) scale(0.1 -0.1)">
       <use xlink:href="#DejaVuSans-36"/>
       <use xlink:href="#DejaVuSans-30" transform="translate(63.623047 0)"/>
       <use xlink:href="#DejaVuSans-30" transform="translate(127.246094 0)"/>
       <use xlink:href="#DejaVuSans-30" transform="translate(190.869141 0)"/>
      </g>
     </g>
    </g>
    <g id="ytick_5">
     <g id="line2d_25">
      <path d="M 135 71.131924 
L 515.454545 71.131924 
" clip-path="url(#p963293cdbb)" style="fill: none; stroke: #b0b0b0; stroke-width: 0.8; stroke-linecap: square"/>
     </g>
     <g id="line2d_26">
      <g>
       <use xlink:href="#m5f53dde7ab" x="135" y="71.131924" style="stroke: #000000; stroke-width: 0.8"/>
      </g>
     </g>
     <g id="text_14">
      <!-- 8000 -->
      <g transform="translate(102.55 74.931143) scale(0.1 -0.1)">
       <use xlink:href="#DejaVuSans-38"/>
       <use xlink:href="#DejaVuSans-30" transform="translate(63.623047 0)"/>
       <use xlink:href="#DejaVuSans-30" transform="translate(127.246094 0)"/>
       <use xlink:href="#DejaVuSans-30" transform="translate(190.869141 0)"/>
      </g>
     </g>
    </g>
    <g id="text_15">
     <!-- Events -->
     <g transform="translate(96.470312 198.728906) rotate(-90) scale(0.1 -0.1)">
      <defs>
       <path id="DejaVuSans-76" d="M 191 3500 
L 800 3500 
L 1894 563 
L 2988 3500 
L 3597 3500 
L 2284 0 
L 1503 0 
L 191 3500 
z
" transform="scale(0.015625)"/>
       <path id="DejaVuSans-74" d="M 1172 4494 
L 1172 3500 
L 2356 3500 
L 2356 3053 
L 1172 3053 
L 1172 1153 
Q 1172 725 1289 603 
Q 1406 481 1766 481 
L 2356 481 
L 2356 0 
L 1766 0 
Q 1100 0 847 248 
Q 594 497 594 1153 
L 594 3053 
L 172 3053 
L 172 3500 
L 594 3500 
L 594 4494 
L 1172 4494 
z
" transform="scale(0.015625)"/>
       <path id="DejaVuSans-73" d="M 2834 3397 
L 2834 2853 
Q 2591 2978 2328 3040 
Q 2066 3103 1784 3103 
Q 1356 3103 1142 2972 
Q 928 2841 928 2578 
Q 928 2378 1081 2264 
Q 1234 2150 1697 2047 
L 1894 2003 
Q 2506 1872 2764 1633 
Q 3022 1394 3022 966 
Q 3022 478 2636 193 
Q 2250 -91 1575 -91 
Q 1294 -91 989 -36 
Q 684 19 347 128 
L 347 722 
Q 666 556 975 473 
Q 1284 391 1588 391 
Q 1994 391 2212 530 
Q 2431 669 2431 922 
Q 2431 1156 2273 1281 
Q 2116 1406 1581 1522 
L 1381 1569 
Q 847 1681 609 1914 
Q 372 2147 372 2553 
Q 372 3047 722 3315 
Q 1072 3584 1716 3584 
Q 2034 3584 2315 3537 
Q 2597 3491 2834 3397 
z
" transform="scale(0.015625)"/>
      </defs>
      <use xlink:href="#DejaVuSans-45"/>
      <use xlink:href="#DejaVuSans-76" transform="translate(63.183594 0)"/>
      <use xlink:href="#DejaVuSans-65" transform="translate(122.363281 0)"/>
      <use xlink:href="#DejaVuSans-6e" transform="translate(183.886719 0)"/>
      <use xlink:href="#DejaVuSans-74" transform="translate(247.265625 0)"/>
      <use xlink:href="#DejaVuSans-73" transform="translate(286.474609 0)"/>
     </g>
    </g>
   </g>
   <g id="line2d_27">
    <path d="M 152.293388 306.734461 
L 152.954703 307.089641 
L 153.616019 307.178436 
L 154.277334 307.681607 
L 154.938649 307.681607 
L 155.599964 302.324313 
L 156.922594 272.222833 
L 157.583909 264.201691 
L 158.245224 260.797886 
L 158.906539 265.918393 
L 159.567854 273.406765 
L 160.229169 287.998732 
L 160.890484 295.161522 
L 161.551799 288.768288 
L 162.213114 279.770402 
L 162.874429 273.465962 
L 163.535744 269.085412 
L 164.197059 266.303171 
L 164.858374 256.417336 
L 165.519689 251.829598 
L 166.181004 240.552643 
L 166.842319 233.153066 
L 167.503634 216.459619 
L 168.16495 195.030444 
L 168.826265 178.514588 
L 169.48758 171.322199 
L 170.148895 179.580127 
L 170.81021 190.501903 
L 171.471525 190.738689 
L 172.13284 187.127696 
L 172.794155 182.480761 
L 173.45547 175.85074 
L 174.116785 161.791543 
L 174.7781 144.920507 
L 175.439415 122.159408 
L 176.10073 85.960677 
L 176.762045 56.806342 
L 177.42336 55.8 
L 178.084675 76.193235 
L 179.407305 158.00296 
L 180.06862 185.026216 
L 180.729935 200.772516 
L 182.052565 208.734461 
L 183.375196 239.635095 
L 184.036511 247.656237 
L 184.697826 258.045243 
L 185.359141 258.28203 
L 186.020456 260.561099 
L 186.681771 259.67315 
L 187.343086 261.034672 
L 188.004401 260.916279 
L 188.665716 261.77463 
L 189.327031 259.31797 
L 189.988346 259.465962 
L 190.649661 261.95222 
L 191.310976 260.442706 
L 191.972291 260.945877 
L 192.633606 262.336998 
L 193.294921 260.857082 
L 193.956236 265.533615 
L 194.617551 262.721776 
L 195.278866 261.59704 
L 195.940181 262.189006 
L 196.601496 258.696406 
L 197.262811 256.210148 
L 197.924127 251.62241 
L 198.585442 248.484989 
L 199.246757 247.863425 
L 199.908072 247.478647 
L 200.569387 249.728118 
L 201.230702 255.558985 
L 201.892017 260.265116 
L 203.214647 267.605497 
L 203.875962 268.552643 
L 204.537277 274.20592 
L 205.198592 274.02833 
L 205.859907 275.567442 
L 206.521222 277.491332 
L 207.182537 278.024101 
L 207.843852 278.823256 
L 208.505167 280.066385 
L 209.166482 280.184778 
L 209.827797 281.694292 
L 210.489112 281.191121 
L 211.150427 283.026216 
L 211.811742 282.848626 
L 212.473058 284.239746 
L 213.134373 283.766173 
L 213.795688 283.529387 
L 214.457003 285.867653 
L 215.118318 284.890909 
L 216.440948 286.873996 
L 217.102263 286.045243 
L 217.763578 287.702748 
L 218.424893 287.821142 
L 219.086208 288.20592 
L 219.747523 287.761945 
L 220.408838 288.709091 
L 221.070153 288.561099 
L 221.731468 289.715433 
L 222.392783 290.573784 
L 223.054098 288.886681 
L 223.715413 291.136152 
L 224.376728 292.497674 
L 225.038043 291.964905 
L 225.699358 291.284144 
L 226.360673 292.823256 
L 227.021989 292.586469 
L 227.683304 293.296829 
L 228.344619 292.586469 
L 229.005934 293.918393 
L 229.667249 294.303171 
L 230.328564 294.362368 
L 230.989879 293.859197 
L 231.651194 294.480761 
L 232.312509 296.197463 
L 232.973824 294.421564 
L 233.635139 294.33277 
L 234.296454 295.605497 
L 234.957769 295.309514 
L 235.619084 295.931078 
L 236.280399 296.197463 
L 236.941714 296.315856 
L 237.603029 295.871882 
L 238.264344 295.990275 
L 238.925659 295.427907 
L 239.586974 297.174207 
L 240.248289 295.90148 
L 241.57092 297.499789 
L 242.232235 297.82537 
L 242.89355 297.440592 
L 243.554865 298.298943 
L 244.21618 297.588584 
L 244.877495 298.713319 
L 245.53881 298.683721 
L 246.200125 299.157294 
L 246.86144 298.594926 
L 248.18407 299.39408 
L 248.845385 299.305285 
L 249.5067 300.015645 
L 250.168015 300.015645 
L 250.82933 299.127696 
L 252.15196 300.548414 
L 252.813275 300.074841 
L 254.135905 300.28203 
L 254.79722 301.051586 
L 255.458535 299.719662 
L 256.781166 301.67315 
L 257.442481 301.49556 
L 258.103796 300.785201 
L 258.765111 300.755603 
L 259.426426 300.962791 
L 260.087741 301.85074 
L 260.749056 301.791543 
L 261.410371 301.377167 
L 262.071686 301.732347 
L 262.733001 301.554757 
L 263.394316 301.49556 
L 264.055631 301.051586 
L 264.716946 302.057928 
L 265.378261 302.146723 
L 266.039576 301.85074 
L 266.700891 302.797886 
L 267.362206 301.939535 
L 268.023521 302.324313 
L 268.684836 301.732347 
L 269.346151 302.649894 
L 270.007466 303.123467 
L 270.668782 302.413108 
L 271.330097 302.827484 
L 271.991412 302.797886 
L 272.652727 302.501903 
L 274.636672 303.24186 
L 275.297987 303.330655 
L 275.959302 302.087526 
L 276.620617 302.827484 
L 277.281932 303.182664 
L 277.943247 302.265116 
L 278.604562 303.863425 
L 279.265877 303.123467 
L 280.588507 303.685835 
L 281.249822 302.709091 
L 281.911137 303.626638 
L 282.572452 303.182664 
L 283.233767 303.626638 
L 283.895082 303.478647 
L 284.556397 303.77463 
L 285.217712 303.360254 
L 285.879028 303.301057 
L 287.201658 304.011416 
L 287.862973 303.77463 
L 288.524288 304.366596 
L 289.185603 303.922622 
L 289.846918 302.975476 
L 290.508233 304.070613 
L 291.169548 304.041015 
L 291.830863 303.893023 
L 292.492178 304.544186 
L 293.153493 303.922622 
L 293.814808 303.95222 
L 294.476123 304.189006 
L 295.798753 304.100211 
L 296.460068 304.218605 
L 297.121383 303.981818 
L 297.782698 304.721776 
L 298.444013 304.218605 
L 299.105328 304.544186 
L 299.766643 304.632981 
L 300.427959 303.77463 
L 301.750589 304.662579 
L 302.411904 304.899366 
L 303.073219 304.751374 
L 303.734534 305.136152 
L 305.057164 305.284144 
L 305.718479 305.34334 
L 306.379794 305.047357 
L 307.041109 304.958562 
L 307.702424 305.34334 
L 309.025054 305.254545 
L 309.686369 305.402537 
L 310.347684 305.313742 
L 311.008999 304.869767 
L 311.670314 305.34334 
L 312.992944 304.721776 
L 313.654259 305.668922 
L 314.315574 305.668922 
L 314.97689 305.017759 
L 315.638205 305.402537 
L 316.960835 305.224947 
L 317.62215 304.869767 
L 318.283465 305.461734 
L 318.94478 305.165751 
L 319.606095 305.52093 
L 320.928725 305.106554 
L 321.59004 305.491332 
L 322.251355 305.69852 
L 322.91267 305.639323 
L 323.573985 305.461734 
L 324.2353 305.491332 
L 324.896615 305.165751 
L 325.55793 304.514588 
L 326.219245 304.751374 
L 327.541875 304.514588 
L 328.20319 304.425793 
L 330.187136 304.603383 
L 330.848451 304.12981 
L 331.509766 303.833827 
L 332.171081 304.248203 
L 332.832396 304.041015 
L 333.493711 304.159408 
L 334.155026 304.514588 
L 334.816341 303.893023 
L 335.477656 303.508245 
L 336.800286 304.396195 
L 337.461601 303.449049 
L 338.122916 304.455391 
L 338.784231 304.928964 
L 339.445546 304.484989 
L 340.106861 305.047357 
L 340.768176 304.988161 
L 341.429491 305.106554 
L 342.090806 305.935307 
L 342.752121 305.668922 
L 343.413436 305.224947 
L 344.736067 306.172093 
L 345.397382 305.935307 
L 346.058697 306.112896 
L 346.720012 305.935307 
L 347.381327 306.260888 
L 348.042642 306.201691 
L 348.703957 306.527273 
L 349.365272 306.379281 
L 350.026587 306.734461 
L 350.687902 306.645666 
L 351.349217 306.408879 
L 352.010532 306.645666 
L 352.671847 307.000846 
L 353.333162 306.971247 
L 354.655792 306.349683 
L 355.317107 306.852854 
L 355.978422 306.823256 
L 356.639737 306.675264 
L 357.301052 306.408879 
L 359.284998 306.912051 
L 359.946313 306.379281 
L 360.607628 306.764059 
L 361.268943 306.468076 
L 361.930258 306.704863 
L 362.591573 306.527273 
L 363.914203 306.793658 
L 364.575518 306.527273 
L 365.236833 306.438478 
L 365.898148 306.675264 
L 367.882093 306.468076 
L 368.543408 306.586469 
L 369.204723 306.349683 
L 369.866038 306.527273 
L 370.527353 306.468076 
L 371.188668 306.823256 
L 371.849983 306.142495 
L 372.511298 306.438478 
L 373.172613 306.260888 
L 373.833929 306.527273 
L 374.495244 306.349683 
L 375.156559 306.408879 
L 375.817874 306.172093 
L 376.479189 306.112896 
L 377.140504 306.438478 
L 378.463134 306.23129 
L 379.124449 305.69852 
L 379.785764 305.816913 
L 380.447079 305.284144 
L 381.108394 305.491332 
L 381.769709 305.550529 
L 383.753654 304.248203 
L 384.414969 304.396195 
L 385.076284 304.218605 
L 385.737599 304.869767 
L 386.398914 303.863425 
L 387.060229 305.106554 
L 387.721544 305.017759 
L 388.38286 304.425793 
L 389.044175 304.751374 
L 389.70549 304.662579 
L 390.366805 304.869767 
L 391.02812 304.603383 
L 391.689435 304.692178 
L 392.35075 304.988161 
L 393.012065 305.047357 
L 393.67338 305.757717 
L 394.334695 305.905708 
L 395.657325 305.816913 
L 396.31864 306.675264 
L 396.979955 306.142495 
L 398.302585 306.704863 
L 398.9639 306.616068 
L 400.28653 307.119239 
L 400.947845 306.882452 
L 401.60916 306.941649 
L 402.270475 307.237632 
L 402.931791 307.356025 
L 403.593106 307.119239 
L 404.915736 307.296829 
L 406.238366 307.089641 
L 406.899681 307.44482 
L 407.560996 307.44482 
L 408.222311 307.563214 
L 408.883626 307.208034 
L 409.544941 307.385624 
L 410.867571 307.356025 
L 411.528886 307.148837 
L 412.190201 307.26723 
L 412.851516 307.533615 
L 414.174146 307.44482 
L 414.835461 307.563214 
L 416.158091 307.326427 
L 416.819406 307.504017 
L 417.480722 307.504017 
L 418.142037 307.26723 
L 418.803352 307.326427 
L 419.464667 307.533615 
L 420.125982 307.356025 
L 420.787297 307.504017 
L 421.448612 307.415222 
L 422.109927 307.208034 
L 422.771242 307.504017 
L 423.432557 307.385624 
L 424.755187 307.563214 
L 425.416502 307.326427 
L 426.077817 307.533615 
L 426.739132 307.504017 
L 427.400447 307.62241 
L 428.061762 307.385624 
L 428.723077 307.8 
L 429.384392 307.44482 
L 430.045707 307.44482 
L 430.707022 307.652008 
L 431.368337 307.26723 
L 434.013598 307.652008 
L 434.674913 307.415222 
L 435.336228 307.62241 
L 436.658858 307.415222 
L 437.320173 307.62241 
L 437.981488 307.533615 
L 438.642803 307.592812 
L 439.965433 307.415222 
L 440.626748 307.563214 
L 441.288063 307.356025 
L 441.949378 307.592812 
L 442.610693 307.474419 
L 443.272008 307.770402 
L 443.933323 307.592812 
L 447.901214 307.592812 
L 448.562529 307.740803 
L 449.223844 307.62241 
L 449.885159 307.681607 
L 450.546474 307.533615 
L 451.207789 307.8 
L 451.869104 307.681607 
L 458.482254 307.592812 
L 459.143569 307.504017 
L 459.804884 307.711205 
L 461.127514 307.533615 
L 462.450145 307.62241 
L 463.11146 307.681607 
L 464.43409 307.385624 
L 465.095405 307.652008 
L 465.75672 307.533615 
L 466.418035 307.770402 
L 467.07935 307.770402 
L 467.740665 307.592812 
L 468.40198 307.652008 
L 469.063295 307.533615 
L 469.72461 307.681607 
L 472.36987 307.62241 
L 473.031185 307.504017 
L 473.6925 307.592812 
L 474.353815 307.563214 
L 475.01513 307.415222 
L 475.676445 307.681607 
L 476.337761 307.62241 
L 476.999076 307.711205 
L 477.660391 307.533615 
L 478.321706 307.62241 
L 479.644336 307.296829 
L 480.966966 307.563214 
L 481.628281 307.504017 
L 482.289596 307.62241 
L 482.950911 307.44482 
L 483.612226 307.770402 
L 484.273541 307.326427 
L 484.934856 307.563214 
L 485.596171 307.504017 
L 486.257486 307.563214 
L 486.918801 307.119239 
L 487.580116 307.504017 
L 488.241431 307.592812 
L 488.902746 307.474419 
L 489.564061 307.592812 
L 490.225376 307.592812 
L 490.886692 307.474419 
L 491.548007 307.652008 
L 492.209322 307.533615 
L 492.870637 307.563214 
L 493.531952 307.44482 
L 494.193267 307.681607 
L 498.161157 307.415222 
L 498.161157 307.415222 
" clip-path="url(#p963293cdbb)" style="fill: none; stroke: #1f77b4; stroke-width: 1.5; stroke-linecap: square"/>
   </g>
   <g id="line2d_28">
    <defs>
     <path id="me6ef051dfd" d="M -3 3 
L 3 -3 
M -3 -3 
L 3 3 
" style="stroke: #ff7f0e"/>
    </defs>
    <g clip-path="url(#p963293cdbb)">
     <use xlink:href="#me6ef051dfd" x="158.245224" y="260.797886" style="fill: #ff7f0e; stroke: #ff7f0e"/>
     <use xlink:href="#me6ef051dfd" x="169.48758" y="171.322199" style="fill: #ff7f0e; stroke: #ff7f0e"/>
     <use xlink:href="#me6ef051dfd" x="177.42336" y="55.8" style="fill: #ff7f0e; stroke: #ff7f0e"/>
     <use xlink:href="#me6ef051dfd" x="189.327031" y="259.31797" style="fill: #ff7f0e; stroke: #ff7f0e"/>
     <use xlink:href="#me6ef051dfd" x="191.310976" y="260.442706" style="fill: #ff7f0e; stroke: #ff7f0e"/>
     <use xlink:href="#me6ef051dfd" x="193.294921" y="260.857082" style="fill: #ff7f0e; stroke: #ff7f0e"/>
     <use xlink:href="#me6ef051dfd" x="199.908072" y="247.478647" style="fill: #ff7f0e; stroke: #ff7f0e"/>
     <use xlink:href="#me6ef051dfd" x="223.054098" y="288.886681" style="fill: #ff7f0e; stroke: #ff7f0e"/>
     <use xlink:href="#me6ef051dfd" x="233.635139" y="294.33277" style="fill: #ff7f0e; stroke: #ff7f0e"/>
     <use xlink:href="#me6ef051dfd" x="337.461601" y="303.449049" style="fill: #ff7f0e; stroke: #ff7f0e"/>
     <use xlink:href="#me6ef051dfd" x="386.398914" y="303.863425" style="fill: #ff7f0e; stroke: #ff7f0e"/>
    </g>
   </g>
   <g id="patch_3">
    <path d="M 135 320.4 
L 135 43.2 
" style="fill: none; stroke: #000000; stroke-width: 0.8; stroke-linejoin: miter; stroke-linecap: square"/>
   </g>
   <g id="patch_4">
    <path d="M 515.454545 320.4 
L 515.454545 43.2 
" style="fill: none; stroke: #000000; stroke-width: 0.8; stroke-linejoin: miter; stroke-linecap: square"/>
   </g>
   <g id="patch_5">
    <path d="M 135 320.4 
L 515.454545 320.4 
" style="fill: none; stroke: #000000; stroke-width: 0.8; stroke-linejoin: miter; stroke-linecap: square"/>
   </g>
   <g id="patch_6">
    <path d="M 135 43.2 
L 515.454545 43.2 
" style="fill: none; stroke: #000000; stroke-width: 0.8; stroke-linejoin: miter; stroke-linecap: square"/>
   </g>
   <g id="legend_1">
    <g id="patch_7">
     <path d="M 401.454545 80.55625 
L 508.454545 80.55625 
Q 510.454545 80.55625 510.454545 78.55625 
L 510.454545 50.2 
Q 510.454545 48.2 508.454545 48.2 
L 401.454545 48.2 
Q 399.454545 48.2 399.454545 50.2 
L 399.454545 78.55625 
Q 399.454545 80.55625 401.454545 80.55625 
z
" style="fill: #ffffff; opacity: 0.8; stroke: #cccccc; stroke-linejoin: miter"/>
    </g>
    <g id="line2d_29">
     <path d="M 403.454545 56.298437 
L 413.454545 56.298437 
L 423.454545 56.298437 
" style="fill: none; stroke: #1f77b4; stroke-width: 1.5; stroke-linecap: square"/>
    </g>
    <g id="text_16">
     <!-- Uranium Oxide -->
     <g transform="translate(431.454545 59.798437) scale(0.1 -0.1)">
      <defs>
       <path id="DejaVuSans-55" d="M 556 4666 
L 1191 4666 
L 1191 1831 
Q 1191 1081 1462 751 
Q 1734 422 2344 422 
Q 2950 422 3222 751 
Q 3494 1081 3494 1831 
L 3494 4666 
L 4128 4666 
L 4128 1753 
Q 4128 841 3676 375 
Q 3225 -91 2344 -91 
Q 1459 -91 1007 375 
Q 556 841 556 1753 
L 556 4666 
z
" transform="scale(0.015625)"/>
       <path id="DejaVuSans-61" d="M 2194 1759 
Q 1497 1759 1228 1600 
Q 959 1441 959 1056 
Q 959 750 1161 570 
Q 1363 391 1709 391 
Q 2188 391 2477 730 
Q 2766 1069 2766 1631 
L 2766 1759 
L 2194 1759 
z
M 3341 1997 
L 3341 0 
L 2766 0 
L 2766 531 
Q 2569 213 2275 61 
Q 1981 -91 1556 -91 
Q 1019 -91 701 211 
Q 384 513 384 1019 
Q 384 1609 779 1909 
Q 1175 2209 1959 2209 
L 2766 2209 
L 2766 2266 
Q 2766 2663 2505 2880 
Q 2244 3097 1772 3097 
Q 1472 3097 1187 3025 
Q 903 2953 641 2809 
L 641 3341 
Q 956 3463 1253 3523 
Q 1550 3584 1831 3584 
Q 2591 3584 2966 3190 
Q 3341 2797 3341 1997 
z
" transform="scale(0.015625)"/>
       <path id="DejaVuSans-69" d="M 603 3500 
L 1178 3500 
L 1178 0 
L 603 0 
L 603 3500 
z
M 603 4863 
L 1178 4863 
L 1178 4134 
L 603 4134 
L 603 4863 
z
" transform="scale(0.015625)"/>
       <path id="DejaVuSans-75" d="M 544 1381 
L 544 3500 
L 1119 3500 
L 1119 1403 
Q 1119 906 1312 657 
Q 1506 409 1894 409 
Q 2359 409 2629 706 
Q 2900 1003 2900 1516 
L 2900 3500 
L 3475 3500 
L 3475 0 
L 2900 0 
L 2900 538 
Q 2691 219 2414 64 
Q 2138 -91 1772 -91 
Q 1169 -91 856 284 
Q 544 659 544 1381 
z
M 1991 3584 
L 1991 3584 
z
" transform="scale(0.015625)"/>
       <path id="DejaVuSans-6d" d="M 3328 2828 
Q 3544 3216 3844 3400 
Q 4144 3584 4550 3584 
Q 5097 3584 5394 3201 
Q 5691 2819 5691 2113 
L 5691 0 
L 5113 0 
L 5113 2094 
Q 5113 2597 4934 2840 
Q 4756 3084 4391 3084 
Q 3944 3084 3684 2787 
Q 3425 2491 3425 1978 
L 3425 0 
L 2847 0 
L 2847 2094 
Q 2847 2600 2669 2842 
Q 2491 3084 2119 3084 
Q 1678 3084 1418 2786 
Q 1159 2488 1159 1978 
L 1159 0 
L 581 0 
L 581 3500 
L 1159 3500 
L 1159 2956 
Q 1356 3278 1631 3431 
Q 1906 3584 2284 3584 
Q 2666 3584 2933 3390 
Q 3200 3197 3328 2828 
z
" transform="scale(0.015625)"/>
       <path id="DejaVuSans-4f" d="M 2522 4238 
Q 1834 4238 1429 3725 
Q 1025 3213 1025 2328 
Q 1025 1447 1429 934 
Q 1834 422 2522 422 
Q 3209 422 3611 934 
Q 4013 1447 4013 2328 
Q 4013 3213 3611 3725 
Q 3209 4238 2522 4238 
z
M 2522 4750 
Q 3503 4750 4090 4092 
Q 4678 3434 4678 2328 
Q 4678 1225 4090 567 
Q 3503 -91 2522 -91 
Q 1538 -91 948 565 
Q 359 1222 359 2328 
Q 359 3434 948 4092 
Q 1538 4750 2522 4750 
z
" transform="scale(0.015625)"/>
       <path id="DejaVuSans-78" d="M 3513 3500 
L 2247 1797 
L 3578 0 
L 2900 0 
L 1881 1375 
L 863 0 
L 184 0 
L 1544 1831 
L 300 3500 
L 978 3500 
L 1906 2253 
L 2834 3500 
L 3513 3500 
z
" transform="scale(0.015625)"/>
       <path id="DejaVuSans-64" d="M 2906 2969 
L 2906 4863 
L 3481 4863 
L 3481 0 
L 2906 0 
L 2906 525 
Q 2725 213 2448 61 
Q 2172 -91 1784 -91 
Q 1150 -91 751 415 
Q 353 922 353 1747 
Q 353 2572 751 3078 
Q 1150 3584 1784 3584 
Q 2172 3584 2448 3432 
Q 2725 3281 2906 2969 
z
M 947 1747 
Q 947 1113 1208 752 
Q 1469 391 1925 391 
Q 2381 391 2643 752 
Q 2906 1113 2906 1747 
Q 2906 2381 2643 2742 
Q 2381 3103 1925 3103 
Q 1469 3103 1208 2742 
Q 947 2381 947 1747 
z
" transform="scale(0.015625)"/>
      </defs>
      <use xlink:href="#DejaVuSans-55"/>
      <use xlink:href="#DejaVuSans-72" transform="translate(73.193359 0)"/>
      <use xlink:href="#DejaVuSans-61" transform="translate(114.306641 0)"/>
      <use xlink:href="#DejaVuSans-6e" transform="translate(175.585938 0)"/>
      <use xlink:href="#DejaVuSans-69" transform="translate(238.964844 0)"/>
      <use xlink:href="#DejaVuSans-75" transform="translate(266.748047 0)"/>
      <use xlink:href="#DejaVuSans-6d" transform="translate(330.126953 0)"/>
      <use xlink:href="#DejaVuSans-20" transform="translate(427.539062 0)"/>
      <use xlink:href="#DejaVuSans-4f" transform="translate(459.326172 0)"/>
      <use xlink:href="#DejaVuSans-78" transform="translate(538.037109 0)"/>
      <use xlink:href="#DejaVuSans-69" transform="translate(597.216797 0)"/>
      <use xlink:href="#DejaVuSans-64" transform="translate(625 0)"/>
      <use xlink:href="#DejaVuSans-65" transform="translate(688.476562 0)"/>
     </g>
    </g>
    <g id="line2d_30">
     <g>
      <use xlink:href="#me6ef051dfd" x="413.454545" y="70.976562" style="fill: #ff7f0e; stroke: #ff7f0e"/>
     </g>
    </g>
    <g id="text_17">
     <!-- Peaks -->
     <g transform="translate(431.454545 74.476562) scale(0.1 -0.1)">
      <defs>
       <path id="DejaVuSans-50" d="M 1259 4147 
L 1259 2394 
L 2053 2394 
Q 2494 2394 2734 2622 
Q 2975 2850 2975 3272 
Q 2975 3691 2734 3919 
Q 2494 4147 2053 4147 
L 1259 4147 
z
M 628 4666 
L 2053 4666 
Q 2838 4666 3239 4311 
Q 3641 3956 3641 3272 
Q 3641 2581 3239 2228 
Q 2838 1875 2053 1875 
L 1259 1875 
L 1259 0 
L 628 0 
L 628 4666 
z
" transform="scale(0.015625)"/>
      </defs>
      <use xlink:href="#DejaVuSans-50"/>
      <use xlink:href="#DejaVuSans-65" transform="translate(56.677734 0)"/>
      <use xlink:href="#DejaVuSans-61" transform="translate(118.201172 0)"/>
      <use xlink:href="#DejaVuSans-6b" transform="translate(179.480469 0)"/>
      <use xlink:href="#DejaVuSans-73" transform="translate(237.390625 0)"/>
     </g>
    </g>
   </g>
  </g>
  <g id="axes_2">
   <g id="patch_8">
    <path d="M 591.545455 320.4 
L 972 320.4 
L 972 43.2 
L 591.545455 43.2 
z
" style="fill: #ffffff"/>
   </g>
   <g id="matplotlib.axis_3">
    <g id="xtick_9">
     <g id="line2d_31">
      <path d="M 613.256949 320.4 
L 613.256949 43.2 
" clip-path="url(#p8838457fd0)" style="fill: none; stroke: #b0b0b0; stroke-width: 0.8; stroke-linecap: square"/>
     </g>
     <g id="line2d_32">
      <g>
       <use xlink:href="#m771f6745f5" x="613.256949" y="320.4" style="stroke: #000000; stroke-width: 0.8"/>
      </g>
     </g>
     <g id="text_18">
      <!-- 0 -->
      <g transform="translate(610.075699 334.998438) scale(0.1 -0.1)">
       <use xlink:href="#DejaVuSans-30"/>
      </g>
     </g>
    </g>
    <g id="xtick_10">
     <g id="line2d_33">
      <path d="M 671.0608 320.4 
L 671.0608 43.2 
" clip-path="url(#p8838457fd0)" style="fill: none; stroke: #b0b0b0; stroke-width: 0.8; stroke-linecap: square"/>
     </g>
     <g id="line2d_34">
      <g>
       <use xlink:href="#m771f6745f5" x="671.0608" y="320.4" style="stroke: #000000; stroke-width: 0.8"/>
      </g>
     </g>
     <g id="text_19">
      <!-- 500 -->
      <g transform="translate(661.51705 334.998438) scale(0.1 -0.1)">
       <defs>
        <path id="DejaVuSans-35" d="M 691 4666 
L 3169 4666 
L 3169 4134 
L 1269 4134 
L 1269 2991 
Q 1406 3038 1543 3061 
Q 1681 3084 1819 3084 
Q 2600 3084 3056 2656 
Q 3513 2228 3513 1497 
Q 3513 744 3044 326 
Q 2575 -91 1722 -91 
Q 1428 -91 1123 -41 
Q 819 9 494 109 
L 494 744 
Q 775 591 1075 516 
Q 1375 441 1709 441 
Q 2250 441 2565 725 
Q 2881 1009 2881 1497 
Q 2881 1984 2565 2268 
Q 2250 2553 1709 2553 
Q 1456 2553 1204 2497 
Q 953 2441 691 2322 
L 691 4666 
z
" transform="scale(0.015625)"/>
       </defs>
       <use xlink:href="#DejaVuSans-35"/>
       <use xlink:href="#DejaVuSans-30" transform="translate(63.623047 0)"/>
       <use xlink:href="#DejaVuSans-30" transform="translate(127.246094 0)"/>
      </g>
     </g>
    </g>
    <g id="xtick_11">
     <g id="line2d_35">
      <path d="M 728.864652 320.4 
L 728.864652 43.2 
" clip-path="url(#p8838457fd0)" style="fill: none; stroke: #b0b0b0; stroke-width: 0.8; stroke-linecap: square"/>
     </g>
     <g id="line2d_36">
      <g>
       <use xlink:href="#m771f6745f5" x="728.864652" y="320.4" style="stroke: #000000; stroke-width: 0.8"/>
      </g>
     </g>
     <g id="text_20">
      <!-- 1000 -->
      <g transform="translate(716.139652 334.998438) scale(0.1 -0.1)">
       <use xlink:href="#DejaVuSans-31"/>
       <use xlink:href="#DejaVuSans-30" transform="translate(63.623047 0)"/>
       <use xlink:href="#DejaVuSans-30" transform="translate(127.246094 0)"/>
       <use xlink:href="#DejaVuSans-30" transform="translate(190.869141 0)"/>
      </g>
     </g>
    </g>
    <g id="xtick_12">
     <g id="line2d_37">
      <path d="M 786.668503 320.4 
L 786.668503 43.2 
" clip-path="url(#p8838457fd0)" style="fill: none; stroke: #b0b0b0; stroke-width: 0.8; stroke-linecap: square"/>
     </g>
     <g id="line2d_38">
      <g>
       <use xlink:href="#m771f6745f5" x="786.668503" y="320.4" style="stroke: #000000; stroke-width: 0.8"/>
      </g>
     </g>
     <g id="text_21">
      <!-- 1500 -->
      <g transform="translate(773.943503 334.998438) scale(0.1 -0.1)">
       <use xlink:href="#DejaVuSans-31"/>
       <use xlink:href="#DejaVuSans-35" transform="translate(63.623047 0)"/>
       <use xlink:href="#DejaVuSans-30" transform="translate(127.246094 0)"/>
       <use xlink:href="#DejaVuSans-30" transform="translate(190.869141 0)"/>
      </g>
     </g>
    </g>
    <g id="xtick_13">
     <g id="line2d_39">
      <path d="M 844.472355 320.4 
L 844.472355 43.2 
" clip-path="url(#p8838457fd0)" style="fill: none; stroke: #b0b0b0; stroke-width: 0.8; stroke-linecap: square"/>
     </g>
     <g id="line2d_40">
      <g>
       <use xlink:href="#m771f6745f5" x="844.472355" y="320.4" style="stroke: #000000; stroke-width: 0.8"/>
      </g>
     </g>
     <g id="text_22">
      <!-- 2000 -->
      <g transform="translate(831.747355 334.998438) scale(0.1 -0.1)">
       <use xlink:href="#DejaVuSans-32"/>
       <use xlink:href="#DejaVuSans-30" transform="translate(63.623047 0)"/>
       <use xlink:href="#DejaVuSans-30" transform="translate(127.246094 0)"/>
       <use xlink:href="#DejaVuSans-30" transform="translate(190.869141 0)"/>
      </g>
     </g>
    </g>
    <g id="xtick_14">
     <g id="line2d_41">
      <path d="M 902.276206 320.4 
L 902.276206 43.2 
" clip-path="url(#p8838457fd0)" style="fill: none; stroke: #b0b0b0; stroke-width: 0.8; stroke-linecap: square"/>
     </g>
     <g id="line2d_42">
      <g>
       <use xlink:href="#m771f6745f5" x="902.276206" y="320.4" style="stroke: #000000; stroke-width: 0.8"/>
      </g>
     </g>
     <g id="text_23">
      <!-- 2500 -->
      <g transform="translate(889.551206 334.998438) scale(0.1 -0.1)">
       <use xlink:href="#DejaVuSans-32"/>
       <use xlink:href="#DejaVuSans-35" transform="translate(63.623047 0)"/>
       <use xlink:href="#DejaVuSans-30" transform="translate(127.246094 0)"/>
       <use xlink:href="#DejaVuSans-30" transform="translate(190.869141 0)"/>
      </g>
     </g>
    </g>
    <g id="xtick_15">
     <g id="line2d_43">
      <path d="M 960.080058 320.4 
L 960.080058 43.2 
" clip-path="url(#p8838457fd0)" style="fill: none; stroke: #b0b0b0; stroke-width: 0.8; stroke-linecap: square"/>
     </g>
     <g id="line2d_44">
      <g>
       <use xlink:href="#m771f6745f5" x="960.080058" y="320.4" style="stroke: #000000; stroke-width: 0.8"/>
      </g>
     </g>
     <g id="text_24">
      <!-- 3000 -->
      <g transform="translate(947.355058 334.998438) scale(0.1 -0.1)">
       <defs>
        <path id="DejaVuSans-33" d="M 2597 2516 
Q 3050 2419 3304 2112 
Q 3559 1806 3559 1356 
Q 3559 666 3084 287 
Q 2609 -91 1734 -91 
Q 1441 -91 1130 -33 
Q 819 25 488 141 
L 488 750 
Q 750 597 1062 519 
Q 1375 441 1716 441 
Q 2309 441 2620 675 
Q 2931 909 2931 1356 
Q 2931 1769 2642 2001 
Q 2353 2234 1838 2234 
L 1294 2234 
L 1294 2753 
L 1863 2753 
Q 2328 2753 2575 2939 
Q 2822 3125 2822 3475 
Q 2822 3834 2567 4026 
Q 2313 4219 1838 4219 
Q 1578 4219 1281 4162 
Q 984 4106 628 3988 
L 628 4550 
Q 988 4650 1302 4700 
Q 1616 4750 1894 4750 
Q 2613 4750 3031 4423 
Q 3450 4097 3450 3541 
Q 3450 3153 3228 2886 
Q 3006 2619 2597 2516 
z
" transform="scale(0.015625)"/>
       </defs>
       <use xlink:href="#DejaVuSans-33"/>
       <use xlink:href="#DejaVuSans-30" transform="translate(63.623047 0)"/>
       <use xlink:href="#DejaVuSans-30" transform="translate(127.246094 0)"/>
       <use xlink:href="#DejaVuSans-30" transform="translate(190.869141 0)"/>
      </g>
     </g>
    </g>
    <g id="text_25">
     <!-- Energy [keV] -->
     <g transform="translate(749.564915 348.676562) scale(0.1 -0.1)">
      <use xlink:href="#DejaVuSans-45"/>
      <use xlink:href="#DejaVuSans-6e" transform="translate(63.183594 0)"/>
      <use xlink:href="#DejaVuSans-65" transform="translate(126.5625 0)"/>
      <use xlink:href="#DejaVuSans-72" transform="translate(188.085938 0)"/>
      <use xlink:href="#DejaVuSans-67" transform="translate(227.449219 0)"/>
      <use xlink:href="#DejaVuSans-79" transform="translate(290.925781 0)"/>
      <use xlink:href="#DejaVuSans-20" transform="translate(350.105469 0)"/>
      <use xlink:href="#DejaVuSans-5b" transform="translate(381.892578 0)"/>
      <use xlink:href="#DejaVuSans-6b" transform="translate(420.90625 0)"/>
      <use xlink:href="#DejaVuSans-65" transform="translate(475.191406 0)"/>
      <use xlink:href="#DejaVuSans-56" transform="translate(536.714844 0)"/>
      <use xlink:href="#DejaVuSans-5d" transform="translate(605.123047 0)"/>
     </g>
    </g>
   </g>
   <g id="matplotlib.axis_4">
    <g id="ytick_6">
     <g id="line2d_45">
      <path d="M 591.545455 307.917237 
L 972 307.917237 
" clip-path="url(#p8838457fd0)" style="fill: none; stroke: #b0b0b0; stroke-width: 0.8; stroke-linecap: square"/>
     </g>
     <g id="line2d_46">
      <g>
       <use xlink:href="#m5f53dde7ab" x="591.545455" y="307.917237" style="stroke: #000000; stroke-width: 0.8"/>
      </g>
     </g>
     <g id="text_26">
      <!-- 0 -->
      <g transform="translate(578.182955 311.716455) scale(0.1 -0.1)">
       <use xlink:href="#DejaVuSans-30"/>
      </g>
     </g>
    </g>
    <g id="ytick_7">
     <g id="line2d_47">
      <path d="M 591.545455 249.298953 
L 972 249.298953 
" clip-path="url(#p8838457fd0)" style="fill: none; stroke: #b0b0b0; stroke-width: 0.8; stroke-linecap: square"/>
     </g>
     <g id="line2d_48">
      <g>
       <use xlink:href="#m5f53dde7ab" x="591.545455" y="249.298953" style="stroke: #000000; stroke-width: 0.8"/>
      </g>
     </g>
     <g id="text_27">
      <!-- 2000 -->
      <g transform="translate(559.095455 253.098172) scale(0.1 -0.1)">
       <use xlink:href="#DejaVuSans-32"/>
       <use xlink:href="#DejaVuSans-30" transform="translate(63.623047 0)"/>
       <use xlink:href="#DejaVuSans-30" transform="translate(127.246094 0)"/>
       <use xlink:href="#DejaVuSans-30" transform="translate(190.869141 0)"/>
      </g>
     </g>
    </g>
    <g id="ytick_8">
     <g id="line2d_49">
      <path d="M 591.545455 190.68067 
L 972 190.68067 
" clip-path="url(#p8838457fd0)" style="fill: none; stroke: #b0b0b0; stroke-width: 0.8; stroke-linecap: square"/>
     </g>
     <g id="line2d_50">
      <g>
       <use xlink:href="#m5f53dde7ab" x="591.545455" y="190.68067" style="stroke: #000000; stroke-width: 0.8"/>
      </g>
     </g>
     <g id="text_28">
      <!-- 4000 -->
      <g transform="translate(559.095455 194.479889) scale(0.1 -0.1)">
       <use xlink:href="#DejaVuSans-34"/>
       <use xlink:href="#DejaVuSans-30" transform="translate(63.623047 0)"/>
       <use xlink:href="#DejaVuSans-30" transform="translate(127.246094 0)"/>
       <use xlink:href="#DejaVuSans-30" transform="translate(190.869141 0)"/>
      </g>
     </g>
    </g>
    <g id="ytick_9">
     <g id="line2d_51">
      <path d="M 591.545455 132.062387 
L 972 132.062387 
" clip-path="url(#p8838457fd0)" style="fill: none; stroke: #b0b0b0; stroke-width: 0.8; stroke-linecap: square"/>
     </g>
     <g id="line2d_52">
      <g>
       <use xlink:href="#m5f53dde7ab" x="591.545455" y="132.062387" style="stroke: #000000; stroke-width: 0.8"/>
      </g>
     </g>
     <g id="text_29">
      <!-- 6000 -->
      <g transform="translate(559.095455 135.861605) scale(0.1 -0.1)">
       <use xlink:href="#DejaVuSans-36"/>
       <use xlink:href="#DejaVuSans-30" transform="translate(63.623047 0)"/>
       <use xlink:href="#DejaVuSans-30" transform="translate(127.246094 0)"/>
       <use xlink:href="#DejaVuSans-30" transform="translate(190.869141 0)"/>
      </g>
     </g>
    </g>
    <g id="ytick_10">
     <g id="line2d_53">
      <path d="M 591.545455 73.444103 
L 972 73.444103 
" clip-path="url(#p8838457fd0)" style="fill: none; stroke: #b0b0b0; stroke-width: 0.8; stroke-linecap: square"/>
     </g>
     <g id="line2d_54">
      <g>
       <use xlink:href="#m5f53dde7ab" x="591.545455" y="73.444103" style="stroke: #000000; stroke-width: 0.8"/>
      </g>
     </g>
     <g id="text_30">
      <!-- 8000 -->
      <g transform="translate(559.095455 77.243322) scale(0.1 -0.1)">
       <use xlink:href="#DejaVuSans-38"/>
       <use xlink:href="#DejaVuSans-30" transform="translate(63.623047 0)"/>
       <use xlink:href="#DejaVuSans-30" transform="translate(127.246094 0)"/>
       <use xlink:href="#DejaVuSans-30" transform="translate(190.869141 0)"/>
      </g>
     </g>
    </g>
    <g id="text_31">
     <!-- Events -->
     <g transform="translate(553.015767 198.728906) rotate(-90) scale(0.1 -0.1)">
      <use xlink:href="#DejaVuSans-45"/>
      <use xlink:href="#DejaVuSans-76" transform="translate(63.183594 0)"/>
      <use xlink:href="#DejaVuSans-65" transform="translate(122.363281 0)"/>
      <use xlink:href="#DejaVuSans-6e" transform="translate(183.886719 0)"/>
      <use xlink:href="#DejaVuSans-74" transform="translate(247.265625 0)"/>
      <use xlink:href="#DejaVuSans-73" transform="translate(286.474609 0)"/>
     </g>
    </g>
   </g>
   <g id="line2d_55">
    <path d="M 608.838843 305.250105 
L 609.177265 305.103559 
L 609.85411 306.891417 
L 610.192533 306.715562 
L 610.530955 298.157292 
L 611.2078 250.998883 
L 611.546223 243.26127 
L 611.884645 241.678576 
L 612.223068 250.060991 
L 612.899913 282.388974 
L 613.238335 287.166364 
L 614.253603 249.562736 
L 614.592025 246.250803 
L 614.930448 240.301047 
L 615.26887 238.894208 
L 615.607292 236.08053 
L 616.284137 222.041452 
L 617.299405 184.613678 
L 617.637827 178.517376 
L 618.314672 141.412003 
L 618.653095 120.983531 
L 618.991517 93.315701 
L 619.32994 84.786741 
L 620.006785 108.439218 
L 620.345207 106.563433 
L 621.022052 59.024006 
L 621.360475 55.8 
L 621.698897 81.474808 
L 622.375742 143.317097 
L 623.052587 166.500628 
L 623.391009 175.146825 
L 623.729432 188.599721 
L 624.067854 194.959805 
L 624.406277 204.250803 
L 624.744699 208.383391 
L 625.083122 209.526448 
L 625.421544 205.892114 
L 625.759967 198.53552 
L 626.098389 202.052617 
L 626.436812 204.368039 
L 626.775234 203.869784 
L 627.113657 205.218004 
L 627.452079 205.950733 
L 627.790502 205.599023 
L 628.128924 210.464341 
L 628.467346 210.435031 
L 628.805769 212.603908 
L 629.144191 213.864201 
L 629.482614 212.662526 
L 629.821036 213.864201 
L 630.159459 218.289881 
L 630.497881 220.107048 
L 631.513149 217.351989 
L 631.851571 215.534822 
L 632.189994 216.267551 
L 632.528416 211.021214 
L 632.866839 213.014236 
L 633.205261 210.845359 
L 633.882106 211.402233 
L 634.220529 205.892114 
L 634.897373 203.078437 
L 635.235796 197.275227 
L 635.574218 197.978646 
L 636.251063 193.142638 
L 636.589486 189.273831 
L 637.266331 167.028193 
L 637.943176 136.517376 
L 638.620021 90.531333 
L 638.958443 68.43224 
L 639.296866 61.046336 
L 639.635288 69.516678 
L 640.312133 101.317097 
L 641.3274 182.005164 
L 642.004245 217.498535 
L 642.342668 228.313608 
L 642.68109 229.485973 
L 643.019513 235.05471 
L 643.357935 238.278716 
L 643.696358 237.223587 
L 644.03478 236.666713 
L 644.373203 239.304536 
L 644.711625 239.333845 
L 645.050048 240.88723 
L 645.38847 244.28709 
L 645.726893 242.000977 
L 646.065315 247.745569 
L 646.403738 245.254292 
L 646.74216 245.606001 
L 647.080583 244.433636 
L 647.419005 248.478297 
L 647.757428 249.06448 
L 648.09585 248.947244 
L 648.434272 248.126588 
L 649.111117 240.53552 
L 649.44954 239.978646 
L 649.787962 235.816748 
L 650.126385 233.149616 
L 650.464807 226.701605 
L 650.80323 229.925611 
L 651.141652 224.15171 
L 651.480075 227.287788 
L 651.818497 227.873971 
L 653.172187 246.309421 
L 653.51061 254.574599 
L 653.849032 255.981438 
L 654.187455 263.015632 
L 654.525877 264.979344 
L 654.864299 270.137753 
L 655.202722 271.691137 
L 655.541144 273.947941 
L 655.879567 272.599721 
L 656.217989 275.530635 
L 656.556412 274.885834 
L 657.233257 277.816748 
L 657.571679 275.061689 
L 657.910102 275.999581 
L 658.248524 275.853036 
L 658.586947 275.266853 
L 658.925369 276.703001 
L 659.263792 274.153105 
L 659.940637 275.442708 
L 660.279059 275.384089 
L 660.617482 274.065178 
L 660.955904 277.08402 
L 661.294326 274.856525 
L 661.632749 277.552966 
L 661.971171 276.937474 
L 662.309594 277.347802 
L 662.648016 281.451082 
L 662.986439 279.135659 
L 663.324861 278.842568 
L 664.001706 279.545987 
L 664.678551 276.263364 
L 665.016974 276.234054 
L 665.355396 274.00656 
L 665.693819 274.123796 
L 666.032241 274.00656 
L 666.370664 272.101465 
L 666.709086 272.98074 
L 667.047509 271.368737 
L 667.385931 272.394557 
L 667.724353 273.830705 
L 668.062776 274.622052 
L 668.401198 273.478995 
L 668.739621 273.332449 
L 669.078043 273.420377 
L 669.416466 272.013538 
L 669.754888 274.241033 
L 670.093311 271.661828 
L 670.431733 271.925611 
L 670.770156 269.873971 
L 671.108578 269.317097 
L 671.447001 268.027495 
L 672.123846 266.737893 
L 672.462268 266.210328 
L 672.800691 265.946546 
L 673.139113 268.760223 
L 673.477536 269.405024 
L 673.815958 271.427355 
L 674.15438 271.691137 
L 674.831225 276.3806 
L 675.169648 276.204745 
L 675.50807 276.556455 
L 675.846493 274.651361 
L 676.184915 275.325471 
L 676.523338 273.097976 
L 676.86176 269.287788 
L 677.200183 272.365248 
L 678.892295 251.379902 
L 679.907563 241.56134 
L 680.245985 240.769993 
L 680.584407 237.663224 
L 680.92283 235.816748 
L 681.261252 238.864899 
L 681.599675 238.747662 
L 681.938097 239.802791 
L 682.27652 243.61298 
L 682.614942 250.529937 
L 682.953365 254.076343 
L 683.968632 268.789532 
L 684.307055 271.925611 
L 684.9839 281.333845 
L 685.660745 284.90956 
L 685.999167 286.404327 
L 686.676012 288.250803 
L 687.014435 288.631821 
L 687.352857 288.719749 
L 687.691279 290.536916 
L 688.029702 290.361061 
L 688.706547 291.885136 
L 689.044969 290.566225 
L 689.383392 291.621354 
L 689.721814 290.243824 
L 690.060237 289.71626 
L 690.398659 291.269644 
L 690.737082 291.533426 
L 691.075504 291.41619 
L 691.413927 290.331752 
L 691.752349 290.566225 
L 692.090772 291.504117 
L 692.429194 290.800698 
L 692.767617 290.419679 
L 693.106039 289.423168 
L 693.444462 289.68695 
L 693.782884 288.455967 
L 694.121306 287.869784 
L 694.459729 287.635311 
L 694.798151 285.93538 
L 695.136574 287.811165 
L 695.474996 287.137055 
L 695.813419 287.019819 
L 696.151841 285.818144 
L 696.490264 286.492254 
L 697.167109 284.030286 
L 697.505531 284.294068 
L 697.843954 283.825122 
L 698.182376 282.799302 
L 698.520799 284.997488 
L 698.859221 284.030286 
L 699.197644 283.678576 
L 699.536066 285.437125 
L 699.874489 284.557851 
L 700.212911 286.28709 
L 700.551333 286.843964 
L 700.889756 287.752547 
L 701.228178 287.869784 
L 701.566601 286.990509 
L 701.905023 288.162875 
L 702.243446 287.371528 
L 702.581868 288.866294 
L 703.258713 289.774878 
L 703.597136 289.452477 
L 703.935558 289.921424 
L 704.273981 288.045639 
L 704.612403 289.188695 
L 704.950826 289.921424 
L 705.289248 288.221493 
L 705.627671 289.774878 
L 705.966093 289.511096 
L 706.304516 290.566225 
L 706.642938 292.119609 
L 706.98136 290.830007 
L 707.319783 291.679972 
L 707.658205 289.862805 
L 707.996628 292.44201 
L 708.33505 292.500628 
L 708.673473 291.41619 
L 709.011895 291.709281 
L 709.350318 292.588555 
L 709.68874 292.060991 
L 710.027163 292.002373 
L 710.365585 290.448988 
L 710.704008 290.74208 
L 711.04243 292.031682 
L 711.380853 290.976553 
L 711.719275 291.152408 
L 712.057698 290.097278 
L 712.39612 289.804187 
L 712.734543 289.68695 
L 713.072965 288.397348 
L 713.411387 288.455967 
L 714.088232 287.342219 
L 714.426655 284.176832 
L 714.765077 284.323378 
L 715.1035 284.23545 
L 716.45719 276.644382 
L 716.795612 275.618562 
L 717.134035 275.501326 
L 717.472457 274.534124 
L 717.81088 270.841172 
L 718.149302 271.896301 
L 718.487725 268.818842 
L 718.826147 269.405024 
L 719.16457 270.489463 
L 719.502992 268.701605 
L 719.841415 270.636008 
L 720.179837 271.339428 
L 720.518259 271.515283 
L 720.856682 269.991207 
L 721.533527 271.485973 
L 721.871949 273.977251 
L 722.210372 273.420377 
L 722.548794 275.70649 
L 722.887217 274.211724 
L 723.225639 275.00307 
L 723.564062 275.442708 
L 723.902484 276.761619 
L 724.240907 277.347802 
L 724.579329 276.878856 
L 724.917752 277.494348 
L 725.256174 277.640893 
L 725.594597 279.575297 
L 725.933019 279.839079 
L 726.271442 278.637404 
L 726.948286 284.176832 
L 727.625131 285.495743 
L 728.301976 289.804187 
L 728.640399 290.185206 
L 728.978821 291.357572 
L 729.655666 295.050523 
L 729.994089 295.197069 
L 730.332511 296.955618 
L 730.670934 298.040056 
L 731.347779 299.183112 
L 731.686201 300.414096 
L 732.024624 301.176134 
L 732.363046 301.117516 
L 732.701469 302.114027 
L 733.039891 301.733008 
L 733.378313 301.762317 
L 733.716736 302.289881 
L 734.055158 302.553664 
L 734.393581 301.820935 
L 734.732003 302.377809 
L 735.070426 302.3485 
L 735.408848 303.403629 
L 735.747271 301.967481 
L 736.085693 302.963992 
L 736.762538 302.319191 
L 737.100961 302.582973 
L 737.439383 302.524355 
L 738.116228 301.791626 
L 738.454651 302.582973 
L 738.793073 302.172645 
L 739.131496 302.641591 
L 740.146763 302.6709 
L 740.485185 301.99679 
L 740.823608 301.879553 
L 741.16203 301.967481 
L 741.500453 302.231263 
L 741.838875 301.820935 
L 742.177298 301.674389 
L 742.51572 302.407118 
L 742.854143 302.3485 
L 743.192565 301.850244 
L 743.530988 302.3485 
L 743.86941 302.172645 
L 744.207833 301.733008 
L 744.546255 302.993301 
L 744.884678 302.260572 
L 745.2231 302.758828 
L 745.561523 302.524355 
L 745.899945 303.257083 
L 746.238367 302.846755 
L 746.57679 303.257083 
L 746.915212 302.465736 
L 747.253635 303.081228 
L 747.93048 303.403629 
L 748.268902 303.051919 
L 748.607325 303.755338 
L 748.945747 304.165666 
L 749.28417 303.34501 
L 749.622592 303.813957 
L 750.299437 303.960502 
L 750.63786 304.136357 
L 750.976282 304.107048 
L 751.314705 303.608793 
L 751.653127 304.488067 
L 751.99155 303.989812 
L 752.329972 304.37083 
L 753.006817 303.69672 
L 753.683662 303.843266 
L 754.022084 303.755338 
L 754.360507 304.253594 
L 754.698929 304.019121 
L 755.037352 304.194976 
L 755.375774 303.638102 
L 755.714197 303.432938 
L 756.052619 303.784648 
L 756.391042 303.198465 
L 756.729464 304.194976 
L 757.067887 303.726029 
L 757.406309 303.726029 
L 757.744732 303.579484 
L 758.083154 304.341521 
L 758.421577 304.575994 
L 758.759999 303.960502 
L 759.098422 303.872575 
L 759.436844 304.663922 
L 759.775266 304.019121 
L 760.113689 304.40014 
L 760.452111 304.37083 
L 760.790534 304.751849 
L 761.128956 304.165666 
L 761.467379 304.810468 
L 761.805801 304.839777 
L 762.144224 304.194976 
L 762.482646 304.077739 
L 762.821069 304.107048 
L 763.159491 304.575994 
L 763.497914 304.019121 
L 763.836336 304.107048 
L 764.174759 304.634613 
L 764.513181 304.605304 
L 764.851604 305.015632 
L 765.190026 304.810468 
L 765.528449 304.37083 
L 765.866871 304.488067 
L 766.205293 304.810468 
L 766.543716 304.429449 
L 766.882138 304.40014 
L 767.220561 305.308723 
L 767.558983 304.663922 
L 767.897406 304.458758 
L 768.235828 304.546685 
L 768.574251 304.517376 
L 769.251096 305.07425 
L 769.589518 304.663922 
L 769.927941 304.04843 
L 770.943208 305.455269 
L 771.281631 305.367341 
L 771.958476 304.517376 
L 772.296898 304.751849 
L 772.63532 304.341521 
L 773.312165 304.957013 
L 773.650588 304.663922 
L 773.98901 304.898395 
L 774.665855 304.282903 
L 775.004278 304.165666 
L 775.3427 303.755338 
L 775.681123 305.132868 
L 776.019545 304.04843 
L 776.357968 304.810468 
L 776.69639 304.312212 
L 777.034813 304.488067 
L 777.373235 304.810468 
L 777.711658 304.605304 
L 778.05008 304.72254 
L 778.388503 304.37083 
L 779.065347 304.898395 
L 779.40377 304.488067 
L 779.742192 304.546685 
L 780.75746 304.136357 
L 781.095882 304.136357 
L 781.434305 304.517376 
L 782.449572 304.341521 
L 782.787995 304.019121 
L 783.126417 304.751849 
L 783.46484 303.960502 
L 783.803262 304.37083 
L 784.141685 304.194976 
L 784.480107 303.69672 
L 784.81853 304.312212 
L 785.495374 303.872575 
L 785.833797 304.253594 
L 786.172219 304.194976 
L 786.510642 304.37083 
L 786.849064 304.019121 
L 787.187487 304.107048 
L 787.525909 303.843266 
L 787.864332 303.726029 
L 788.202754 303.931193 
L 788.541177 303.638102 
L 789.556444 304.077739 
L 789.894867 303.227774 
L 790.233289 302.876064 
L 790.571712 303.432938 
L 790.910134 303.110537 
L 791.248557 303.257083 
L 791.586979 302.407118 
L 791.925401 302.817446 
L 792.263824 302.553664 
L 792.602246 302.641591 
L 792.940669 302.524355 
L 793.279091 302.084717 
L 793.617514 302.700209 
L 793.955936 301.557153 
L 794.294359 302.172645 
L 794.632781 301.058897 
L 794.971204 302.495045 
L 795.309626 301.205443 
L 795.648049 301.234752 
L 795.986471 301.527844 
L 796.324894 301.264061 
L 796.663316 301.410607 
L 797.001739 301.703699 
L 797.678584 301.879553 
L 798.017006 302.465736 
L 798.355429 301.850244 
L 798.693851 301.615771 
L 799.032273 301.117516 
L 799.370696 302.3485 
L 799.709118 302.641591 
L 800.047541 302.289881 
L 800.385963 303.169156 
L 800.724386 301.938172 
L 801.062808 301.938172 
L 801.401231 302.524355 
L 801.739653 303.520865 
L 802.078076 303.169156 
L 802.416498 304.282903 
L 802.754921 303.638102 
L 803.093343 303.315701 
L 803.770188 304.165666 
L 804.108611 304.224285 
L 805.123878 304.663922 
L 805.4623 304.488067 
L 805.800723 305.07425 
L 806.139145 304.869086 
L 806.477568 305.250105 
L 807.154413 304.810468 
L 807.492835 304.957013 
L 807.831258 305.455269 
L 808.16968 304.898395 
L 808.508103 305.103559 
L 810.200215 305.367341 
L 810.538638 305.660433 
L 810.87706 305.279414 
L 811.215483 305.191486 
L 811.892327 305.631124 
L 812.23075 305.660433 
L 812.569172 305.044941 
L 812.907595 305.631124 
L 813.246017 305.777669 
L 813.58444 305.42596 
L 813.922862 305.484578 
L 814.261285 305.250105 
L 814.599707 305.572505 
L 814.93813 305.689742 
L 815.276552 305.601814 
L 815.614975 305.191486 
L 815.953397 305.07425 
L 816.630242 305.484578 
L 816.968665 305.660433 
L 817.307087 305.484578 
L 817.64551 305.455269 
L 817.983932 306.041452 
L 818.660777 305.572505 
L 818.999199 305.513887 
L 819.676044 305.777669 
L 820.014467 305.103559 
L 820.352889 305.42596 
L 820.691312 305.250105 
L 821.368157 305.689742 
L 821.706579 305.689742 
L 822.045002 305.279414 
L 822.383424 305.777669 
L 822.721847 305.894906 
L 823.060269 305.39665 
L 823.398692 305.39665 
L 823.737114 305.513887 
L 824.075537 305.338032 
L 824.413959 305.865597 
L 824.752381 305.07425 
L 825.090804 305.74836 
L 825.429226 305.07425 
L 825.767649 306.041452 
L 826.106071 305.279414 
L 826.782916 305.367341 
L 827.121339 305.777669 
L 827.459761 305.220796 
L 827.798184 305.308723 
L 828.136606 305.806978 
L 828.475029 305.719051 
L 828.813451 305.455269 
L 829.151874 305.836288 
L 829.490296 305.367341 
L 829.828719 305.279414 
L 830.167141 305.806978 
L 830.505564 305.543196 
L 830.843986 305.103559 
L 831.182409 305.631124 
L 831.520831 305.601814 
L 831.859253 305.308723 
L 832.197676 305.572505 
L 832.536098 305.220796 
L 832.874521 305.806978 
L 833.889788 304.898395 
L 834.228211 305.74836 
L 834.905056 305.338032 
L 835.243478 305.455269 
L 835.581901 305.719051 
L 836.258746 305.74836 
L 836.597168 305.308723 
L 836.935591 305.689742 
L 837.612436 305.513887 
L 837.950858 305.719051 
L 838.627703 305.455269 
L 838.966125 305.777669 
L 839.304548 305.601814 
L 839.64297 304.575994 
L 839.981393 304.693231 
L 840.319815 305.74836 
L 840.658238 305.191486 
L 840.99666 305.191486 
L 841.335083 305.455269 
L 841.673505 305.543196 
L 842.35035 305.484578 
L 842.688773 305.777669 
L 843.70404 305.132868 
L 844.380885 305.07425 
L 844.719307 305.806978 
L 845.05773 305.220796 
L 845.396152 304.869086 
L 845.734575 305.308723 
L 846.072997 304.957013 
L 846.41142 305.250105 
L 846.749842 305.279414 
L 847.088265 304.781158 
L 847.426687 305.015632 
L 848.103532 304.077739 
L 848.441955 303.960502 
L 848.780377 304.282903 
L 849.1188 304.282903 
L 849.457222 303.931193 
L 850.134067 304.077739 
L 850.47249 303.34501 
L 850.810912 303.638102 
L 851.149334 303.110537 
L 851.487757 303.550174 
L 851.826179 302.934682 
L 852.164602 303.432938 
L 852.503024 303.667411 
L 852.841447 304.107048 
L 853.179869 303.608793 
L 853.518292 302.700209 
L 853.856714 303.872575 
L 854.533559 303.520865 
L 854.871982 303.813957 
L 855.887249 303.579484 
L 856.225672 303.227774 
L 856.564094 303.843266 
L 856.902517 303.69672 
L 857.240939 303.02261 
L 857.579361 303.989812 
L 857.917784 303.257083 
L 858.594629 304.136357 
L 858.933051 303.755338 
L 859.271474 304.136357 
L 859.609896 303.989812 
L 859.948319 304.751849 
L 860.625164 303.989812 
L 860.963586 304.019121 
L 861.302009 304.663922 
L 861.640431 304.107048 
L 861.978854 304.634613 
L 862.655699 303.784648 
L 862.994121 304.194976 
L 863.332544 305.07425 
L 863.670966 304.40014 
L 864.009388 304.04843 
L 864.347811 304.136357 
L 864.686233 304.781158 
L 865.363078 304.634613 
L 865.701501 304.224285 
L 866.039923 304.898395 
L 866.378346 304.517376 
L 866.716768 304.546685 
L 867.055191 304.312212 
L 867.732036 304.663922 
L 868.070458 305.191486 
L 868.408881 304.663922 
L 868.747303 304.751849 
L 869.085726 305.07425 
L 869.424148 305.572505 
L 869.762571 304.72254 
L 870.100993 305.367341 
L 870.777838 304.04843 
L 871.11626 305.103559 
L 871.454683 304.04843 
L 871.793105 304.517376 
L 872.131528 305.191486 
L 872.46995 305.162177 
L 872.808373 304.898395 
L 873.146795 305.132868 
L 873.485218 304.751849 
L 873.82364 305.191486 
L 874.162063 305.103559 
L 874.500485 304.751849 
L 874.838908 304.957013 
L 875.17733 304.634613 
L 875.854175 305.220796 
L 876.192598 304.781158 
L 876.53102 305.250105 
L 876.869443 305.279414 
L 877.207865 305.689742 
L 877.546287 305.543196 
L 877.88471 305.572505 
L 878.223132 304.869086 
L 878.561555 305.455269 
L 878.899977 305.191486 
L 879.2384 305.689742 
L 879.576822 305.689742 
L 879.915245 305.484578 
L 880.253667 305.719051 
L 880.59209 305.513887 
L 880.930512 305.777669 
L 881.268935 305.308723 
L 881.607357 305.513887 
L 881.94578 305.513887 
L 882.284202 305.74836 
L 882.622625 305.572505 
L 882.961047 306.070761 
L 883.29947 305.74836 
L 883.637892 305.74836 
L 883.976314 306.129379 
L 884.314737 306.070761 
L 884.653159 306.246615 
L 885.330004 305.982833 
L 885.668427 306.393161 
L 886.006849 305.74836 
L 886.345272 306.10007 
L 886.683694 305.982833 
L 887.022117 306.187997 
L 887.360539 306.012142 
L 888.037384 306.598325 
L 888.375807 306.334543 
L 888.714229 306.569016 
L 889.052652 306.275925 
L 889.729497 306.627634 
L 890.406341 306.539707 
L 890.744764 306.77418 
L 891.083186 306.217306 
L 891.421609 306.158688 
L 891.760031 306.715562 
L 892.775299 306.305234 
L 893.113721 306.627634 
L 893.452144 305.924215 
L 893.790566 306.305234 
L 894.467411 305.924215 
L 894.805834 305.982833 
L 895.144256 306.275925 
L 895.482679 305.777669 
L 895.821101 306.012142 
L 896.159524 305.631124 
L 896.497946 305.74836 
L 896.836368 305.367341 
L 897.174791 305.455269 
L 897.513213 304.927704 
L 897.851636 304.927704 
L 898.190058 304.458758 
L 898.528481 304.605304 
L 898.866903 303.813957 
L 899.205326 303.989812 
L 899.543748 303.286392 
L 899.882171 304.224285 
L 900.559016 302.495045 
L 900.897438 302.407118 
L 901.574283 301.820935 
L 901.912706 302.436427 
L 902.251128 301.029588 
L 902.589551 300.472715 
L 902.927973 301.381298 
L 903.604818 300.121005 
L 903.94324 300.121005 
L 904.281663 299.769295 
L 904.620085 298.24522 
L 904.958508 299.183112 
L 905.29693 299.710677 
L 905.635353 298.421075 
L 905.973775 299.94515 
L 906.312198 299.769295 
L 906.65062 299.183112 
L 906.989043 300.384787 
L 907.665888 299.798604 
L 908.342733 300.003768 
L 908.681155 299.710677 
L 909.019578 301.264061 
L 909.358 300.765806 
L 909.696423 301.557153 
L 910.034845 301.000279 
L 910.373267 301.351989 
L 911.050112 303.198465 
L 911.388535 302.143336 
L 911.726957 302.846755 
L 912.06538 302.6709 
L 912.742225 303.872575 
L 913.080647 303.403629 
L 913.41907 304.341521 
L 913.757492 304.634613 
L 914.434337 304.488067 
L 914.77276 304.898395 
L 915.449605 305.220796 
L 915.788027 305.044941 
L 916.12645 305.455269 
L 916.464872 305.572505 
L 916.803294 306.012142 
L 917.141717 306.070761 
L 917.480139 306.481089 
L 918.156984 305.894906 
L 918.495407 306.598325 
L 918.833829 306.803489 
L 919.172252 306.803489 
L 919.510674 306.627634 
L 920.187519 306.715562 
L 920.525942 306.598325 
L 920.864364 307.008653 
L 921.202787 306.803489 
L 921.541209 307.067271 
L 922.218054 307.037962 
L 923.233321 306.979344 
L 923.571744 307.243126 
L 923.910166 307.360363 
L 924.248589 307.213817 
L 924.587011 306.715562 
L 924.925434 307.301745 
L 925.263856 307.360363 
L 925.940701 307.12589 
L 926.279124 306.920726 
L 926.617546 307.213817 
L 926.955969 307.301745 
L 927.632814 307.184508 
L 928.309659 307.360363 
L 928.986504 307.301745 
L 929.324926 307.477599 
L 929.663348 307.12589 
L 930.340193 307.44829 
L 930.678616 307.418981 
L 931.017038 307.037962 
L 931.355461 307.389672 
L 931.693883 307.44829 
L 932.032306 307.331054 
L 932.370728 307.506909 
L 932.709151 307.331054 
L 933.047573 307.389672 
L 934.062841 307.272435 
L 934.401263 307.565527 
L 935.416531 307.272435 
L 936.431798 307.360363 
L 936.77022 307.184508 
L 937.785488 307.506909 
L 938.12391 307.331054 
L 938.462333 307.477599 
L 938.800755 307.184508 
L 939.139178 307.360363 
L 939.4776 307.243126 
L 939.816023 307.418981 
L 940.492868 307.213817 
L 940.83129 307.594836 
L 941.508135 307.360363 
L 942.18498 307.536218 
L 942.523403 307.44829 
L 943.200247 307.565527 
L 943.53867 307.331054 
L 943.877092 307.565527 
L 944.215515 307.624145 
L 945.230782 307.506909 
L 945.569205 307.506909 
L 945.907627 307.741382 
L 946.24605 307.506909 
L 946.584472 307.682763 
L 946.922895 307.477599 
L 947.261317 307.536218 
L 947.59974 307.8 
L 948.276585 307.477599 
L 948.615007 307.682763 
L 948.95343 307.506909 
L 949.291852 307.682763 
L 949.630274 307.712073 
L 949.968697 307.594836 
L 950.307119 307.624145 
L 950.645542 307.8 
L 950.983964 307.594836 
L 951.660809 307.624145 
L 951.999232 307.565527 
L 952.337654 307.389672 
L 952.676077 307.506909 
L 953.014499 307.770691 
L 953.352922 307.506909 
L 953.691344 307.741382 
L 954.368189 307.712073 
L 954.706612 307.770691 
L 954.706612 307.770691 
" clip-path="url(#p8838457fd0)" style="fill: none; stroke: #1f77b4; stroke-width: 1.5; stroke-linecap: square"/>
   </g>
   <g id="line2d_56">
    <g clip-path="url(#p8838457fd0)">
     <use xlink:href="#me6ef051dfd" x="611.884645" y="241.678576" style="fill: #ff7f0e; stroke: #ff7f0e"/>
     <use xlink:href="#me6ef051dfd" x="619.32994" y="84.786741" style="fill: #ff7f0e; stroke: #ff7f0e"/>
     <use xlink:href="#me6ef051dfd" x="621.360475" y="55.8" style="fill: #ff7f0e; stroke: #ff7f0e"/>
     <use xlink:href="#me6ef051dfd" x="625.759967" y="198.53552" style="fill: #ff7f0e; stroke: #ff7f0e"/>
     <use xlink:href="#me6ef051dfd" x="639.296866" y="61.046336" style="fill: #ff7f0e; stroke: #ff7f0e"/>
     <use xlink:href="#me6ef051dfd" x="647.080583" y="244.433636" style="fill: #ff7f0e; stroke: #ff7f0e"/>
     <use xlink:href="#me6ef051dfd" x="650.464807" y="226.701605" style="fill: #ff7f0e; stroke: #ff7f0e"/>
     <use xlink:href="#me6ef051dfd" x="651.141652" y="224.15171" style="fill: #ff7f0e; stroke: #ff7f0e"/>
     <use xlink:href="#me6ef051dfd" x="660.617482" y="274.065178" style="fill: #ff7f0e; stroke: #ff7f0e"/>
     <use xlink:href="#me6ef051dfd" x="667.047509" y="271.368737" style="fill: #ff7f0e; stroke: #ff7f0e"/>
     <use xlink:href="#me6ef051dfd" x="672.800691" y="265.946546" style="fill: #ff7f0e; stroke: #ff7f0e"/>
     <use xlink:href="#me6ef051dfd" x="676.86176" y="269.287788" style="fill: #ff7f0e; stroke: #ff7f0e"/>
     <use xlink:href="#me6ef051dfd" x="680.92283" y="235.816748" style="fill: #ff7f0e; stroke: #ff7f0e"/>
     <use xlink:href="#me6ef051dfd" x="698.182376" y="282.799302" style="fill: #ff7f0e; stroke: #ff7f0e"/>
     <use xlink:href="#me6ef051dfd" x="719.502992" y="268.701605" style="fill: #ff7f0e; stroke: #ff7f0e"/>
     <use xlink:href="#me6ef051dfd" x="794.632781" y="301.058897" style="fill: #ff7f0e; stroke: #ff7f0e"/>
     <use xlink:href="#me6ef051dfd" x="853.518292" y="302.700209" style="fill: #ff7f0e; stroke: #ff7f0e"/>
     <use xlink:href="#me6ef051dfd" x="904.620085" y="298.24522" style="fill: #ff7f0e; stroke: #ff7f0e"/>
    </g>
   </g>
   <g id="patch_9">
    <path d="M 591.545455 320.4 
L 591.545455 43.2 
" style="fill: none; stroke: #000000; stroke-width: 0.8; stroke-linejoin: miter; stroke-linecap: square"/>
   </g>
   <g id="patch_10">
    <path d="M 972 320.4 
L 972 43.2 
" style="fill: none; stroke: #000000; stroke-width: 0.8; stroke-linejoin: miter; stroke-linecap: square"/>
   </g>
   <g id="patch_11">
    <path d="M 591.545455 320.4 
L 972 320.4 
" style="fill: none; stroke: #000000; stroke-width: 0.8; stroke-linejoin: miter; stroke-linecap: square"/>
   </g>
   <g id="patch_12">
    <path d="M 591.545455 43.2 
L 972 43.2 
" style="fill: none; stroke: #000000; stroke-width: 0.8; stroke-linejoin: miter; stroke-linecap: square"/>
   </g>
   <g id="legend_2">
    <g id="patch_13">
     <path d="M 891.46875 80.55625 
L 965 80.55625 
Q 967 80.55625 967 78.55625 
L 967 50.2 
Q 967 48.2 965 48.2 
L 891.46875 48.2 
Q 889.46875 48.2 889.46875 50.2 
L 889.46875 78.55625 
Q 889.46875 80.55625 891.46875 80.55625 
z
" style="fill: #ffffff; opacity: 0.8; stroke: #cccccc; stroke-linejoin: miter"/>
    </g>
    <g id="line2d_57">
     <path d="M 893.46875 56.298437 
L 903.46875 56.298437 
L 913.46875 56.298437 
" style="fill: none; stroke: #1f77b4; stroke-width: 1.5; stroke-linecap: square"/>
    </g>
    <g id="text_32">
     <!-- Thorium -->
     <g transform="translate(921.46875 59.798437) scale(0.1 -0.1)">
      <defs>
       <path id="DejaVuSans-54" d="M -19 4666 
L 3928 4666 
L 3928 4134 
L 2272 4134 
L 2272 0 
L 1638 0 
L 1638 4134 
L -19 4134 
L -19 4666 
z
" transform="scale(0.015625)"/>
       <path id="DejaVuSans-68" d="M 3513 2113 
L 3513 0 
L 2938 0 
L 2938 2094 
Q 2938 2591 2744 2837 
Q 2550 3084 2163 3084 
Q 1697 3084 1428 2787 
Q 1159 2491 1159 1978 
L 1159 0 
L 581 0 
L 581 4863 
L 1159 4863 
L 1159 2956 
Q 1366 3272 1645 3428 
Q 1925 3584 2291 3584 
Q 2894 3584 3203 3211 
Q 3513 2838 3513 2113 
z
" transform="scale(0.015625)"/>
       <path id="DejaVuSans-6f" d="M 1959 3097 
Q 1497 3097 1228 2736 
Q 959 2375 959 1747 
Q 959 1119 1226 758 
Q 1494 397 1959 397 
Q 2419 397 2687 759 
Q 2956 1122 2956 1747 
Q 2956 2369 2687 2733 
Q 2419 3097 1959 3097 
z
M 1959 3584 
Q 2709 3584 3137 3096 
Q 3566 2609 3566 1747 
Q 3566 888 3137 398 
Q 2709 -91 1959 -91 
Q 1206 -91 779 398 
Q 353 888 353 1747 
Q 353 2609 779 3096 
Q 1206 3584 1959 3584 
z
" transform="scale(0.015625)"/>
      </defs>
      <use xlink:href="#DejaVuSans-54"/>
      <use xlink:href="#DejaVuSans-68" transform="translate(61.083984 0)"/>
      <use xlink:href="#DejaVuSans-6f" transform="translate(124.462891 0)"/>
      <use xlink:href="#DejaVuSans-72" transform="translate(185.644531 0)"/>
      <use xlink:href="#DejaVuSans-69" transform="translate(226.757812 0)"/>
      <use xlink:href="#DejaVuSans-75" transform="translate(254.541016 0)"/>
      <use xlink:href="#DejaVuSans-6d" transform="translate(317.919922 0)"/>
     </g>
    </g>
    <g id="line2d_58">
     <g>
      <use xlink:href="#me6ef051dfd" x="903.46875" y="70.976562" style="fill: #ff7f0e; stroke: #ff7f0e"/>
     </g>
    </g>
    <g id="text_33">
     <!-- Peaks -->
     <g transform="translate(921.46875 74.476562) scale(0.1 -0.1)">
      <use xlink:href="#DejaVuSans-50"/>
      <use xlink:href="#DejaVuSans-65" transform="translate(56.677734 0)"/>
      <use xlink:href="#DejaVuSans-61" transform="translate(118.201172 0)"/>
      <use xlink:href="#DejaVuSans-6b" transform="translate(179.480469 0)"/>
      <use xlink:href="#DejaVuSans-73" transform="translate(237.390625 0)"/>
     </g>
    </g>
   </g>
  </g>
 </g>
 <defs>
  <clipPath id="p963293cdbb">
   <rect x="135" y="43.2" width="380.454545" height="277.2"/>
  </clipPath>
  <clipPath id="p8838457fd0">
   <rect x="591.545455" y="43.2" width="380.454545" height="277.2"/>
  </clipPath>
 </defs>
</svg>
