<?xml version="1.0" encoding="utf-8" standalone="no"?>
<!DOCTYPE svg PUBLIC "-//W3C//DTD SVG 1.1//EN"
  "http://www.w3.org/Graphics/SVG/1.1/DTD/svg11.dtd">
<svg xmlns:xlink="http://www.w3.org/1999/xlink" width="460.8pt" height="345.6pt" viewBox="0 0 460.8 345.6" xmlns="http://www.w3.org/2000/svg" version="1.1">
 <metadata>
  <rdf:RDF xmlns:dc="http://purl.org/dc/elements/1.1/" xmlns:cc="http://creativecommons.org/ns#" xmlns:rdf="http://www.w3.org/1999/02/22-rdf-syntax-ns#">
   <cc:Work>
    <dc:type rdf:resource="http://purl.org/dc/dcmitype/StillImage"/>
    <dc:date>2025-03-14T12:17:49.371138</dc:date>
    <dc:format>image/svg+xml</dc:format>
    <dc:creator>
     <cc:Agent>
      <dc:title>Matplotlib v3.10.0, https://matplotlib.org/</dc:title>
     </cc:Agent>
    </dc:creator>
   </cc:Work>
  </rdf:RDF>
 </metadata>
 <defs>
  <style type="text/css">*{stroke-linejoin: round; stroke-linecap: butt}</style>
 </defs>
 <g id="figure_1">
  <g id="patch_1">
   <path d="M 0 345.6 
L 460.8 345.6 
L 460.8 0 
L 0 0 
z
" style="fill: #ffffff"/>
  </g>
  <g id="axes_1">
   <g id="patch_2">
    <path d="M 57.6 307.584 
L 414.72 307.584 
L 414.72 41.472 
L 57.6 41.472 
z
" style="fill: #ffffff"/>
   </g>
   <g id="matplotlib.axis_1">
    <g id="xtick_1">
     <g id="line2d_1">
      <path d="M 73.669136 307.584 
L 73.669136 41.472 
" clip-path="url(#p8f9b137204)" style="fill: none; stroke: #b0b0b0; stroke-width: 0.8; stroke-linecap: square"/>
     </g>
     <g id="line2d_2">
      <defs>
       <path id="mbc9cfe6f29" d="M 0 0 
L 0 3.5 
" style="stroke: #000000; stroke-width: 0.8"/>
      </defs>
      <g>
       <use xlink:href="#mbc9cfe6f29" x="73.669136" y="307.584" style="stroke: #000000; stroke-width: 0.8"/>
      </g>
     </g>
     <g id="text_1">
      <!-- −4 -->
      <g transform="translate(66.298042 322.182437) scale(0.1 -0.1)">
       <defs>
        <path id="DejaVuSans-2212" d="M 678 2272 
L 4684 2272 
L 4684 1741 
L 678 1741 
L 678 2272 
z
" transform="scale(0.015625)"/>
        <path id="DejaVuSans-34" d="M 2419 4116 
L 825 1625 
L 2419 1625 
L 2419 4116 
z
M 2253 4666 
L 3047 4666 
L 3047 1625 
L 3713 1625 
L 3713 1100 
L 3047 1100 
L 3047 0 
L 2419 0 
L 2419 1100 
L 313 1100 
L 313 1709 
L 2253 4666 
z
" transform="scale(0.015625)"/>
       </defs>
       <use xlink:href="#DejaVuSans-2212"/>
       <use xlink:href="#DejaVuSans-34" transform="translate(83.789062 0)"/>
      </g>
     </g>
    </g>
    <g id="xtick_2">
     <g id="line2d_3">
      <path d="M 145.612657 307.584 
L 145.612657 41.472 
" clip-path="url(#p8f9b137204)" style="fill: none; stroke: #b0b0b0; stroke-width: 0.8; stroke-linecap: square"/>
     </g>
     <g id="line2d_4">
      <g>
       <use xlink:href="#mbc9cfe6f29" x="145.612657" y="307.584" style="stroke: #000000; stroke-width: 0.8"/>
      </g>
     </g>
     <g id="text_2">
      <!-- −2 -->
      <g transform="translate(138.241563 322.182437) scale(0.1 -0.1)">
       <defs>
        <path id="DejaVuSans-32" d="M 1228 531 
L 3431 531 
L 3431 0 
L 469 0 
L 469 531 
Q 828 903 1448 1529 
Q 2069 2156 2228 2338 
Q 2531 2678 2651 2914 
Q 2772 3150 2772 3378 
Q 2772 3750 2511 3984 
Q 2250 4219 1831 4219 
Q 1534 4219 1204 4116 
Q 875 4013 500 3803 
L 500 4441 
Q 881 4594 1212 4672 
Q 1544 4750 1819 4750 
Q 2544 4750 2975 4387 
Q 3406 4025 3406 3419 
Q 3406 3131 3298 2873 
Q 3191 2616 2906 2266 
Q 2828 2175 2409 1742 
Q 1991 1309 1228 531 
z
" transform="scale(0.015625)"/>
       </defs>
       <use xlink:href="#DejaVuSans-2212"/>
       <use xlink:href="#DejaVuSans-32" transform="translate(83.789062 0)"/>
      </g>
     </g>
    </g>
    <g id="xtick_3">
     <g id="line2d_5">
      <path d="M 217.556179 307.584 
L 217.556179 41.472 
" clip-path="url(#p8f9b137204)" style="fill: none; stroke: #b0b0b0; stroke-width: 0.8; stroke-linecap: square"/>
     </g>
     <g id="line2d_6">
      <g>
       <use xlink:href="#mbc9cfe6f29" x="217.556179" y="307.584" style="stroke: #000000; stroke-width: 0.8"/>
      </g>
     </g>
     <g id="text_3">
      <!-- 0 -->
      <g transform="translate(214.374929 322.182437) scale(0.1 -0.1)">
       <defs>
        <path id="DejaVuSans-30" d="M 2034 4250 
Q 1547 4250 1301 3770 
Q 1056 3291 1056 2328 
Q 1056 1369 1301 889 
Q 1547 409 2034 409 
Q 2525 409 2770 889 
Q 3016 1369 3016 2328 
Q 3016 3291 2770 3770 
Q 2525 4250 2034 4250 
z
M 2034 4750 
Q 2819 4750 3233 4129 
Q 3647 3509 3647 2328 
Q 3647 1150 3233 529 
Q 2819 -91 2034 -91 
Q 1250 -91 836 529 
Q 422 1150 422 2328 
Q 422 3509 836 4129 
Q 1250 4750 2034 4750 
z
" transform="scale(0.015625)"/>
       </defs>
       <use xlink:href="#DejaVuSans-30"/>
      </g>
     </g>
    </g>
    <g id="xtick_4">
     <g id="line2d_7">
      <path d="M 289.4997 307.584 
L 289.4997 41.472 
" clip-path="url(#p8f9b137204)" style="fill: none; stroke: #b0b0b0; stroke-width: 0.8; stroke-linecap: square"/>
     </g>
     <g id="line2d_8">
      <g>
       <use xlink:href="#mbc9cfe6f29" x="289.4997" y="307.584" style="stroke: #000000; stroke-width: 0.8"/>
      </g>
     </g>
     <g id="text_4">
      <!-- 2 -->
      <g transform="translate(286.31845 322.182437) scale(0.1 -0.1)">
       <use xlink:href="#DejaVuSans-32"/>
      </g>
     </g>
    </g>
    <g id="xtick_5">
     <g id="line2d_9">
      <path d="M 361.443222 307.584 
L 361.443222 41.472 
" clip-path="url(#p8f9b137204)" style="fill: none; stroke: #b0b0b0; stroke-width: 0.8; stroke-linecap: square"/>
     </g>
     <g id="line2d_10">
      <g>
       <use xlink:href="#mbc9cfe6f29" x="361.443222" y="307.584" style="stroke: #000000; stroke-width: 0.8"/>
      </g>
     </g>
     <g id="text_5">
      <!-- 4 -->
      <g transform="translate(358.261972 322.182437) scale(0.1 -0.1)">
       <use xlink:href="#DejaVuSans-34"/>
      </g>
     </g>
    </g>
    <g id="text_6">
     <!-- $\alpha$ [°] -->
     <g transform="translate(224.86 335.860562) scale(0.1 -0.1)">
      <defs>
       <path id="DejaVuSans-Oblique-3b1" d="M 2619 1628 
L 2622 2350 
Q 2625 3088 2069 3091 
Q 1653 3094 1394 2747 
Q 1069 2319 959 1747 
Q 825 1059 994 731 
Q 1169 397 1547 397 
Q 1966 397 2319 1063 
L 2619 1628 
z
M 2166 3578 
Q 3141 3594 3128 2584 
Q 3128 2584 3616 3500 
L 4128 3500 
L 3119 1603 
L 3109 919 
Q 3109 766 3194 638 
Q 3291 488 3391 488 
L 3669 488 
L 3575 0 
L 3228 0 
Q 2934 0 2722 263 
Q 2622 394 2619 669 
Q 2416 334 2066 50 
Q 1900 -81 1453 -78 
Q 722 -72 456 397 
Q 184 884 353 1747 
Q 534 2675 1009 3097 
Q 1544 3569 2166 3578 
z
" transform="scale(0.015625)"/>
       <path id="DejaVuSans-20" transform="scale(0.015625)"/>
       <path id="DejaVuSans-5b" d="M 550 4863 
L 1875 4863 
L 1875 4416 
L 1125 4416 
L 1125 -397 
L 1875 -397 
L 1875 -844 
L 550 -844 
L 550 4863 
z
" transform="scale(0.015625)"/>
       <path id="DejaVuSans-b0" d="M 1600 4347 
Q 1350 4347 1178 4173 
Q 1006 4000 1006 3750 
Q 1006 3503 1178 3333 
Q 1350 3163 1600 3163 
Q 1850 3163 2022 3333 
Q 2194 3503 2194 3750 
Q 2194 3997 2020 4172 
Q 1847 4347 1600 4347 
z
M 1600 4750 
Q 1800 4750 1984 4673 
Q 2169 4597 2303 4453 
Q 2447 4313 2519 4134 
Q 2591 3956 2591 3750 
Q 2591 3338 2302 3052 
Q 2013 2766 1594 2766 
Q 1172 2766 890 3047 
Q 609 3328 609 3750 
Q 609 4169 896 4459 
Q 1184 4750 1600 4750 
z
" transform="scale(0.015625)"/>
       <path id="DejaVuSans-5d" d="M 1947 4863 
L 1947 -844 
L 622 -844 
L 622 -397 
L 1369 -397 
L 1369 4416 
L 622 4416 
L 622 4863 
L 1947 4863 
z
" transform="scale(0.015625)"/>
      </defs>
      <use xlink:href="#DejaVuSans-Oblique-3b1" transform="translate(0 0.015625)"/>
      <use xlink:href="#DejaVuSans-20" transform="translate(65.917969 0.015625)"/>
      <use xlink:href="#DejaVuSans-5b" transform="translate(97.705078 0.015625)"/>
      <use xlink:href="#DejaVuSans-b0" transform="translate(136.71875 0.015625)"/>
      <use xlink:href="#DejaVuSans-5d" transform="translate(186.71875 0.015625)"/>
     </g>
    </g>
   </g>
   <g id="matplotlib.axis_2">
    <g id="ytick_1">
     <g id="line2d_11">
      <path d="M 57.6 278.208 
L 414.72 278.208 
" clip-path="url(#p8f9b137204)" style="fill: none; stroke: #b0b0b0; stroke-width: 0.8; stroke-linecap: square"/>
     </g>
     <g id="line2d_12">
      <defs>
       <path id="m497d56a8f6" d="M 0 0 
L -3.5 0 
" style="stroke: #000000; stroke-width: 0.8"/>
      </defs>
      <g>
       <use xlink:href="#m497d56a8f6" x="57.6" y="278.208" style="stroke: #000000; stroke-width: 0.8"/>
      </g>
     </g>
     <g id="text_7">
      <!-- 0.0 -->
      <g transform="translate(34.696875 282.007219) scale(0.1 -0.1)">
       <defs>
        <path id="DejaVuSans-2e" d="M 684 794 
L 1344 794 
L 1344 0 
L 684 0 
L 684 794 
z
" transform="scale(0.015625)"/>
       </defs>
       <use xlink:href="#DejaVuSans-30"/>
       <use xlink:href="#DejaVuSans-2e" transform="translate(63.623047 0)"/>
       <use xlink:href="#DejaVuSans-30" transform="translate(95.410156 0)"/>
      </g>
     </g>
    </g>
    <g id="ytick_2">
     <g id="line2d_13">
      <path d="M 57.6 245.726797 
L 414.72 245.726797 
" clip-path="url(#p8f9b137204)" style="fill: none; stroke: #b0b0b0; stroke-width: 0.8; stroke-linecap: square"/>
     </g>
     <g id="line2d_14">
      <g>
       <use xlink:href="#m497d56a8f6" x="57.6" y="245.726797" style="stroke: #000000; stroke-width: 0.8"/>
      </g>
     </g>
     <g id="text_8">
      <!-- 0.2 -->
      <g transform="translate(34.696875 249.526016) scale(0.1 -0.1)">
       <use xlink:href="#DejaVuSans-30"/>
       <use xlink:href="#DejaVuSans-2e" transform="translate(63.623047 0)"/>
       <use xlink:href="#DejaVuSans-32" transform="translate(95.410156 0)"/>
      </g>
     </g>
    </g>
    <g id="ytick_3">
     <g id="line2d_15">
      <path d="M 57.6 213.245594 
L 414.72 213.245594 
" clip-path="url(#p8f9b137204)" style="fill: none; stroke: #b0b0b0; stroke-width: 0.8; stroke-linecap: square"/>
     </g>
     <g id="line2d_16">
      <g>
       <use xlink:href="#m497d56a8f6" x="57.6" y="213.245594" style="stroke: #000000; stroke-width: 0.8"/>
      </g>
     </g>
     <g id="text_9">
      <!-- 0.4 -->
      <g transform="translate(34.696875 217.044813) scale(0.1 -0.1)">
       <use xlink:href="#DejaVuSans-30"/>
       <use xlink:href="#DejaVuSans-2e" transform="translate(63.623047 0)"/>
       <use xlink:href="#DejaVuSans-34" transform="translate(95.410156 0)"/>
      </g>
     </g>
    </g>
    <g id="ytick_4">
     <g id="line2d_17">
      <path d="M 57.6 180.764391 
L 414.72 180.764391 
" clip-path="url(#p8f9b137204)" style="fill: none; stroke: #b0b0b0; stroke-width: 0.8; stroke-linecap: square"/>
     </g>
     <g id="line2d_18">
      <g>
       <use xlink:href="#m497d56a8f6" x="57.6" y="180.764391" style="stroke: #000000; stroke-width: 0.8"/>
      </g>
     </g>
     <g id="text_10">
      <!-- 0.6 -->
      <g transform="translate(34.696875 184.56361) scale(0.1 -0.1)">
       <defs>
        <path id="DejaVuSans-36" d="M 2113 2584 
Q 1688 2584 1439 2293 
Q 1191 2003 1191 1497 
Q 1191 994 1439 701 
Q 1688 409 2113 409 
Q 2538 409 2786 701 
Q 3034 994 3034 1497 
Q 3034 2003 2786 2293 
Q 2538 2584 2113 2584 
z
M 3366 4563 
L 3366 3988 
Q 3128 4100 2886 4159 
Q 2644 4219 2406 4219 
Q 1781 4219 1451 3797 
Q 1122 3375 1075 2522 
Q 1259 2794 1537 2939 
Q 1816 3084 2150 3084 
Q 2853 3084 3261 2657 
Q 3669 2231 3669 1497 
Q 3669 778 3244 343 
Q 2819 -91 2113 -91 
Q 1303 -91 875 529 
Q 447 1150 447 2328 
Q 447 3434 972 4092 
Q 1497 4750 2381 4750 
Q 2619 4750 2861 4703 
Q 3103 4656 3366 4563 
z
" transform="scale(0.015625)"/>
       </defs>
       <use xlink:href="#DejaVuSans-30"/>
       <use xlink:href="#DejaVuSans-2e" transform="translate(63.623047 0)"/>
       <use xlink:href="#DejaVuSans-36" transform="translate(95.410156 0)"/>
      </g>
     </g>
    </g>
    <g id="ytick_5">
     <g id="line2d_19">
      <path d="M 57.6 148.283188 
L 414.72 148.283188 
" clip-path="url(#p8f9b137204)" style="fill: none; stroke: #b0b0b0; stroke-width: 0.8; stroke-linecap: square"/>
     </g>
     <g id="line2d_20">
      <g>
       <use xlink:href="#m497d56a8f6" x="57.6" y="148.283188" style="stroke: #000000; stroke-width: 0.8"/>
      </g>
     </g>
     <g id="text_11">
      <!-- 0.8 -->
      <g transform="translate(34.696875 152.082407) scale(0.1 -0.1)">
       <defs>
        <path id="DejaVuSans-38" d="M 2034 2216 
Q 1584 2216 1326 1975 
Q 1069 1734 1069 1313 
Q 1069 891 1326 650 
Q 1584 409 2034 409 
Q 2484 409 2743 651 
Q 3003 894 3003 1313 
Q 3003 1734 2745 1975 
Q 2488 2216 2034 2216 
z
M 1403 2484 
Q 997 2584 770 2862 
Q 544 3141 544 3541 
Q 544 4100 942 4425 
Q 1341 4750 2034 4750 
Q 2731 4750 3128 4425 
Q 3525 4100 3525 3541 
Q 3525 3141 3298 2862 
Q 3072 2584 2669 2484 
Q 3125 2378 3379 2068 
Q 3634 1759 3634 1313 
Q 3634 634 3220 271 
Q 2806 -91 2034 -91 
Q 1263 -91 848 271 
Q 434 634 434 1313 
Q 434 1759 690 2068 
Q 947 2378 1403 2484 
z
M 1172 3481 
Q 1172 3119 1398 2916 
Q 1625 2713 2034 2713 
Q 2441 2713 2670 2916 
Q 2900 3119 2900 3481 
Q 2900 3844 2670 4047 
Q 2441 4250 2034 4250 
Q 1625 4250 1398 4047 
Q 1172 3844 1172 3481 
z
" transform="scale(0.015625)"/>
       </defs>
       <use xlink:href="#DejaVuSans-30"/>
       <use xlink:href="#DejaVuSans-2e" transform="translate(63.623047 0)"/>
       <use xlink:href="#DejaVuSans-38" transform="translate(95.410156 0)"/>
      </g>
     </g>
    </g>
    <g id="ytick_6">
     <g id="line2d_21">
      <path d="M 57.6 115.801985 
L 414.72 115.801985 
" clip-path="url(#p8f9b137204)" style="fill: none; stroke: #b0b0b0; stroke-width: 0.8; stroke-linecap: square"/>
     </g>
     <g id="line2d_22">
      <g>
       <use xlink:href="#m497d56a8f6" x="57.6" y="115.801985" style="stroke: #000000; stroke-width: 0.8"/>
      </g>
     </g>
     <g id="text_12">
      <!-- 1.0 -->
      <g transform="translate(34.696875 119.601204) scale(0.1 -0.1)">
       <defs>
        <path id="DejaVuSans-31" d="M 794 531 
L 1825 531 
L 1825 4091 
L 703 3866 
L 703 4441 
L 1819 4666 
L 2450 4666 
L 2450 531 
L 3481 531 
L 3481 0 
L 794 0 
L 794 531 
z
" transform="scale(0.015625)"/>
       </defs>
       <use xlink:href="#DejaVuSans-31"/>
       <use xlink:href="#DejaVuSans-2e" transform="translate(63.623047 0)"/>
       <use xlink:href="#DejaVuSans-30" transform="translate(95.410156 0)"/>
      </g>
     </g>
    </g>
    <g id="ytick_7">
     <g id="line2d_23">
      <path d="M 57.6 83.320782 
L 414.72 83.320782 
" clip-path="url(#p8f9b137204)" style="fill: none; stroke: #b0b0b0; stroke-width: 0.8; stroke-linecap: square"/>
     </g>
     <g id="line2d_24">
      <g>
       <use xlink:href="#m497d56a8f6" x="57.6" y="83.320782" style="stroke: #000000; stroke-width: 0.8"/>
      </g>
     </g>
     <g id="text_13">
      <!-- 1.2 -->
      <g transform="translate(34.696875 87.120001) scale(0.1 -0.1)">
       <use xlink:href="#DejaVuSans-31"/>
       <use xlink:href="#DejaVuSans-2e" transform="translate(63.623047 0)"/>
       <use xlink:href="#DejaVuSans-32" transform="translate(95.410156 0)"/>
      </g>
     </g>
    </g>
    <g id="ytick_8">
     <g id="line2d_25">
      <path d="M 57.6 50.839579 
L 414.72 50.839579 
" clip-path="url(#p8f9b137204)" style="fill: none; stroke: #b0b0b0; stroke-width: 0.8; stroke-linecap: square"/>
     </g>
     <g id="line2d_26">
      <g>
       <use xlink:href="#m497d56a8f6" x="57.6" y="50.839579" style="stroke: #000000; stroke-width: 0.8"/>
      </g>
     </g>
     <g id="text_14">
      <!-- 1.4 -->
      <g transform="translate(34.696875 54.638798) scale(0.1 -0.1)">
       <use xlink:href="#DejaVuSans-31"/>
       <use xlink:href="#DejaVuSans-2e" transform="translate(63.623047 0)"/>
       <use xlink:href="#DejaVuSans-34" transform="translate(95.410156 0)"/>
      </g>
     </g>
    </g>
    <g id="text_15">
     <!-- $\Delta s$ [m] -->
     <g transform="translate(28.617187 190.928) rotate(-90) scale(0.1 -0.1)">
      <defs>
       <path id="DejaVuSans-394" d="M 2188 4044 
L 906 525 
L 3472 525 
L 2188 4044 
z
M 50 0 
L 1831 4666 
L 2547 4666 
L 4325 0 
L 50 0 
z
" transform="scale(0.015625)"/>
       <path id="DejaVuSans-Oblique-73" d="M 3200 3397 
L 3091 2853 
Q 2863 2978 2609 3040 
Q 2356 3103 2088 3103 
Q 1634 3103 1373 2948 
Q 1113 2794 1113 2528 
Q 1113 2219 1719 2053 
Q 1766 2041 1788 2034 
L 1972 1978 
Q 2547 1819 2739 1644 
Q 2931 1469 2931 1166 
Q 2931 609 2489 259 
Q 2047 -91 1331 -91 
Q 1053 -91 747 -37 
Q 441 16 72 128 
L 184 722 
Q 500 559 806 475 
Q 1113 391 1394 391 
Q 1816 391 2080 572 
Q 2344 753 2344 1031 
Q 2344 1331 1650 1516 
L 1591 1531 
L 1394 1581 
Q 956 1697 753 1886 
Q 550 2075 550 2369 
Q 550 2928 970 3256 
Q 1391 3584 2113 3584 
Q 2397 3584 2667 3537 
Q 2938 3491 3200 3397 
z
" transform="scale(0.015625)"/>
       <path id="DejaVuSans-6d" d="M 3328 2828 
Q 3544 3216 3844 3400 
Q 4144 3584 4550 3584 
Q 5097 3584 5394 3201 
Q 5691 2819 5691 2113 
L 5691 0 
L 5113 0 
L 5113 2094 
Q 5113 2597 4934 2840 
Q 4756 3084 4391 3084 
Q 3944 3084 3684 2787 
Q 3425 2491 3425 1978 
L 3425 0 
L 2847 0 
L 2847 2094 
Q 2847 2600 2669 2842 
Q 2491 3084 2119 3084 
Q 1678 3084 1418 2786 
Q 1159 2488 1159 1978 
L 1159 0 
L 581 0 
L 581 3500 
L 1159 3500 
L 1159 2956 
Q 1356 3278 1631 3431 
Q 1906 3584 2284 3584 
Q 2666 3584 2933 3390 
Q 3200 3197 3328 2828 
z
" transform="scale(0.015625)"/>
      </defs>
      <use xlink:href="#DejaVuSans-394" transform="translate(0 0.015625)"/>
      <use xlink:href="#DejaVuSans-Oblique-73" transform="translate(68.408203 0.015625)"/>
      <use xlink:href="#DejaVuSans-20" transform="translate(120.507812 0.015625)"/>
      <use xlink:href="#DejaVuSans-5b" transform="translate(152.294922 0.015625)"/>
      <use xlink:href="#DejaVuSans-6d" transform="translate(191.308594 0.015625)"/>
      <use xlink:href="#DejaVuSans-5d" transform="translate(288.720703 0.015625)"/>
     </g>
    </g>
    <g id="text_16">
     <!-- 1e−5 -->
     <g transform="translate(57.6 38.472) scale(0.1 -0.1)">
      <defs>
       <path id="DejaVuSans-65" d="M 3597 1894 
L 3597 1613 
L 953 1613 
Q 991 1019 1311 708 
Q 1631 397 2203 397 
Q 2534 397 2845 478 
Q 3156 559 3463 722 
L 3463 178 
Q 3153 47 2828 -22 
Q 2503 -91 2169 -91 
Q 1331 -91 842 396 
Q 353 884 353 1716 
Q 353 2575 817 3079 
Q 1281 3584 2069 3584 
Q 2775 3584 3186 3129 
Q 3597 2675 3597 1894 
z
M 3022 2063 
Q 3016 2534 2758 2815 
Q 2500 3097 2075 3097 
Q 1594 3097 1305 2825 
Q 1016 2553 972 2059 
L 3022 2063 
z
" transform="scale(0.015625)"/>
       <path id="DejaVuSans-35" d="M 691 4666 
L 3169 4666 
L 3169 4134 
L 1269 4134 
L 1269 2991 
Q 1406 3038 1543 3061 
Q 1681 3084 1819 3084 
Q 2600 3084 3056 2656 
Q 3513 2228 3513 1497 
Q 3513 744 3044 326 
Q 2575 -91 1722 -91 
Q 1428 -91 1123 -41 
Q 819 9 494 109 
L 494 744 
Q 775 591 1075 516 
Q 1375 441 1709 441 
Q 2250 441 2565 725 
Q 2881 1009 2881 1497 
Q 2881 1984 2565 2268 
Q 2250 2553 1709 2553 
Q 1456 2553 1204 2497 
Q 953 2441 691 2322 
L 691 4666 
z
" transform="scale(0.015625)"/>
      </defs>
      <use xlink:href="#DejaVuSans-31"/>
      <use xlink:href="#DejaVuSans-65" transform="translate(63.623047 0)"/>
      <use xlink:href="#DejaVuSans-2212" transform="translate(125.146484 0)"/>
      <use xlink:href="#DejaVuSans-35" transform="translate(208.935547 0)"/>
     </g>
    </g>
   </g>
   <g id="LineCollection_1">
    <path d="M 275.868927 252.288 
L 278.455494 252.288 
" clip-path="url(#p8f9b137204)" style="fill: none; stroke: #1f77b4; stroke-width: 1.5"/>
    <path d="M 301.925726 226.368 
L 305.329715 226.368 
" clip-path="url(#p8f9b137204)" style="fill: none; stroke: #1f77b4; stroke-width: 1.5"/>
    <path d="M 319.26704 200.448 
L 323.245296 200.448 
" clip-path="url(#p8f9b137204)" style="fill: none; stroke: #1f77b4; stroke-width: 1.5"/>
    <path d="M 340.192719 174.528 
L 344.880739 174.528 
" clip-path="url(#p8f9b137204)" style="fill: none; stroke: #1f77b4; stroke-width: 1.5"/>
    <path d="M 356.766692 148.608 
L 362.024683 148.608 
" clip-path="url(#p8f9b137204)" style="fill: none; stroke: #1f77b4; stroke-width: 1.5"/>
    <path d="M 371.881407 122.688 
L 377.662837 122.688 
" clip-path="url(#p8f9b137204)" style="fill: none; stroke: #1f77b4; stroke-width: 1.5"/>
    <path d="M 382.666508 96.768 
L 388.822818 96.768 
" clip-path="url(#p8f9b137204)" style="fill: none; stroke: #1f77b4; stroke-width: 1.5"/>
    <path d="M 392.005724 70.848 
L 398.487273 70.848 
" clip-path="url(#p8f9b137204)" style="fill: none; stroke: #1f77b4; stroke-width: 1.5"/>
    <path d="M 216.820096 278.208 
L 218.292261 278.208 
" clip-path="url(#p8f9b137204)" style="fill: none; stroke: #1f77b4; stroke-width: 1.5"/>
    <path d="M 140.23494 252.288 
L 143.312831 252.288 
" clip-path="url(#p8f9b137204)" style="fill: none; stroke: #1f77b4; stroke-width: 1.5"/>
    <path d="M 112.613403 226.368 
L 116.567442 226.368 
" clip-path="url(#p8f9b137204)" style="fill: none; stroke: #1f77b4; stroke-width: 1.5"/>
    <path d="M 89.485915 200.448 
L 94.198615 200.448 
" clip-path="url(#p8f9b137204)" style="fill: none; stroke: #1f77b4; stroke-width: 1.5"/>
    <path d="M 73.832727 174.528 
L 79.065851 174.528 
" clip-path="url(#p8f9b137204)" style="fill: none; stroke: #1f77b4; stroke-width: 1.5"/>
   </g>
   <g id="LineCollection_2">
    <path d="M 277.162211 269.568 
L 277.162211 235.008 
" clip-path="url(#p8f9b137204)" style="fill: none; stroke: #1f77b4; stroke-width: 1.5"/>
    <path d="M 303.627721 243.648 
L 303.627721 209.088 
" clip-path="url(#p8f9b137204)" style="fill: none; stroke: #1f77b4; stroke-width: 1.5"/>
    <path d="M 321.256168 217.728 
L 321.256168 183.168 
" clip-path="url(#p8f9b137204)" style="fill: none; stroke: #1f77b4; stroke-width: 1.5"/>
    <path d="M 342.536729 191.808 
L 342.536729 157.248 
" clip-path="url(#p8f9b137204)" style="fill: none; stroke: #1f77b4; stroke-width: 1.5"/>
    <path d="M 359.395688 165.888 
L 359.395688 131.328 
" clip-path="url(#p8f9b137204)" style="fill: none; stroke: #1f77b4; stroke-width: 1.5"/>
    <path d="M 374.772122 139.968 
L 374.772122 105.408 
" clip-path="url(#p8f9b137204)" style="fill: none; stroke: #1f77b4; stroke-width: 1.5"/>
    <path d="M 385.744663 114.048 
L 385.744663 79.488 
" clip-path="url(#p8f9b137204)" style="fill: none; stroke: #1f77b4; stroke-width: 1.5"/>
    <path d="M 395.246499 88.128 
L 395.246499 53.568 
" clip-path="url(#p8f9b137204)" style="fill: none; stroke: #1f77b4; stroke-width: 1.5"/>
    <path d="M 217.556179 295.488 
L 217.556179 260.928 
" clip-path="url(#p8f9b137204)" style="fill: none; stroke: #1f77b4; stroke-width: 1.5"/>
    <path d="M 141.773885 269.568 
L 141.773885 235.008 
" clip-path="url(#p8f9b137204)" style="fill: none; stroke: #1f77b4; stroke-width: 1.5"/>
    <path d="M 114.590423 243.648 
L 114.590423 209.088 
" clip-path="url(#p8f9b137204)" style="fill: none; stroke: #1f77b4; stroke-width: 1.5"/>
    <path d="M 91.842265 217.728 
L 91.842265 183.168 
" clip-path="url(#p8f9b137204)" style="fill: none; stroke: #1f77b4; stroke-width: 1.5"/>
    <path d="M 76.449289 191.808 
L 76.449289 157.248 
" clip-path="url(#p8f9b137204)" style="fill: none; stroke: #1f77b4; stroke-width: 1.5"/>
   </g>
   <g id="line2d_27">
    <defs>
     <path id="m3d5275d6f0" d="M 0 5 
L 0 -5 
" style="stroke: #1f77b4"/>
    </defs>
    <g clip-path="url(#p8f9b137204)">
     <use xlink:href="#m3d5275d6f0" x="275.868927" y="252.288" style="fill: #1f77b4; stroke: #1f77b4"/>
     <use xlink:href="#m3d5275d6f0" x="301.925726" y="226.368" style="fill: #1f77b4; stroke: #1f77b4"/>
     <use xlink:href="#m3d5275d6f0" x="319.26704" y="200.448" style="fill: #1f77b4; stroke: #1f77b4"/>
     <use xlink:href="#m3d5275d6f0" x="340.192719" y="174.528" style="fill: #1f77b4; stroke: #1f77b4"/>
     <use xlink:href="#m3d5275d6f0" x="356.766692" y="148.608" style="fill: #1f77b4; stroke: #1f77b4"/>
     <use xlink:href="#m3d5275d6f0" x="371.881407" y="122.688" style="fill: #1f77b4; stroke: #1f77b4"/>
     <use xlink:href="#m3d5275d6f0" x="382.666508" y="96.768" style="fill: #1f77b4; stroke: #1f77b4"/>
     <use xlink:href="#m3d5275d6f0" x="392.005724" y="70.848" style="fill: #1f77b4; stroke: #1f77b4"/>
     <use xlink:href="#m3d5275d6f0" x="216.820096" y="278.208" style="fill: #1f77b4; stroke: #1f77b4"/>
     <use xlink:href="#m3d5275d6f0" x="140.23494" y="252.288" style="fill: #1f77b4; stroke: #1f77b4"/>
     <use xlink:href="#m3d5275d6f0" x="112.613403" y="226.368" style="fill: #1f77b4; stroke: #1f77b4"/>
     <use xlink:href="#m3d5275d6f0" x="89.485915" y="200.448" style="fill: #1f77b4; stroke: #1f77b4"/>
     <use xlink:href="#m3d5275d6f0" x="73.832727" y="174.528" style="fill: #1f77b4; stroke: #1f77b4"/>
    </g>
   </g>
   <g id="line2d_28">
    <g clip-path="url(#p8f9b137204)">
     <use xlink:href="#m3d5275d6f0" x="278.455494" y="252.288" style="fill: #1f77b4; stroke: #1f77b4"/>
     <use xlink:href="#m3d5275d6f0" x="305.329715" y="226.368" style="fill: #1f77b4; stroke: #1f77b4"/>
     <use xlink:href="#m3d5275d6f0" x="323.245296" y="200.448" style="fill: #1f77b4; stroke: #1f77b4"/>
     <use xlink:href="#m3d5275d6f0" x="344.880739" y="174.528" style="fill: #1f77b4; stroke: #1f77b4"/>
     <use xlink:href="#m3d5275d6f0" x="362.024683" y="148.608" style="fill: #1f77b4; stroke: #1f77b4"/>
     <use xlink:href="#m3d5275d6f0" x="377.662837" y="122.688" style="fill: #1f77b4; stroke: #1f77b4"/>
     <use xlink:href="#m3d5275d6f0" x="388.822818" y="96.768" style="fill: #1f77b4; stroke: #1f77b4"/>
     <use xlink:href="#m3d5275d6f0" x="398.487273" y="70.848" style="fill: #1f77b4; stroke: #1f77b4"/>
     <use xlink:href="#m3d5275d6f0" x="218.292261" y="278.208" style="fill: #1f77b4; stroke: #1f77b4"/>
     <use xlink:href="#m3d5275d6f0" x="143.312831" y="252.288" style="fill: #1f77b4; stroke: #1f77b4"/>
     <use xlink:href="#m3d5275d6f0" x="116.567442" y="226.368" style="fill: #1f77b4; stroke: #1f77b4"/>
     <use xlink:href="#m3d5275d6f0" x="94.198615" y="200.448" style="fill: #1f77b4; stroke: #1f77b4"/>
     <use xlink:href="#m3d5275d6f0" x="79.065851" y="174.528" style="fill: #1f77b4; stroke: #1f77b4"/>
    </g>
   </g>
   <g id="line2d_29">
    <defs>
     <path id="m92bb56df20" d="M 5 0 
L -5 -0 
" style="stroke: #1f77b4"/>
    </defs>
    <g clip-path="url(#p8f9b137204)">
     <use xlink:href="#m92bb56df20" x="277.162211" y="269.568" style="fill: #1f77b4; stroke: #1f77b4"/>
     <use xlink:href="#m92bb56df20" x="303.627721" y="243.648" style="fill: #1f77b4; stroke: #1f77b4"/>
     <use xlink:href="#m92bb56df20" x="321.256168" y="217.728" style="fill: #1f77b4; stroke: #1f77b4"/>
     <use xlink:href="#m92bb56df20" x="342.536729" y="191.808" style="fill: #1f77b4; stroke: #1f77b4"/>
     <use xlink:href="#m92bb56df20" x="359.395688" y="165.888" style="fill: #1f77b4; stroke: #1f77b4"/>
     <use xlink:href="#m92bb56df20" x="374.772122" y="139.968" style="fill: #1f77b4; stroke: #1f77b4"/>
     <use xlink:href="#m92bb56df20" x="385.744663" y="114.048" style="fill: #1f77b4; stroke: #1f77b4"/>
     <use xlink:href="#m92bb56df20" x="395.246499" y="88.128" style="fill: #1f77b4; stroke: #1f77b4"/>
     <use xlink:href="#m92bb56df20" x="217.556179" y="295.488" style="fill: #1f77b4; stroke: #1f77b4"/>
     <use xlink:href="#m92bb56df20" x="141.773885" y="269.568" style="fill: #1f77b4; stroke: #1f77b4"/>
     <use xlink:href="#m92bb56df20" x="114.590423" y="243.648" style="fill: #1f77b4; stroke: #1f77b4"/>
     <use xlink:href="#m92bb56df20" x="91.842265" y="217.728" style="fill: #1f77b4; stroke: #1f77b4"/>
     <use xlink:href="#m92bb56df20" x="76.449289" y="191.808" style="fill: #1f77b4; stroke: #1f77b4"/>
    </g>
   </g>
   <g id="line2d_30">
    <g clip-path="url(#p8f9b137204)">
     <use xlink:href="#m92bb56df20" x="277.162211" y="235.008" style="fill: #1f77b4; stroke: #1f77b4"/>
     <use xlink:href="#m92bb56df20" x="303.627721" y="209.088" style="fill: #1f77b4; stroke: #1f77b4"/>
     <use xlink:href="#m92bb56df20" x="321.256168" y="183.168" style="fill: #1f77b4; stroke: #1f77b4"/>
     <use xlink:href="#m92bb56df20" x="342.536729" y="157.248" style="fill: #1f77b4; stroke: #1f77b4"/>
     <use xlink:href="#m92bb56df20" x="359.395688" y="131.328" style="fill: #1f77b4; stroke: #1f77b4"/>
     <use xlink:href="#m92bb56df20" x="374.772122" y="105.408" style="fill: #1f77b4; stroke: #1f77b4"/>
     <use xlink:href="#m92bb56df20" x="385.744663" y="79.488" style="fill: #1f77b4; stroke: #1f77b4"/>
     <use xlink:href="#m92bb56df20" x="395.246499" y="53.568" style="fill: #1f77b4; stroke: #1f77b4"/>
     <use xlink:href="#m92bb56df20" x="217.556179" y="260.928" style="fill: #1f77b4; stroke: #1f77b4"/>
     <use xlink:href="#m92bb56df20" x="141.773885" y="235.008" style="fill: #1f77b4; stroke: #1f77b4"/>
     <use xlink:href="#m92bb56df20" x="114.590423" y="209.088" style="fill: #1f77b4; stroke: #1f77b4"/>
     <use xlink:href="#m92bb56df20" x="91.842265" y="183.168" style="fill: #1f77b4; stroke: #1f77b4"/>
     <use xlink:href="#m92bb56df20" x="76.449289" y="157.248" style="fill: #1f77b4; stroke: #1f77b4"/>
    </g>
   </g>
   <g id="line2d_31">
    <path d="M 76.449289 176.049337 
L 82.512499 185.195593 
L 88.256593 193.463986 
L 94.000687 201.34678 
L 99.744781 208.844127 
L 105.169758 215.571166 
L 110.594736 221.954642 
L 116.019713 227.994668 
L 121.444691 233.691346 
L 126.550552 238.73937 
L 131.656413 243.483417 
L 136.762275 247.923562 
L 141.868136 252.059873 
L 146.654881 255.661777 
L 151.441626 258.996743 
L 156.22837 262.064817 
L 161.015115 264.86604 
L 165.80186 267.40045 
L 170.269489 269.525204 
L 174.737117 271.417589 
L 179.204746 273.077628 
L 183.672374 274.505339 
L 188.140003 275.700739 
L 192.607632 276.663843 
L 197.07526 277.394662 
L 201.542889 277.893204 
L 206.010517 278.159476 
L 210.478146 278.193479 
L 214.945774 277.995216 
L 219.413403 277.564683 
L 223.881032 276.901876 
L 228.34866 276.006786 
L 232.816289 274.879403 
L 237.283917 273.519714 
L 241.751546 271.927703 
L 246.219174 270.103351 
L 250.686803 268.046637 
L 255.154431 265.757536 
L 259.941176 263.04702 
L 264.727921 260.069665 
L 269.514666 256.825433 
L 274.301411 253.314279 
L 279.088156 249.536155 
L 284.194017 245.21184 
L 289.299878 240.583648 
L 294.40574 235.651509 
L 299.511601 230.415347 
L 304.936578 224.518716 
L 310.361556 218.278677 
L 315.786533 211.695124 
L 321.211511 204.767942 
L 326.955605 197.0586 
L 332.699699 188.963729 
L 338.443793 180.48317 
L 344.187886 171.616758 
L 350.251097 161.838975 
L 356.314307 151.630872 
L 362.377517 140.992228 
L 368.759843 129.328273 
L 375.14217 117.186728 
L 381.524497 104.567301 
L 387.906823 91.46969 
L 394.608266 77.202206 
L 395.246499 75.81587 
L 395.246499 75.81587 
" clip-path="url(#p8f9b137204)" style="fill: none; stroke: #ff7f0e; stroke-width: 1.5; stroke-linecap: square"/>
   </g>
   <g id="line2d_32">
    <defs>
     <path id="m5e79cd9e51" d="M 0 3 
C 0.795609 3 1.55874 2.683901 2.12132 2.12132 
C 2.683901 1.55874 3 0.795609 3 0 
C 3 -0.795609 2.683901 -1.55874 2.12132 -2.12132 
C 1.55874 -2.683901 0.795609 -3 0 -3 
C -0.795609 -3 -1.55874 -2.683901 -2.12132 -2.12132 
C -2.683901 -1.55874 -3 -0.795609 -3 0 
C -3 0.795609 -2.683901 1.55874 -2.12132 2.12132 
C -1.55874 2.683901 -0.795609 3 0 3 
z
" style="stroke: #1f77b4"/>
    </defs>
    <g clip-path="url(#p8f9b137204)">
     <use xlink:href="#m5e79cd9e51" x="277.162211" y="252.288" style="fill: #1f77b4; stroke: #1f77b4"/>
     <use xlink:href="#m5e79cd9e51" x="303.627721" y="226.368" style="fill: #1f77b4; stroke: #1f77b4"/>
     <use xlink:href="#m5e79cd9e51" x="321.256168" y="200.448" style="fill: #1f77b4; stroke: #1f77b4"/>
     <use xlink:href="#m5e79cd9e51" x="342.536729" y="174.528" style="fill: #1f77b4; stroke: #1f77b4"/>
     <use xlink:href="#m5e79cd9e51" x="359.395688" y="148.608" style="fill: #1f77b4; stroke: #1f77b4"/>
     <use xlink:href="#m5e79cd9e51" x="374.772122" y="122.688" style="fill: #1f77b4; stroke: #1f77b4"/>
     <use xlink:href="#m5e79cd9e51" x="385.744663" y="96.768" style="fill: #1f77b4; stroke: #1f77b4"/>
     <use xlink:href="#m5e79cd9e51" x="395.246499" y="70.848" style="fill: #1f77b4; stroke: #1f77b4"/>
     <use xlink:href="#m5e79cd9e51" x="217.556179" y="278.208" style="fill: #1f77b4; stroke: #1f77b4"/>
     <use xlink:href="#m5e79cd9e51" x="141.773885" y="252.288" style="fill: #1f77b4; stroke: #1f77b4"/>
     <use xlink:href="#m5e79cd9e51" x="114.590423" y="226.368" style="fill: #1f77b4; stroke: #1f77b4"/>
     <use xlink:href="#m5e79cd9e51" x="91.842265" y="200.448" style="fill: #1f77b4; stroke: #1f77b4"/>
     <use xlink:href="#m5e79cd9e51" x="76.449289" y="174.528" style="fill: #1f77b4; stroke: #1f77b4"/>
    </g>
   </g>
   <g id="patch_3">
    <path d="M 57.6 307.584 
L 57.6 41.472 
" style="fill: none; stroke: #000000; stroke-width: 0.8; stroke-linejoin: miter; stroke-linecap: square"/>
   </g>
   <g id="patch_4">
    <path d="M 414.72 307.584 
L 414.72 41.472 
" style="fill: none; stroke: #000000; stroke-width: 0.8; stroke-linejoin: miter; stroke-linecap: square"/>
   </g>
   <g id="patch_5">
    <path d="M 57.6 307.584 
L 414.72 307.584 
" style="fill: none; stroke: #000000; stroke-width: 0.8; stroke-linejoin: miter; stroke-linecap: square"/>
   </g>
   <g id="patch_6">
    <path d="M 57.6 41.472 
L 414.72 41.472 
" style="fill: none; stroke: #000000; stroke-width: 0.8; stroke-linejoin: miter; stroke-linecap: square"/>
   </g>
   <g id="legend_1">
    <g id="patch_7">
     <path d="M 64.6 80.050125 
L 347.9 80.050125 
Q 349.9 80.050125 349.9 78.050125 
L 349.9 48.472 
Q 349.9 46.472 347.9 46.472 
L 64.6 46.472 
Q 62.6 46.472 62.6 48.472 
L 62.6 78.050125 
Q 62.6 80.050125 64.6 80.050125 
z
" style="fill: #ffffff; opacity: 0.8; stroke: #cccccc; stroke-linejoin: miter"/>
    </g>
    <g id="line2d_33">
     <path d="M 66.6 55.792313 
L 76.6 55.792313 
L 86.6 55.792313 
" style="fill: none; stroke: #ff7f0e; stroke-width: 1.5; stroke-linecap: square"/>
    </g>
    <g id="text_17">
     <!-- Fit: n = 1.45 ± 0.01, $\alpha_0$ = (-240.68 ± 18.62) $\cdot 10^{-3}$ -->
     <g transform="translate(94.6 59.292313) scale(0.1 -0.1)">
      <defs>
       <path id="DejaVuSans-46" d="M 628 4666 
L 3309 4666 
L 3309 4134 
L 1259 4134 
L 1259 2759 
L 3109 2759 
L 3109 2228 
L 1259 2228 
L 1259 0 
L 628 0 
L 628 4666 
z
" transform="scale(0.015625)"/>
       <path id="DejaVuSans-69" d="M 603 3500 
L 1178 3500 
L 1178 0 
L 603 0 
L 603 3500 
z
M 603 4863 
L 1178 4863 
L 1178 4134 
L 603 4134 
L 603 4863 
z
" transform="scale(0.015625)"/>
       <path id="DejaVuSans-74" d="M 1172 4494 
L 1172 3500 
L 2356 3500 
L 2356 3053 
L 1172 3053 
L 1172 1153 
Q 1172 725 1289 603 
Q 1406 481 1766 481 
L 2356 481 
L 2356 0 
L 1766 0 
Q 1100 0 847 248 
Q 594 497 594 1153 
L 594 3053 
L 172 3053 
L 172 3500 
L 594 3500 
L 594 4494 
L 1172 4494 
z
" transform="scale(0.015625)"/>
       <path id="DejaVuSans-3a" d="M 750 794 
L 1409 794 
L 1409 0 
L 750 0 
L 750 794 
z
M 750 3309 
L 1409 3309 
L 1409 2516 
L 750 2516 
L 750 3309 
z
" transform="scale(0.015625)"/>
       <path id="DejaVuSans-6e" d="M 3513 2113 
L 3513 0 
L 2938 0 
L 2938 2094 
Q 2938 2591 2744 2837 
Q 2550 3084 2163 3084 
Q 1697 3084 1428 2787 
Q 1159 2491 1159 1978 
L 1159 0 
L 581 0 
L 581 3500 
L 1159 3500 
L 1159 2956 
Q 1366 3272 1645 3428 
Q 1925 3584 2291 3584 
Q 2894 3584 3203 3211 
Q 3513 2838 3513 2113 
z
" transform="scale(0.015625)"/>
       <path id="DejaVuSans-3d" d="M 678 2906 
L 4684 2906 
L 4684 2381 
L 678 2381 
L 678 2906 
z
M 678 1631 
L 4684 1631 
L 4684 1100 
L 678 1100 
L 678 1631 
z
" transform="scale(0.015625)"/>
       <path id="DejaVuSans-b1" d="M 2944 4013 
L 2944 2803 
L 4684 2803 
L 4684 2272 
L 2944 2272 
L 2944 1063 
L 2419 1063 
L 2419 2272 
L 678 2272 
L 678 2803 
L 2419 2803 
L 2419 4013 
L 2944 4013 
z
M 678 531 
L 4684 531 
L 4684 0 
L 678 0 
L 678 531 
z
" transform="scale(0.015625)"/>
       <path id="DejaVuSans-2c" d="M 750 794 
L 1409 794 
L 1409 256 
L 897 -744 
L 494 -744 
L 750 256 
L 750 794 
z
" transform="scale(0.015625)"/>
       <path id="DejaVuSans-28" d="M 1984 4856 
Q 1566 4138 1362 3434 
Q 1159 2731 1159 2009 
Q 1159 1288 1364 580 
Q 1569 -128 1984 -844 
L 1484 -844 
Q 1016 -109 783 600 
Q 550 1309 550 2009 
Q 550 2706 781 3412 
Q 1013 4119 1484 4856 
L 1984 4856 
z
" transform="scale(0.015625)"/>
       <path id="DejaVuSans-2d" d="M 313 2009 
L 1997 2009 
L 1997 1497 
L 313 1497 
L 313 2009 
z
" transform="scale(0.015625)"/>
       <path id="DejaVuSans-29" d="M 513 4856 
L 1013 4856 
Q 1481 4119 1714 3412 
Q 1947 2706 1947 2009 
Q 1947 1309 1714 600 
Q 1481 -109 1013 -844 
L 513 -844 
Q 928 -128 1133 580 
Q 1338 1288 1338 2009 
Q 1338 2731 1133 3434 
Q 928 4138 513 4856 
z
" transform="scale(0.015625)"/>
       <path id="DejaVuSans-22c5" d="M 684 2619 
L 1344 2619 
L 1344 1825 
L 684 1825 
L 684 2619 
z
" transform="scale(0.015625)"/>
       <path id="DejaVuSans-33" d="M 2597 2516 
Q 3050 2419 3304 2112 
Q 3559 1806 3559 1356 
Q 3559 666 3084 287 
Q 2609 -91 1734 -91 
Q 1441 -91 1130 -33 
Q 819 25 488 141 
L 488 750 
Q 750 597 1062 519 
Q 1375 441 1716 441 
Q 2309 441 2620 675 
Q 2931 909 2931 1356 
Q 2931 1769 2642 2001 
Q 2353 2234 1838 2234 
L 1294 2234 
L 1294 2753 
L 1863 2753 
Q 2328 2753 2575 2939 
Q 2822 3125 2822 3475 
Q 2822 3834 2567 4026 
Q 2313 4219 1838 4219 
Q 1578 4219 1281 4162 
Q 984 4106 628 3988 
L 628 4550 
Q 988 4650 1302 4700 
Q 1616 4750 1894 4750 
Q 2613 4750 3031 4423 
Q 3450 4097 3450 3541 
Q 3450 3153 3228 2886 
Q 3006 2619 2597 2516 
z
" transform="scale(0.015625)"/>
      </defs>
      <use xlink:href="#DejaVuSans-46" transform="translate(0 0.765625)"/>
      <use xlink:href="#DejaVuSans-69" transform="translate(57.519531 0.765625)"/>
      <use xlink:href="#DejaVuSans-74" transform="translate(85.302734 0.765625)"/>
      <use xlink:href="#DejaVuSans-3a" transform="translate(124.511719 0.765625)"/>
      <use xlink:href="#DejaVuSans-20" transform="translate(158.203125 0.765625)"/>
      <use xlink:href="#DejaVuSans-6e" transform="translate(189.990234 0.765625)"/>
      <use xlink:href="#DejaVuSans-20" transform="translate(253.369141 0.765625)"/>
      <use xlink:href="#DejaVuSans-3d" transform="translate(285.15625 0.765625)"/>
      <use xlink:href="#DejaVuSans-20" transform="translate(368.945312 0.765625)"/>
      <use xlink:href="#DejaVuSans-31" transform="translate(400.732422 0.765625)"/>
      <use xlink:href="#DejaVuSans-2e" transform="translate(464.355469 0.765625)"/>
      <use xlink:href="#DejaVuSans-34" transform="translate(496.142578 0.765625)"/>
      <use xlink:href="#DejaVuSans-35" transform="translate(559.765625 0.765625)"/>
      <use xlink:href="#DejaVuSans-20" transform="translate(623.388672 0.765625)"/>
      <use xlink:href="#DejaVuSans-b1" transform="translate(655.175781 0.765625)"/>
      <use xlink:href="#DejaVuSans-20" transform="translate(738.964844 0.765625)"/>
      <use xlink:href="#DejaVuSans-30" transform="translate(770.751953 0.765625)"/>
      <use xlink:href="#DejaVuSans-2e" transform="translate(834.375 0.765625)"/>
      <use xlink:href="#DejaVuSans-30" transform="translate(866.162109 0.765625)"/>
      <use xlink:href="#DejaVuSans-31" transform="translate(929.785156 0.765625)"/>
      <use xlink:href="#DejaVuSans-2c" transform="translate(993.408203 0.765625)"/>
      <use xlink:href="#DejaVuSans-20" transform="translate(1025.195312 0.765625)"/>
      <use xlink:href="#DejaVuSans-Oblique-3b1" transform="translate(1056.982422 0.765625)"/>
      <use xlink:href="#DejaVuSans-30" transform="translate(1122.900391 -15.640625) scale(0.7)"/>
      <use xlink:href="#DejaVuSans-20" transform="translate(1170.170898 0.765625)"/>
      <use xlink:href="#DejaVuSans-3d" transform="translate(1201.958008 0.765625)"/>
      <use xlink:href="#DejaVuSans-20" transform="translate(1285.74707 0.765625)"/>
      <use xlink:href="#DejaVuSans-28" transform="translate(1317.53418 0.765625)"/>
      <use xlink:href="#DejaVuSans-2d" transform="translate(1356.547852 0.765625)"/>
      <use xlink:href="#DejaVuSans-32" transform="translate(1392.631836 0.765625)"/>
      <use xlink:href="#DejaVuSans-34" transform="translate(1456.254883 0.765625)"/>
      <use xlink:href="#DejaVuSans-30" transform="translate(1519.87793 0.765625)"/>
      <use xlink:href="#DejaVuSans-2e" transform="translate(1583.500977 0.765625)"/>
      <use xlink:href="#DejaVuSans-36" transform="translate(1615.288086 0.765625)"/>
      <use xlink:href="#DejaVuSans-38" transform="translate(1678.911133 0.765625)"/>
      <use xlink:href="#DejaVuSans-20" transform="translate(1742.53418 0.765625)"/>
      <use xlink:href="#DejaVuSans-b1" transform="translate(1774.321289 0.765625)"/>
      <use xlink:href="#DejaVuSans-20" transform="translate(1858.110352 0.765625)"/>
      <use xlink:href="#DejaVuSans-31" transform="translate(1889.897461 0.765625)"/>
      <use xlink:href="#DejaVuSans-38" transform="translate(1953.520508 0.765625)"/>
      <use xlink:href="#DejaVuSans-2e" transform="translate(2017.143555 0.765625)"/>
      <use xlink:href="#DejaVuSans-36" transform="translate(2048.930664 0.765625)"/>
      <use xlink:href="#DejaVuSans-32" transform="translate(2112.553711 0.765625)"/>
      <use xlink:href="#DejaVuSans-29" transform="translate(2176.176758 0.765625)"/>
      <use xlink:href="#DejaVuSans-20" transform="translate(2215.19043 0.765625)"/>
      <use xlink:href="#DejaVuSans-22c5" transform="translate(2246.977539 0.765625)"/>
      <use xlink:href="#DejaVuSans-31" transform="translate(2278.764648 0.765625)"/>
      <use xlink:href="#DejaVuSans-30" transform="translate(2342.387695 0.765625)"/>
      <use xlink:href="#DejaVuSans-2212" transform="translate(2406.967773 39.046875) scale(0.7)"/>
      <use xlink:href="#DejaVuSans-33" transform="translate(2465.620117 39.046875) scale(0.7)"/>
     </g>
    </g>
    <g id="LineCollection_3">
     <path d="M 71.6 70.470438 
L 81.6 70.470438 
" style="fill: none; stroke: #1f77b4; stroke-width: 1.5"/>
    </g>
    <g id="LineCollection_4">
     <path d="M 76.6 75.470438 
L 76.6 65.470438 
" style="fill: none; stroke: #1f77b4; stroke-width: 1.5"/>
    </g>
    <g id="line2d_34">
     <g>
      <use xlink:href="#m3d5275d6f0" x="71.6" y="70.470438" style="fill: #1f77b4; stroke: #1f77b4"/>
     </g>
    </g>
    <g id="line2d_35">
     <g>
      <use xlink:href="#m3d5275d6f0" x="81.6" y="70.470438" style="fill: #1f77b4; stroke: #1f77b4"/>
     </g>
    </g>
    <g id="line2d_36">
     <g>
      <use xlink:href="#m92bb56df20" x="76.6" y="75.470438" style="fill: #1f77b4; stroke: #1f77b4"/>
     </g>
    </g>
    <g id="line2d_37">
     <g>
      <use xlink:href="#m92bb56df20" x="76.6" y="65.470438" style="fill: #1f77b4; stroke: #1f77b4"/>
     </g>
    </g>
    <g id="line2d_38"/>
    <g id="line2d_39">
     <g>
      <use xlink:href="#m5e79cd9e51" x="76.6" y="70.470438" style="fill: #1f77b4; stroke: #1f77b4"/>
     </g>
    </g>
    <g id="text_18">
     <!-- Messwerte -->
     <g transform="translate(94.6 73.970438) scale(0.1 -0.1)">
      <defs>
       <path id="DejaVuSans-4d" d="M 628 4666 
L 1569 4666 
L 2759 1491 
L 3956 4666 
L 4897 4666 
L 4897 0 
L 4281 0 
L 4281 4097 
L 3078 897 
L 2444 897 
L 1241 4097 
L 1241 0 
L 628 0 
L 628 4666 
z
" transform="scale(0.015625)"/>
       <path id="DejaVuSans-73" d="M 2834 3397 
L 2834 2853 
Q 2591 2978 2328 3040 
Q 2066 3103 1784 3103 
Q 1356 3103 1142 2972 
Q 928 2841 928 2578 
Q 928 2378 1081 2264 
Q 1234 2150 1697 2047 
L 1894 2003 
Q 2506 1872 2764 1633 
Q 3022 1394 3022 966 
Q 3022 478 2636 193 
Q 2250 -91 1575 -91 
Q 1294 -91 989 -36 
Q 684 19 347 128 
L 347 722 
Q 666 556 975 473 
Q 1284 391 1588 391 
Q 1994 391 2212 530 
Q 2431 669 2431 922 
Q 2431 1156 2273 1281 
Q 2116 1406 1581 1522 
L 1381 1569 
Q 847 1681 609 1914 
Q 372 2147 372 2553 
Q 372 3047 722 3315 
Q 1072 3584 1716 3584 
Q 2034 3584 2315 3537 
Q 2597 3491 2834 3397 
z
" transform="scale(0.015625)"/>
       <path id="DejaVuSans-77" d="M 269 3500 
L 844 3500 
L 1563 769 
L 2278 3500 
L 2956 3500 
L 3675 769 
L 4391 3500 
L 4966 3500 
L 4050 0 
L 3372 0 
L 2619 2869 
L 1863 0 
L 1184 0 
L 269 3500 
z
" transform="scale(0.015625)"/>
       <path id="DejaVuSans-72" d="M 2631 2963 
Q 2534 3019 2420 3045 
Q 2306 3072 2169 3072 
Q 1681 3072 1420 2755 
Q 1159 2438 1159 1844 
L 1159 0 
L 581 0 
L 581 3500 
L 1159 3500 
L 1159 2956 
Q 1341 3275 1631 3429 
Q 1922 3584 2338 3584 
Q 2397 3584 2469 3576 
Q 2541 3569 2628 3553 
L 2631 2963 
z
" transform="scale(0.015625)"/>
      </defs>
      <use xlink:href="#DejaVuSans-4d"/>
      <use xlink:href="#DejaVuSans-65" transform="translate(86.279297 0)"/>
      <use xlink:href="#DejaVuSans-73" transform="translate(147.802734 0)"/>
      <use xlink:href="#DejaVuSans-73" transform="translate(199.902344 0)"/>
      <use xlink:href="#DejaVuSans-77" transform="translate(252.001953 0)"/>
      <use xlink:href="#DejaVuSans-65" transform="translate(333.789062 0)"/>
      <use xlink:href="#DejaVuSans-72" transform="translate(395.3125 0)"/>
      <use xlink:href="#DejaVuSans-74" transform="translate(436.425781 0)"/>
      <use xlink:href="#DejaVuSans-65" transform="translate(475.634766 0)"/>
     </g>
    </g>
   </g>
  </g>
 </g>
 <defs>
  <clipPath id="p8f9b137204">
   <rect x="57.6" y="41.472" width="357.12" height="266.112"/>
  </clipPath>
 </defs>
</svg>
