<?xml version="1.0" encoding="utf-8" standalone="no"?>
<!DOCTYPE svg PUBLIC "-//W3C//DTD SVG 1.1//EN"
  "http://www.w3.org/Graphics/SVG/1.1/DTD/svg11.dtd">
<svg xmlns:xlink="http://www.w3.org/1999/xlink" width="460.8pt" height="345.6pt" viewBox="0 0 460.8 345.6" xmlns="http://www.w3.org/2000/svg" version="1.1">
 <metadata>
  <rdf:RDF xmlns:dc="http://purl.org/dc/elements/1.1/" xmlns:cc="http://creativecommons.org/ns#" xmlns:rdf="http://www.w3.org/1999/02/22-rdf-syntax-ns#">
   <cc:Work>
    <dc:type rdf:resource="http://purl.org/dc/dcmitype/StillImage"/>
    <dc:date>2025-03-11T14:56:34.432347</dc:date>
    <dc:format>image/svg+xml</dc:format>
    <dc:creator>
     <cc:Agent>
      <dc:title>Matplotlib v3.10.0, https://matplotlib.org/</dc:title>
     </cc:Agent>
    </dc:creator>
   </cc:Work>
  </rdf:RDF>
 </metadata>
 <defs>
  <style type="text/css">*{stroke-linejoin: round; stroke-linecap: butt}</style>
 </defs>
 <g id="figure_1">
  <g id="patch_1">
   <path d="M 0 345.6 
L 460.8 345.6 
L 460.8 0 
L 0 0 
z
" style="fill: #ffffff"/>
  </g>
  <g id="axes_1">
   <g id="patch_2">
    <path d="M 57.6 307.584 
L 414.72 307.584 
L 414.72 41.472 
L 57.6 41.472 
z
" style="fill: #ffffff"/>
   </g>
   <g id="matplotlib.axis_1">
    <g id="xtick_1">
     <g id="line2d_1">
      <path d="M 116.178972 307.584 
L 116.178972 41.472 
" clip-path="url(#p7d086c4bce)" style="fill: none; stroke: #b0b0b0; stroke-width: 0.8; stroke-linecap: square"/>
     </g>
     <g id="line2d_2">
      <defs>
       <path id="mdf4150eb86" d="M 0 0 
L 0 3.5 
" style="stroke: #000000; stroke-width: 0.8"/>
      </defs>
      <g>
       <use xlink:href="#mdf4150eb86" x="116.178972" y="307.584" style="stroke: #000000; stroke-width: 0.8"/>
      </g>
     </g>
     <g id="text_1">
      <!-- 5 -->
      <g transform="translate(112.997722 322.182437) scale(0.1 -0.1)">
       <defs>
        <path id="DejaVuSans-35" d="M 691 4666 
L 3169 4666 
L 3169 4134 
L 1269 4134 
L 1269 2991 
Q 1406 3038 1543 3061 
Q 1681 3084 1819 3084 
Q 2600 3084 3056 2656 
Q 3513 2228 3513 1497 
Q 3513 744 3044 326 
Q 2575 -91 1722 -91 
Q 1428 -91 1123 -41 
Q 819 9 494 109 
L 494 744 
Q 775 591 1075 516 
Q 1375 441 1709 441 
Q 2250 441 2565 725 
Q 2881 1009 2881 1497 
Q 2881 1984 2565 2268 
Q 2250 2553 1709 2553 
Q 1456 2553 1204 2497 
Q 953 2441 691 2322 
L 691 4666 
z
" transform="scale(0.015625)"/>
       </defs>
       <use xlink:href="#DejaVuSans-35"/>
      </g>
     </g>
    </g>
    <g id="xtick_2">
     <g id="line2d_3">
      <path d="M 186.756047 307.584 
L 186.756047 41.472 
" clip-path="url(#p7d086c4bce)" style="fill: none; stroke: #b0b0b0; stroke-width: 0.8; stroke-linecap: square"/>
     </g>
     <g id="line2d_4">
      <g>
       <use xlink:href="#mdf4150eb86" x="186.756047" y="307.584" style="stroke: #000000; stroke-width: 0.8"/>
      </g>
     </g>
     <g id="text_2">
      <!-- 10 -->
      <g transform="translate(180.393547 322.182437) scale(0.1 -0.1)">
       <defs>
        <path id="DejaVuSans-31" d="M 794 531 
L 1825 531 
L 1825 4091 
L 703 3866 
L 703 4441 
L 1819 4666 
L 2450 4666 
L 2450 531 
L 3481 531 
L 3481 0 
L 794 0 
L 794 531 
z
" transform="scale(0.015625)"/>
        <path id="DejaVuSans-30" d="M 2034 4250 
Q 1547 4250 1301 3770 
Q 1056 3291 1056 2328 
Q 1056 1369 1301 889 
Q 1547 409 2034 409 
Q 2525 409 2770 889 
Q 3016 1369 3016 2328 
Q 3016 3291 2770 3770 
Q 2525 4250 2034 4250 
z
M 2034 4750 
Q 2819 4750 3233 4129 
Q 3647 3509 3647 2328 
Q 3647 1150 3233 529 
Q 2819 -91 2034 -91 
Q 1250 -91 836 529 
Q 422 1150 422 2328 
Q 422 3509 836 4129 
Q 1250 4750 2034 4750 
z
" transform="scale(0.015625)"/>
       </defs>
       <use xlink:href="#DejaVuSans-31"/>
       <use xlink:href="#DejaVuSans-30" transform="translate(63.623047 0)"/>
      </g>
     </g>
    </g>
    <g id="xtick_3">
     <g id="line2d_5">
      <path d="M 257.333123 307.584 
L 257.333123 41.472 
" clip-path="url(#p7d086c4bce)" style="fill: none; stroke: #b0b0b0; stroke-width: 0.8; stroke-linecap: square"/>
     </g>
     <g id="line2d_6">
      <g>
       <use xlink:href="#mdf4150eb86" x="257.333123" y="307.584" style="stroke: #000000; stroke-width: 0.8"/>
      </g>
     </g>
     <g id="text_3">
      <!-- 15 -->
      <g transform="translate(250.970623 322.182437) scale(0.1 -0.1)">
       <use xlink:href="#DejaVuSans-31"/>
       <use xlink:href="#DejaVuSans-35" transform="translate(63.623047 0)"/>
      </g>
     </g>
    </g>
    <g id="xtick_4">
     <g id="line2d_7">
      <path d="M 327.910198 307.584 
L 327.910198 41.472 
" clip-path="url(#p7d086c4bce)" style="fill: none; stroke: #b0b0b0; stroke-width: 0.8; stroke-linecap: square"/>
     </g>
     <g id="line2d_8">
      <g>
       <use xlink:href="#mdf4150eb86" x="327.910198" y="307.584" style="stroke: #000000; stroke-width: 0.8"/>
      </g>
     </g>
     <g id="text_4">
      <!-- 20 -->
      <g transform="translate(321.547698 322.182437) scale(0.1 -0.1)">
       <defs>
        <path id="DejaVuSans-32" d="M 1228 531 
L 3431 531 
L 3431 0 
L 469 0 
L 469 531 
Q 828 903 1448 1529 
Q 2069 2156 2228 2338 
Q 2531 2678 2651 2914 
Q 2772 3150 2772 3378 
Q 2772 3750 2511 3984 
Q 2250 4219 1831 4219 
Q 1534 4219 1204 4116 
Q 875 4013 500 3803 
L 500 4441 
Q 881 4594 1212 4672 
Q 1544 4750 1819 4750 
Q 2544 4750 2975 4387 
Q 3406 4025 3406 3419 
Q 3406 3131 3298 2873 
Q 3191 2616 2906 2266 
Q 2828 2175 2409 1742 
Q 1991 1309 1228 531 
z
" transform="scale(0.015625)"/>
       </defs>
       <use xlink:href="#DejaVuSans-32"/>
       <use xlink:href="#DejaVuSans-30" transform="translate(63.623047 0)"/>
      </g>
     </g>
    </g>
    <g id="xtick_5">
     <g id="line2d_9">
      <path d="M 398.487273 307.584 
L 398.487273 41.472 
" clip-path="url(#p7d086c4bce)" style="fill: none; stroke: #b0b0b0; stroke-width: 0.8; stroke-linecap: square"/>
     </g>
     <g id="line2d_10">
      <g>
       <use xlink:href="#mdf4150eb86" x="398.487273" y="307.584" style="stroke: #000000; stroke-width: 0.8"/>
      </g>
     </g>
     <g id="text_5">
      <!-- 25 -->
      <g transform="translate(392.124773 322.182437) scale(0.1 -0.1)">
       <use xlink:href="#DejaVuSans-32"/>
       <use xlink:href="#DejaVuSans-35" transform="translate(63.623047 0)"/>
      </g>
     </g>
    </g>
    <g id="text_6">
     <!-- $\beta$ [°] -->
     <g transform="translate(224.96 335.962125) scale(0.1 -0.1)">
      <defs>
       <path id="DejaVuSans-Oblique-3b2" d="M 872 216 
L 572 -1331 
L -6 -1331 
L 928 3478 
Q 1206 4903 2538 4903 
Q 3888 4903 3659 3700 
Q 3503 2844 2894 2531 
Q 3713 2250 3553 1416 
Q 3272 -69 1759 -66 
Q 1097 -63 872 216 
z
M 1019 966 
Q 1259 422 1875 425 
Q 2775 425 2966 1406 
Q 3138 2288 1675 2219 
L 1778 2750 
Q 2909 2731 3106 3750 
Q 3241 4438 2509 4434 
Q 1691 4434 1503 3459 
L 1019 966 
z
" transform="scale(0.015625)"/>
       <path id="DejaVuSans-20" transform="scale(0.015625)"/>
       <path id="DejaVuSans-5b" d="M 550 4863 
L 1875 4863 
L 1875 4416 
L 1125 4416 
L 1125 -397 
L 1875 -397 
L 1875 -844 
L 550 -844 
L 550 4863 
z
" transform="scale(0.015625)"/>
       <path id="DejaVuSans-b0" d="M 1600 4347 
Q 1350 4347 1178 4173 
Q 1006 4000 1006 3750 
Q 1006 3503 1178 3333 
Q 1350 3163 1600 3163 
Q 1850 3163 2022 3333 
Q 2194 3503 2194 3750 
Q 2194 3997 2020 4172 
Q 1847 4347 1600 4347 
z
M 1600 4750 
Q 1800 4750 1984 4673 
Q 2169 4597 2303 4453 
Q 2447 4313 2519 4134 
Q 2591 3956 2591 3750 
Q 2591 3338 2302 3052 
Q 2013 2766 1594 2766 
Q 1172 2766 890 3047 
Q 609 3328 609 3750 
Q 609 4169 896 4459 
Q 1184 4750 1600 4750 
z
" transform="scale(0.015625)"/>
       <path id="DejaVuSans-5d" d="M 1947 4863 
L 1947 -844 
L 622 -844 
L 622 -397 
L 1369 -397 
L 1369 4416 
L 622 4416 
L 622 4863 
L 1947 4863 
z
" transform="scale(0.015625)"/>
      </defs>
      <use xlink:href="#DejaVuSans-Oblique-3b2" transform="translate(0 0.390625)"/>
      <use xlink:href="#DejaVuSans-20" transform="translate(63.818359 0.390625)"/>
      <use xlink:href="#DejaVuSans-5b" transform="translate(95.605469 0.390625)"/>
      <use xlink:href="#DejaVuSans-b0" transform="translate(134.619141 0.390625)"/>
      <use xlink:href="#DejaVuSans-5d" transform="translate(184.619141 0.390625)"/>
     </g>
    </g>
   </g>
   <g id="matplotlib.axis_2">
    <g id="ytick_1">
     <g id="line2d_11">
      <path d="M 57.6 296.512217 
L 414.72 296.512217 
" clip-path="url(#p7d086c4bce)" style="fill: none; stroke: #b0b0b0; stroke-width: 0.8; stroke-linecap: square"/>
     </g>
     <g id="line2d_12">
      <defs>
       <path id="mda246a3797" d="M 0 0 
L -3.5 0 
" style="stroke: #000000; stroke-width: 0.8"/>
      </defs>
      <g>
       <use xlink:href="#mda246a3797" x="57.6" y="296.512217" style="stroke: #000000; stroke-width: 0.8"/>
      </g>
     </g>
     <g id="text_7">
      <!-- 0 -->
      <g transform="translate(44.2375 300.311436) scale(0.1 -0.1)">
       <use xlink:href="#DejaVuSans-30"/>
      </g>
     </g>
    </g>
    <g id="ytick_2">
     <g id="line2d_13">
      <path d="M 57.6 245.301378 
L 414.72 245.301378 
" clip-path="url(#p7d086c4bce)" style="fill: none; stroke: #b0b0b0; stroke-width: 0.8; stroke-linecap: square"/>
     </g>
     <g id="line2d_14">
      <g>
       <use xlink:href="#mda246a3797" x="57.6" y="245.301378" style="stroke: #000000; stroke-width: 0.8"/>
      </g>
     </g>
     <g id="text_8">
      <!-- 500 -->
      <g transform="translate(31.5125 249.100597) scale(0.1 -0.1)">
       <use xlink:href="#DejaVuSans-35"/>
       <use xlink:href="#DejaVuSans-30" transform="translate(63.623047 0)"/>
       <use xlink:href="#DejaVuSans-30" transform="translate(127.246094 0)"/>
      </g>
     </g>
    </g>
    <g id="ytick_3">
     <g id="line2d_15">
      <path d="M 57.6 194.09054 
L 414.72 194.09054 
" clip-path="url(#p7d086c4bce)" style="fill: none; stroke: #b0b0b0; stroke-width: 0.8; stroke-linecap: square"/>
     </g>
     <g id="line2d_16">
      <g>
       <use xlink:href="#mda246a3797" x="57.6" y="194.09054" style="stroke: #000000; stroke-width: 0.8"/>
      </g>
     </g>
     <g id="text_9">
      <!-- 1000 -->
      <g transform="translate(25.15 197.889759) scale(0.1 -0.1)">
       <use xlink:href="#DejaVuSans-31"/>
       <use xlink:href="#DejaVuSans-30" transform="translate(63.623047 0)"/>
       <use xlink:href="#DejaVuSans-30" transform="translate(127.246094 0)"/>
       <use xlink:href="#DejaVuSans-30" transform="translate(190.869141 0)"/>
      </g>
     </g>
    </g>
    <g id="ytick_4">
     <g id="line2d_17">
      <path d="M 57.6 142.879702 
L 414.72 142.879702 
" clip-path="url(#p7d086c4bce)" style="fill: none; stroke: #b0b0b0; stroke-width: 0.8; stroke-linecap: square"/>
     </g>
     <g id="line2d_18">
      <g>
       <use xlink:href="#mda246a3797" x="57.6" y="142.879702" style="stroke: #000000; stroke-width: 0.8"/>
      </g>
     </g>
     <g id="text_10">
      <!-- 1500 -->
      <g transform="translate(25.15 146.678921) scale(0.1 -0.1)">
       <use xlink:href="#DejaVuSans-31"/>
       <use xlink:href="#DejaVuSans-35" transform="translate(63.623047 0)"/>
       <use xlink:href="#DejaVuSans-30" transform="translate(127.246094 0)"/>
       <use xlink:href="#DejaVuSans-30" transform="translate(190.869141 0)"/>
      </g>
     </g>
    </g>
    <g id="ytick_5">
     <g id="line2d_19">
      <path d="M 57.6 91.668864 
L 414.72 91.668864 
" clip-path="url(#p7d086c4bce)" style="fill: none; stroke: #b0b0b0; stroke-width: 0.8; stroke-linecap: square"/>
     </g>
     <g id="line2d_20">
      <g>
       <use xlink:href="#mda246a3797" x="57.6" y="91.668864" style="stroke: #000000; stroke-width: 0.8"/>
      </g>
     </g>
     <g id="text_11">
      <!-- 2000 -->
      <g transform="translate(25.15 95.468082) scale(0.1 -0.1)">
       <use xlink:href="#DejaVuSans-32"/>
       <use xlink:href="#DejaVuSans-30" transform="translate(63.623047 0)"/>
       <use xlink:href="#DejaVuSans-30" transform="translate(127.246094 0)"/>
       <use xlink:href="#DejaVuSans-30" transform="translate(190.869141 0)"/>
      </g>
     </g>
    </g>
    <g id="text_12">
     <!-- $R$ [1/s] -->
     <g transform="translate(19.070312 190.978) rotate(-90) scale(0.1 -0.1)">
      <defs>
       <path id="DejaVuSans-Oblique-52" d="M 1613 4147 
L 1294 2491 
L 2106 2491 
Q 2584 2491 2879 2755 
Q 3175 3019 3175 3444 
Q 3175 3784 2976 3965 
Q 2778 4147 2406 4147 
L 1613 4147 
z
M 2772 2241 
Q 2972 2194 3105 2009 
Q 3238 1825 3413 1275 
L 3809 0 
L 3144 0 
L 2778 1197 
Q 2638 1659 2453 1815 
Q 2269 1972 1888 1972 
L 1191 1972 
L 806 0 
L 172 0 
L 1081 4666 
L 2503 4666 
Q 3150 4666 3495 4373 
Q 3841 4081 3841 3531 
Q 3841 3044 3547 2687 
Q 3253 2331 2772 2241 
z
" transform="scale(0.015625)"/>
       <path id="DejaVuSans-2f" d="M 1625 4666 
L 2156 4666 
L 531 -594 
L 0 -594 
L 1625 4666 
z
" transform="scale(0.015625)"/>
       <path id="DejaVuSans-73" d="M 2834 3397 
L 2834 2853 
Q 2591 2978 2328 3040 
Q 2066 3103 1784 3103 
Q 1356 3103 1142 2972 
Q 928 2841 928 2578 
Q 928 2378 1081 2264 
Q 1234 2150 1697 2047 
L 1894 2003 
Q 2506 1872 2764 1633 
Q 3022 1394 3022 966 
Q 3022 478 2636 193 
Q 2250 -91 1575 -91 
Q 1294 -91 989 -36 
Q 684 19 347 128 
L 347 722 
Q 666 556 975 473 
Q 1284 391 1588 391 
Q 1994 391 2212 530 
Q 2431 669 2431 922 
Q 2431 1156 2273 1281 
Q 2116 1406 1581 1522 
L 1381 1569 
Q 847 1681 609 1914 
Q 372 2147 372 2553 
Q 372 3047 722 3315 
Q 1072 3584 1716 3584 
Q 2034 3584 2315 3537 
Q 2597 3491 2834 3397 
z
" transform="scale(0.015625)"/>
      </defs>
      <use xlink:href="#DejaVuSans-Oblique-52" transform="translate(0 0.015625)"/>
      <use xlink:href="#DejaVuSans-20" transform="translate(69.482422 0.015625)"/>
      <use xlink:href="#DejaVuSans-5b" transform="translate(101.269531 0.015625)"/>
      <use xlink:href="#DejaVuSans-31" transform="translate(140.283203 0.015625)"/>
      <use xlink:href="#DejaVuSans-2f" transform="translate(203.90625 0.015625)"/>
      <use xlink:href="#DejaVuSans-73" transform="translate(237.597656 0.015625)"/>
      <use xlink:href="#DejaVuSans-5d" transform="translate(289.697266 0.015625)"/>
     </g>
    </g>
   </g>
   <g id="line2d_21">
    <path d="M 73.832727 294.566205 
L 75.244269 295.078313 
L 76.65581 295.078313 
L 78.067352 294.566205 
L 79.478893 295.078313 
L 80.890435 294.668627 
L 82.301976 295.180735 
L 83.713518 294.25894 
L 85.125059 294.87347 
L 86.536601 293.849253 
L 89.359684 294.566205 
L 90.771225 294.463783 
L 92.182767 295.488 
L 93.594308 294.361362 
L 95.00585 294.361362 
L 96.417391 294.156518 
L 97.828933 294.156518 
L 99.240474 293.541988 
L 100.652016 294.156518 
L 102.063557 294.361362 
L 103.475099 293.541988 
L 104.88664 293.337145 
L 106.298182 293.64441 
L 107.709723 292.210506 
L 109.121265 293.64441 
L 110.532806 292.722615 
L 111.944348 293.64441 
L 113.355889 290.776603 
L 114.767431 285.757941 
L 116.178972 278.99811 
L 117.590514 272.955231 
L 119.002055 270.394689 
L 120.413597 266.809931 
L 121.825138 261.996112 
L 123.23668 262.50822 
L 124.648221 258.616196 
L 126.059763 257.079871 
L 127.471304 255.338703 
L 128.882846 252.470896 
L 130.294387 256.772606 
L 131.705929 257.182293 
L 133.11747 257.387136 
L 134.529012 256.567763 
L 135.940553 251.856366 
L 137.352095 251.139414 
L 138.763636 255.441124 
L 140.175178 254.416908 
L 141.586719 252.368474 
L 142.998261 257.182293 
L 144.409802 254.929016 
L 145.821344 256.055655 
L 147.232885 252.778161 
L 148.644427 255.338703 
L 150.055968 253.495113 
L 151.46751 255.236281 
L 152.879051 253.904799 
L 154.290593 259.537992 
L 155.702134 258.20651 
L 157.113676 258.001666 
L 158.525217 258.001666 
L 159.936759 260.66463 
L 161.3483 261.27916 
L 162.759842 260.254943 
L 164.171383 260.66463 
L 165.582925 259.43557 
L 166.994466 252.573318 
L 168.406008 238.746391 
L 169.817549 211.297382 
L 171.229091 204.127865 
L 172.640632 222.461345 
L 174.052174 245.813487 
L 175.463715 258.513775 
L 176.875257 260.0501 
L 178.286798 254.519329 
L 179.69834 257.489558 
L 181.109881 261.381582 
L 182.521423 258.513775 
L 183.932964 221.027441 
L 185.344506 122.088102 
L 186.756047 53.568 
L 188.167589 112.972572 
L 189.57913 192.144528 
L 190.990672 253.699956 
L 192.402213 260.971895 
L 193.813755 260.0501 
L 195.225296 263.942124 
L 196.636838 265.273605 
L 198.048379 263.73728 
L 199.459921 266.707509 
L 200.871462 265.683292 
L 202.283004 272.033436 
L 203.694545 271.009219 
L 205.106087 270.906798 
L 206.517628 274.389135 
L 207.92917 273.160075 
L 209.340711 272.955231 
L 210.752253 274.491556 
L 212.163794 276.847255 
L 213.575336 273.057653 
L 214.986877 275.106086 
L 216.398419 276.847255 
L 217.80996 276.335146 
L 219.221502 279.510218 
L 220.633043 276.847255 
L 222.044585 278.178737 
L 223.456126 279.715062 
L 224.867668 279.202953 
L 226.279209 280.8417 
L 227.690751 281.046544 
L 229.102292 277.76905 
L 230.513834 282.992555 
L 231.925375 283.197399 
L 233.336917 285.450676 
L 234.748458 284.119194 
L 236.16 284.426459 
L 240.394625 286.065206 
L 241.806166 284.938567 
L 243.217708 287.089423 
L 246.040791 285.962784 
L 247.452332 286.679736 
L 248.863874 286.372471 
L 250.275415 287.703953 
L 253.098498 287.089423 
L 254.51004 284.938567 
L 255.921581 287.703953 
L 257.333123 289.137856 
L 258.744664 288.216061 
L 260.156206 287.806374 
L 262.979289 289.854808 
L 264.39083 286.372471 
L 265.802372 287.806374 
L 267.213913 289.752386 
L 268.625455 288.113639 
L 270.036996 289.035434 
L 271.448538 288.933013 
L 272.860079 288.625748 
L 274.271621 286.679736 
L 275.683162 288.933013 
L 277.094704 289.649964 
L 278.506245 289.547543 
L 279.917787 288.728169 
L 281.329328 289.035434 
L 282.74087 290.366916 
L 284.152411 287.089423 
L 285.563953 288.523326 
L 286.975494 287.908796 
L 288.387036 290.264494 
L 289.798577 290.059651 
L 291.210119 288.728169 
L 292.62166 289.547543 
L 294.033202 290.674181 
L 295.444743 288.216061 
L 296.856285 286.474892 
L 298.267826 288.011218 
L 299.679368 286.270049 
L 301.090909 282.68529 
L 302.502451 282.173182 
L 303.913992 285.450676 
L 305.325534 289.445121 
L 306.737075 290.674181 
L 308.148617 289.547543 
L 309.560158 289.957229 
L 310.9717 289.957229 
L 312.383241 290.776603 
L 313.794783 288.933013 
L 315.206324 289.957229 
L 316.617866 289.957229 
L 318.029407 290.674181 
L 319.440949 291.18629 
L 322.264032 289.342699 
L 326.498656 289.957229 
L 327.910198 291.18629 
L 329.321739 289.240278 
L 330.733281 289.342699 
L 332.144822 284.733724 
L 333.556364 266.400244 
L 334.967905 260.459787 
L 336.379447 260.869473 
L 337.790988 276.642412 
L 339.20253 284.016772 
L 340.614071 290.162073 
L 342.025613 289.957229 
L 343.437154 292.108085 
L 344.848696 290.059651 
L 346.260237 290.776603 
L 347.671779 293.234723 
L 349.08332 291.698398 
L 350.494862 291.80082 
L 351.906403 290.059651 
L 353.317945 292.41535 
L 354.729486 290.162073 
L 356.141028 290.674181 
L 357.552569 290.57176 
L 358.964111 292.005663 
L 360.375652 291.595976 
L 361.787194 293.541988 
L 363.198735 292.517771 
L 364.610277 292.620193 
L 366.021818 290.981446 
L 367.43336 291.903241 
L 368.844901 291.18629 
L 370.256443 291.80082 
L 373.079526 292.108085 
L 374.491067 292.517771 
L 375.902609 292.005663 
L 377.31415 292.312928 
L 378.725692 292.210506 
L 380.137233 292.620193 
L 381.548775 292.825036 
L 382.960316 292.312928 
L 384.371858 290.879025 
L 385.783399 292.825036 
L 387.194941 293.234723 
L 388.606482 292.722615 
L 390.018024 291.80082 
L 391.429565 292.722615 
L 392.841107 291.903241 
L 394.252648 293.337145 
L 395.66419 292.825036 
L 397.075731 292.825036 
L 398.487273 292.620193 
L 398.487273 292.620193 
" clip-path="url(#p7d086c4bce)" style="fill: none; stroke: #1f77b4; stroke-width: 1.5; stroke-linecap: square"/>
   </g>
   <g id="line2d_22">
    <path d="M 186.756047 307.584 
L 186.756047 41.472 
" clip-path="url(#p7d086c4bce)" style="fill: none; stroke-dasharray: 5.55,2.4; stroke-dashoffset: 0; stroke: #ff0000; stroke-width: 1.5"/>
   </g>
   <g id="line2d_23">
    <path d="M 334.967905 307.584 
L 334.967905 41.472 
" clip-path="url(#p7d086c4bce)" style="fill: none; stroke-dasharray: 5.55,2.4; stroke-dashoffset: 0; stroke: #ff0000; stroke-width: 1.5"/>
   </g>
   <g id="line2d_24">
    <path d="M 171.229091 307.584 
L 171.229091 41.472 
" clip-path="url(#p7d086c4bce)" style="fill: none; stroke-dasharray: 5.55,2.4; stroke-dashoffset: 0; stroke: #0000ff; stroke-width: 1.5"/>
   </g>
   <g id="line2d_25">
    <path d="M 302.502451 307.584 
L 302.502451 41.472 
" clip-path="url(#p7d086c4bce)" style="fill: none; stroke-dasharray: 5.55,2.4; stroke-dashoffset: 0; stroke: #0000ff; stroke-width: 1.5"/>
   </g>
   <g id="patch_3">
    <path d="M 57.6 307.584 
L 57.6 41.472 
" style="fill: none; stroke: #000000; stroke-width: 0.8; stroke-linejoin: miter; stroke-linecap: square"/>
   </g>
   <g id="patch_4">
    <path d="M 414.72 307.584 
L 414.72 41.472 
" style="fill: none; stroke: #000000; stroke-width: 0.8; stroke-linejoin: miter; stroke-linecap: square"/>
   </g>
   <g id="patch_5">
    <path d="M 57.6 307.584 
L 414.72 307.584 
" style="fill: none; stroke: #000000; stroke-width: 0.8; stroke-linejoin: miter; stroke-linecap: square"/>
   </g>
   <g id="patch_6">
    <path d="M 57.6 41.472 
L 414.72 41.472 
" style="fill: none; stroke: #000000; stroke-width: 0.8; stroke-linejoin: miter; stroke-linecap: square"/>
   </g>
   <g id="legend_1">
    <g id="patch_7">
     <path d="M 337.02 94.52825 
L 407.72 94.52825 
Q 409.72 94.52825 409.72 92.52825 
L 409.72 48.472 
Q 409.72 46.472 407.72 46.472 
L 337.02 46.472 
Q 335.02 46.472 335.02 48.472 
L 335.02 92.52825 
Q 335.02 94.52825 337.02 94.52825 
z
" style="fill: #ffffff; opacity: 0.8; stroke: #cccccc; stroke-linejoin: miter"/>
    </g>
    <g id="line2d_26">
     <path d="M 339.02 54.570438 
L 349.02 54.570438 
L 359.02 54.570438 
" style="fill: none; stroke: #1f77b4; stroke-width: 1.5; stroke-linecap: square"/>
    </g>
    <g id="text_13">
     <!-- LiF -->
     <g transform="translate(367.02 58.070438) scale(0.1 -0.1)">
      <defs>
       <path id="DejaVuSans-4c" d="M 628 4666 
L 1259 4666 
L 1259 531 
L 3531 531 
L 3531 0 
L 628 0 
L 628 4666 
z
" transform="scale(0.015625)"/>
       <path id="DejaVuSans-69" d="M 603 3500 
L 1178 3500 
L 1178 0 
L 603 0 
L 603 3500 
z
M 603 4863 
L 1178 4863 
L 1178 4134 
L 603 4134 
L 603 4863 
z
" transform="scale(0.015625)"/>
       <path id="DejaVuSans-46" d="M 628 4666 
L 3309 4666 
L 3309 4134 
L 1259 4134 
L 1259 2759 
L 3109 2759 
L 3109 2228 
L 1259 2228 
L 1259 0 
L 628 0 
L 628 4666 
z
" transform="scale(0.015625)"/>
      </defs>
      <use xlink:href="#DejaVuSans-4c"/>
      <use xlink:href="#DejaVuSans-69" transform="translate(55.712891 0)"/>
      <use xlink:href="#DejaVuSans-46" transform="translate(83.496094 0)"/>
     </g>
    </g>
    <g id="line2d_27">
     <path d="M 339.02 69.248563 
L 349.02 69.248563 
L 359.02 69.248563 
" style="fill: none; stroke-dasharray: 5.55,2.4; stroke-dashoffset: 0; stroke: #ff0000; stroke-width: 1.5"/>
    </g>
    <g id="text_14">
     <!-- $K_\alpha$-Linie -->
     <g transform="translate(367.02 72.748563) scale(0.1 -0.1)">
      <defs>
       <path id="DejaVuSans-Oblique-4b" d="M 1081 4666 
L 1716 4666 
L 1331 2700 
L 3781 4666 
L 4622 4666 
L 1850 2438 
L 3878 0 
L 3109 0 
L 1247 2272 
L 806 0 
L 172 0 
L 1081 4666 
z
" transform="scale(0.015625)"/>
       <path id="DejaVuSans-Oblique-3b1" d="M 2619 1628 
L 2622 2350 
Q 2625 3088 2069 3091 
Q 1653 3094 1394 2747 
Q 1069 2319 959 1747 
Q 825 1059 994 731 
Q 1169 397 1547 397 
Q 1966 397 2319 1063 
L 2619 1628 
z
M 2166 3578 
Q 3141 3594 3128 2584 
Q 3128 2584 3616 3500 
L 4128 3500 
L 3119 1603 
L 3109 919 
Q 3109 766 3194 638 
Q 3291 488 3391 488 
L 3669 488 
L 3575 0 
L 3228 0 
Q 2934 0 2722 263 
Q 2622 394 2619 669 
Q 2416 334 2066 50 
Q 1900 -81 1453 -78 
Q 722 -72 456 397 
Q 184 884 353 1747 
Q 534 2675 1009 3097 
Q 1544 3569 2166 3578 
z
" transform="scale(0.015625)"/>
       <path id="DejaVuSans-2d" d="M 313 2009 
L 1997 2009 
L 1997 1497 
L 313 1497 
L 313 2009 
z
" transform="scale(0.015625)"/>
       <path id="DejaVuSans-6e" d="M 3513 2113 
L 3513 0 
L 2938 0 
L 2938 2094 
Q 2938 2591 2744 2837 
Q 2550 3084 2163 3084 
Q 1697 3084 1428 2787 
Q 1159 2491 1159 1978 
L 1159 0 
L 581 0 
L 581 3500 
L 1159 3500 
L 1159 2956 
Q 1366 3272 1645 3428 
Q 1925 3584 2291 3584 
Q 2894 3584 3203 3211 
Q 3513 2838 3513 2113 
z
" transform="scale(0.015625)"/>
       <path id="DejaVuSans-65" d="M 3597 1894 
L 3597 1613 
L 953 1613 
Q 991 1019 1311 708 
Q 1631 397 2203 397 
Q 2534 397 2845 478 
Q 3156 559 3463 722 
L 3463 178 
Q 3153 47 2828 -22 
Q 2503 -91 2169 -91 
Q 1331 -91 842 396 
Q 353 884 353 1716 
Q 353 2575 817 3079 
Q 1281 3584 2069 3584 
Q 2775 3584 3186 3129 
Q 3597 2675 3597 1894 
z
M 3022 2063 
Q 3016 2534 2758 2815 
Q 2500 3097 2075 3097 
Q 1594 3097 1305 2825 
Q 1016 2553 972 2059 
L 3022 2063 
z
" transform="scale(0.015625)"/>
      </defs>
      <use xlink:href="#DejaVuSans-Oblique-4b" transform="translate(0 0.015625)"/>
      <use xlink:href="#DejaVuSans-Oblique-3b1" transform="translate(65.576172 -16.390625) scale(0.7)"/>
      <use xlink:href="#DejaVuSans-2d" transform="translate(114.453125 0.015625)"/>
      <use xlink:href="#DejaVuSans-4c" transform="translate(150.537109 0.015625)"/>
      <use xlink:href="#DejaVuSans-69" transform="translate(206.25 0.015625)"/>
      <use xlink:href="#DejaVuSans-6e" transform="translate(234.033203 0.015625)"/>
      <use xlink:href="#DejaVuSans-69" transform="translate(297.412109 0.015625)"/>
      <use xlink:href="#DejaVuSans-65" transform="translate(325.195312 0.015625)"/>
     </g>
    </g>
    <g id="line2d_28">
     <path d="M 339.02 83.92825 
L 349.02 83.92825 
L 359.02 83.92825 
" style="fill: none; stroke-dasharray: 5.55,2.4; stroke-dashoffset: 0; stroke: #0000ff; stroke-width: 1.5"/>
    </g>
    <g id="text_15">
     <!-- $K_\beta$-Linie -->
     <g transform="translate(367.02 87.42825) scale(0.1 -0.1)">
      <use xlink:href="#DejaVuSans-Oblique-4b" transform="translate(0 0.015625)"/>
      <use xlink:href="#DejaVuSans-Oblique-3b2" transform="translate(65.576172 -16.390625) scale(0.7)"/>
      <use xlink:href="#DejaVuSans-2d" transform="translate(112.983398 0.015625)"/>
      <use xlink:href="#DejaVuSans-4c" transform="translate(149.067383 0.015625)"/>
      <use xlink:href="#DejaVuSans-69" transform="translate(204.780273 0.015625)"/>
      <use xlink:href="#DejaVuSans-6e" transform="translate(232.563477 0.015625)"/>
      <use xlink:href="#DejaVuSans-69" transform="translate(295.942383 0.015625)"/>
      <use xlink:href="#DejaVuSans-65" transform="translate(323.725586 0.015625)"/>
     </g>
    </g>
   </g>
  </g>
 </g>
 <defs>
  <clipPath id="p7d086c4bce">
   <rect x="57.6" y="41.472" width="357.12" height="266.112"/>
  </clipPath>
 </defs>
</svg>
